<svg xmlns="http://www.w3.org/2000/svg" viewBox="0 0 108.07 103.64"><defs><style>.cls-1{fill:#2a0b1e;}.cls-1,.cls-2,.cls-3,.cls-4,.cls-5,.cls-6,.cls-7{fill-rule:evenodd;}.cls-2{fill:#ff532b;}.cls-3{fill:#962934;}.cls-4{fill:#feda3b;}.cls-5{fill:#ffb72f;}.cls-6{fill:#fbf5df;}.cls-7{fill:#8b2322;}</style></defs><g id="Capa_2" data-name="Capa 2"><g id="Layer_1" data-name="Layer 1"><path class="cls-1" d="M36.69,24.28c-.51.67-1.33,1.22-3.33,1.32a51.1,51.1,0,0,1-7.78-.49c-2.57-.32-4.48-.64-5.9-.83s-2.35-.27-1.7.33a33.16,33.16,0,0,1,4.13,3.26c1.19,1.37,1.29,2.82,1.56,4.52s.64,3.65.78,5.37a17.69,17.69,0,0,1-.21,4.53,34.63,34.63,0,0,1-1,4,23.75,23.75,0,0,0-1,5,10.43,10.43,0,0,0,1.06,5.26,18.55,18.55,0,0,0,3.28,4.5c1.06,1.12,1.86,1.67,2.09,2.83a19.1,19.1,0,0,1-.3,4.79,21.79,21.79,0,0,0-.07,5.6A17.7,17.7,0,0,0,30,79.92a16.67,16.67,0,0,0,3.63,4.66,65.2,65.2,0,0,0,6.09,5.21,17.55,17.55,0,0,0,5,2.66,41.2,41.2,0,0,0,6.18,1.38,57.67,57.67,0,0,0,8.65,1A13.74,13.74,0,0,0,66,93.3a23.18,23.18,0,0,0,5.92-4.11,22.66,22.66,0,0,0,3.9-5.35,16.7,16.7,0,0,1,2.51-4,3.23,3.23,0,0,1,3.86-.46,22.67,22.67,0,0,1,5.53,4.19c1.74,1.67,3.1,3.19,3.79,3.46s.68-.69.3-2.2-1.11-3.54-1.47-4.87-.37-2,0-2.6a7.39,7.39,0,0,1,2.11-2.2c1.06-.82,2.46-1.75,3.74-2.85a19.58,19.58,0,0,0,3.34-3.71A25.59,25.59,0,0,0,102,63.8a23.08,23.08,0,0,0,1.77-6.27,9.63,9.63,0,0,0-1-5c-.67-1.54-1.54-3.1-2.25-4.61A24.69,24.69,0,0,0,98,43.3a41.48,41.48,0,0,0-4.57-4.94c-1.54-1.47-2.8-2.55-3.63-3.44a5.49,5.49,0,0,1-1.58-2.58c-.29-1.07-.44-2.52-1-4.5a18.68,18.68,0,0,0-3.33-6.72,23,23,0,0,0-7.23-5.46,31.93,31.93,0,0,0-9.43-3,47.23,47.23,0,0,0-11.32-.43,34.63,34.63,0,0,0-8.89,2,18.12,18.12,0,0,0-5.76,3.25A15.67,15.67,0,0,0,38,21.62a21.17,21.17,0,0,1-1.35,2.66Z"/><polygon class="cls-2" points="69.38 24.4 98.27 10.33 79.21 40.33 69.38 24.4"/><polygon class="cls-2" points="24.61 73.37 42.25 70.25 34.6 61.2 24.61 73.37"/><path class="cls-2" d="M68.76,77.5,98.47,95.41Q91.35,80.34,84.19,65.29H70.64C70,69.36,69.4,73.42,68.76,77.5Z"/><polygon class="cls-2" points="29.73 43.66 10.82 18.64 42.31 31.54 29.73 43.66"/><path class="cls-3" d="M40.93,28.33a45,45,0,0,0-6.31,2.5,19.26,19.26,0,0,0-6.38,4.94,15.53,15.53,0,0,0-2.92,7.75,18.74,18.74,0,0,0,1,8.25c1,2.66,2.54,5.16,3.72,7.65A24.28,24.28,0,0,1,32.44,67c.3,2.55.11,5.16.25,8s.69,5.83,2.16,7.85,3.93,3,6.54,4.43a91,91,0,0,0,8.23,4.5,19.11,19.11,0,0,0,9.11,1.45,24.07,24.07,0,0,0,9.64-2.87A15.33,15.33,0,0,0,74.52,84C76,81.3,77,78,78.32,76.06s3.07-2.57,5.34-2.8,5.08-.09,7.83-.92a14.48,14.48,0,0,0,7.28-5.1,12.56,12.56,0,0,0,2.16-9.43,31.89,31.89,0,0,0-4.68-12A17.94,17.94,0,0,0,89,39.14c-2.54-1.22-5.09-1.63-6-2.22s-.11-1.29,0-3.38a29.49,29.49,0,0,0-1.53-8.61c-1-3.1-2.25-5.86-4.78-7.92a23.94,23.94,0,0,0-9.53-4.13,26.54,26.54,0,0,0-8.59-.46,21.29,21.29,0,0,0-7.16,2,19.83,19.83,0,0,0-5.76,4.27,19.23,19.23,0,0,0-3.52,5.21,18.14,18.14,0,0,0-1.24,4.44Z"/><path class="cls-2" d="M67.32,35.45a9.6,9.6,0,0,0-3.06-2.51,9.81,9.81,0,0,0-7.51-1.12,7.62,7.62,0,0,0-3.14,1.53,11.41,11.41,0,0,0-2.2,2.53c-.55.8-.88,1.43-.62,1.82s1.17.55,2.16.68a15.59,15.59,0,0,0,3.32.12c1.18-.12,2.44-.46,3.91-.72s3.16-.45,4.31-.55a8.12,8.12,0,0,0,2.28-.36c.54-.25,1-.69.55-1.42ZM83.91,51.86a6,6,0,0,0-2.1-3.53,2,2,0,0,0-2.76.31,10.83,10.83,0,0,0-2.6,4.25,24.18,24.18,0,0,0-1,5,7.17,7.17,0,0,0,0,3.16,3.85,3.85,0,0,0,1.83,1.89,2.84,2.84,0,0,0,2.65.37,6.14,6.14,0,0,0,2.47-2.72,15.6,15.6,0,0,0,1.31-4,12.27,12.27,0,0,0,.25-4.71ZM61,42.51a18.1,18.1,0,0,1-4,.62c-1.5,0-3-.2-4.21.31a5.4,5.4,0,0,0-2.73,3.16,6.74,6.74,0,0,0-.22,4.32A26.9,26.9,0,0,0,52,55.1,35.76,35.76,0,0,1,54,60a25.2,25.2,0,0,0,1.43,3.67,5.87,5.87,0,0,0,2.25,2.42,5.11,5.11,0,0,0,3.39.36,37.24,37.24,0,0,0,4.58-1.21,39.53,39.53,0,0,0,4.31-1.47,9.09,9.09,0,0,0,3.51-2.39,9,9,0,0,0,1.64-4.06,23.94,23.94,0,0,0,.61-5.61,13.65,13.65,0,0,0-1.1-4.93,11.31,11.31,0,0,0-2.09-3.38,9.4,9.4,0,0,0-2.38-1.74,6.1,6.1,0,0,0-2.28-.87,9.2,9.2,0,0,0-2.59.39c-.87.2-1.7.39-2.3.59s-1,.44-1.91.73ZM44.75,50.94c-.33-1.24-.65-2-1.33-2.25s-1.66-.13-2.19,1.31a13.87,13.87,0,0,0-.34,5.86A4,4,0,0,0,42.75,59a10,10,0,0,0,3.38,1.49c.94.18,1.33-.12,1.19-.62a21.83,21.83,0,0,0-1.12-2,10.86,10.86,0,0,1-.56-2.75c-.2-1.26-.55-3-.89-4.23ZM36.62,64.88c-.39-.67-.83-1.58-1.42-2.8s-1.31-2.76-1.88-3-1,.76-1.06,1.81A5.53,5.53,0,0,0,32.81,64a7.63,7.63,0,0,0,2.27,2.59,4.1,4.1,0,0,0,2.27,1c.44-.07.39-.62.19-1.12a17.54,17.54,0,0,0-.92-1.61Zm16.51,6.57c-1.06-.55-2.32-1.17-3.31-1.61a5.71,5.71,0,0,0-2.5-.67,1.51,1.51,0,0,0-1.58,1.31,5.7,5.7,0,0,0,.91,3.37,5.31,5.31,0,0,0,2.67,1.82,23,23,0,0,0,4.24,1.47A7.9,7.9,0,0,0,57.35,77a4.49,4.49,0,0,0,2.37-1.46c.36-.55.18-1.13-.53-1.56a24.61,24.61,0,0,0-3-1.09,22.77,22.77,0,0,1-3-1.39Z"/><path class="cls-4" d="M29.27,35.49c.69.16,1.08-.37,1.59-.8a5.8,5.8,0,0,0,1.49-1.34,1.69,1.69,0,0,0-.23-2.11c-.67-.69-2.07-1.24-4.73-2.8s-6.57-4.15-9.44-6-4.73-3-6.17-3.79-2.5-1.38-2.07-.71,2.34,2.59,3.56,3.94a37.09,37.09,0,0,0,3.86,4c2.11,1.88,5.74,4.82,8.08,6.7s3.35,2.73,4.06,2.89Z"/><path class="cls-4" d="M34.09,65.8a1.82,1.82,0,0,0-1.33.6c-.5.47-1.1,1.21-1.84,1.94a17.36,17.36,0,0,1-2.73,2.19c-1.12.73-2.48,1.51-3.35,2.16s-1.21,1.17-1,1.23a15.63,15.63,0,0,0,2.43-1c1.54-.67,3.91-1.61,5.53-2.25s2.44-1,3.1-1.36a5.33,5.33,0,0,0,1.38-.87.7.7,0,0,0,.07-.9,4.56,4.56,0,0,0-1-1,2.63,2.63,0,0,0-1.2-.66Z"/><path class="cls-4" d="M54,62.21a2.27,2.27,0,0,0-1.35-.91c-.47-.09-1,.11-1.72.91s-1.7,2.14-3.63,4.28S42.48,71.6,41,73.19s-1.61,1.79-.67,1.22,2.94-2,5.2-3.43,4.77-3,6.29-4.11a11.77,11.77,0,0,0,2.43-2.06c.35-.42.57-.69.51-1.13A3.15,3.15,0,0,0,54,62.21Z"/><path class="cls-4" d="M96.54,94.34c-1.76-1.43-4.86-4.18-8.65-7.61s-8.22-7.57-10.65-10-2.8-3-3-3.67a2.48,2.48,0,0,1,.23-2,3.47,3.47,0,0,1,1.81-1.4c.65-.18,1.2,0,2.62,1.65s3.76,4.62,6.8,8.25,6.82,7.89,9.39,10.9S99,95.32,99.5,96s0,.41-.38.16a13.84,13.84,0,0,1-2.58-1.86Z"/><path class="cls-4" d="M74.89,51.45c1.29-.46,3.7-1.4,6-2.21s4.44-1.51,5.33-1.9.46-.46-1-.46-4.11,0-6.45.11-4.41.16-5.56.33-1.42.41-1.31.93a15.8,15.8,0,0,0,.87,1.91c.28.65.39,1.19.53,1.47s.33.28,1.63-.18Z"/><path class="cls-4" d="M61.83,41.73A25.71,25.71,0,0,0,62,37.05c0-1.51-.14-2.45-.23-3.42s-.19-2-.51-2.18-.85.32-1.68,2.13a49.11,49.11,0,0,0-2.43,6.5c-.43,1.61-.14,1.75.25,1.93a7.68,7.68,0,0,0,1.47.53,10.32,10.32,0,0,0,1.8.23c.55,0,1,0,1.19-1Z"/><path class="cls-4" d="M83.5,26.45c-3.72,3.62-4.77,4.1-5.32,4s-.63-.78-1.06-1.24a3.71,3.71,0,0,0-1.77-.85c-.59-.16-1-.23-1.12-.51s.21-.78,4.09-3.69S89.68,15.93,93.77,13a57.82,57.82,0,0,1,5.3-3.62c.48-.23.69-.18-2.41,3.24S87.2,22.82,83.5,26.45Z"/><path class="cls-5" d="M57.84,53.67a17.18,17.18,0,0,0-1-2.13,15.31,15.31,0,0,0-1.13-1.91c-.3-.39-.46-.34-.58.21a22.9,22.9,0,0,0-.31,2.44,9.12,9.12,0,0,0,0,2.29,5.81,5.81,0,0,0,1,2.3,5.65,5.65,0,0,0,2.26,1.9,5.57,5.57,0,0,0,2.43.57c.37-.07,0-.38-.53-.68a4.08,4.08,0,0,1-1.4-1,4.36,4.36,0,0,1-.19-1.72,9.37,9.37,0,0,0-.54-2.26Z"/><path class="cls-5" d="M61.44,55.4a18.39,18.39,0,0,1-1.13-2.11c-.41-.74-.82-1.29-.8-1.68s.5-.62,1.28-.74,1.82-.16,2.71-.34,1.54-.48,1.7-1a3.73,3.73,0,0,0-.53-2c-.34-.74-.62-1.47-.45-1.82s.8-.32,1.9.55a24.49,24.49,0,0,1,3.72,3.9,7.47,7.47,0,0,1,1.66,3.36,3.49,3.49,0,0,1-.69,2.82,9,9,0,0,1-2.94,2.2,10,10,0,0,1-2.64.95c-.58.09-.8,0-.71-.37s.5-.89.75-1.51a2.93,2.93,0,0,0,.23-1.87,1.66,1.66,0,0,0-1-1.19c-.41-.12-.77.14-1.12.39a7.59,7.59,0,0,1-1,.69.62.62,0,0,1-.94-.18Z"/><path class="cls-4" d="M101.76,101.54a2.51,2.51,0,0,1-1-1.33,3.08,3.08,0,0,1,.07-1.81c.2-.35.52-.25,1.17-.12a8.7,8.7,0,0,1,2.25.6,1.4,1.4,0,0,1,.85,1.27,1.83,1.83,0,0,1-.65,1.33,2.22,2.22,0,0,1-1.42.5,2.09,2.09,0,0,1-1.28-.44Z"/><path class="cls-1" d="M101.43,101.15a6.8,6.8,0,0,0,.48,1.52,1.06,1.06,0,0,0,.85.64c.46.1,1.22.21,1.73.28a3.4,3.4,0,0,0,1.05,0,.81.81,0,0,0,.64-.39,3.18,3.18,0,0,0,.26-1.13,4.18,4.18,0,0,0-.07-1.08,2.14,2.14,0,0,0-.35-.94,4.44,4.44,0,0,0-.71-.62,2,2,0,0,0-.76-.5,4.63,4.63,0,0,0-1.46-.11,4.2,4.2,0,0,0-1.41.32c-.31.18-.34.41-.36.73a4.65,4.65,0,0,0,.11,1.26Z"/><path class="cls-3" d="M104.7,100.15A2.11,2.11,0,0,0,104,99a1.87,1.87,0,0,0-1.24-.35,2.46,2.46,0,0,0-1.33.44,1.62,1.62,0,0,0-.6,1.14,2.28,2.28,0,0,0,.34,1.13,1.51,1.51,0,0,0,.57.58,2.15,2.15,0,0,0,1,.34,2.71,2.71,0,0,0,1.17-.12,1.21,1.21,0,0,0,.81-.68,2.24,2.24,0,0,0,0-1.33Z"/><path class="cls-6" d="M103.36,100.05a1.64,1.64,0,0,1-.41.78.84.84,0,0,1-.74.28,1,1,0,0,1-.78-.51,1.37,1.37,0,0,1-.18-1,1.26,1.26,0,0,1,.53-.74.68.68,0,0,1,.69,0,2.83,2.83,0,0,1,.71.57.73.73,0,0,1,.18.62Z"/><path class="cls-1" d="M103,2.06a3.14,3.14,0,0,1,.59-.92A3.65,3.65,0,0,1,104.63.5,4.24,4.24,0,0,1,105.89,0a1.4,1.4,0,0,1,1.19.34,3.13,3.13,0,0,1,.65,1.17,4.82,4.82,0,0,1,.34.94.63.63,0,0,1-.3.58,4.38,4.38,0,0,1-1.06.6,6.29,6.29,0,0,1-1.39.46,2,2,0,0,1-1.2,0A3.43,3.43,0,0,1,103,3.37a1,1,0,0,1-.34-.73,1.41,1.41,0,0,1,.25-.58Z"/><path class="cls-4" d="M105.57,4.2a6.75,6.75,0,0,1-1.93,1.1c-.76.23-1.58.21-1.88-.16s-.14-1.06.29-1.82a4.21,4.21,0,0,1,1.77-1.86,1.81,1.81,0,0,1,1.93.28,2,2,0,0,1,.55,1.49c0,.42-.25.62-.73,1Z"/><path class="cls-3" d="M104.35,1a3.38,3.38,0,0,0-1,.37,3.19,3.19,0,0,0-1,1A3.33,3.33,0,0,0,102,3.51c0,.34,0,.55.12.71a2.69,2.69,0,0,0,.87.3,5.49,5.49,0,0,0,1,.14,3.7,3.7,0,0,0,1.1-.1,2.33,2.33,0,0,0,.87-.46,1.6,1.6,0,0,0,.48-.78,1.88,1.88,0,0,0,0-.91,1.4,1.4,0,0,0-.26-.69,2.06,2.06,0,0,0-.57-.53A2.75,2.75,0,0,0,105,1a1,1,0,0,0-.32,0,1,1,0,0,0-.32.06Z"/><path class="cls-6" d="M103.54,2.45a1.08,1.08,0,0,0-.34.78,1.12,1.12,0,0,0,.32.72.93.93,0,0,0,.71.31,2.07,2.07,0,0,0,1-.27,1.47,1.47,0,0,0,.6-.82.76.76,0,0,0,0-.65,1,1,0,0,0-.59-.32,2.87,2.87,0,0,0-.9-.09,1.51,1.51,0,0,0-.83.34Z"/><path class="cls-1" d="M3.74,13.79a2.08,2.08,0,0,1-1.3.05A3.33,3.33,0,0,1,1.38,13a6.45,6.45,0,0,1-.76-.89,4.2,4.2,0,0,1-.43-1.06A5.84,5.84,0,0,1,0,9.77,2,2,0,0,1,.28,8.7a1.73,1.73,0,0,1,.85-.6,2.41,2.41,0,0,1,1.05.09c.39.09.85.19,1.26.3a3.68,3.68,0,0,1,1,.39,1.53,1.53,0,0,1,.64.67,3.4,3.4,0,0,1,.27,1,5.52,5.52,0,0,1,0,1.28,2.78,2.78,0,0,1-.51,1.26,2.42,2.42,0,0,1-1.1.71Z"/><path class="cls-3" d="M4.48,13.41a3.2,3.2,0,0,1-1.73.18,1.88,1.88,0,0,1-1.44-.95,2.75,2.75,0,0,1-.09-1.9A1.87,1.87,0,0,1,2.39,9.52a2.92,2.92,0,0,1,2,0A2.07,2.07,0,0,1,5.47,10.9a2.71,2.71,0,0,1,0,1.58,1.61,1.61,0,0,1-1,.93Z"/><path class="cls-4" d="M5.35,14.28a2,2,0,0,1-1.35.2,2,2,0,0,1-1.22-.75,2.3,2.3,0,0,1-.41-1.47,1.1,1.1,0,0,1,.66-1,1.79,1.79,0,0,1,1.35.07,3.09,3.09,0,0,1,1.32.89,1.32,1.32,0,0,1,.23,1.11,1.32,1.32,0,0,1-.58.92Z"/><path class="cls-6" d="M3.45,13.13a1.12,1.12,0,1,0,0-2.23,1.12,1.12,0,0,0,0,2.23Z"/><path class="cls-1" d="M19.33,75a9.28,9.28,0,0,0-1,.14c-.37.07-.76.13-1.06.2a.79.79,0,0,0-.71,1.08,2.1,2.1,0,0,0,.46.76,2.39,2.39,0,0,0,.62.57,1.69,1.69,0,0,0,.85.23,2.93,2.93,0,0,0,.81-.29,4.12,4.12,0,0,0,.84-.42,1.44,1.44,0,0,0,.46-.55,1,1,0,0,0,.1-.53.84.84,0,0,0-.23-.46,2.59,2.59,0,0,0-.46-.48,1.18,1.18,0,0,0-.67-.25Z"/><path class="cls-4" d="M19.22,77a1.41,1.41,0,0,1-.55-.86,1.09,1.09,0,0,1,.46-1.1,2,2,0,0,1,1.49-.25.7.7,0,0,1,.6.71,1.42,1.42,0,0,1-.35,1.06,1.86,1.86,0,0,1-1,.55.68.68,0,0,1-.69-.11Z"/><path class="cls-7" d="M18.37,77.58a1.66,1.66,0,0,1-.58-.93,1.19,1.19,0,0,1,.49-1.19,2.33,2.33,0,0,1,1.6-.27.78.78,0,0,1,.65.76,1.63,1.63,0,0,1-.37,1.16,2.37,2.37,0,0,1-1,.6.75.75,0,0,1-.75-.13Z"/><path class="cls-6" d="M19.54,77a1,1,0,0,1-.41-.41,1.24,1.24,0,0,1-.05-.74.79.79,0,0,1,.34-.53.78.78,0,0,1,.51-.18,1,1,0,0,1,.48.21.86.86,0,0,1,.28.46,1.2,1.2,0,0,1-.05.62,1,1,0,0,1-.34.5.92.92,0,0,1-.48.12.54.54,0,0,1-.28,0Z"/></g></g></svg>