<svg xmlns="http://www.w3.org/2000/svg" viewBox="0 0 183.26 169.25"><defs><style>.cls-1{fill:#2a0b1e;}.cls-1,.cls-2,.cls-3,.cls-4,.cls-5,.cls-6{fill-rule:evenodd;}.cls-2{fill:#ff532b;}.cls-3{fill:#962934;}.cls-4{fill:#feda3b;}.cls-5{fill:#ffb72f;}.cls-6{fill:#fbf5df;}</style></defs><g id="Capa_2" data-name="Capa 2"><g id="Layer_1" data-name="Layer 1"><path class="cls-1" d="M59.53,42.27a15.72,15.72,0,0,1-9.22,0,64.75,64.75,0,0,1-8.68-2.76,24.2,24.2,0,0,1-6.71-3.83,58.78,58.78,0,0,1-5.58-5.9,22.17,22.17,0,0,0-3.92-3.88c-.62-.26-.3.84.64,3.05a85.37,85.37,0,0,0,3.9,8.1c1.4,2.5,2.66,4.13,3.47,5.77a9.06,9.06,0,0,1,1.1,4.73,8.53,8.53,0,0,1-1.84,4.26,31.48,31.48,0,0,0-3.48,5.38,10.54,10.54,0,0,0-.54,6c.35,2,1.13,3.93,1.16,6.09a19.68,19.68,0,0,1-1.71,7.27c-1.05,2.76-2.45,6-3.74,9.64a45.39,45.39,0,0,0-2.66,10.86,11.28,11.28,0,0,0,1.75,7c1.17,2,2.73,4,4.06,5.9a29.19,29.19,0,0,1,3.14,5.28,8.64,8.64,0,0,1,.46,5.71A44.28,44.28,0,0,1,28,129c-1.22,2.49-2.23,4.35-1.29,3.43s3.83-4.69,6.06-6.92a14,14,0,0,1,5.1-3.48c1.33-.55,2.43-.94,2.94.16s.43,3.67,1.14,6.26a33.75,33.75,0,0,0,3.7,7.76c1.52,2.62,3.08,5.28,4.66,7.51a19.88,19.88,0,0,0,5.78,5.74,35.71,35.71,0,0,0,9.69,4.22c3.27.86,6.09.93,10.61-.08s10.79-3.13,16.49-4.92A150.08,150.08,0,0,1,109,144.3c5.31-1.05,10.77-1.68,14.65-2s6.13-.42,9.12.44a41.19,41.19,0,0,1,9.59,4.42c2.8,1.75,4.67,3.47,5.74,4s1.29-.19.49-1.56-2.56-3.4-3.89-5.31-2.2-3.72-2-5.28,1.33-2.89,2-4.61a13.19,13.19,0,0,0,.62-5.86,31,31,0,0,0-1.33-6,18.07,18.07,0,0,1-1-6.52,19,19,0,0,1,2.83-8.42c1.77-2.92,4.34-5.81,6.29-8.73A28.18,28.18,0,0,0,156,90.39a19.35,19.35,0,0,0,.36-7.66A47.81,47.81,0,0,0,154.45,73a13,13,0,0,0-4.53-6.36,57.06,57.06,0,0,0-7.69-5.12c-2.34-1.33-3.92-2-3.72-4.22s2.16-5.86,3.13-8.79a16,16,0,0,0,.85-6.68c-.1-1.57-.35-2.49.55-3.49s2.93-2,5.58-3.24,6-2.73,7.91-3.83,2.56-1.78,1-1.75A64.42,64.42,0,0,0,149.46,31a25.58,25.58,0,0,1-6.19.88,7.39,7.39,0,0,1-4.05-1.4,7.3,7.3,0,0,1-2.43-3.52,55.43,55.43,0,0,0-2.53-6.56,13.62,13.62,0,0,0-6.06-6.25,23.05,23.05,0,0,0-10.08-1.68,17.72,17.72,0,0,0-7.73,1.87,27.76,27.76,0,0,0-5.86,4.19c-1.53,1.41-2.47,2.58-3.44,3a2.64,2.64,0,0,1-2.69-.26c-.71-.52-1.1-1.3-1.84-5.41S94.73,4.34,94,1.45,92.69.19,92.62,4.53s.23,11.38.3,16.6-.07,8.68-.58,10.47-1.37,1.95-3.54,2-5.71.07-8.76.43a26.24,26.24,0,0,0-9.1,2.72c-3.48,1.69-7.85,4.35-11.41,5.48Z"/><path class="cls-2" d="M108.25,135.1l41.56,25.6q-13.08-18.88-26.13-37.8H110.13q-1,6.1-1.88,12.2ZM93.33,8.91l5.3,44.22-10.93.62Zm-68.28,127,45.46-22.8-7.65-9.08ZM46.72,72.16,17.18,36.21,59.3,60Zm58.71-15.82,65.46-26.88L117.78,78.52Z"/><path class="cls-3" d="M34,87.25a28,28,0,0,0-6,3.79,10.58,10.58,0,0,0-3.18,5.39,12.31,12.31,0,0,0,.48,7.33,54.33,54.33,0,0,0,4.73,9.18,29,29,0,0,0,4.72,6.43,16.79,16.79,0,0,0,6.57,3.72,55.09,55.09,0,0,0,8.91,1.67A60.59,60.59,0,0,1,53,132.85c.74,3.1,1.27,6.81,3,10.26a29.67,29.67,0,0,0,7.56,9.14,28,28,0,0,0,8.81,5.11,25.35,25.35,0,0,0,8.29,1.31A12.91,12.91,0,0,0,87.75,157c2.16-1.33,4.15-3.67,6.13-6a45.88,45.88,0,0,0,5.44,1.77,11.88,11.88,0,0,0,5.37.16,18.54,18.54,0,0,0,4.67-2,15.48,15.48,0,0,0,1.71-1c1.61.32,3.22.62,5.08,1.05a20.11,20.11,0,0,0,6.38.73,18.83,18.83,0,0,0,7.67-2.61A19.29,19.29,0,0,0,136,143.7a12.38,12.38,0,0,0,2.25-6.52,30.41,30.41,0,0,0-.64-8.44,19.89,19.89,0,0,0-2.34-5.7,25.29,25.29,0,0,0,7.83-2.57,19,19,0,0,0,6.15-6.25,32,32,0,0,0,3.6-8.74,44.42,44.42,0,0,0,1.88-11.16,22.21,22.21,0,0,0-2.18-9.67,35.27,35.27,0,0,0-5.62-8.21c-2.28-2.56-4.94-5-7.6-7.45a7.42,7.42,0,0,0,3.86-4.72,33.1,33.1,0,0,0,.91-12,21.77,21.77,0,0,0-3.23-9.4,24,24,0,0,0-4.69-5.44,48.25,48.25,0,0,0-4.34-3.33c.21-2.71.4-5.42-.52-7.71A11.29,11.29,0,0,0,125.68,21a17.26,17.26,0,0,0-8.89-1.78A17.67,17.67,0,0,0,109,21.89a6.51,6.51,0,0,0-2.79,3.65A43.69,43.69,0,0,0,105,29.76a26,26,0,0,0-5.81,1.79,22.82,22.82,0,0,0-5.78,3.93c-1.48,1.47-2.21,2.87-3.22,3.25s-2.32-.32-4.23-.7a44.86,44.86,0,0,0-6.72-.44,23.5,23.5,0,0,0-6.66.59,19.86,19.86,0,0,0-6.2,3A13.4,13.4,0,0,0,62.73,45a27.45,27.45,0,0,0-2,4.27,30.53,30.53,0,0,0-8.1-1.16A30.32,30.32,0,0,0,44,49.89a13.1,13.1,0,0,0-6.55,4.36,36.82,36.82,0,0,0-5,9.53,31.24,31.24,0,0,0-2.18,9.39,24,24,0,0,0,.9,8.31A23.43,23.43,0,0,0,34,87.25Z"/><path class="cls-2" d="M124.71,134.11c-.43-.85-.91-2-1.6-2.16s-1.52.74-2.32,2.09-1.47,3.19-2.16,4.54-1.31,2.25-1.56,2.88,0,1.08.94.94a9.43,9.43,0,0,0,4.22-2,9.79,9.79,0,0,0,2.87-3.88,2.72,2.72,0,0,0-.39-2.45Zm-43-89.18a19.66,19.66,0,0,0-5.41-.61,8.32,8.32,0,0,0-4,1,5.48,5.48,0,0,0-2.3,2.07,1.86,1.86,0,0,0,.3,2.06,2.88,2.88,0,0,0,2.29.86,9.12,9.12,0,0,0,3.52-.95c1.26-.57,2.54-1.35,3.67-1.86a17.2,17.2,0,0,0,2.57-1.19c.5-.41.51-1-.67-1.36Zm10,3.43a9.29,9.29,0,0,0-2.8-1.82,3.42,3.42,0,0,0-2.71.1c-.6.36-.76.93-.28,1.67a7.69,7.69,0,0,0,2.51,2.2,3,3,0,0,0,2.45.44,2.69,2.69,0,0,0,1.32-1.35c.2-.44.11-.67-.49-1.24ZM110.18,38c-.8.18-2,.19-3.19.37s-2.25.48-3.33.67a11.89,11.89,0,0,1-3.19.2c-1-.07-2-.32-2.27-.85s.39-1.42,1.85-2.13a16.17,16.17,0,0,1,5.42-1.4,6.93,6.93,0,0,1,3.73.73,4.61,4.61,0,0,1,2,1.49c.21.44-.18.76-1,.92ZM129.4,50.28c-1.26-1.33-3-3.64-4.36-5.16a11.9,11.9,0,0,0-3.59-2.92c-1.17-.6-2.47-1-3.33-1.49s-1.28-1-.85-1.4a4.54,4.54,0,0,1,3.29-.55,15.38,15.38,0,0,1,5.35,1.77,11.52,11.52,0,0,1,4,3.56,14.87,14.87,0,0,1,2.25,4.82c.34,1.44.18,2.43-.28,2.75s-1.26,0-2.5-1.38Zm9.78,36.21a36.49,36.49,0,0,0-2.32-5.07c-.94-1.61-2-2.81-2.55-3.74s-.67-1.52-.2-2,1.51-.71,3,0a10.8,10.8,0,0,1,4.64,4.81,15.47,15.47,0,0,1,1.29,7.25c-.16,1.84-.78,2.52-1.33,2.62s-1-.35-1.38-1a30.45,30.45,0,0,1-1.17-2.92ZM60.57,85.25c-1,1-2.88,2-4.23,4a19.54,19.54,0,0,0-2.62,8.19,30.88,30.88,0,0,0,.09,8.94c.44,2.59,1.27,4.5,2.72,5.58s3.49,1.33,4.75,1.7a3.17,3.17,0,0,1,2.09,1.55c.39.65.73,1.43,1.28,2.28a3.5,3.5,0,0,0,2.78,1.88c1.49.11,3.7-.57,4.84-.44s1.17,1,.88,2.28A34.72,34.72,0,0,0,72,126a17.51,17.51,0,0,0,.5,5.85,13.25,13.25,0,0,0,2.14,4.91A9.36,9.36,0,0,0,78,139.3a8.36,8.36,0,0,0,3.46,1,5.36,5.36,0,0,0,3.43-1.23,30,30,0,0,0,2.91-3.27,10.35,10.35,0,0,1,2.43-2,1.34,1.34,0,0,1,1.54-.11A14.83,14.83,0,0,0,94,135a7,7,0,0,0,3.22.37,8.18,8.18,0,0,0,3.25-1.15,31.89,31.89,0,0,0,3.82-2.62,10.81,10.81,0,0,1,2.91-2.06,35.74,35.74,0,0,0,4.53-1.52,40.75,40.75,0,0,0,5.11-3.49,18.23,18.23,0,0,1,3.42-2,7.17,7.17,0,0,1,3.64-1c1.19.18,2.22,1.14,2.75.78s.64-2,1-2.9.93-1,1.47-1.35a1.39,1.39,0,0,0,.79-1.61,10.57,10.57,0,0,0-1.59-2.73c-.55-.81-.78-1.31-.52-1.66a4.66,4.66,0,0,1,2-.82,5.6,5.6,0,0,0,3.32-2,23.28,23.28,0,0,0,3.26-6.37,11.4,11.4,0,0,0,.71-6.63,20.73,20.73,0,0,0-3.41-6.89,22.83,22.83,0,0,0-4.48-4.82,7.69,7.69,0,0,0-4.13-1.74,13.47,13.47,0,0,0-3.89.46c-1,.25-1.42.38-1.65-.47a16.94,16.94,0,0,1-.13-4.7c.15-2,.47-4.27.61-6.27a18.82,18.82,0,0,0-.37-5.81A17.58,17.58,0,0,0,117,59.68a14.13,14.13,0,0,0-4.78-3.8,28.82,28.82,0,0,0-5.54-2.41A14.32,14.32,0,0,0,101,53a17,17,0,0,0-7,1.79A7.68,7.68,0,0,0,90.78,59c-.39,1.2-.28,1.75-.64,2.14a7,7,0,0,1-2.14,1,25.19,25.19,0,0,0-2.85,1.42c-.7.41-.91.6-1.69.37a31.62,31.62,0,0,0-3.56-1.17,6.6,6.6,0,0,0-4.2.59,13,13,0,0,0-3.84,2.92c-.87,1-1.1,1.83-1.65,2.41a21,21,0,0,1-2.43,1.72,14.87,14.87,0,0,0-3.19,3.37,16.44,16.44,0,0,0-2,4.5A25.45,25.45,0,0,0,61.94,82a5.07,5.07,0,0,1-1.37,3.28Zm-13.11-18A8.41,8.41,0,0,0,44,68.52a7.39,7.39,0,0,0-2.59,2.86,9.2,9.2,0,0,0-1,3.86,15,15,0,0,0,.35,4.25c.28,1.15.64,1.79,1.22,1.74s1.4-.85,1.92-2a9.4,9.4,0,0,0,.78-3.72,13.42,13.42,0,0,0-.29-2.62c-.07-.52,0-.59.25-.85s.78-.71,1.36-1.21,1.32-1.08,1.81-1.59a2.34,2.34,0,0,0,.8-1.35c0-.39-.25-.72-1.12-.65Zm-1.72,39.17c-1.18-1.38-2.53-3.16-3.43-4.24S41,100.79,40.39,101A2.93,2.93,0,0,0,39,103.43a9.47,9.47,0,0,0,1,4.87,12,12,0,0,0,3.38,4.13,8.53,8.53,0,0,0,4.43,2,2.19,2.19,0,0,0,2.39-1.66c.12-.93-.55-1.93-1.4-2.94s-1.86-2-3-3.44ZM82,147.88c-1.58-.39-3.65-.94-5.78-1.65s-4.23-1.61-5.72-2.3-2.32-1.19-2.73-1-.37,1.15.23,2.18a9.86,9.86,0,0,0,3.21,3,20.58,20.58,0,0,0,4.84,2.13,15.06,15.06,0,0,0,4.51.83,5.52,5.52,0,0,0,2.89-.87c.8-.46,1.53-1,1.37-1.36s-1.24-.6-2.82-1Z"/><path class="cls-4" d="M55,63.35c-.94-.87-2.73-2.18-8.49-6.27S31.09,46.13,26,42.59s-5.67-3.7-5.31-3.21S22.27,41.05,23,42a5.26,5.26,0,0,1,1.12,2c.12.46.14.74,1.33,1.8s3.47,2.87,6.87,5.57,7.89,6.27,11.31,9.14S49.43,65.5,51.15,67a16.63,16.63,0,0,0,3.19,2.46c.44.18.28-.3.49-.58s.78-.39,1.26-.5.87-.19,1-.44.07-.58-.13-1.08-.55-1.13-.76-1.67A3.74,3.74,0,0,0,55,63.35Z"/><path class="cls-4" d="M58.82,112a2.19,2.19,0,0,1-.76-.06c-.29,0-.59-.12-2,.84s-3.86,2.92-7.08,5.61-7.23,6.11-9.45,8.1S36.85,129,37.1,129a15.17,15.17,0,0,0,3.19-1.65l8.18-4.8c3.21-1.88,6.65-3.86,8.77-5.08a25,25,0,0,0,3.37-2.16,1.46,1.46,0,0,0,.65-1.07,3.69,3.69,0,0,0-.35-1,4.13,4.13,0,0,0-.39-1.08,1,1,0,0,0-.83-.39,3.74,3.74,0,0,0-.87.16Z"/><path class="cls-4" d="M33.36,131.51c-.11-.37-.66-.71-1.47-.45a9.78,9.78,0,0,0-3,2.06,9.29,9.29,0,0,0-2,2.21c0,.25.92-.23,2.05-.79s2.47-1.19,3.3-1.7,1.19-.94,1.08-1.33Z"/><path class="cls-4" d="M82.72,108.44c-.36-.43-.73-.76-1.12-1.31s-.79-1.29-2-.73-3.21,2.45-6.87,6-9,8.7-12.05,11.8-3.9,4.07-3.93,4.38.7-.06,1.82-.77,2.61-1.79,4.61-3.26,4.48-3.34,6.75-4.76,4.3-2.38,5.67-3.14,2.07-1.29,3.27-2A31.74,31.74,0,0,0,82.72,112a2.06,2.06,0,0,0,.87-2.11,3.38,3.38,0,0,0-.87-1.49Z"/><path class="cls-4" d="M108,122.4c-.82.18-1.72.14-2.41.23s-1.19.34-1.19.71.5.9,2,2.3,3.93,3.71,9.93,8.72,15.61,12.79,20.82,16.79,6.1,4.29,6.93,4.77,1.68,1.24,2.37,1.74,1.24.79,1.42.67,0-.69-6.2-6.75-18.41-17.66-24.63-23.6-6.46-6.27-7-6.22-1.24.46-2,.64Z"/><path class="cls-4" d="M111.51,97c.55,0,1.36-.09,7.81-1.66s18.53-4.66,24.49-6.26,5.81-1.7-.59-1-19,2.22-25.83,3.07-7.8,1-8.19,1.24-.14.49.25.74a11.68,11.68,0,0,0,1.26.73c.37.19.57.32.25.49a9,9,0,0,0-1.37.57c-.17.2.31.37.55.66s.2.69.36,1,.44.43,1,.46Z"/><path class="cls-4" d="M117.73,66.86c2.76-2,8.75-6.56,11.76-9s3-2.58,2.69-2.57a7,7,0,0,1-1.22.15c-.18-.08.16-.45.41-.84s.44-.81.18-.95-1,0-3.12,1.22-5.6,3.54-8.6,5.47-5.49,3.51-6.69,4.36-1.08,1-.36.89a13.24,13.24,0,0,1,2.43-.53c.34.07-.35.63-.73,1.11s-.46.89-.16,1.06.93.16,1,.5-.39,1,2.38-.92Z"/><path class="cls-4" d="M136.61,53.63c-.58.28-1,.33-.87.07a9.27,9.27,0,0,1,1.56-1.78,13.79,13.79,0,0,0,2.15-2.44c.12-.39-.8,0-1.12,0s-.07-.48-.16-.64-.53,0-1,0-.79,0,4.73-3.27,17-9.61,22.91-12.83,6.27-3.26,6.27-3-.35.76-5.81,4.57S149.3,45.19,143.65,49s-6.45,4.34-7,4.63Z"/><path class="cls-4" d="M93.65,75.81c-.11-1-.16-2-.27-13.1s-.26-32.42-.28-43.83S93.17,6,93.33,6.41s.37,2.84,1,14.19S96.2,52.26,96.7,62.94s.33,11.71,0,12.48-.87,1.22-1.15,1.79-.34,1.25-.55,1.59-.57.34-.84-.23a11.17,11.17,0,0,1-.51-2.76Z"/><path class="cls-4" d="M79.9,72.74c-.6-.49-.94-1.47-2-4.22s-3-7.26-3.77-9.4-.51-1.95,1,.17,4.41,6.17,6.07,8.63,2.16,3.4,2.27,3.86-.14.5-.41.48-.56-.05-.72.09-.18.53-.61.71a1.91,1.91,0,0,1-1.84-.32Z"/><path class="cls-5" d="M66.77,99.12a36.21,36.21,0,0,1,.36-4.34,18.28,18.28,0,0,1,1.42-4.71c.63-1.33,1.41-2.32,1.8-2.32s.45,1,.91,3.26a74.61,74.61,0,0,0,2.28,8.41A24.77,24.77,0,0,0,76,104.68c.71,1.14,1.22,1.83,1.81,2.7s1.19,1.88,1.82,2.8a12.66,12.66,0,0,0,2,2.42c.74.66,1.59,1.16,2.5,2a28.45,28.45,0,0,0,3,2.7,12.51,12.51,0,0,0,4,1.64,4.48,4.48,0,0,0,3.26-.09,6.2,6.2,0,0,0,2-2.65,28.07,28.07,0,0,0,1.38-2.87c.29-.71.29-1.08,1.09-.92a21.62,21.62,0,0,0,3.88.88,6.06,6.06,0,0,0,4-1.36,12.51,12.51,0,0,0,2.83-3c.57-.92.64-1.54,1.24-2.34a33.79,33.79,0,0,0,2.68-3.19,12,12,0,0,0,1.82-5.62,10,10,0,0,0-1.47-5.7,15,15,0,0,0-3.1-2.92A3.64,3.64,0,0,1,109.49,87a10.12,10.12,0,0,1-.07-1.63,6.39,6.39,0,0,1,.1-1.86,15.26,15.26,0,0,1,1.33-2.61,21.32,21.32,0,0,0,2-4.48,10.77,10.77,0,0,0,.3-5.24,8.46,8.46,0,0,0-2.57-4.5,15.67,15.67,0,0,0-4.53-2.91c-1.3-.49-2-.42-2.36-.12s-.39.81.07,1.54,1.38,1.61,1.93,2.46a2.55,2.55,0,0,1,.5,2.18c-.2.55-.78.85-1.91,1a39.37,39.37,0,0,1-4.13.11,8.34,8.34,0,0,0-3,.33A3.45,3.45,0,0,0,95.51,73c-.39.78-.64,1.74-1,2.61a4.72,4.72,0,0,1-1.54,2c-.66.42-1.44.53-2.38,1a11,11,0,0,0-2.71,2.16c-.67.78-.93,1.48-1.54,1.83a12.55,12.55,0,0,1-2.64.73,19.64,19.64,0,0,0-3.2,1.22c-.82.37-1.19.58-1.53.37a2.34,2.34,0,0,1-.69-1.84,7.49,7.49,0,0,1,1.08-4,27.68,27.68,0,0,1,3.46-4.29,25.53,25.53,0,0,0,1.84-2.13c.3-.42.39-.65,0-.78a5.52,5.52,0,0,0-2.32.16,17.62,17.62,0,0,0-3.51,1.51A17.93,17.93,0,0,0,75,76.16a12.26,12.26,0,0,0-2.47,3.26c-.55,1.06-.88,2-1.56,2.25s-1.7,0-2.81,0a8.67,8.67,0,0,0-3.49,1.07,8.94,8.94,0,0,0-3,2.41,8.62,8.62,0,0,0-1.6,3.8,16.33,16.33,0,0,0-.16,4.84A12.75,12.75,0,0,0,61.09,98a11.58,11.58,0,0,0,2.37,3.22,13.47,13.47,0,0,0,2.66,2c.6.31.74.23.76-.27s-.11-1.33-.14-1.91a14,14,0,0,1,0-1.9Z"/><path class="cls-5" d="M75,112.89c-.71-.71-1.77-1.72-2.66-2.61s-1.54-1.64-2-1.49-.57,1.23-.39,2.54a13,13,0,0,0,1.4,4.11A9.76,9.76,0,0,0,74,118.5a9.29,9.29,0,0,0,3.22,1.58,6.8,6.8,0,0,0,3.26.09,7.13,7.13,0,0,0,2.73-1.35c.66-.55,1-1.1.92-1.59s-.46-1-1.29-1.24-2-.32-3.15-.55a9.88,9.88,0,0,1-2.84-1.06A8.14,8.14,0,0,1,75,112.89Z"/><path class="cls-5" d="M102.76,122.19c-1.32,0-2.34,0-3.07,0s-1.17.13-1.43.45-.34.86-.69,1.15a3.48,3.48,0,0,1-1.69.28c-.65,0-1.34,0-1.5.32s.21.78.79,1.42a8.86,8.86,0,0,0,2.47,1.87,13,13,0,0,0,3.42,1,14.05,14.05,0,0,0,2.4.25,13.09,13.09,0,0,0,2.41-.16,15.07,15.07,0,0,0,4.22-1.15,16.48,16.48,0,0,0,4.94-3.22,7,7,0,0,0,1.9-3.76,8,8,0,0,0,.09-3.13,6.39,6.39,0,0,0-1.12-2.41c-.53-.78-1.2-1.63-1.7-1.78s-.8.36-1.19,1.17-.81,1.9-1.32,2.91a10,10,0,0,1-1.83,2.64,6.51,6.51,0,0,1-2.91,1.63,19.73,19.73,0,0,1-4.19.55Z"/><path class="cls-5" d="M122.83,92.57c.14.86.3,2.1.49,3.84a43.43,43.43,0,0,1,.38,5.67A12.51,12.51,0,0,1,123,106c-.34.94-.69,1.61-.46,1.73s1-.32,1.95-.9a17.42,17.42,0,0,0,3-2.21,10.45,10.45,0,0,0,2.09-3,5.54,5.54,0,0,0,.62-3,9.89,9.89,0,0,0-.95-2.69c-.36-.83-.57-1.59-.85-2.32a5.86,5.86,0,0,0-1.17-2,3.64,3.64,0,0,0-2-.92A3.77,3.77,0,0,0,123,91c-.42.29-.28.77-.14,1.62Z"/><path class="cls-4" d="M97.51,90a1.35,1.35,0,0,0,1-.88,1.45,1.45,0,0,0,.05-.89,1.79,1.79,0,0,1,0-.87c.13-.21.39-.25,1.21.69a31,31,0,0,1,2.92,4.26,3.57,3.57,0,0,1,.55,3,4.82,4.82,0,0,1-1.36,2.47c-.52.24-.93-.45-1.32-.73a.88.88,0,0,0-1.11.07c-.36.23-.69.57-.91.58s-.33-.3-.58-.26a9.26,9.26,0,0,0-1.26.64,2.82,2.82,0,0,1-1.75.28,1,1,0,0,1-.62-1c0-.47.21-.93.19-1.35a5.11,5.11,0,0,0-.46-1.22,6.88,6.88,0,0,1-.33-1.74,10.14,10.14,0,0,1-.09-2.44,1.26,1.26,0,0,1,.78-1.12,1.83,1.83,0,0,1,1.33.07,4.56,4.56,0,0,0,1.73.44Z"/><path class="cls-4" d="M89.59,91.24c.14-.57.16-1.19,0-1.19s-.64.62-1.12,1.17-1,1-1.22.89-.28-.85-.42-1.21-.41-.32-.85.16a10.75,10.75,0,0,0-1.49,2.27,7,7,0,0,0-.78,2.5,4.71,4.71,0,0,0,.39,2.74,5.15,5.15,0,0,0,1.77,2c.39.16.26-.46.19-1.22A7.85,7.85,0,0,1,86.07,97a7.22,7.22,0,0,1,.83-1.9A4.18,4.18,0,0,1,87.54,94c.16-.07.26.27.53.84a10.33,10.33,0,0,0,1.08,1.8c.37.41.66.45.67,0a11,11,0,0,0-.42-2,4.48,4.48,0,0,1-.23-1.79c.07-.51.3-1,.42-1.57Z"/><path class="cls-1" d="M178.14,24.13a3.31,3.31,0,0,1,.58-.92,4.12,4.12,0,0,1,1.1-.66,4.47,4.47,0,0,1,1.26-.46,1.4,1.4,0,0,1,1.19.34,3.25,3.25,0,0,1,.65,1.17,5.55,5.55,0,0,1,.34.93.66.66,0,0,1-.3.59,5.17,5.17,0,0,1-1.06.6,6.86,6.86,0,0,1-1.39.46,1.89,1.89,0,0,1-1.2,0,3.06,3.06,0,0,1-1.08-.74.91.91,0,0,1-.34-.71c0-.19.11-.32.25-.58Z"/><path class="cls-4" d="M180.76,26.27a6.75,6.75,0,0,1-1.93,1.1c-.76.23-1.58.21-1.88-.16s-.14-1.06.29-1.82A4.26,4.26,0,0,1,179,23.51a1.85,1.85,0,0,1,1.93.3,1.91,1.91,0,0,1,.55,1.47c0,.42-.25.64-.73,1Z"/><path class="cls-3" d="M179.54,23.06a3.21,3.21,0,0,0-1,.38,3.27,3.27,0,0,0-1,1,3,3,0,0,0-.42,1.17c-.06.34-.06.55.12.69a2.29,2.29,0,0,0,.87.32,6.56,6.56,0,0,0,1,.14,3.41,3.41,0,0,0,1.1-.12,2,2,0,0,0,.87-.45,1.68,1.68,0,0,0,.48-.77,2.17,2.17,0,0,0,0-.91,1.4,1.4,0,0,0-.26-.69,2.14,2.14,0,0,0-.59-.53,2,2,0,0,0-.58-.23,1,1,0,0,0-.32,0,1.12,1.12,0,0,0-.32,0Z"/><path class="cls-6" d="M178.72,24.52a1.11,1.11,0,0,0-.33.78,1.12,1.12,0,0,0,.32.72.89.89,0,0,0,.71.3,1.92,1.92,0,0,0,1-.28,1.41,1.41,0,0,0,.6-.8.76.76,0,0,0,0-.65.89.89,0,0,0-.59-.32,2.4,2.4,0,0,0-.9-.09,1.57,1.57,0,0,0-.84.34Z"/><path class="cls-1" d="M3.74,31.92a1.94,1.94,0,0,1-1.3,0,3.16,3.16,0,0,1-1.06-.8,6.5,6.5,0,0,1-.76-.9,3.72,3.72,0,0,1-.43-1.05A5.92,5.92,0,0,1,0,27.9a1.86,1.86,0,0,1,.28-1.06,1.51,1.51,0,0,1,.85-.6,2.26,2.26,0,0,1,1.05.08l1.26.31a4,4,0,0,1,1,.37,1.58,1.58,0,0,1,.64.69,3.15,3.15,0,0,1,.27,1,5.54,5.54,0,0,1,0,1.28,2.62,2.62,0,0,1-.51,1.24,2.28,2.28,0,0,1-1.1.72Z"/><path class="cls-3" d="M4.48,31.53a3.3,3.3,0,0,1-1.73.2,1.94,1.94,0,0,1-1.44-1,2.73,2.73,0,0,1-.09-1.89,1.87,1.87,0,0,1,1.17-1.23,2.92,2.92,0,0,1,2,0A2,2,0,0,1,5.47,29a2.72,2.72,0,0,1,0,1.58,1.59,1.59,0,0,1-1,.92Z"/><path class="cls-4" d="M5.35,32.4A2,2,0,0,1,4,32.61a1.94,1.94,0,0,1-1.22-.74,2.33,2.33,0,0,1-.41-1.49,1.12,1.12,0,0,1,.66-1,1.94,1.94,0,0,1,1.35.07,3.1,3.1,0,0,1,1.32.9,1.33,1.33,0,0,1,.23,1.12,1.24,1.24,0,0,1-.58.9Z"/><path class="cls-6" d="M3.45,31.25a1.12,1.12,0,1,0-1.09-1.12,1.11,1.11,0,0,0,1.09,1.12Z"/><path class="cls-1" d="M15.4,149.17a9.93,9.93,0,0,0-1,.14c-.37.07-.76.13-1,.2a1,1,0,0,0-.64.33,1.08,1.08,0,0,0-.08.75,2.45,2.45,0,0,0,.47.76,2.77,2.77,0,0,0,.62.57,1.73,1.73,0,0,0,.86.23,2.93,2.93,0,0,0,.81-.29,3.52,3.52,0,0,0,.82-.42,1.57,1.57,0,0,0,.47-.55,1,1,0,0,0,.11-.53,1.24,1.24,0,0,0-.23-.46,2.59,2.59,0,0,0-.46-.48,1.18,1.18,0,0,0-.67-.25Z"/><path class="cls-4" d="M15.29,151.15a1.41,1.41,0,0,1-.55-.86,1.09,1.09,0,0,1,.46-1.1,1.94,1.94,0,0,1,1.47-.25.72.72,0,0,1,.62.71,1.54,1.54,0,0,1-.35,1.06,1.94,1.94,0,0,1-1,.55.68.68,0,0,1-.69-.11Z"/><path class="cls-3" d="M14.44,151.77a1.62,1.62,0,0,1-.59-.93,1.2,1.2,0,0,1,.5-1.19,2.35,2.35,0,0,1,1.59-.27.79.79,0,0,1,.66.76,1.7,1.7,0,0,1-.39,1.16,2.15,2.15,0,0,1-1,.6.72.72,0,0,1-.74-.13Z"/><path class="cls-6" d="M15.59,151.17a.91.91,0,0,1-.39-.41,1,1,0,0,1,0-.74.8.8,0,0,1,.33-.53.86.86,0,0,1,.52-.18,1.09,1.09,0,0,1,.48.21.92.92,0,0,1,.28.47,1.49,1.49,0,0,1-.05.62,1,1,0,0,1-.34.49,1.13,1.13,0,0,1-.5.13.48.48,0,0,1-.28-.06Z"/><path class="cls-4" d="M155.3,167.15a2.5,2.5,0,0,1-1-1.33,3,3,0,0,1,.09-1.8c.2-.36.52-.27,1.17-.13a9.38,9.38,0,0,1,2.25.61,1.31,1.31,0,0,1,.83,1.27,1.83,1.83,0,0,1-.63,1.33,2.43,2.43,0,0,1-1.42.5,2.12,2.12,0,0,1-1.28-.45Z"/><path class="cls-1" d="M155,166.76a7.06,7.06,0,0,0,.49,1.53,1.06,1.06,0,0,0,.84.63,16.37,16.37,0,0,0,1.75.27,3.82,3.82,0,0,0,1,0,.8.8,0,0,0,.65-.41,2.72,2.72,0,0,0,.25-1.12,4.19,4.19,0,0,0-.05-1.08,2.5,2.5,0,0,0-.37-.94,4.1,4.1,0,0,0-.71-.62,1.82,1.82,0,0,0-.76-.49,3.89,3.89,0,0,0-1.46-.11,3.62,3.62,0,0,0-1.41.32.72.72,0,0,0-.34.73,5.42,5.42,0,0,0,.09,1.25Z"/><path class="cls-3" d="M158.24,165.75a2.21,2.21,0,0,0-.7-1.13,1.88,1.88,0,0,0-1.24-.36,2.28,2.28,0,0,0-1.32.45,1.59,1.59,0,0,0-.6,1.13,2.18,2.18,0,0,0,.34,1.14,1.39,1.39,0,0,0,.57.58,2.94,2.94,0,0,0,1,.34,2.63,2.63,0,0,0,1.17-.13,1.21,1.21,0,0,0,.79-.69,2.15,2.15,0,0,0,0-1.33Z"/><path class="cls-6" d="M156.88,165.66a1.6,1.6,0,0,1-.39.78.92.92,0,0,1-.74.29,1.12,1.12,0,0,1-.8-.52,1.35,1.35,0,0,1-.16-1,1.16,1.16,0,0,1,.53-.75.69.69,0,0,1,.69,0,2.1,2.1,0,0,1,.69.56.64.64,0,0,1,.18.62Z"/></g></g></svg>