<svg xmlns="http://www.w3.org/2000/svg" xmlns:xlink="http://www.w3.org/1999/xlink" viewBox="0 0 199.23 203.17"><defs><style>.cls-1,.cls-3{fill:#962934;}.cls-1{clip-rule:evenodd;}.cls-2{fill:#2a0b1e;}.cls-2,.cls-3,.cls-5,.cls-6,.cls-7{fill-rule:evenodd;}.cls-4{clip-path:url(#clip-path);}.cls-5{fill:#ff532b;}.cls-6{fill:#ffb72f;}.cls-7{fill:#feda3b;}</style><clipPath id="clip-path"><path class="cls-1" d="M86.19,192.79c-.83.28-1.84.69-2.64.92a2.22,2.22,0,0,1-1.93,0c-.55-.32-1.1-1-1.66-1.39s-1.19-.35-1.53-.56a.76.76,0,0,1-.23-1,2.23,2.23,0,0,1,1.6-.79,12.56,12.56,0,0,1,2.74,0l2.71.18c.8,0,1.38.09,2.2.16s1.82.14,2.73.28,1.66.36,1.8.68-.39.72-1.13.92a13,13,0,0,1-2.44.21,8.71,8.71,0,0,0-2.22.46ZM131,14.4a8,8,0,0,1-3.23-.14c-1.45-.23-3.24-.57-4.55-.65a7.39,7.39,0,0,0-3,.37,11.38,11.38,0,0,0-2.35,1,2.59,2.59,0,0,0-1.14,1.17,3.64,3.64,0,0,1-.69,1.42c-.57.74-1.77,1.91-2.41,2.76s-.76,1.42.06,1.88a9.74,9.74,0,0,0,4.41.85c1.82,0,3.75-.42,5-.46a2.75,2.75,0,0,1,2.38,1,18.84,18.84,0,0,0,1.87,2c.61.48,1.17.53,1.28.83s-.3.89-.16,1.28.87.55,2.09,1a29.27,29.27,0,0,0,5.14,1.51c2.18.39,4.78.5,6.64.87a12.47,12.47,0,0,1,4.18,1.72l3.35,1.91c.87.5,1.35.76,1.61.18s.36-2,.78-2.94,1.23-1.47,1.76-2.43a13.64,13.64,0,0,0,1-3.28,9.46,9.46,0,0,1,.74-2.35,17.19,17.19,0,0,0,1.4-3.71,10.92,10.92,0,0,0,0-4.64,9.29,9.29,0,0,0-1.31-2.36,11.15,11.15,0,0,1-.55-2.21,5.3,5.3,0,0,0-1.18-2.34c-.57-.58-1.31-.85-1.42-1.33s.42-1.18.42-1.95a4,4,0,0,0-1.5-2.57A11.64,11.64,0,0,0,147.93.19a2.45,2.45,0,0,0-2.76.5,2.68,2.68,0,0,0-.09,2.66A8,8,0,0,0,147,5.83a12.05,12.05,0,0,1,1.4,1.4,1.58,1.58,0,0,1,.32,1.22c-.08.35-.34.55-1,.32A28,28,0,0,1,145,7.42,3.61,3.61,0,0,0,142.64,7c-.82.14-1.78.64-2.71.9a10.07,10.07,0,0,1-2.73.3,15.79,15.79,0,0,1-2.57-.1,8,8,0,0,0-2.62-.2,3.09,3.09,0,0,0-2.09,1.31,1.82,1.82,0,0,0,.44,1.94A8.91,8.91,0,0,1,131.74,13,1.09,1.09,0,0,1,131,14.4Zm-21.31,4.49c-.77,0-2,0-3.16,0a16.17,16.17,0,0,0-2.64.12c-.33.12.11.35.64.64s1.17.58,1.63.74a1.56,1.56,0,0,0,1.17.07c.37-.12.81-.41,1.43-.65s1.44-.46,1.71-.62,0-.27-.78-.3ZM36.53,35.68a2.26,2.26,0,0,1-1.68.92,15.21,15.21,0,0,0-2.41.3,21.36,21.36,0,0,0-2.87,1.44,17.09,17.09,0,0,1-2.92,1.24c-.93.26-1.72.33-2.22,1a4.24,4.24,0,0,0-.28,3.35,13.17,13.17,0,0,0,2.12,4.41,8.09,8.09,0,0,0,3,2.73,1.47,1.47,0,0,0,2.09-.77,9.42,9.42,0,0,0,.46-3.41c0-1,0-1.55.52-1.62A5.24,5.24,0,0,1,35,46.2a25.91,25.91,0,0,1,3.07,2.31c.9.76,1.61,1.36,2.32,1.88a3.78,3.78,0,0,0,2.23.92c.78,0,1.61-.55,3.56-1.93a73.7,73.7,0,0,0,6.55-5.09,5.67,5.67,0,0,0,1.74-2.59A1.67,1.67,0,0,1,55.81,41c.62-.11,1.38-.07,2.18-.27a4.12,4.12,0,0,0,2.26-1.4,5.57,5.57,0,0,0,1.21-3A1.85,1.85,0,0,0,60,34.21,14.14,14.14,0,0,0,55.15,34c-1.49.16-2.32.46-2.9.51a1.51,1.51,0,0,1-1.42-.63A9.76,9.76,0,0,0,49.08,32a7.35,7.35,0,0,0-2.77-1c-.9-.14-1.63-.14-1.79-.55s.21-1.22.78-2.39a18.13,18.13,0,0,1,1.88-3.43c.6-.68,1.08-.47,2-.77s2.18-1.11,3.5-1.61a7.81,7.81,0,0,1,3.12-.57c.44.11,0,.5-.74,1.09a6.73,6.73,0,0,0-2,2.07c-.29.71.12,1.33.56,1.95s.91,1.25,1.69,1.15a12.74,12.74,0,0,0,3.1-1.7A24.68,24.68,0,0,1,63.09,24a53,53,0,0,1,6.39-1.82c1.9-.41,3.16-.45,4-.64s1.41-.55,1.08-.76a10.45,10.45,0,0,0-3.07-.43,49.35,49.35,0,0,1-4.92-.49,16,16,0,0,1-4-1.28A24,24,0,0,0,58.62,17a11.82,11.82,0,0,0-4.51-.28,16.4,16.4,0,0,0-3.83,1.08,12.89,12.89,0,0,1-2.46.92,10.79,10.79,0,0,0-2.57.41,10.37,10.37,0,0,0-3.81,2.83c-1.42,1.55-2.92,3.76-4.13,5.27s-2.12,2.26-2.82,3.2-1.16,2-.81,2.64,1.47.75,2.16,1.14a1.21,1.21,0,0,1,.69,1.52Zm49-12.21c-.47-.23-.92-.79-1.63-1.27s-1.66-.87-1.45-1.06a10.58,10.58,0,0,1,3.1-.11c1.51,0,3.15.09,4.22.14s1.56.16,1.65.46-.27.87-1.07,1.21a15.33,15.33,0,0,1-3,.6c-.89.12-1.39.25-1.85,0Zm64,49.68c.53.32,1.26.71,2,1.06a4.37,4.37,0,0,1,1.87,1.4c.48.73.8,1.86,1.39,2.82s1.45,1.7,1.7,2.23-.13.8-.53,1.07-.84.49-.93,1.11a12.94,12.94,0,0,0,.5,3,25.59,25.59,0,0,1,.6,4.2,14.2,14.2,0,0,1-.28,2.64,4.56,4.56,0,0,0,.3,1.8c.25.91.64,2.41.94,4.15a30.35,30.35,0,0,1,.55,5.35c0,1.72-.23,3.24,0,3.42s.82-1,1.21-2a14.52,14.52,0,0,1,.87-2.47,4.34,4.34,0,0,1,1.75-1.24,3.85,3.85,0,0,0,2.06-2.44,18.91,18.91,0,0,0,.37-6,43.88,43.88,0,0,0-.6-4.73c-.18-.92-.2-1,.08-1.22a8.75,8.75,0,0,0,1.53-1.3,5.87,5.87,0,0,0,1.47-3.22,10.57,10.57,0,0,0-.78-4.68,20.34,20.34,0,0,0-1.79-3.26c-.43-.72-.5-1.1-.11-1.7a10.76,10.76,0,0,0,1.58-2.34,3.23,3.23,0,0,0-.5-2.58,23.65,23.65,0,0,1-1.47-2.8,19.18,19.18,0,0,1-.76-3.56,21.68,21.68,0,0,1-.41-3.35c.07-.59.46-.36,1,.14a5.85,5.85,0,0,1,1.61,2.25,7.09,7.09,0,0,1,.25,2.78,2.51,2.51,0,0,0,.25,1.59,15.49,15.49,0,0,0,1.31,1.88c.39.5.55.71,1.13.34a5.39,5.39,0,0,0,2.13-3,9.2,9.2,0,0,0-.55-5.93,11.44,11.44,0,0,0-4.27-4.89,9.41,9.41,0,0,0-4.41-1.19,11.49,11.49,0,0,1-3-.5,8.49,8.49,0,0,0-2-.85,5.69,5.69,0,0,0-2.16.64,4.31,4.31,0,0,1-2.42.35c-.93-.15-2-.69-3-.93s-1.81-.22-2.06-.93.09-2.17,0-3.65a11.6,11.6,0,0,0-1.77-4.76,40,40,0,0,0-3.76-5.4,10.16,10.16,0,0,0-3.72-3,14.72,14.72,0,0,0-5.76-1.46,30.2,30.2,0,0,0-6.55.77,8.26,8.26,0,0,1-3.14.35A21.48,21.48,0,0,1,118.56,32a21,21,0,0,0-4.2-1.3,8.54,8.54,0,0,0-3.9.08,7.45,7.45,0,0,0-3.63,2,5.76,5.76,0,0,0-1.52,3.66,5.84,5.84,0,0,0,.87,2.82c.35.67.53,1-.2,1.49s-2.32,1-3.19,1.45-1,.83-1.49.8a9.81,9.81,0,0,0-2.57-.36,12.68,12.68,0,0,0-4.09,1.19A18.54,18.54,0,0,1,92.29,45c-.54.09-.89-.25-1.32-.59s-.88-.63-.86-1,.49-.74.94-1.47a5.84,5.84,0,0,0,.79-2.89,4.19,4.19,0,0,0-1.18-3.15c-.89-.8-2.29-1.15-4.42-1.33a28.63,28.63,0,0,0-7,.27,13.67,13.67,0,0,0-3.93,1.55,3.6,3.6,0,0,1-1.81.38,8.93,8.93,0,0,0-2.29.28,5.35,5.35,0,0,0-2.51,1.29,4.7,4.7,0,0,0-1.31,2.38,3.83,3.83,0,0,0,.14,1.61c.07.34,0,.48-.5.58a14.46,14.46,0,0,0-2.89.73,28,28,0,0,0-5.22,2.71,15.61,15.61,0,0,0-3,2.69c-.66.73-1.15,1.19-1.93,1.19s-1.84-.51-2.93-.55A4.8,4.8,0,0,0,48,50.83c-1,.74-1.77,1.81-2.52,2.35a8.44,8.44,0,0,1-2.16.89,6.59,6.59,0,0,0-2.41,1.86,11.33,11.33,0,0,0-2,3.46,21.91,21.91,0,0,0-.62,3.15,10.59,10.59,0,0,1-1.21,2.78,17.38,17.38,0,0,0-2,5.32,9.76,9.76,0,0,0,.74,5.49,4.72,4.72,0,0,0,2.32,2.35,1.17,1.17,0,0,0,1.61-.37,6.68,6.68,0,0,0,1.24-2.6,12.69,12.69,0,0,0,0-2.38,17.67,17.67,0,0,1,.74-3.24,24.28,24.28,0,0,1,1.44-4.39,6,6,0,0,1,2.11-2.45,9.7,9.7,0,0,1,1.91-1c.57-.23,1-.42,1,.06A26.91,26.91,0,0,1,47,65.23a52.32,52.32,0,0,0-1.61,5.32,20.62,20.62,0,0,0-.68,4.55,3.71,3.71,0,0,0,.7,2.41,1.43,1.43,0,0,0,1.45.44c.55-.1,1.19-.42,1.56-.46s.51.2,1,.29a3.22,3.22,0,0,0,2-.34c.71-.37,1.36-1.08,1.81-1.15s.72.46,1,1a2.18,2.18,0,0,0,1.16,1.14,1.76,1.76,0,0,0,1.9-.87c.64-.89,1.19-2.47,2.94-4.86a35.44,35.44,0,0,1,7-7.12,6.71,6.71,0,0,1,5.39-1.27,36.15,36.15,0,0,1,3.95,1,12.77,12.77,0,0,0,4.75.57,35.92,35.92,0,0,0,7.23-1.34,38.57,38.57,0,0,0,5.58-2.08c1.15-.55,1.4-.81,1.24-1.26a8.63,8.63,0,0,1-1-1.87,3.48,3.48,0,0,1,.44-2.41,2.63,2.63,0,0,1,1.71-1.12,13.55,13.55,0,0,1,2.35-.44,2,2,0,0,0,1.38-.39,7.81,7.81,0,0,1,3.95-1.68,22.35,22.35,0,0,1,9,.47,9.32,9.32,0,0,1,4.66,3.35c.87,1,1.35,1.47,1.9,1.6a2.7,2.7,0,0,0,1.73-.36,8.89,8.89,0,0,0,1.69-1.1,2.78,2.78,0,0,0,1.09-1.75c.13-.78-.1-1.82,0-2.53a1.09,1.09,0,0,1,1.17-1.07,6,6,0,0,1,2.52,1.3A13.16,13.16,0,0,1,131,56a5.52,5.52,0,0,1,1.07,3c0,.71-.3.94-.82.87s-1.27-.42-1.77-.55-.73,0-.44.28A11.26,11.26,0,0,1,131,61.09a22.78,22.78,0,0,1,2.27,3.26c.56.93.85,1.43,1,1.24s.25-1.14.67-1.3,1.17.41,2.24,1.44A49.54,49.54,0,0,1,141,70a40.45,40.45,0,0,1,3.54,5.31,25,25,0,0,1,1.72,4.16c.41,1.24.83,2.41,1.13,3.05s.53.74.64.16a20.26,20.26,0,0,1,.37-2.66c.27-.79.82-1.1,1.1-1.7a4.13,4.13,0,0,0,.23-2.19,6.59,6.59,0,0,0-.55-1.87,5.92,5.92,0,0,1-.51-1.47c0-.19.32,0,.83.34Zm46.28,5.62a6.61,6.61,0,0,0-2.52.39,22.52,22.52,0,0,1-2.62.58c-.76.11-1.37.09-1.69.41a3,3,0,0,0-.35,1.75c0,.76,0,1.6.09,2.55s.26,2.06.41,3.14a9.48,9.48,0,0,0,.71,3c.46.89,1.25,1.65,2,1.63s1.46-.8,1.95-1.43.78-1.19,1.05-1.21.5.44,1,.66a2.12,2.12,0,0,0,1.91-.2,2.38,2.38,0,0,0,1-1.91c.06-.78-.24-1.6-.19-2.23s.44-1.12.6-1.92a5.55,5.55,0,0,0-.21-2.69,3.47,3.47,0,0,0-1.31-1.51,4.32,4.32,0,0,0-1.84-1Zm-15.74-1.9a7.61,7.61,0,0,0-2.57-1.79c-.62-.16-.72.37-.62,1.3s.41,2.25.15,2.62-1.14-.25-1.86-.55a2.8,2.8,0,0,0-1.86-.21c-.54.12-1,.42-1.42.51s-.78,0-.87.39a11.78,11.78,0,0,0,.43,2.85c.3,1.51.69,3.56,1,4.45s.48.6.64-.07.28-1.7.62-1.77.88.85,1.47,1.87,1.2,2.18,1.59,2.94.5,1.12.45,1.39-.34.4-.77.4a6.09,6.09,0,0,0-1.18-.07c-.16.11.14.45.48,1.37a30.08,30.08,0,0,1,1.06,3.74c.28,1.29.44,2.39.78,2.67s.87-.23,1.13-1.1.3-2.11.5-2.71.56-.62.79-.23a6.19,6.19,0,0,1,.45,2,4.79,4.79,0,0,0,.64,2.3,1.24,1.24,0,0,0,1.87.11A6.47,6.47,0,0,0,184.34,96a26.58,26.58,0,0,0,.44-4.16A4.77,4.77,0,0,1,185,90a4.84,4.84,0,0,0,.77-1.9,7.2,7.2,0,0,0-.46-3.15,13.8,13.8,0,0,0-1.42-2.46c-.48-.82-.89-1.76-1.24-2.32a11.35,11.35,0,0,0-1-1.26,13.64,13.64,0,0,0-1.6-2Zm4.18,58.73c-.56,0-1.39-.14-2.16-.16a4.47,4.47,0,0,1-1.95-.28c-.49-.27-.74-.85-1.08-1a.6.6,0,0,0-.81.53,6.07,6.07,0,0,0,.46,1.72,17.28,17.28,0,0,1,.44,2.21,12.09,12.09,0,0,0,.52,2c.23.59.51,1.06.63,1.52a2.1,2.1,0,0,1-.16,1.53c-.24.57-.74,1.24-1.13,2s-.69,1.53-.35,1.35a26.44,26.44,0,0,0,2-2c.74-.77,1.32-1.19,1.84-1.67a4.14,4.14,0,0,0,1.2-1.7,15.37,15.37,0,0,1,.41-1.93c.27-.5.83-.71,1.17-1.13a2.64,2.64,0,0,0,.37-1.6,1.56,1.56,0,0,0-.37-1.06c-.2-.2-.5-.23-1.05-.27Zm-12.59,21.56a4.63,4.63,0,0,0-1.44,1.28c-.53.71-1.1,1.86-1.7,2.89s-1.22,1.93-1.59,2.51-.52.8.07.44a20.21,20.21,0,0,0,2.71-2c.81-.73,1.15-1.24,1.19-1.53s-.27-.33-.27-.64a4.25,4.25,0,0,1,.67-1.52,19,19,0,0,0,1-1.7c.1-.27-.21,0-.62.28ZM103,188.65c-.53.15-1.38.35-2,.49a4,4,0,0,1-1.47.11c-.35-.09-.59-.3-.41-.52a2.8,2.8,0,0,1,1.37-.58,14.43,14.43,0,0,1,1.75-.23,9.78,9.78,0,0,1,1.54-.11c.32.06.32.25.18.41a1.92,1.92,0,0,1-.94.43Zm47.13-8.86a13,13,0,0,1-3,.46,5.59,5.59,0,0,0-2,.19,4.85,4.85,0,0,0-1.93,1.72c-.51.78-.74,1.68-1.2,2.23a3.39,3.39,0,0,1-2.25.91c-1.12.16-2.68.32-4,.6a8.64,8.64,0,0,0-2.69,1c-.3.25.14.36,1.06.45s2.32.12,3.47.24a16.06,16.06,0,0,1,2.91.55,14,14,0,0,1,2.46,1,12.33,12.33,0,0,0,2.16,1.06,6.21,6.21,0,0,0,2.71.12c1-.14,2-.46,2.93-.6s1.65-.11,2.37-.19a5.87,5.87,0,0,0,2.43-.8,13.38,13.38,0,0,0,3.17-2.46,6.25,6.25,0,0,0,1.6-3.05,9.72,9.72,0,0,0-.06-2.77,6.36,6.36,0,0,1,.23-2.56c.3-1.05.89-2.43,1.53-4a26.78,26.78,0,0,0,1.27-3.87c0-.35-.65.82-1.47,1.9a22.56,22.56,0,0,1-2.85,2.94,26.46,26.46,0,0,1-3.19,2.41,28.06,28.06,0,0,1-3,1.47,20,20,0,0,1-2.65,1.12Zm-22.45,7a10.51,10.51,0,0,1-3.15.45,12.14,12.14,0,0,1-2.87-.36c-.77-.19-1.28-.37-1.21-.53a3.05,3.05,0,0,1,1.63-.28c.87,0,1.95.14,3,.14a17.38,17.38,0,0,0,2.69-.18c.62-.09.85-.17.87,0s-.2.49-.94.77Zm-4.24-26.71a5.58,5.58,0,0,1-1.48-.23,14.27,14.27,0,0,1-1.88-.78c-.53-.27-.85-.44-.6-.44a18.05,18.05,0,0,0,2.39.14,26.47,26.47,0,0,0,4.53-.61,10.51,10.51,0,0,0,3.07-1.09c.8-.45,1.54-1,2-1.35s.71-.41.58-.12a7.89,7.89,0,0,1-1.22,1.57,12.18,12.18,0,0,0-1.47,1.7c-.23.43,0,.66.35,1a6.43,6.43,0,0,0,1.26,1.17,1.41,1.41,0,0,0,1.67-.2c.65-.49,1.47-1.5,2.23-2.25a4.41,4.41,0,0,1,2.09-1.25,1.48,1.48,0,0,1,1.44.69c.42.51.81,1.31,1.66,1.2s2.14-1.1,3.12-3.1a21,21,0,0,0,1.75-7c.11-2-.3-3.06-.79-3.31s-1.07.3-2,.74a11.83,11.83,0,0,1-2.94.85c-.78.13-1.1,0-.76-.26s1.27-.82,2.23-1.61,1.9-1.92,2.76-2.82a25.15,25.15,0,0,0,2.11-2.27c.43-.62.48-1.15.71-1.08s.66.71.92,1.35a6,6,0,0,0,.8,1.77c.44.51,1.22.9,1.61,1.47a4.56,4.56,0,0,1,.46,1.77c.13.5.39.76.85.67a4.32,4.32,0,0,0,2-1.4,18.28,18.28,0,0,0,2.34-3.08,16.94,16.94,0,0,0,1-2.35,19.93,19.93,0,0,0,1.1-2.64,13.44,13.44,0,0,0,.28-2.5c.07-.73.23-1.28-.26-1.24a15.62,15.62,0,0,0-2.55,1c-.94.35-1.72.5-1.78.3s.68-.73,1.53-1.43,1.82-1.58,2.51-2.17a5,5,0,0,1,1.62-1,2.94,2.94,0,0,0,2-1.59A35.29,35.29,0,0,0,163,123c.55-1.52.71-2,1.22-2.32a8.89,8.89,0,0,1,2.11-.48,3,3,0,0,0,1.86-1,8.12,8.12,0,0,0,1.1-2.33c.23-.7.34-1,.09-1a12.72,12.72,0,0,0-1.42.74,2.36,2.36,0,0,1-1.31.28c-.2,0,0-.23.28-.79a17.74,17.74,0,0,0,1.14-2.47,7.72,7.72,0,0,0,.42-2.65,9.43,9.43,0,0,0-.41-2.59c-.23-.74-.54-1.29-.35-1.19a8.31,8.31,0,0,1,1.36,1.51,7.08,7.08,0,0,0,1.3,1.63,4.81,4.81,0,0,0,1.65.3,5,5,0,0,1,1.71.69c.46.28.71.57,1.14.58a8.58,8.58,0,0,1,1.68,0,4.45,4.45,0,0,1,2.14,1.35,6.9,6.9,0,0,1,1.56,2.83,19.33,19.33,0,0,1,.87,4.64,14.64,14.64,0,0,1-.41,4.66,21.1,21.1,0,0,1-1.57,4.11,20.38,20.38,0,0,1-1.74,2.87,8.42,8.42,0,0,1-2.51,2.54,12.76,12.76,0,0,1-3.88,1.33,12.85,12.85,0,0,0-3.1.83,16,16,0,0,0-2.34,1.63c-.61.42-1,.53-1.19,1.12s-.3,1.61-.74,2.78a18.74,18.74,0,0,1-2.08,3.59,17.77,17.77,0,0,1-2.35,2.91,13.35,13.35,0,0,1-3.14,2.2c-1.19.6-2.48,1-3.19,1.34s-.8.44-.94,1.56a21.74,21.74,0,0,1-1,5.21,16.53,16.53,0,0,1-3.34,5.31,11.64,11.64,0,0,1-3.15,2.24,15.27,15.27,0,0,1-2.59,1.45,15.94,15.94,0,0,1-3.91.83,14.55,14.55,0,0,1-4.73-.09,21,21,0,0,1-4.68-1.66c-1-.52-1.26-.78-1.82-.64a22,22,0,0,0-2.48,1.17,9.15,9.15,0,0,1-3.42,1,10,10,0,0,1-3.87-.55,6.69,6.69,0,0,1-2.58-1.61c-.55-.58-.76-1.15-.53-1.58s.92-.67,2-.95,2.41-.61,3.5-.82,1.9-.3,2.55-.39,1.14-.17,1.32-.44,0-.69,0-1.15a4.82,4.82,0,0,1,.3-1.4Zm-64.27-25A14.58,14.58,0,0,0,57,133.33a1.42,1.42,0,0,0-1.54.09c-.43.27-.78.69-1.15.78s-.73-.14-1.14-.17-.83.1-1.47.83a6.53,6.53,0,0,0-1.61,3.79,15,15,0,0,0,1.08,5.69,13.6,13.6,0,0,0,2.09,3.82,23,23,0,0,0,2,2.08,2,2,0,0,1,.74,1.29c0,.48-.1,1.06,0,2a10,10,0,0,0,.83,3.48,22.23,22.23,0,0,0,2.89,4.41,46.81,46.81,0,0,0,4.54,4.92,30.51,30.51,0,0,0,5,3.81,16.36,16.36,0,0,0,4.46,2,12.15,12.15,0,0,0,3.81.28,15,15,0,0,0,3.23-.62,22.57,22.57,0,0,1,3-.83,3.9,3.9,0,0,1,2.18.41,10.13,10.13,0,0,0,2.64.81,6.53,6.53,0,0,0,3.47-.55,17.36,17.36,0,0,0,3.93-2.55,5.38,5.38,0,0,0,2.22-3.15,5.83,5.83,0,0,0-1.1-3.72,10.57,10.57,0,0,0-3.08-3.12,40,40,0,0,0-5.33-3,29.93,29.93,0,0,0-5-1.92,7.14,7.14,0,0,0-2.65-.19c-.76,0-1.65,0-2.59.1a5.37,5.37,0,0,0-2.8.82c-.87.6-1.63,1.7-2.89,2.2a8.49,8.49,0,0,1-4.62,0,19.48,19.48,0,0,1-4-1.43c-1-.48-1.63-.85-1.61-1s.65-.18,1.86-.41a17.18,17.18,0,0,0,4.57-1.56,8.54,8.54,0,0,0,3.47-3.12,2.21,2.21,0,0,0-.57-2.69c-.74-.8-1.88-1.52-2.87-2.39a33.13,33.13,0,0,1-2.73-2.92c-.88-1-1.86-2.06-2.71-2.89s-1.61-1.42-2.28-2-1.24-1-1.95-1.63Zm-17.89,40a6,6,0,0,0,.19-2.67,7.39,7.39,0,0,0-.85-2.59,10.94,10.94,0,0,0-1.49-2.18,8.67,8.67,0,0,0-1.91-1.72c-.68-.42-1.33-.63-1.56-.4s-.05.87,0,1.45a4.72,4.72,0,0,1,.07,1.51,1.84,1.84,0,0,1-.44.93c-.23.25-.51.47-.67.68a.77.77,0,0,0-.13.78,3.91,3.91,0,0,1,.39,1,1,1,0,0,1-.39.78,1.65,1.65,0,0,0-.48.83,1.43,1.43,0,0,0,.41,1.26,3.2,3.2,0,0,0,1.72.76,4.61,4.61,0,0,0,1.67-.12c.44-.13.74-.25.81-.52s-.12-.65-.07-.74.34.12.62.48a3.58,3.58,0,0,0,.9,1.08c.39.17.89,0,1.16-.61ZM3.07,118.58c.17-.27.28-.68.54-1.07s.7-.78.77-1.17a1,1,0,0,0-.73-1,1.61,1.61,0,0,0-1.44.25,1.87,1.87,0,0,0-.51,1.16A2.27,2.27,0,0,0,1.58,118a1.35,1.35,0,0,0,.74.85.6.6,0,0,0,.75-.26Zm33.05-6.28c-.17.34-.24.61-.42.64s-.43-.09-.73-.88-.63-2.18-1-3.58a38,38,0,0,1-1-4.31,32.5,32.5,0,0,1-.23-4.46c0-1.24,0-2,.07-2.93a7.47,7.47,0,0,0-.11-2.63,1.67,1.67,0,0,0-1.51-1.1,4,4,0,0,0-2.62.6,8.21,8.21,0,0,0-2.81,3.13,13.72,13.72,0,0,0-1.39,4.65,11.75,11.75,0,0,0,.15,3.86c.24,1.31.67,2.8,1.09,4.23s.87,2.86,1.44,4.54,1.27,3.63,1.77,5.22a35.53,35.53,0,0,0,1.22,3.87,22.65,22.65,0,0,0,1.58,2.57c.39.62.46,1,.3,1.27s-.55.5-.74.92a2.32,2.32,0,0,0,.1,1.81A6.43,6.43,0,0,0,32.94,132a10.39,10.39,0,0,0,2.67,1.84,23.74,23.74,0,0,0,3,1.19,7.05,7.05,0,0,0,3,.57,5.05,5.05,0,0,0,2.89-1.21c.62-.64.68-1.38.73-2.6s.1-2.87.25-4.15a5.9,5.9,0,0,1,.71-2.62,1.49,1.49,0,0,1,1.27-.51,6.68,6.68,0,0,1,1.67,0,5.87,5.87,0,0,1,1.94.85,7.72,7.72,0,0,0,2.08,1.26,12,12,0,0,1,2.51.52,27.28,27.28,0,0,1,2.78,2.09,2.65,2.65,0,0,0,2.47.44,2.61,2.61,0,0,0,1.49-1.91,4.83,4.83,0,0,0-1-3.07c-.76-1.2-1.91-2.6-2.88-4.2a18,18,0,0,1-2.17-4.91,14,14,0,0,1-.35-3.89,13.28,13.28,0,0,0,0-2.36,1.83,1.83,0,0,0-.79-1.4,2.35,2.35,0,0,0-2.11-.18,4.93,4.93,0,0,0-2.16,2.18,18.34,18.34,0,0,0-1.19,3c-.27.71-.42.92-.85.6a8.71,8.71,0,0,1-1.75-2.11,11.72,11.72,0,0,1-1.49-3.2,19.72,19.72,0,0,1-.5-3.55,8.67,8.67,0,0,0-.6-3.08,1.5,1.5,0,0,0-1.31-.73c-.36,0-.46,0-.44-.81s.14-2.25.12-3.65a15.6,15.6,0,0,0-.48-4,9.74,9.74,0,0,0-1.17-2.87c-.39-.57-.71-.62-1.13-.3a17.72,17.72,0,0,0-1.53,1.61,18.39,18.39,0,0,1-1.71,1.58,3.9,3.9,0,0,0-1.55,2.09,6.82,6.82,0,0,0,.5,3.43,7.66,7.66,0,0,0,1.31,2,1.38,1.38,0,0,1,.34,1.29,15.87,15.87,0,0,1-.82,1.88,5.88,5.88,0,0,0-.46,2.32,24.08,24.08,0,0,0,.32,3.07,9.57,9.57,0,0,1,.16,2.44,3.49,3.49,0,0,1-.57,1.38ZM21.93,80.13a1.46,1.46,0,0,0,1.24-.55,2.31,2.31,0,0,0,.34-1.93,6.53,6.53,0,0,0-1.33-2.11c-.58-.78-1.24-1.72-1.72-2.26s-.74-.71-1-.45A4.49,4.49,0,0,0,19,74.64a16.71,16.71,0,0,1-.27,2.13c-.1.17-.24-.52-.3-1.58a17.21,17.21,0,0,1,.2-3.56,29.92,29.92,0,0,1,.8-2.94,16.23,16.23,0,0,0,.44-2.91c0-.64-.2-.64-.53-.25s-.84,1.14-1.24,1.65a2.31,2.31,0,0,1-1.23,1,17.62,17.62,0,0,0-1.93.57,6.79,6.79,0,0,0-2,1.6c-.55.63-.92,1.29-1.3,1.61a1.6,1.6,0,0,1-1.22.34,1.8,1.8,0,0,0-1.47.54,13,13,0,0,0-1.77,2.8,14.19,14.19,0,0,0-1.43,3.56,7,7,0,0,0,.23,3.09,13.62,13.62,0,0,0,.81,2.48A2.84,2.84,0,0,0,8,86.23a3.17,3.17,0,0,0,2.13.24,1.36,1.36,0,0,0,1-1.24,8.15,8.15,0,0,0-.27-2,5.25,5.25,0,0,1-.08-1.75c.1,0,.37.9.74,1.51a2,2,0,0,0,1.27,1c.41.09.73,0,1,.13s.46.63.9.67a7.71,7.71,0,0,0,1.74-.51c.63-.15,1.2-.07,1.43-.31s.14-.77.27-1.25A4.35,4.35,0,0,1,19,81.32,8,8,0,0,1,20,80a.83.83,0,0,1,.9-.07,3.36,3.36,0,0,0,1,.19ZM12.4,127a4.17,4.17,0,0,1,0,1.49c-.09.37-.32.51-.66.88a10.15,10.15,0,0,0-1,1.33c-.21.39-.21.6-.33.37s-.39-.87-.66-1.31-.53-.67-.33-.9.85-.48,1.24-.91a1.89,1.89,0,0,0,.33-1.82,4.74,4.74,0,0,0-1.38-2.25,3.3,3.3,0,0,0-2.23-.8,10.46,10.46,0,0,0-1.9.37,1.47,1.47,0,0,1-.94,0,2,2,0,0,0-1.22,0,3.11,3.11,0,0,0-1.52,1.41,11,11,0,0,0-1.47,3.47A19,19,0,0,0,0,132.91a9,9,0,0,0,.72,3.68,8.72,8.72,0,0,0,2.36,2.77A16.31,16.31,0,0,0,6,141.09a21.14,21.14,0,0,0,2.66,1.16,3.21,3.21,0,0,0,2.22.14,3.28,3.28,0,0,0,1.47-1.7c.3-.75.4-1.54.58-1.88s.41-.21.71.12a8.69,8.69,0,0,0,1.77,1.74c1.12.85,3,2,4.25,2.76s1.88,1.21,2.09,1.14,0-.61-.49-1.6-1.42-2.43-2-3.36a4.41,4.41,0,0,1-.83-1.7c0-.32.25-.54.46-.77a1.11,1.11,0,0,0,.27-1,9.94,9.94,0,0,0-.57-2.18,6.12,6.12,0,0,0-1-1.86,8.85,8.85,0,0,0-1.52-1.32,3.68,3.68,0,0,0,1.89,0c.48-.23.73-.8.84-1.79a10.09,10.09,0,0,0-.29-3.56,6.34,6.34,0,0,0-1.65-2.75,5.65,5.65,0,0,0-2.09-1.32,1.72,1.72,0,0,0-1.64.17A3.09,3.09,0,0,0,12,123.29a5.2,5.2,0,0,0,.11,2c.12.62.19,1.14.26,1.69Zm17.08,27.44A5.08,5.08,0,0,1,28,153.11a10.42,10.42,0,0,1-1.2-2.09c-.25-.61-.3-.94-.14-1s.53.25,1,.76,1,1.24,1.47,1.79.78.9,1,1.2a.75.75,0,0,1,.14.66c-.09.14-.3.21-.71,0Zm22,32.1c-.39-.62-.88-1.75-1.36-2.67a3.89,3.89,0,0,0-1.63-1.85,1.52,1.52,0,0,0-1.79.45,4.63,4.63,0,0,0-.57,2.32,9.48,9.48,0,0,0,.06,2.44c.14.84.51,1.74.79,2.73a9.71,9.71,0,0,1,.46,3,3.7,3.7,0,0,1-.76,2.29,9.85,9.85,0,0,1-1.56,1,2.46,2.46,0,0,0-.94,1.76,2.21,2.21,0,0,0,1,1.81,9.15,9.15,0,0,0,2.16.74,5.49,5.49,0,0,1,1.91,1.13,4.05,4.05,0,0,0,1.31,1.12,4.87,4.87,0,0,0,2.36.21c.66-.14.89-.53,1-1.27s.24-1.83.36-2.57.32-1.14.55-1.24.51.07.81.39a3.64,3.64,0,0,0,1.28,1.1,7.37,7.37,0,0,0,3.29.51A9.69,9.69,0,0,0,64.59,199a2.14,2.14,0,0,0,1.19-2.26c-.16-.64-.76-1-1.5-1.26a9.23,9.23,0,0,1-2.34-1,3.23,3.23,0,0,1-1.26-2.09c-.18-.9-.12-2-.28-3a9.49,9.49,0,0,0-1-2.83,4.44,4.44,0,0,0-1.73-1.93,2.71,2.71,0,0,0-2.31,0A3.67,3.67,0,0,0,54,186.08a6.26,6.26,0,0,1-.89,1.17.67.67,0,0,1-.67.08c-.25-.07-.52-.16-.89-.76Z"/></clipPath></defs><g id="Capa_2" data-name="Capa 2"><g id="Layer_1" data-name="Layer 1"><path class="cls-2" d="M99.71,67.68A76,76,0,0,0,87.5,68.9,82.41,82.41,0,0,0,74,73c-3,1.26-3.63,1.88-4,1.59s-.59-1.48-.62-2.3.12-1.22-1.1-.78a31.94,31.94,0,0,0-6,3.26,64.87,64.87,0,0,0-5.88,4.89,54.76,54.76,0,0,0-5.3,4.8c-1.27,1.51-1.73,2.93-2.28,2.32S47.59,83.59,47.6,81a25,25,0,0,1,1.78-8c1.06-3,2.53-6.48,2.71-9.34A9.28,9.28,0,0,0,50,57.21c-1.15-1.44-2.34-2.11-3-3.49a11.55,11.55,0,0,1-.64-5.66,11.91,11.91,0,0,1,1.78-5.91,4.31,4.31,0,0,1,4.46-1.67,11,11,0,0,1,5.14,2.92c1.34,1.33,2.09,2.73,4.5,3.73s6.54,1.55,12.61,1.25S88.94,46.86,96.38,46a120.3,120.3,0,0,1,19.77-1,41.68,41.68,0,0,1,12.54,2.66,77.81,77.81,0,0,1,8.56,4,120.59,120.59,0,0,1,11.09,6.11,34.18,34.18,0,0,1,8.17,7.32,21.16,21.16,0,0,1,4,8.41A53.41,53.41,0,0,1,162,85.07a28.79,28.79,0,0,1-1.2,9.32,16,16,0,0,1-3.08,5.42c-1,1.12-1.72,1.53-2.25,1.53s-.92-.41-1.65-2.18S152,94.27,151,91.63a34.46,34.46,0,0,0-2.85-6.27,5.53,5.53,0,0,0-3.24-2.64c-1.14-.23-2.34.19-3.35-.78s-1.86-3.3-3-5.28A28,28,0,0,0,134.11,71a41.29,41.29,0,0,0-6.44-5.9,10,10,0,0,0-6-1.81c-2,0-3.93.58-6,.78a47.62,47.62,0,0,1-6.32,0,38.28,38.28,0,0,0-5.21,0c-1.23.16-1.76.53-1.49,1.08s1.31,1.28,1.22,1.72-1.27.58-4.09.73Zm42.38-25.5a32.51,32.51,0,0,1-.18-4.82c.12-1.2.6-1.48,1.49-1.43a11.82,11.82,0,0,1,3.26.88,7.19,7.19,0,0,1,2.69,1.76c.76.81,1.4,2,1.74,2s.32-1.17-.09-3a20.59,20.59,0,0,0-3-6.77,22.25,22.25,0,0,0-7.34-6.93,16.07,16.07,0,0,0-8-1.71c-2,.1-2.89.6-2.76,1.54s1.24,2.32,1.77,3.58a3.57,3.57,0,0,1,0,3.27c-.53.94-1.52,1.67-1.61,2.62s.73,2.17,2.05,3.57,3.18,3,4.81,4.41,3,2.71,3.88,3.42,1.13.86,1.27.47a9.67,9.67,0,0,0,0-2.85Zm34.56,41.67a24,24,0,0,0-5.35-3.29c-1.47-.61-1.91-.27-1.66.74a47.28,47.28,0,0,0,1.89,4.34,31.38,31.38,0,0,1,1.54,5,26.08,26.08,0,0,0,1.1,4c.43.88,1,1.13,1.83.37A10.44,10.44,0,0,0,178.33,91a8.51,8.51,0,0,0,.11-4.08,4.28,4.28,0,0,0-1.79-3Zm-11.89,48.07a25.43,25.43,0,0,1-5.43,2.11,6.63,6.63,0,0,1-4.49-.32c-.88-.52-1-1.35-.07-3s2.84-4.07,4.27-6.61a37.79,37.79,0,0,0,3.05-7.19,39.25,39.25,0,0,1,1.54-4.41c.44-.87.9-1.08,1.86-.09a23.58,23.58,0,0,1,3.37,5,9.32,9.32,0,0,1,1.2,5.24,18,18,0,0,1-1.49,5.21,8.61,8.61,0,0,1-1.54,2.61,7.25,7.25,0,0,1-2.27,1.4Zm-22.23,25.65a9.64,9.64,0,0,1-6.2-.48c-2-.69-3.79-1.68-4-2.55s1.13-1.58,2.66-2.73a61.24,61.24,0,0,0,4.76-4.11,35.5,35.5,0,0,1,3.78-3.28c1-.63,1.59-.63,2.32,0a7.68,7.68,0,0,1,2.05,3.49,7.19,7.19,0,0,1-.28,5.44,9.05,9.05,0,0,1-5.05,4.22Zm-60,1.38a18,18,0,0,1-2.61-5.44c-.53-1.63-.67-2.49-.33-2.9s1.16-.29,2.83.65,4.16,2.71,6.66,4.1,5,2.37,6.8,3.17,2.89,1.43,2.79,2.11-1.4,1.41-3.6,1.59a29.23,29.23,0,0,1-7.55-.67c-2.28-.5-3.81-1.12-5-2.61Zm-26-17.17c-.48-2.23.36-5.31,1.28-7.26s2-2.78,2.92-2.92,1.77.44,2.89,1.8,2.53,3.5,4,5.39,2.88,3.58,4.12,5,2.31,2.71,1.92,3.62-2.22,1.48-4.61,1.33a23.46,23.46,0,0,1-7.78-2.18c-2.39-1.16-4.21-2.56-4.71-4.81Zm-8.22-27.6c.23-.83.32-4.09,1.22-6.2a11.55,11.55,0,0,1,4.45-4.83c1.66-1.07,3.14-1.55,4.13.15s1.5,5.55,2.6,9.84,2.75,9,3.44,11.74.35,3.39-1.49,2.87-5.24-2.25-7.76-3.27-4.2-1.42-4.85-.7-.29,2.57-.15,4.19,0,3-1,3.77-2.94.85-4.87-.27-3.86-3.45-5.08-7.14A28.22,28.22,0,0,1,37.61,113c.45-2.68,1.85-3,3.16-2.29s2.49,2.64,3.82,3.62c1.53,1.13,3.09,2,3.67-.13Z"/><path class="cls-3" d="M86.19,192.79c-.83.28-1.84.69-2.64.92a2.22,2.22,0,0,1-1.93,0c-.55-.32-1.1-1-1.66-1.39s-1.19-.35-1.53-.56a.76.76,0,0,1-.23-1,2.23,2.23,0,0,1,1.6-.79,12.56,12.56,0,0,1,2.74,0l2.71.18c.8,0,1.38.09,2.2.16s1.82.14,2.73.28,1.66.36,1.8.68-.39.72-1.13.92a13,13,0,0,1-2.44.21,8.71,8.71,0,0,0-2.22.46ZM131,14.4a8,8,0,0,1-3.23-.14c-1.45-.23-3.24-.57-4.55-.65a7.39,7.39,0,0,0-3,.37,11.38,11.38,0,0,0-2.35,1,2.59,2.59,0,0,0-1.14,1.17,3.64,3.64,0,0,1-.69,1.42c-.57.74-1.77,1.91-2.41,2.76s-.76,1.42.06,1.88a9.74,9.74,0,0,0,4.41.85c1.82,0,3.75-.42,5-.46a2.75,2.75,0,0,1,2.38,1,18.84,18.84,0,0,0,1.87,2c.61.48,1.17.53,1.28.83s-.3.89-.16,1.28.87.55,2.09,1a29.27,29.27,0,0,0,5.14,1.51c2.18.39,4.78.5,6.64.87a12.47,12.47,0,0,1,4.18,1.72l3.35,1.91c.87.5,1.35.76,1.61.18s.36-2,.78-2.94,1.23-1.47,1.76-2.43a13.64,13.64,0,0,0,1-3.28,9.46,9.46,0,0,1,.74-2.35,17.19,17.19,0,0,0,1.4-3.71,10.92,10.92,0,0,0,0-4.64,9.29,9.29,0,0,0-1.31-2.36,11.15,11.15,0,0,1-.55-2.21,5.3,5.3,0,0,0-1.18-2.34c-.57-.58-1.31-.85-1.42-1.33s.42-1.18.42-1.95a4,4,0,0,0-1.5-2.57A11.64,11.64,0,0,0,147.93.19a2.45,2.45,0,0,0-2.76.5,2.68,2.68,0,0,0-.09,2.66A8,8,0,0,0,147,5.83a12.05,12.05,0,0,1,1.4,1.4,1.58,1.58,0,0,1,.32,1.22c-.08.35-.34.55-1,.32A28,28,0,0,1,145,7.42,3.61,3.61,0,0,0,142.64,7c-.82.14-1.78.64-2.71.9a10.07,10.07,0,0,1-2.73.3,15.79,15.79,0,0,1-2.57-.1,8,8,0,0,0-2.62-.2,3.09,3.09,0,0,0-2.09,1.31,1.82,1.82,0,0,0,.44,1.94A8.91,8.91,0,0,1,131.74,13,1.09,1.09,0,0,1,131,14.4Zm-21.31,4.49c-.77,0-2,0-3.16,0a16.17,16.17,0,0,0-2.64.12c-.33.12.11.35.64.64s1.17.58,1.63.74a1.56,1.56,0,0,0,1.17.07c.37-.12.81-.41,1.43-.65s1.44-.46,1.71-.62,0-.27-.78-.3ZM36.53,35.68a2.26,2.26,0,0,1-1.68.92,15.21,15.21,0,0,0-2.41.3,21.36,21.36,0,0,0-2.87,1.44,17.09,17.09,0,0,1-2.92,1.24c-.93.26-1.72.33-2.22,1a4.24,4.24,0,0,0-.28,3.35,13.17,13.17,0,0,0,2.12,4.41,8.09,8.09,0,0,0,3,2.73,1.47,1.47,0,0,0,2.09-.77,9.42,9.42,0,0,0,.46-3.41c0-1,0-1.55.52-1.62A5.24,5.24,0,0,1,35,46.2a25.91,25.91,0,0,1,3.07,2.31c.9.76,1.61,1.36,2.32,1.88a3.78,3.78,0,0,0,2.23.92c.78,0,1.61-.55,3.56-1.93a73.7,73.7,0,0,0,6.55-5.09,5.67,5.67,0,0,0,1.74-2.59A1.67,1.67,0,0,1,55.81,41c.62-.11,1.38-.07,2.18-.27a4.12,4.12,0,0,0,2.26-1.4,5.57,5.57,0,0,0,1.21-3A1.85,1.85,0,0,0,60,34.21,14.14,14.14,0,0,0,55.15,34c-1.49.16-2.32.46-2.9.51a1.51,1.51,0,0,1-1.42-.63A9.76,9.76,0,0,0,49.08,32a7.35,7.35,0,0,0-2.77-1c-.9-.14-1.63-.14-1.79-.55s.21-1.22.78-2.39a18.13,18.13,0,0,1,1.88-3.43c.6-.68,1.08-.47,2-.77s2.18-1.11,3.5-1.61a7.81,7.81,0,0,1,3.12-.57c.44.11,0,.5-.74,1.09a6.73,6.73,0,0,0-2,2.07c-.29.71.12,1.33.56,1.95s.91,1.25,1.69,1.15a12.74,12.74,0,0,0,3.1-1.7A24.68,24.68,0,0,1,63.09,24a53,53,0,0,1,6.39-1.82c1.9-.41,3.16-.45,4-.64s1.41-.55,1.08-.76a10.45,10.45,0,0,0-3.07-.43,49.35,49.35,0,0,1-4.92-.49,16,16,0,0,1-4-1.28A24,24,0,0,0,58.62,17a11.82,11.82,0,0,0-4.51-.28,16.4,16.4,0,0,0-3.83,1.08,12.89,12.89,0,0,1-2.46.92,10.79,10.79,0,0,0-2.57.41,10.37,10.37,0,0,0-3.81,2.83c-1.42,1.55-2.92,3.76-4.13,5.27s-2.12,2.26-2.82,3.2-1.16,2-.81,2.64,1.47.75,2.16,1.14a1.21,1.21,0,0,1,.69,1.52Zm49-12.21c-.47-.23-.92-.79-1.63-1.27s-1.66-.87-1.45-1.06a10.58,10.58,0,0,1,3.1-.11c1.51,0,3.15.09,4.22.14s1.56.16,1.65.46-.27.87-1.07,1.21a15.33,15.33,0,0,1-3,.6c-.89.12-1.39.25-1.85,0Zm64,49.68c.53.32,1.26.71,2,1.06a4.37,4.37,0,0,1,1.87,1.4c.48.73.8,1.86,1.39,2.82s1.45,1.7,1.7,2.23-.13.8-.53,1.07-.84.49-.93,1.11a12.94,12.94,0,0,0,.5,3,25.59,25.59,0,0,1,.6,4.2,14.2,14.2,0,0,1-.28,2.64,4.56,4.56,0,0,0,.3,1.8c.25.91.64,2.41.94,4.15a30.35,30.35,0,0,1,.55,5.35c0,1.72-.23,3.24,0,3.42s.82-1,1.21-2a14.52,14.52,0,0,1,.87-2.47,4.34,4.34,0,0,1,1.75-1.24,3.85,3.85,0,0,0,2.06-2.44,18.91,18.91,0,0,0,.37-6,43.88,43.88,0,0,0-.6-4.73c-.18-.92-.2-1,.08-1.22a8.75,8.75,0,0,0,1.53-1.3,5.87,5.87,0,0,0,1.47-3.22,10.57,10.57,0,0,0-.78-4.68,20.34,20.34,0,0,0-1.79-3.26c-.43-.72-.5-1.1-.11-1.7a10.76,10.76,0,0,0,1.58-2.34,3.23,3.23,0,0,0-.5-2.58,23.65,23.65,0,0,1-1.47-2.8,19.18,19.18,0,0,1-.76-3.56,21.68,21.68,0,0,1-.41-3.35c.07-.59.46-.36,1,.14a5.85,5.85,0,0,1,1.61,2.25,7.09,7.09,0,0,1,.25,2.78,2.51,2.51,0,0,0,.25,1.59,15.49,15.49,0,0,0,1.31,1.88c.39.5.55.71,1.13.34a5.39,5.39,0,0,0,2.13-3,9.2,9.2,0,0,0-.55-5.93,11.44,11.44,0,0,0-4.27-4.89,9.41,9.41,0,0,0-4.41-1.19,11.49,11.49,0,0,1-3-.5,8.49,8.49,0,0,0-2-.85,5.69,5.69,0,0,0-2.16.64,4.31,4.31,0,0,1-2.42.35c-.93-.15-2-.69-3-.93s-1.81-.22-2.06-.93.09-2.17,0-3.65a11.6,11.6,0,0,0-1.77-4.76,40,40,0,0,0-3.76-5.4,10.16,10.16,0,0,0-3.72-3,14.72,14.72,0,0,0-5.76-1.46,30.2,30.2,0,0,0-6.55.77,8.26,8.26,0,0,1-3.14.35A21.48,21.48,0,0,1,118.56,32a21,21,0,0,0-4.2-1.3,8.54,8.54,0,0,0-3.9.08,7.45,7.45,0,0,0-3.63,2,5.76,5.76,0,0,0-1.52,3.66,5.84,5.84,0,0,0,.87,2.82c.35.67.53,1-.2,1.49s-2.32,1-3.19,1.45-1,.83-1.49.8a9.81,9.81,0,0,0-2.57-.36,12.68,12.68,0,0,0-4.09,1.19A18.54,18.54,0,0,1,92.29,45c-.54.09-.89-.25-1.32-.59s-.88-.63-.86-1,.49-.74.94-1.47a5.84,5.84,0,0,0,.79-2.89,4.19,4.19,0,0,0-1.18-3.15c-.89-.8-2.29-1.15-4.42-1.33a28.63,28.63,0,0,0-7,.27,13.67,13.67,0,0,0-3.93,1.55,3.6,3.6,0,0,1-1.81.38,8.93,8.93,0,0,0-2.29.28,5.35,5.35,0,0,0-2.51,1.29,4.7,4.7,0,0,0-1.31,2.38,3.83,3.83,0,0,0,.14,1.61c.07.34,0,.48-.5.58a14.46,14.46,0,0,0-2.89.73,28,28,0,0,0-5.22,2.71,15.61,15.61,0,0,0-3,2.69c-.66.73-1.15,1.19-1.93,1.19s-1.84-.51-2.93-.55A4.8,4.8,0,0,0,48,50.83c-1,.74-1.77,1.81-2.52,2.35a8.44,8.44,0,0,1-2.16.89,6.59,6.59,0,0,0-2.41,1.86,11.33,11.33,0,0,0-2,3.46,21.91,21.91,0,0,0-.62,3.15,10.59,10.59,0,0,1-1.21,2.78,17.38,17.38,0,0,0-2,5.32,9.76,9.76,0,0,0,.74,5.49,4.72,4.72,0,0,0,2.32,2.35,1.17,1.17,0,0,0,1.61-.37,6.68,6.68,0,0,0,1.24-2.6,12.69,12.69,0,0,0,0-2.38,17.67,17.67,0,0,1,.74-3.24,24.28,24.28,0,0,1,1.44-4.39,6,6,0,0,1,2.11-2.45,9.7,9.7,0,0,1,1.91-1c.57-.23,1-.42,1,.06A26.91,26.91,0,0,1,47,65.23a52.32,52.32,0,0,0-1.61,5.32,20.62,20.62,0,0,0-.68,4.55,3.71,3.71,0,0,0,.7,2.41,1.43,1.43,0,0,0,1.45.44c.55-.1,1.19-.42,1.56-.46s.51.2,1,.29a3.22,3.22,0,0,0,2-.34c.71-.37,1.36-1.08,1.81-1.15s.72.46,1,1a2.18,2.18,0,0,0,1.16,1.14,1.76,1.76,0,0,0,1.9-.87c.64-.89,1.19-2.47,2.94-4.86a35.44,35.44,0,0,1,7-7.12,6.71,6.71,0,0,1,5.39-1.27,36.15,36.15,0,0,1,3.95,1,12.77,12.77,0,0,0,4.75.57,35.92,35.92,0,0,0,7.23-1.34,38.57,38.57,0,0,0,5.58-2.08c1.15-.55,1.4-.81,1.24-1.26a8.63,8.63,0,0,1-1-1.87,3.48,3.48,0,0,1,.44-2.41,2.63,2.63,0,0,1,1.71-1.12,13.55,13.55,0,0,1,2.35-.44,2,2,0,0,0,1.38-.39,7.81,7.81,0,0,1,3.95-1.68,22.35,22.35,0,0,1,9,.47,9.32,9.32,0,0,1,4.66,3.35c.87,1,1.35,1.47,1.9,1.6a2.7,2.7,0,0,0,1.73-.36,8.89,8.89,0,0,0,1.69-1.1,2.78,2.78,0,0,0,1.09-1.75c.13-.78-.1-1.82,0-2.53a1.09,1.09,0,0,1,1.17-1.07,6,6,0,0,1,2.52,1.3A13.16,13.16,0,0,1,131,56a5.52,5.52,0,0,1,1.07,3c0,.71-.3.94-.82.87s-1.27-.42-1.77-.55-.73,0-.44.28A11.26,11.26,0,0,1,131,61.09a22.78,22.78,0,0,1,2.27,3.26c.56.93.85,1.43,1,1.24s.25-1.14.67-1.3,1.17.41,2.24,1.44A49.54,49.54,0,0,1,141,70a40.45,40.45,0,0,1,3.54,5.31,25,25,0,0,1,1.72,4.16c.41,1.24.83,2.41,1.13,3.05s.53.74.64.16a20.26,20.26,0,0,1,.37-2.66c.27-.79.82-1.1,1.1-1.7a4.13,4.13,0,0,0,.23-2.19,6.59,6.59,0,0,0-.55-1.87,5.92,5.92,0,0,1-.51-1.47c0-.19.32,0,.83.34Zm46.28,5.62a6.61,6.61,0,0,0-2.52.39,22.52,22.52,0,0,1-2.62.58c-.76.11-1.37.09-1.69.41a3,3,0,0,0-.35,1.75c0,.76,0,1.6.09,2.55s.26,2.06.41,3.14a9.48,9.48,0,0,0,.71,3c.46.89,1.25,1.65,2,1.63s1.46-.8,1.95-1.43.78-1.19,1.05-1.21.5.44,1,.66a2.12,2.12,0,0,0,1.91-.2,2.38,2.38,0,0,0,1-1.91c.06-.78-.24-1.6-.19-2.23s.44-1.12.6-1.92a5.55,5.55,0,0,0-.21-2.69,3.47,3.47,0,0,0-1.31-1.51,4.32,4.32,0,0,0-1.84-1Zm-15.74-1.9a7.61,7.61,0,0,0-2.57-1.79c-.62-.16-.72.37-.62,1.3s.41,2.25.15,2.62-1.14-.25-1.86-.55a2.8,2.8,0,0,0-1.86-.21c-.54.12-1,.42-1.42.51s-.78,0-.87.39a11.78,11.78,0,0,0,.43,2.85c.3,1.51.69,3.56,1,4.45s.48.6.64-.07.28-1.7.62-1.77.88.85,1.47,1.87,1.2,2.18,1.59,2.94.5,1.12.45,1.39-.34.4-.77.4a6.09,6.09,0,0,0-1.18-.07c-.16.11.14.45.48,1.37a30.08,30.08,0,0,1,1.06,3.74c.28,1.29.44,2.39.78,2.67s.87-.23,1.13-1.1.3-2.11.5-2.71.56-.62.79-.23a6.19,6.19,0,0,1,.45,2,4.79,4.79,0,0,0,.64,2.3,1.24,1.24,0,0,0,1.87.11A6.47,6.47,0,0,0,184.34,96a26.58,26.58,0,0,0,.44-4.16A4.77,4.77,0,0,1,185,90a4.84,4.84,0,0,0,.77-1.9,7.2,7.2,0,0,0-.46-3.15,13.8,13.8,0,0,0-1.42-2.46c-.48-.82-.89-1.76-1.24-2.32a11.35,11.35,0,0,0-1-1.26,13.64,13.64,0,0,0-1.6-2Zm4.18,58.73c-.56,0-1.39-.14-2.16-.16a4.47,4.47,0,0,1-1.95-.28c-.49-.27-.74-.85-1.08-1a.6.6,0,0,0-.81.53,6.07,6.07,0,0,0,.46,1.72,17.28,17.28,0,0,1,.44,2.21,12.09,12.09,0,0,0,.52,2c.23.59.51,1.06.63,1.52a2.1,2.1,0,0,1-.16,1.53c-.24.57-.74,1.24-1.13,2s-.69,1.53-.35,1.35a26.44,26.44,0,0,0,2-2c.74-.77,1.32-1.19,1.84-1.67a4.14,4.14,0,0,0,1.2-1.7,15.37,15.37,0,0,1,.41-1.93c.27-.5.83-.71,1.17-1.13a2.64,2.64,0,0,0,.37-1.6,1.56,1.56,0,0,0-.37-1.06c-.2-.2-.5-.23-1.05-.27Zm-12.59,21.56a4.63,4.63,0,0,0-1.44,1.28c-.53.71-1.1,1.86-1.7,2.89s-1.22,1.93-1.59,2.51-.52.8.07.44a20.21,20.21,0,0,0,2.71-2c.81-.73,1.15-1.24,1.19-1.53s-.27-.33-.27-.64a4.25,4.25,0,0,1,.67-1.52,19,19,0,0,0,1-1.7c.1-.27-.21,0-.62.28ZM103,188.65c-.53.15-1.38.35-2,.49a4,4,0,0,1-1.47.11c-.35-.09-.59-.3-.41-.52a2.8,2.8,0,0,1,1.37-.58,14.43,14.43,0,0,1,1.75-.23,9.78,9.78,0,0,1,1.54-.11c.32.06.32.25.18.41a1.92,1.92,0,0,1-.94.43Zm47.13-8.86a13,13,0,0,1-3,.46,5.59,5.59,0,0,0-2,.19,4.85,4.85,0,0,0-1.93,1.72c-.51.78-.74,1.68-1.2,2.23a3.39,3.39,0,0,1-2.25.91c-1.12.16-2.68.32-4,.6a8.64,8.64,0,0,0-2.69,1c-.3.25.14.36,1.06.45s2.32.12,3.47.24a16.06,16.06,0,0,1,2.91.55,14,14,0,0,1,2.46,1,12.33,12.33,0,0,0,2.16,1.06,6.21,6.21,0,0,0,2.71.12c1-.14,2-.46,2.93-.6s1.65-.11,2.37-.19a5.87,5.87,0,0,0,2.43-.8,13.38,13.38,0,0,0,3.17-2.46,6.25,6.25,0,0,0,1.6-3.05,9.72,9.72,0,0,0-.06-2.77,6.36,6.36,0,0,1,.23-2.56c.3-1.05.89-2.43,1.53-4a26.78,26.78,0,0,0,1.27-3.87c0-.35-.65.82-1.47,1.9a22.56,22.56,0,0,1-2.85,2.94,26.46,26.46,0,0,1-3.19,2.41,28.06,28.06,0,0,1-3,1.47,20,20,0,0,1-2.65,1.12Zm-22.45,7a10.51,10.51,0,0,1-3.15.45,12.14,12.14,0,0,1-2.87-.36c-.77-.19-1.28-.37-1.21-.53a3.05,3.05,0,0,1,1.63-.28c.87,0,1.95.14,3,.14a17.38,17.38,0,0,0,2.69-.18c.62-.09.85-.17.87,0s-.2.49-.94.77Zm-4.24-26.71a5.58,5.58,0,0,1-1.48-.23,14.27,14.27,0,0,1-1.88-.78c-.53-.27-.85-.44-.6-.44a18.05,18.05,0,0,0,2.39.14,26.47,26.47,0,0,0,4.53-.61,10.51,10.51,0,0,0,3.07-1.09c.8-.45,1.54-1,2-1.35s.71-.41.58-.12a7.89,7.89,0,0,1-1.22,1.57,12.18,12.18,0,0,0-1.47,1.7c-.23.43,0,.66.35,1a6.43,6.43,0,0,0,1.26,1.17,1.41,1.41,0,0,0,1.67-.2c.65-.49,1.47-1.5,2.23-2.25a4.41,4.41,0,0,1,2.09-1.25,1.48,1.48,0,0,1,1.44.69c.42.51.81,1.31,1.66,1.2s2.14-1.1,3.12-3.1a21,21,0,0,0,1.75-7c.11-2-.3-3.06-.79-3.31s-1.07.3-2,.74a11.83,11.83,0,0,1-2.94.85c-.78.13-1.1,0-.76-.26s1.27-.82,2.23-1.61,1.9-1.92,2.76-2.82a25.15,25.15,0,0,0,2.11-2.27c.43-.62.48-1.15.71-1.08s.66.71.92,1.35a6,6,0,0,0,.8,1.77c.44.51,1.22.9,1.61,1.47a4.56,4.56,0,0,1,.46,1.77c.13.5.39.76.85.67a4.32,4.32,0,0,0,2-1.4,18.28,18.28,0,0,0,2.34-3.08,16.94,16.94,0,0,0,1-2.35,19.93,19.93,0,0,0,1.1-2.64,13.44,13.44,0,0,0,.28-2.5c.07-.73.23-1.28-.26-1.24a15.62,15.62,0,0,0-2.55,1c-.94.35-1.72.5-1.78.3s.68-.73,1.53-1.43,1.82-1.58,2.51-2.17a5,5,0,0,1,1.62-1,2.94,2.94,0,0,0,2-1.59A35.29,35.29,0,0,0,163,123c.55-1.52.71-2,1.22-2.32a8.89,8.89,0,0,1,2.11-.48,3,3,0,0,0,1.86-1,8.12,8.12,0,0,0,1.1-2.33c.23-.7.34-1,.09-1a12.72,12.72,0,0,0-1.42.74,2.36,2.36,0,0,1-1.31.28c-.2,0,0-.23.28-.79a17.74,17.74,0,0,0,1.14-2.47,7.72,7.72,0,0,0,.42-2.65,9.43,9.43,0,0,0-.41-2.59c-.23-.74-.54-1.29-.35-1.19a8.31,8.31,0,0,1,1.36,1.51,7.08,7.08,0,0,0,1.3,1.63,4.81,4.81,0,0,0,1.65.3,5,5,0,0,1,1.71.69c.46.28.71.57,1.14.58a8.58,8.58,0,0,1,1.68,0,4.45,4.45,0,0,1,2.14,1.35,6.9,6.9,0,0,1,1.56,2.83,19.33,19.33,0,0,1,.87,4.64,14.64,14.64,0,0,1-.41,4.66,21.1,21.1,0,0,1-1.57,4.11,20.38,20.38,0,0,1-1.74,2.87,8.42,8.42,0,0,1-2.51,2.54,12.76,12.76,0,0,1-3.88,1.33,12.85,12.85,0,0,0-3.1.83,16,16,0,0,0-2.34,1.63c-.61.42-1,.53-1.19,1.12s-.3,1.61-.74,2.78a18.74,18.74,0,0,1-2.08,3.59,17.77,17.77,0,0,1-2.35,2.91,13.35,13.35,0,0,1-3.14,2.2c-1.19.6-2.48,1-3.19,1.34s-.8.44-.94,1.56a21.74,21.74,0,0,1-1,5.21,16.53,16.53,0,0,1-3.34,5.31,11.64,11.64,0,0,1-3.15,2.24,15.27,15.27,0,0,1-2.59,1.45,15.94,15.94,0,0,1-3.91.83,14.55,14.55,0,0,1-4.73-.09,21,21,0,0,1-4.68-1.66c-1-.52-1.26-.78-1.82-.64a22,22,0,0,0-2.48,1.17,9.15,9.15,0,0,1-3.42,1,10,10,0,0,1-3.87-.55,6.69,6.69,0,0,1-2.58-1.61c-.55-.58-.76-1.15-.53-1.58s.92-.67,2-.95,2.41-.61,3.5-.82,1.9-.3,2.55-.39,1.14-.17,1.32-.44,0-.69,0-1.15a4.82,4.82,0,0,1,.3-1.4Zm-64.27-25A14.58,14.58,0,0,0,57,133.33a1.42,1.42,0,0,0-1.54.09c-.43.27-.78.69-1.15.78s-.73-.14-1.14-.17-.83.1-1.47.83a6.53,6.53,0,0,0-1.61,3.79,15,15,0,0,0,1.08,5.69,13.6,13.6,0,0,0,2.09,3.82,23,23,0,0,0,2,2.08,2,2,0,0,1,.74,1.29c0,.48-.1,1.06,0,2a10,10,0,0,0,.83,3.48,22.23,22.23,0,0,0,2.89,4.41,46.81,46.81,0,0,0,4.54,4.92,30.51,30.51,0,0,0,5,3.81,16.36,16.36,0,0,0,4.46,2,12.15,12.15,0,0,0,3.81.28,15,15,0,0,0,3.23-.62,22.57,22.57,0,0,1,3-.83,3.9,3.9,0,0,1,2.18.41,10.13,10.13,0,0,0,2.64.81,6.53,6.53,0,0,0,3.47-.55,17.36,17.36,0,0,0,3.93-2.55,5.38,5.38,0,0,0,2.22-3.15,5.83,5.83,0,0,0-1.1-3.72,10.57,10.57,0,0,0-3.08-3.12,40,40,0,0,0-5.33-3,29.93,29.93,0,0,0-5-1.92,7.14,7.14,0,0,0-2.65-.19c-.76,0-1.65,0-2.59.1a5.37,5.37,0,0,0-2.8.82c-.87.6-1.63,1.7-2.89,2.2a8.49,8.49,0,0,1-4.62,0,19.48,19.48,0,0,1-4-1.43c-1-.48-1.63-.85-1.61-1s.65-.18,1.86-.41a17.18,17.18,0,0,0,4.57-1.56,8.54,8.54,0,0,0,3.47-3.12,2.21,2.21,0,0,0-.57-2.69c-.74-.8-1.88-1.52-2.87-2.39a33.13,33.13,0,0,1-2.73-2.92c-.88-1-1.86-2.06-2.71-2.89s-1.61-1.42-2.28-2-1.24-1-1.95-1.63Zm-17.89,40a6,6,0,0,0,.19-2.67,7.39,7.39,0,0,0-.85-2.59,10.94,10.94,0,0,0-1.49-2.18,8.67,8.67,0,0,0-1.91-1.72c-.68-.42-1.33-.63-1.56-.4s-.05.87,0,1.45a4.72,4.72,0,0,1,.07,1.51,1.84,1.84,0,0,1-.44.93c-.23.25-.51.47-.67.68a.77.77,0,0,0-.13.78,3.91,3.91,0,0,1,.39,1,1,1,0,0,1-.39.78,1.65,1.65,0,0,0-.48.83,1.43,1.43,0,0,0,.41,1.26,3.2,3.2,0,0,0,1.72.76,4.61,4.61,0,0,0,1.67-.12c.44-.13.74-.25.81-.52s-.12-.65-.07-.74.34.12.62.48a3.58,3.58,0,0,0,.9,1.08c.39.17.89,0,1.16-.61ZM3.07,118.58c.17-.27.28-.68.54-1.07s.7-.78.77-1.17a1,1,0,0,0-.73-1,1.61,1.61,0,0,0-1.44.25,1.87,1.87,0,0,0-.51,1.16A2.27,2.27,0,0,0,1.58,118a1.35,1.35,0,0,0,.74.85.6.6,0,0,0,.75-.26Zm33.05-6.28c-.17.34-.24.61-.42.64s-.43-.09-.73-.88-.63-2.18-1-3.58a38,38,0,0,1-1-4.31,32.5,32.5,0,0,1-.23-4.46c0-1.24,0-2,.07-2.93a7.47,7.47,0,0,0-.11-2.63,1.67,1.67,0,0,0-1.51-1.1,4,4,0,0,0-2.62.6,8.21,8.21,0,0,0-2.81,3.13,13.72,13.72,0,0,0-1.39,4.65,11.75,11.75,0,0,0,.15,3.86c.24,1.31.67,2.8,1.09,4.23s.87,2.86,1.44,4.54,1.27,3.63,1.77,5.22a35.53,35.53,0,0,0,1.22,3.87,22.65,22.65,0,0,0,1.58,2.57c.39.62.46,1,.3,1.27s-.55.5-.74.92a2.32,2.32,0,0,0,.1,1.81A6.43,6.43,0,0,0,32.94,132a10.39,10.39,0,0,0,2.67,1.84,23.74,23.74,0,0,0,3,1.19,7.05,7.05,0,0,0,3,.57,5.05,5.05,0,0,0,2.89-1.21c.62-.64.68-1.38.73-2.6s.1-2.87.25-4.15a5.9,5.9,0,0,1,.71-2.62,1.49,1.49,0,0,1,1.27-.51,6.68,6.68,0,0,1,1.67,0,5.87,5.87,0,0,1,1.94.85,7.72,7.72,0,0,0,2.08,1.26,12,12,0,0,1,2.51.52,27.28,27.28,0,0,1,2.78,2.09,2.65,2.65,0,0,0,2.47.44,2.61,2.61,0,0,0,1.49-1.91,4.83,4.83,0,0,0-1-3.07c-.76-1.2-1.91-2.6-2.88-4.2a18,18,0,0,1-2.17-4.91,14,14,0,0,1-.35-3.89,13.28,13.28,0,0,0,0-2.36,1.83,1.83,0,0,0-.79-1.4,2.35,2.35,0,0,0-2.11-.18,4.93,4.93,0,0,0-2.16,2.18,18.34,18.34,0,0,0-1.19,3c-.27.71-.42.92-.85.6a8.71,8.71,0,0,1-1.75-2.11,11.72,11.72,0,0,1-1.49-3.2,19.72,19.72,0,0,1-.5-3.55,8.67,8.67,0,0,0-.6-3.08,1.5,1.5,0,0,0-1.31-.73c-.36,0-.46,0-.44-.81s.14-2.25.12-3.65a15.6,15.6,0,0,0-.48-4,9.74,9.74,0,0,0-1.17-2.87c-.39-.57-.71-.62-1.13-.3a17.72,17.72,0,0,0-1.53,1.61,18.39,18.39,0,0,1-1.71,1.58,3.9,3.9,0,0,0-1.55,2.09,6.82,6.82,0,0,0,.5,3.43,7.66,7.66,0,0,0,1.31,2,1.38,1.38,0,0,1,.34,1.29,15.87,15.87,0,0,1-.82,1.88,5.88,5.88,0,0,0-.46,2.32,24.08,24.08,0,0,0,.32,3.07,9.57,9.57,0,0,1,.16,2.44,3.49,3.49,0,0,1-.57,1.38ZM21.93,80.13a1.46,1.46,0,0,0,1.24-.55,2.31,2.31,0,0,0,.34-1.93,6.53,6.53,0,0,0-1.33-2.11c-.58-.78-1.24-1.72-1.72-2.26s-.74-.71-1-.45A4.49,4.49,0,0,0,19,74.64a16.71,16.71,0,0,1-.27,2.13c-.1.17-.24-.52-.3-1.58a17.21,17.21,0,0,1,.2-3.56,29.92,29.92,0,0,1,.8-2.94,16.23,16.23,0,0,0,.44-2.91c0-.64-.2-.64-.53-.25s-.84,1.14-1.24,1.65a2.31,2.31,0,0,1-1.23,1,17.62,17.62,0,0,0-1.93.57,6.79,6.79,0,0,0-2,1.6c-.55.63-.92,1.29-1.3,1.61a1.6,1.6,0,0,1-1.22.34,1.8,1.8,0,0,0-1.47.54,13,13,0,0,0-1.77,2.8,14.19,14.19,0,0,0-1.43,3.56,7,7,0,0,0,.23,3.09,13.62,13.62,0,0,0,.81,2.48A2.84,2.84,0,0,0,8,86.23a3.17,3.17,0,0,0,2.13.24,1.36,1.36,0,0,0,1-1.24,8.15,8.15,0,0,0-.27-2,5.25,5.25,0,0,1-.08-1.75c.1,0,.37.9.74,1.51a2,2,0,0,0,1.27,1c.41.09.73,0,1,.13s.46.63.9.67a7.71,7.71,0,0,0,1.74-.51c.63-.15,1.2-.07,1.43-.31s.14-.77.27-1.25A4.35,4.35,0,0,1,19,81.32,8,8,0,0,1,20,80a.83.83,0,0,1,.9-.07,3.36,3.36,0,0,0,1,.19ZM12.4,127a4.17,4.17,0,0,1,0,1.49c-.09.37-.32.51-.66.88a10.15,10.15,0,0,0-1,1.33c-.21.39-.21.6-.33.37s-.39-.87-.66-1.31-.53-.67-.33-.9.85-.48,1.24-.91a1.89,1.89,0,0,0,.33-1.82,4.74,4.74,0,0,0-1.38-2.25,3.3,3.3,0,0,0-2.23-.8,10.46,10.46,0,0,0-1.9.37,1.47,1.47,0,0,1-.94,0,2,2,0,0,0-1.22,0,3.11,3.11,0,0,0-1.52,1.41,11,11,0,0,0-1.47,3.47A19,19,0,0,0,0,132.91a9,9,0,0,0,.72,3.68,8.72,8.72,0,0,0,2.36,2.77A16.31,16.31,0,0,0,6,141.09a21.14,21.14,0,0,0,2.66,1.16,3.21,3.21,0,0,0,2.22.14,3.28,3.28,0,0,0,1.47-1.7c.3-.75.4-1.54.58-1.88s.41-.21.71.12a8.69,8.69,0,0,0,1.77,1.74c1.12.85,3,2,4.25,2.76s1.88,1.21,2.09,1.14,0-.61-.49-1.6-1.42-2.43-2-3.36a4.41,4.41,0,0,1-.83-1.7c0-.32.25-.54.46-.77a1.11,1.11,0,0,0,.27-1,9.94,9.94,0,0,0-.57-2.18,6.12,6.12,0,0,0-1-1.86,8.85,8.85,0,0,0-1.52-1.32,3.68,3.68,0,0,0,1.89,0c.48-.23.73-.8.84-1.79a10.09,10.09,0,0,0-.29-3.56,6.34,6.34,0,0,0-1.65-2.75,5.65,5.65,0,0,0-2.09-1.32,1.72,1.72,0,0,0-1.64.17A3.09,3.09,0,0,0,12,123.29a5.2,5.2,0,0,0,.11,2c.12.62.19,1.14.26,1.69Zm17.08,27.44A5.08,5.08,0,0,1,28,153.11a10.42,10.42,0,0,1-1.2-2.09c-.25-.61-.3-.94-.14-1s.53.25,1,.76,1,1.24,1.47,1.79.78.9,1,1.2a.75.75,0,0,1,.14.66c-.09.14-.3.21-.71,0Zm22,32.1c-.39-.62-.88-1.75-1.36-2.67a3.89,3.89,0,0,0-1.63-1.85,1.52,1.52,0,0,0-1.79.45,4.63,4.63,0,0,0-.57,2.32,9.48,9.48,0,0,0,.06,2.44c.14.84.51,1.74.79,2.73a9.71,9.71,0,0,1,.46,3,3.7,3.7,0,0,1-.76,2.29,9.85,9.85,0,0,1-1.56,1,2.46,2.46,0,0,0-.94,1.76,2.21,2.21,0,0,0,1,1.81,9.15,9.15,0,0,0,2.16.74,5.49,5.49,0,0,1,1.91,1.13,4.05,4.05,0,0,0,1.31,1.12,4.87,4.87,0,0,0,2.36.21c.66-.14.89-.53,1-1.27s.24-1.83.36-2.57.32-1.14.55-1.24.51.07.81.39a3.64,3.64,0,0,0,1.28,1.1,7.37,7.37,0,0,0,3.29.51A9.69,9.69,0,0,0,64.59,199a2.14,2.14,0,0,0,1.19-2.26c-.16-.64-.76-1-1.5-1.26a9.23,9.23,0,0,1-2.34-1,3.23,3.23,0,0,1-1.26-2.09c-.18-.9-.12-2-.28-3a9.49,9.49,0,0,0-1-2.83,4.44,4.44,0,0,0-1.73-1.93,2.71,2.71,0,0,0-2.31,0A3.67,3.67,0,0,0,54,186.08a6.26,6.26,0,0,1-.89,1.17.67.67,0,0,1-.67.08c-.25-.07-.52-.16-.89-.76Z"/><g class="cls-4"><path class="cls-5" d="M174.3,83.89a11.46,11.46,0,0,1-1-2.77c-.14-.78,0-1.11.48-1.13s1.37.3,2.23.3a14.85,14.85,0,0,1,2.7-.21,3.86,3.86,0,0,1,2.62,2,13.83,13.83,0,0,1,1.4,4.59A14.33,14.33,0,0,1,183,91c-.2,1.1-.69,1.72-1.42,1.91a2.76,2.76,0,0,1-2.51-.76,9.93,9.93,0,0,1-1.9-3.13c-.53-1.19-1-2.34-1.49-3.12s-.92-1.19-1.34-2ZM50.07,98.56a20.25,20.25,0,0,0-5.55,2.07,13.63,13.63,0,0,0-4.18,3.47,10.88,10.88,0,0,0-2,4.22c-.33,1.43-.42,2.83-.63,4a6.93,6.93,0,0,1-1.1,2.89,10,10,0,0,0-1.74,2,11.53,11.53,0,0,0-1,5,22,22,0,0,0,1,5.44,11.4,11.4,0,0,0,3.79,6.54c1.2,1.1,2.8,2.21,4.36,2s3.1-1.7,4.6-2.87a9.27,9.27,0,0,1,4.5-2.18c1.48-.16,3,.28,5.34.69a2.55,2.55,0,0,0-1.77.76,5.76,5.76,0,0,0-1.51,3.85,15.77,15.77,0,0,0,1,5.47c.57,1.63,1.24,2.78,1.81,4.11a20.41,20.41,0,0,0,1.63,3.76c.64.87,1.47,1.08,2.75,1.49a49.22,49.22,0,0,0,4.73,1.43,6.09,6.09,0,0,0,5.28-.72,13.28,13.28,0,0,0,4.36-6.44,7.16,7.16,0,0,0-1.1-6.53A15.76,15.76,0,0,0,68,134.33a38.37,38.37,0,0,0-6.47-2,13.93,13.93,0,0,0,4.79-.49c2.58-.85,4.36-2.89,3.93-6.59s-3-9.11-5.15-13.54a78.85,78.85,0,0,0-5.32-10c-1.51-2.14-2.85-3-4.43-3.3a12.64,12.64,0,0,0-5.24.15ZM48.46,46.13c-1.39,1-2.66,1.74-3.74,2.5A8.19,8.19,0,0,1,42,50.21c-.7.09-1.25-.46-1.57-1.31a4.7,4.7,0,0,1,0-3.3A9.55,9.55,0,0,1,43,41.86a7.61,7.61,0,0,1,3.54-1.73,17.65,17.65,0,0,1,3.39-.36,8.75,8.75,0,0,1,2.14.13,1.42,1.42,0,0,1,1.1,1,2.8,2.8,0,0,1-1,2.2,26.77,26.77,0,0,1-3.72,3Zm7.17,26.24a18.56,18.56,0,0,1-4.36,2.39c-1.65.62-3.67,1.15-4.5.29s-.48-3.1.2-5.32A22.55,22.55,0,0,1,50.33,63a38.14,38.14,0,0,1,6.27-6.54c2.2-1.77,4.19-2.87,5.37-3s1.62.8,2.43,1.26a6.67,6.67,0,0,0,3.54.43c1.53-.11,3.4-.38,4.68-.43a4.53,4.53,0,0,1,2.66.5,6.82,6.82,0,0,0,2,1.06c.64,0,1.15-.46,2-1.28a40.18,40.18,0,0,0,2.8-3,11,11,0,0,1,3.08-3,16.78,16.78,0,0,1,5.67-1.6,17,17,0,0,1,5.55.09A7.2,7.2,0,0,1,99.05,49a4.25,4.25,0,0,0,2.36.68,14.88,14.88,0,0,0,2.94-.29c.85-.16,1.44-.3,1.61-.65s0-.85-.1-1.58a2.3,2.3,0,0,1,1.06-2.39,12.28,12.28,0,0,1,5.21-1.42,17.77,17.77,0,0,1,5.24.37,13.72,13.72,0,0,0,2.89.62c.41-.1.21-.72.44-1.38a2.77,2.77,0,0,1,2-1.61,18.08,18.08,0,0,1,3.74-.21c1.22,0,2.21-.18,3.31-.13a7.7,7.7,0,0,1,4,1.46,24.29,24.29,0,0,1,5.61,5.31,14.94,14.94,0,0,1,2.82,6.38A11,11,0,0,1,142,59c-.34,1.1-.8,1.51-.18,1.83s2.34.51,4.22,1.25a50.73,50.73,0,0,1,5.67,2.94c1.77,1,3.29,1.63,4.59,2.24a16,16,0,0,1,3.38,1.89,7.31,7.31,0,0,1,2.32,3,5.75,5.75,0,0,1,.11,3.6,29.27,29.27,0,0,0-1.17,3.45,12.81,12.81,0,0,0,.46,3.7,48.4,48.4,0,0,1,.53,5.39,22.35,22.35,0,0,1-.2,5.63c-.33,1.4-1.06,2-1.68,1.85s-1.15-1.17-1.75-2.84a22.68,22.68,0,0,1-1.38-6.16c-.09-2.17.37-4.15.42-6a8.46,8.46,0,0,0-1.33-5,15.65,15.65,0,0,0-4.6-4.43,24.43,24.43,0,0,0-6.2-2.91c-2.1-.65-4.06-1-5.5-1.54a8.1,8.1,0,0,1-3.2-2.39,17.46,17.46,0,0,1-2.32-3.16,22.9,22.9,0,0,1-1.17-3,11,11,0,0,0-2.18-3.63,12.07,12.07,0,0,0-4.13-2.84,2.72,2.72,0,0,0-3.1.59c-.85.83-1.63,2.28-3.19,2.44s-3.92-1-6.48-1.8A24.87,24.87,0,0,0,105.7,52a29.27,29.27,0,0,0-7.64,1.41,11.41,11.41,0,0,0-3.84,1.92,17.82,17.82,0,0,0-2.78,2.74,10,10,0,0,1-3.53,3.07c-1.51.6-3.49.44-6,.18A39.22,39.22,0,0,0,73.7,61a16.8,16.8,0,0,0-7.26,2.67,52.06,52.06,0,0,0-5.9,4.71c-1.79,1.56-3.46,2.93-4.91,4ZM134.2,27.64a10.51,10.51,0,0,1-2.18-.52,5.08,5.08,0,0,1-2.42-2.28,6.68,6.68,0,0,1-.43-3.55,3,3,0,0,1,.89-1.93A4.47,4.47,0,0,1,132.33,18a9.12,9.12,0,0,1,3.88.09,9,9,0,0,1,2.9,1.39,6.48,6.48,0,0,0,1.67.88c.42.07.72-.11,1.08-.64A3.47,3.47,0,0,1,144,18a6.47,6.47,0,0,1,5.11.76c1.36,1.07,1.79,3.12,2.05,5a34.53,34.53,0,0,1,.43,4.95,7.79,7.79,0,0,1-.52,3.59c-.44.69-1.18.73-2.65.29s-3.67-1.37-5.85-2.11-4.32-1.31-5.7-1.77-2-.84-2.63-1ZM98.68,158.19a9.22,9.22,0,0,1-2.3,4.77,14.27,14.27,0,0,1-3.54,2.41,22.75,22.75,0,0,1-3.23,1.82,6.5,6.5,0,0,1-4.71.14A12.6,12.6,0,0,1,80,163.4a10.06,10.06,0,0,1-2.46-5c-.14-1.56.51-2.94.49-4.59s-.74-3.57,0-5.08,3-2.57,6.57-1.83a30.7,30.7,0,0,1,11.29,5.44c2.69,2.18,3,4,2.78,5.85Zm68.37-37.47c1,0,1.66-1.08,1.95-2.59a42.55,42.55,0,0,0,.3-4.71c.11-1.26.39-1.79,1.19-1.89a4.78,4.78,0,0,1,4.76,4.11,10,10,0,0,1-.53,2.76,5.46,5.46,0,0,0,.32,2.21,7.39,7.39,0,0,1-.2,4.11,23.36,23.36,0,0,1-3.33,6.84,11.13,11.13,0,0,1-4.39,3.63,30.38,30.38,0,0,0-3.58,1.6,4.13,4.13,0,0,0-1.43,2.78,14.81,14.81,0,0,1-1.65,5,15.41,15.41,0,0,1-4.54,4.34c-1.66,1.12-3.17,1.84-4.12,2.51a5.33,5.33,0,0,0-1.88,2.27,27.09,27.09,0,0,1-2.06,3.63,22.8,22.8,0,0,1-2.85,3.09,14.46,14.46,0,0,1-3.67,2.8,28.61,28.61,0,0,1-5.93,2.12,10.39,10.39,0,0,1-3.86.41c-.91-.14-1.6-.48-1.78-.94s.13-1.08,1-2.28,2.43-3,3.74-4.93a12.82,12.82,0,0,0,2.6-5.81c.16-2-.62-4,.18-5.9s3.17-3.74,4.84-5.28,2.67-2.78,3.89-3.31a11.72,11.72,0,0,1,3.83-.45c1.13-.07,1.93-.4,3.63-3.49s4.27-8.87,6-11.78,2.73-2.9,3.9-2.37,2.55,1.56,3.58,1.54Z"/><path class="cls-6" d="M53.65,46.33A13.2,13.2,0,0,0,56,44.63c.53-.59.5-1.08.09-1.46a3.69,3.69,0,0,0-2.16-.63,20.13,20.13,0,0,0-3.1.24,9.74,9.74,0,0,0-2.39.54,6.13,6.13,0,0,0-1.88,1.29,20.15,20.15,0,0,0-1.79,1.79,16.74,16.74,0,0,0-1.63,2.16,10.27,10.27,0,0,0-1,2.18c-.18.62-.18,1,.5,1.06A9.06,9.06,0,0,0,45.78,51a21.26,21.26,0,0,0,2.89-1.76c1-.65,2.32-1.38,3.12-1.84s1.15-.64,1.86-1.06Z"/><path class="cls-6" d="M61.71,61.51A4.48,4.48,0,0,0,62,59.76a2.34,2.34,0,0,0-1.14-1.61A1.83,1.83,0,0,0,59.32,58a6.37,6.37,0,0,0-1.76,1,17,17,0,0,0-2.27,2,13.24,13.24,0,0,0-2,2.85,8.17,8.17,0,0,0-.81,2.74c-.14,1-.2,2-.34,2.77a9.65,9.65,0,0,0-.35,1.38c.09.12.49-.14,1.29-.82s2-1.77,2.94-2.58,1.76-1.33,1.84-1.22-.54.83-1.16,1.7A12.86,12.86,0,0,0,55,70.94a14.6,14.6,0,0,0-.77,3.79c-.08,1.15,0,2,.81,2.39a4.35,4.35,0,0,0,3.69-.82c1.41-.92,2.74-2.53,4.83-4.62s5-4.68,6.86-6.31a21.22,21.22,0,0,1,3.44-2.64c.63-.32,1-.3,1.24,0a1.86,1.86,0,0,1,.33,1.38A5.7,5.7,0,0,1,74.87,66c-.28.63-.66,1.25-.8,1.71s0,.75.45.68a29.5,29.5,0,0,0,3.24-1.12,60.08,60.08,0,0,1,7.26-2c2.85-.62,5.92-1,8.15-1.39s3.6-.74,4-1.25-.09-1.16-.73-1.79-1.4-1.28-2-1.83-1-1-1.53-.88-1.24.81-1.73,1.11-.78.2-1.42.18a6.08,6.08,0,0,1-2.16-.27c-.53-.28-.62-.92-.94-1.29s-.85-.51-1.75-.39a17.35,17.35,0,0,0-3.25.87c-1,.37-1.84.76-2.46,1a2.74,2.74,0,0,1-1.57.07,17.92,17.92,0,0,0-2.22-.53,13.09,13.09,0,0,0-3.19,0,10.5,10.5,0,0,1-2.34.28c-.46-.13-.51-.62-.71-1.08a1.77,1.77,0,0,0-1.16-1,3,3,0,0,0-2.43.72,22.19,22.19,0,0,0-3.07,3c-.74.83-1,1.13-.88.88Z"/><path class="cls-6" d="M105,55.08c-1.8-.35-3.35-.57-4.5-.73a4.25,4.25,0,0,1-2.34-.7,1.36,1.36,0,0,1,.09-1.94A7.93,7.93,0,0,1,102.12,50a38.68,38.68,0,0,1,5.33-.53,28.41,28.41,0,0,1,3.14-.15,11.85,11.85,0,0,1,3,.64A24.55,24.55,0,0,1,117,51.5a36.75,36.75,0,0,1,3.5,2.06,6,6,0,0,1,2,1.95,1,1,0,0,1-.26,1.43,7,7,0,0,1-2.29.43,19.24,19.24,0,0,1-3.79.19,38.08,38.08,0,0,1-5.4-1.1c-2-.49-4.06-1-5.87-1.38Z"/><path class="cls-6" d="M135.6,29.85a10,10,0,0,1-3.47-2c-.73-.67-1.06-1.31-.64-2a6.53,6.53,0,0,1,2.85-2.07,15.28,15.28,0,0,1,3.8-1,9.32,9.32,0,0,1,3.2.05,15.82,15.82,0,0,1,4,1.42,15.64,15.64,0,0,1,3.48,2.46,5.87,5.87,0,0,1,1.82,2.64,1.51,1.51,0,0,1-.83,2,11.4,11.4,0,0,1-3.67,0c-1.43-.05-2.92,0-4.78-.15a27.16,27.16,0,0,1-5.78-1.3Z"/><path class="cls-6" d="M127.12,54.42a37.09,37.09,0,0,0-1.1-3.63,6.29,6.29,0,0,0-1.3-1.89,2.08,2.08,0,0,1-.76-1.54c.07-.55.59-1.17,1.7-1.35a7.3,7.3,0,0,1,4,.76,8.56,8.56,0,0,1,2.87,2.75,18.09,18.09,0,0,1,2.35,3.74A15.08,15.08,0,0,1,136,57.53a11.6,11.6,0,0,1,0,3.61c-.23,1-.69,1.68-1.49,1.65a6.09,6.09,0,0,1-3-1.74,16.57,16.57,0,0,1-2.87-3.24,11.72,11.72,0,0,1-1.43-3.39Z"/><path class="cls-6" d="M138.67,70.55c-.68-1.28-1.14-2.31-1.46-3.07s-.46-1.29-.3-1.63.62-.49.93-.67a1,1,0,0,0,.53-.73c0-.32,0-.76.4-1.06a3.3,3.3,0,0,1,2.32-.27,6.69,6.69,0,0,1,3.19,1.69,14.38,14.38,0,0,1,2.63,3.47,5.43,5.43,0,0,1,1,2.85c-.14.59-.83.69-1.08,1.15a3.87,3.87,0,0,0,.21,2.29c.27,1,.58,2.14.69,2.74s0,.66-.71.47a19.35,19.35,0,0,1-3.28-1.12,6.65,6.65,0,0,1-2.67-2.23,32.94,32.94,0,0,1-2.39-3.88Z"/><path class="cls-6" d="M153.32,78.84a7.73,7.73,0,0,0-.11-2.34c-.17-.9-.49-1.86-.72-2.75s-.45-1.68-.2-2,.87-.25,1.9.35a10.76,10.76,0,0,1,3.2,2.85,5.76,5.76,0,0,1,1.08,3.49,14.52,14.52,0,0,1-.44,2.86,4.18,4.18,0,0,0,.23,2.25,43.84,43.84,0,0,1,1.22,4.58,15.84,15.84,0,0,1,.08,4.26c-.11,1.13-.27,2-1,2.19a3.57,3.57,0,0,1-2.92-1,7,7,0,0,1-2.11-3.81,25.9,25.9,0,0,1-.29-5c0-1.63-.21-3.08-.21-4a10.47,10.47,0,0,1,.25-1.88Z"/><path class="cls-6" d="M174.12,87.57c-.05-.62.1-1.31.07-2.14a18,18,0,0,0-.46-2.55c-.16-.76-.25-1.28,0-1.56s.75-.34,1.51-.07A7.38,7.38,0,0,1,177.8,83a7,7,0,0,1,1.6,2.76,11.15,11.15,0,0,1,.51,2.91,2.64,2.64,0,0,1-.41,2,2.26,2.26,0,0,1-1.77.39,4.24,4.24,0,0,1-1.82-.51,3.29,3.29,0,0,1-1.21-1.22,3.38,3.38,0,0,1-.58-1.67Z"/><path class="cls-6" d="M164.25,117a3.13,3.13,0,0,1,2.14,1,7.53,7.53,0,0,1,1.74,3.38,9.83,9.83,0,0,1,0,4.08,8,8,0,0,1-1.65,3.45,37.49,37.49,0,0,1-3,3,14.56,14.56,0,0,0-1.95,2.34c-.49.75-.93,1.53-1.41,2.15a2.44,2.44,0,0,1-1.54,1.13,1.85,1.85,0,0,1-1.47-.83,2.46,2.46,0,0,1-.24-2.09c.22-1.05.73-2.56,1-3.72s.23-2,.55-3.35a29.41,29.41,0,0,1,1.82-5.09,29.79,29.79,0,0,1,2.45-4.25c.67-.94,1-1.26,1.61-1.28Z"/><path class="cls-6" d="M142.16,147.54a7,7,0,0,1,2.09-1.8,1.22,1.22,0,0,1,1.47-.06,4.34,4.34,0,0,1,1.24,1.77,9.17,9.17,0,0,1,.73,3,9.58,9.58,0,0,1-.48,3.61,9.41,9.41,0,0,1-2.27,3.92,11.3,11.3,0,0,1-3.6,2.11c-1,.42-1.56.63-1.8.1a9.65,9.65,0,0,1-.18-3.06,21.63,21.63,0,0,1,.28-3.81,16,16,0,0,1,1.21-3.21,11.3,11.3,0,0,1,1.31-2.57Z"/><path class="cls-6" d="M88.05,154.43a12.6,12.6,0,0,0-2.14.75c-.73.34-1.37.72-1.47,1.33a3.52,3.52,0,0,0,1.15,2.41,13.87,13.87,0,0,0,3,2.65,7.56,7.56,0,0,0,2.85,1,12.59,12.59,0,0,0,2.32.25c.57,0,.78-.14.64-.66s-.62-1.45-1-2.44a26.2,26.2,0,0,0-1-2.76,4.94,4.94,0,0,0-1.67-1.65,7.05,7.05,0,0,0-1.51-.78,1.85,1.85,0,0,0-1.22-.13Z"/><path class="cls-6" d="M60,133.72a2.93,2.93,0,0,0-.94,1.9,9.53,9.53,0,0,0,.21,3.65,10,10,0,0,0,1.6,3.19,32.48,32.48,0,0,0,2.78,3.65,6.17,6.17,0,0,0,2.6,1.88,3.66,3.66,0,0,0,2.59,0A2.09,2.09,0,0,0,70,145.93a8,8,0,0,0-1-3.76,15.86,15.86,0,0,0-2.6-3.34c-.9-1-1.74-1.74-2.62-2.59s-1.86-1.81-2.48-2.29-.91-.49-1.26-.23Z"/><path class="cls-6" d="M57,111.77a5.29,5.29,0,0,0-2-.44,1.64,1.64,0,0,0-1.41,1.06,6.92,6.92,0,0,0-.75,3,12.32,12.32,0,0,0,.73,4.24,15.77,15.77,0,0,0,2.14,4.21,13.37,13.37,0,0,0,3.08,3.07c1.12.81,2.27,1.42,3.09,1s1.24-1.68,1.08-3a13.91,13.91,0,0,0-1.69-4.27c-.76-1.54-1.54-3.26-2.12-4.68s-.94-2.57-1.19-3.22a1.4,1.4,0,0,0-.94-1Z"/><path class="cls-6" d="M48.54,113.3a8.69,8.69,0,0,0-1.71-1.19,1.22,1.22,0,0,0-1.42.09c-.36.32-.57.92-.29,2a19.6,19.6,0,0,0,1.6,3.38,6,6,0,0,0,1.2,1.77,1.87,1.87,0,0,0,1.31.48,1,1,0,0,0,1-.87,7.64,7.64,0,0,0-.09-2.67,5.92,5.92,0,0,0-.63-1.92,3.69,3.69,0,0,0-1-1Z"/><path class="cls-6" d="M41.55,119.76A23.56,23.56,0,0,0,40,117c-.5-.67-.94-.85-1.33-.69s-.73.6-1,1.59a12,12,0,0,0-.39,4,12.52,12.52,0,0,0,1.21,4.34,12.8,12.8,0,0,0,2.14,3.13,5.28,5.28,0,0,0,2.18,1.56,1.38,1.38,0,0,0,1.58-.55,2.66,2.66,0,0,0,.19-2.07c-.23-.81-.78-1.68-1.11-2.73s-.45-2.3-.71-3.28a12.29,12.29,0,0,0-1.15-2.55Z"/></g><path class="cls-7" d="M58.32,114.82a2.84,2.84,0,0,0-1-1.68.77.77,0,0,0-1,.17,3.26,3.26,0,0,0-.53,1.51,6.9,6.9,0,0,0,0,2.27,16.59,16.59,0,0,0,.65,2.11c.18.58.23,1,.41,1.5a3.29,3.29,0,0,0,.92,1.38,3.81,3.81,0,0,0,1.7.91c.6.1,1.17,0,1.29-.36s-.19-.92-.53-1.57a15.09,15.09,0,0,1-1-2.59c-.32-1.13-.64-2.66-1-3.65Z"/><path class="cls-7" d="M49.78,114.09a3.38,3.38,0,0,0-1.29-.47,1,1,0,0,0-1,.53,2.28,2.28,0,0,0-.12,1.24,1.56,1.56,0,0,0,.53,1.15,2.55,2.55,0,0,0,1.47.44c.41,0,.59-.28.71-.71a5.66,5.66,0,0,0,.18-1.49c0-.38-.18-.49-.52-.69Z"/><path class="cls-7" d="M43.18,119.55a3.15,3.15,0,0,0-1.07-1.2c-.35-.16-.64.12-.94.44a3.4,3.4,0,0,0-.88,1.22,5.12,5.12,0,0,0-.3,2.06,6.32,6.32,0,0,0,1.63,4.2,3.39,3.39,0,0,0,1.24,1,.61.61,0,0,0,.88-.35,5.4,5.4,0,0,0,.34-2.08,12.62,12.62,0,0,0-.25-2.27c-.12-.7-.25-1.36-.32-1.82a2.94,2.94,0,0,0-.33-1.17Z"/><path class="cls-7" d="M65.94,139c-.46-.63-1.15-1.54-1.61-2.05s-.67-.59-.9-.59-.5.07-.64.59a13.35,13.35,0,0,0-.2,2.2,5.65,5.65,0,0,0,.2,1.94,5.93,5.93,0,0,0,1.33,2.17,5.78,5.78,0,0,0,2.26,1.47c.77.21,1.4.1,1.55-.31s-.22-1.09-.48-1.82-.46-1.47-.66-2a5.42,5.42,0,0,0-.85-1.56Z"/><path class="cls-7" d="M89,155.28a9.72,9.72,0,0,0-1.68-.56c-.57-.11-1,0-1.08.26a2.71,2.71,0,0,0,.32,1.33,6.57,6.57,0,0,0,.65,1.6,6.29,6.29,0,0,0,1.46,1.4,4,4,0,0,0,1.84.72,6,6,0,0,0,2.14-.1c.53-.16.73-.39.71-.69a1.76,1.76,0,0,0-.64-1c-.35-.32-.78-.55-1.29-1s-1.12-1-1.49-1.38a2.82,2.82,0,0,0-.94-.61Z"/><path class="cls-7" d="M141.59,152.79c-.25.4-.71,1-1.06,1.66s-.59,1.31-.82,1.83-.46.9-.35,1.13.53.34,1.08.3a5.12,5.12,0,0,0,1.82-.44,4.79,4.79,0,0,0,1.76-1.42,9.72,9.72,0,0,0,1.36-2.5,6.61,6.61,0,0,0,.52-2.28,4.28,4.28,0,0,0-.43-1.91,2.58,2.58,0,0,0-1-1.28c-.39-.14-.75.11-1,.57s-.4,1.15-.65,1.79a14.9,14.9,0,0,1-.75,1.57,5.94,5.94,0,0,1-.44,1Z"/><path class="cls-7" d="M160.55,127a10.82,10.82,0,0,0-.8,1.4,12.53,12.53,0,0,0-.69,1.52c-.14.42-.18.69.07.85a1.86,1.86,0,0,0,1.4.11,7.25,7.25,0,0,0,2.23-1.07,6,6,0,0,0,2-2.07,6.83,6.83,0,0,0,.66-2.66,4.44,4.44,0,0,0-.09-1.7,9,9,0,0,0-.71-1.72c-.28-.46-.53-.71-.88-.69a1.61,1.61,0,0,0-1.1.73,6,6,0,0,0-.66,1.77c-.25.82-.56,1.9-.81,2.5a3.29,3.29,0,0,1-.62,1Z"/><path class="cls-7" d="M176.12,89.08c-.23-.44-.53-1-.83-1.72s-.57-1.51-.76-2.14-.32-1.07-.09-1.24.76-.08,1.33,0a2.71,2.71,0,0,1,1.64.85,5.74,5.74,0,0,1,1,2.5,7.32,7.32,0,0,1,0,2.46c-.13.57-.36.76-.68.76a1.61,1.61,0,0,1-1-.47,3.23,3.23,0,0,1-.62-1Z"/><path class="cls-7" d="M155.48,87.22a5.91,5.91,0,0,1-.25-1.74c0-.58.3-1.19.89-1.17a4.07,4.07,0,0,1,2,1.15,2.66,2.66,0,0,1,.89,1.62,13.42,13.42,0,0,1,.19,2.69,8.31,8.31,0,0,1-.39,2.62c-.24.67-.63,1.06-1.18.94a2.64,2.64,0,0,1-1.54-1.59,7.67,7.67,0,0,1-.41-2.66,11.67,11.67,0,0,0-.25-1.86Z"/><path class="cls-7" d="M155.25,79.46a10.23,10.23,0,0,1-1.08-1.92,3,3,0,0,1-.3-1.73.94.94,0,0,1,.88-.71,1.91,1.91,0,0,1,1.4.51,4.22,4.22,0,0,1,1.19,1.76,5.92,5.92,0,0,1,.34,2.16,1.59,1.59,0,0,1-.37,1.19.89.89,0,0,1-1-.07,4.62,4.62,0,0,1-1.1-1.19Z"/><path class="cls-7" d="M141.38,73.49a13.2,13.2,0,0,1-1.28-1.77c-.4-.68-.74-1.28-1-1.78a12.35,12.35,0,0,1-.67-1.24c-.14-.37-.2-.74.18-.86a4.06,4.06,0,0,1,2,.19,7.86,7.86,0,0,1,2.55,1.1,5.82,5.82,0,0,1,1.72,2.05,7.37,7.37,0,0,1,.84,2.47,11,11,0,0,1,.12,2.57c-.07.67-.23,1-.55.88a5.42,5.42,0,0,1-1.31-1.31,13.93,13.93,0,0,0-1.51-1.54c-.4-.34-.65-.39-1-.76Z"/><path class="cls-7" d="M131.32,58.06a10.64,10.64,0,0,1-1.42-1.88c-.39-.71-.64-1.45-1.05-2.13s-1-1.26-1.47-1.86a8.81,8.81,0,0,1-1-1.68c-.18-.44-.23-.73.07-.89a3.38,3.38,0,0,1,1.65,0,5.54,5.54,0,0,1,2.21.78,5.11,5.11,0,0,1,1.56,1.84,13,13,0,0,1,1,2.48,15.21,15.21,0,0,1,.6,2.62,2.28,2.28,0,0,1-.19,1.4.61.61,0,0,1-.76.32,3.48,3.48,0,0,1-1.24-.95Z"/><path class="cls-7" d="M108.55,56l-3.88-.41c-1-.12-1.28-.19-1.38-.39s0-.51.23-.83a2.4,2.4,0,0,1,1.17-1,11.39,11.39,0,0,1,2.74-.82,12.76,12.76,0,0,0,2.45-.48c.62-.24,1-.7,1.75-.83a6.42,6.42,0,0,1,2.84.43,4.52,4.52,0,0,1,2,1.33,8,8,0,0,1,1,1.87,4.15,4.15,0,0,1,.52,1.7c0,.46-.36.78-1,.77a17.42,17.42,0,0,1-2.39-.59,18.8,18.8,0,0,0-2.71-.39c-1-.09-2.07-.23-3.42-.37Z"/><path class="cls-7" d="M92.34,62.7c-.55-.07-1.37-.27-2.41-.44a13,13,0,0,0-3.72-.18A17,17,0,0,0,82,63.25,16.5,16.5,0,0,0,78.57,65a5.13,5.13,0,0,0-1.89,2.09c-.18.59.28,1,1.29,1a17.5,17.5,0,0,0,4.22-.84c1.68-.46,3.47-1,5.26-1.36s3.6-.43,4.89-.57a11.32,11.32,0,0,0,2.73-.56A4.37,4.37,0,0,0,96.41,64c.29-.26.39-.49.3-.7s-.35-.45-.93-.54a14.21,14.21,0,0,0-2.06,0,6.36,6.36,0,0,1-1.38,0Z"/><path class="cls-7" d="M67.87,67.16c-.79.59-1.75,1.15-2.83,2a42.64,42.64,0,0,0-3.21,3A26.09,26.09,0,0,1,60,74.05c-.42.36-.74.45-.87.23s-.1-.7.25-1.55,1-2.08,1.38-2.86.32-1.08.53-1.64a6.72,6.72,0,0,1,1.42-2.18,18.15,18.15,0,0,1,2.82-2.22A12.75,12.75,0,0,1,68,62.43,12.67,12.67,0,0,1,70.21,62c.71-.14,1.47-.35,2.22-.53a9.66,9.66,0,0,1,2-.32,1.35,1.35,0,0,1,1.07.28c.16.2.1.48-.18.78a5.7,5.7,0,0,1-1.42.93c-.6.31-1.29.62-2,1a17.49,17.49,0,0,0-2,1.38c-.68.53-1.33,1.1-2.15,1.66Z"/><path class="cls-7" d="M57.58,65.34a11,11,0,0,0,1.74-1.9A3.36,3.36,0,0,0,60,61.69c0-.36-.28-.39-.78-.16a6.72,6.72,0,0,0-1.77,1.36,8.9,8.9,0,0,0-1.24,1.9,3.47,3.47,0,0,0-.55,1.31c0,.25.28.27.62.12a4.88,4.88,0,0,0,1.31-.88Z"/><path class="cls-7" d="M51.73,47.57c-.95.64-2.39,1.47-3.36,2a7.5,7.5,0,0,1-1.92.84c-.39.07-.69,0-.67-.34a4.18,4.18,0,0,1,.81-1.6,11.6,11.6,0,0,1,1.81-2,5.53,5.53,0,0,1,1.92-1.08,7,7,0,0,1,1.77-.22,2.86,2.86,0,0,1,1.31.15c.26.16.28.46,0,.83a5.8,5.8,0,0,1-1.7,1.4Z"/><path class="cls-7" d="M137.18,30.26c-.59-.34-1.4-.78-2.11-1.24a6.68,6.68,0,0,1-1.66-1.35c-.31-.39-.31-.72.19-.9a5.93,5.93,0,0,1,2.46-.05c.94.16,1.81.47,2.59.6a4.93,4.93,0,0,0,2.13-.13,7.48,7.48,0,0,1,1.77-.49,4.68,4.68,0,0,1,2.42.67,9.43,9.43,0,0,1,2.61,2c.55.66.53,1.19-.12,1.3a17.24,17.24,0,0,1-2.66-.18c-.71,0-.82.23-.76.67s.26,1.08.33,1.51a.88.88,0,0,1-.21.85,1.4,1.4,0,0,1-1.1.19,6.07,6.07,0,0,1-2.23-.83,21.18,21.18,0,0,1-2.14-1.63,8.88,8.88,0,0,0-1.51-1Z"/></g></g></svg>