<svg xmlns="http://www.w3.org/2000/svg" viewBox="0 0 254.44 250.5"><defs><style>.cls-1{fill:#2a0b1e;}.cls-1,.cls-2,.cls-3,.cls-4,.cls-5,.cls-6,.cls-7{fill-rule:evenodd;}.cls-2{fill:#ff532b;}.cls-3{fill:#962934;}.cls-4{fill:#0e0d13;}.cls-5{fill:#ffb72f;}.cls-6{fill:#feda3b;}.cls-7{fill:#fbf5df;}</style></defs><g id="Capa_2" data-name="Capa 2"><g id="Layer_1" data-name="Layer 1"><path class="cls-1" d="M33.43,94c-.14-1.77-.14-3.7-.14-5.54a16,16,0,0,0-.37-4.58c-.38-1-1.14-1.25-2.25-1.5a16.72,16.72,0,0,1-3.64-1,7.44,7.44,0,0,1-2.25-2.13,14.38,14.38,0,0,0-2.87-2.62A14.53,14.53,0,0,0,18.42,75a7.15,7.15,0,0,1-3-1.49,8.14,8.14,0,0,1-1.82-3.35c-.25-1,0-1.52.31-1.66s.87.12,1.37.86a11.62,11.62,0,0,0,1.88,2.75,7.34,7.34,0,0,0,3.49,1.28,14.55,14.55,0,0,1,4.07,1.22,17.87,17.87,0,0,1,3.1,2.51,8.08,8.08,0,0,0,2,1.37,17.48,17.48,0,0,0,1.63.64c.75.28,1.88.74,2.78,1a3.48,3.48,0,0,0,2.25.18,6,6,0,0,0,1.86-1.38,3.15,3.15,0,0,1,2.41-1.15c1.24,0,3.14.49,3.49,1.47s-.81,2.41-1.89,3.73a36.4,36.4,0,0,0-3.21,4.47,29.61,29.61,0,0,0-2.92,6.29,33.82,33.82,0,0,0-.64,4c-.21.76-.8,1-1.24.27A10.67,10.67,0,0,1,33.43,94Z"/><path class="cls-1" d="M95.81,63.07c-1.59-1.65-3.19-5.23-6-8a20.63,20.63,0,0,0-10-5.23A13.15,13.15,0,0,0,71.64,51a9.83,9.83,0,0,0-5.13,5c-1.14,2.48-1.6,6.08-2.64,8.72a10,10,0,0,1-4.43,5.31c-1.79,1-3.78,1.28-6.65,1.85A30.74,30.74,0,0,0,43,75.08a17.85,17.85,0,0,0-7.41,9c-1.68,4.2-2.53,9.66-1.54,14.09s3.81,7.83,3.72,10.18-3.12,3.67-5.14,5.14A8.71,8.71,0,0,0,29,119.37a23.37,23.37,0,0,0,0,9.71c.75,2.84,2.45,4.43,2.31,5.74s-2.13,2.36-4.72,4.57a31.18,31.18,0,0,0-7.58,9.34,20.43,20.43,0,0,0-1.65,11.69,21.68,21.68,0,0,0,5.14,11.5c3.19,3.81,8.19,7.67,10.54,11s2.07,6,2.78,8.06,2.41,3.35,5.9,4a45.11,45.11,0,0,0,12.1.23c3.35-.4,4.77-1.25,5.76-1s1.56,1.55,1.51,2.72-.71,2.22-1.65,5.23a99.19,99.19,0,0,0-2.78,11.75C56,217.58,56,220,57.31,223a23.72,23.72,0,0,0,7.5,9,23.23,23.23,0,0,0,12,4,42,42,0,0,0,16.1-2.32,161.58,161.58,0,0,0,19.47-8.18,62.83,62.83,0,0,0,10.45-6.08c2.73-2,5.65-4.57,7.36-6.1s2.16-2,1.36-2.72a41,41,0,0,0-4.38-2.73c-1.5-.94-2.46-1.79-1.79-2.13s2.93-.14,6.4.2,8.2.79,11.32.79,4.61-.46,3.62.2-4.47,2.44-6.17,3.67-1.59,1.89.71,2.64,6.84,1.61,10.56,3a66.26,66.26,0,0,1,9.71,4.95,46.2,46.2,0,0,0,9.83,4.23,37.82,37.82,0,0,0,11.41,1.51,27.77,27.77,0,0,0,10.93-2.36,19.82,19.82,0,0,0,8.06-6.54,25.63,25.63,0,0,0,3.67-9.25c.71-3.15,1.1-6.16,1.89-7.9s2-2.21,3.72-2.92a10.18,10.18,0,0,0,5.46-4.34c1.61-2.69,2.64-7.12,3.77-9.43s2.36-2.49,4.06-3a9.93,9.93,0,0,0,5.6-3.77,16.94,16.94,0,0,0,2.89-10.08c-.2-3.72-1.9-7.21-2.84-9.2s-1.13-2.44.43-3.9,4.85-3.91,7.55-8.06a43.77,43.77,0,0,0,5.68-15.46,31.57,31.57,0,0,0-1-15.82,40.53,40.53,0,0,0-8.63-14.48,20.74,20.74,0,0,0-11.83-6.45c-4.38-.76-9.29-.28-11.54-.71s-1.89-1.73-1.84-4.42a32.49,32.49,0,0,0-1.36-10.14,32,32,0,0,0-4.35-7.92c-1.22-1.79-1.7-2.64-2-5.88S200.8,56,199.49,51a25.53,25.53,0,0,0-7.55-12.63,29.85,29.85,0,0,0-12.86-6.54,37,37,0,0,0-10.79-.56,14.38,14.38,0,0,1-5.42-.38,41.67,41.67,0,0,0-8.58-1.75,30.51,30.51,0,0,0-11.12,1.79c-3.9,1.33-8,3.3-10.83,6.41s-4.57,7.36-6.36,8.86-3.68.29-6-.34a12.39,12.39,0,0,0-8.43.91,57.91,57.91,0,0,0-10.12,6.13c-2.18,1.59-2.07,1.79-.14,1.45A65.1,65.1,0,0,1,110,53a14.81,14.81,0,0,1,6.88,1.36c1.75.81,3.06,1.75,2.32,2.46s-3.6,1.17-6,2.08-4.51,2.21-6.55,3.15A30.21,30.21,0,0,1,100.81,64c-1.79.43-3.39.71-5-.94Z"/><path class="cls-2" d="M180.39,216.89l48.24,32-41.26-41.25-37-24.37ZM127.63,0,132,37.65,128.59,56l-6.12-22.64ZM13.71,230.7,86,188.88l16.47-17.54-22.39,10.1Zm77-106.6L56.62,102.49l-44-45.11,55.68,37ZM187,92.39l55.05-33.48-46.77,43.72-28.24,14.1Z"/><path class="cls-3" d="M56.46,147.61a59.05,59.05,0,0,0-11.34-4.5c-4.21-1.09-8.06-1.2-12,.41a23,23,0,0,0-10.47,9.29,28.63,28.63,0,0,0-3.85,14.47,25.39,25.39,0,0,0,3.4,12.91,28.91,28.91,0,0,0,8,8.7A19,19,0,0,0,38,192.28a32.72,32.72,0,0,0,7.19.39,28.55,28.55,0,0,0,7.32-.94,42.38,42.38,0,0,0,6.59-2.89,14.46,14.46,0,0,1,5-1.72,9.7,9.7,0,0,1,5.05,1,12.51,12.51,0,0,1,4.37,3.35,5.38,5.38,0,0,1,1,3.88,16.12,16.12,0,0,1-1.35,5.95c-1,2.59-2.87,5.86-4.34,10.26a45.79,45.79,0,0,0-2.51,15.06,27.11,27.11,0,0,0,3.49,13c2,3.15,4.46,4.71,7.58,6.15A39.23,39.23,0,0,0,88.62,249a33.27,33.27,0,0,0,13.55-.85,24.6,24.6,0,0,0,10.93-6.71A25,25,0,0,0,119,230.86a61,61,0,0,0,1.42-10.32c.25-2.48.67-3.42,1.61-4.5a14.93,14.93,0,0,1,3.9-3.19,20.2,20.2,0,0,1,4.64-1.67c-2.25.11-4.48.21-6.38.18a11.61,11.61,0,0,1-4.51-.67,2.31,2.31,0,0,1-1.46-2.38,5.17,5.17,0,0,1,1.79-3.08,8.85,8.85,0,0,1,3.37-1.54c-2.55-1.1-5.1-2.2-7.65-3.14a69,69,0,0,1-7.48-2.9c-2.37-1.21-4.55-2.82-7.25-3.6a26.71,26.71,0,0,0-8-.66,16.67,16.67,0,0,1-4.83-.16,46.56,46.56,0,0,1-5.89-1.89,6.5,6.5,0,0,1,1,2.59c0,.69-.51,1.16-1.5,1a9.76,9.76,0,0,1-3.71-1.9,17.43,17.43,0,0,1-3.29-3.49,23.59,23.59,0,0,1-2.77-4.8,44,44,0,0,1-1.8-5.76,34,34,0,0,0,4.3,4.57,51.53,51.53,0,0,0,5.87,4,70.36,70.36,0,0,1-5.65-8.06,39.8,39.8,0,0,1-3.55-8.24,38.62,38.62,0,0,1-1.49-6.78c-.21-1.86-.16-3.21.39-3.92s1.6-.74,3.21.27,3.81,3.1,5.78,4.71A20.21,20.21,0,0,0,85,169.1a28.88,28.88,0,0,0,6.2,1.39,17.33,17.33,0,0,0,3.3.07,35.9,35.9,0,0,0,4.12,7.86,14.89,14.89,0,0,0,5.41,4.06,13.64,13.64,0,0,0,4.85,1.59,7,7,0,0,0,3.44-.85,19.18,19.18,0,0,0,2.66,5.34,52.19,52.19,0,0,0,4.62,4.66c1.42,1.4,2.3,2.65,3.21,3.7a6.57,6.57,0,0,0,3.08,2.21,4.92,4.92,0,0,0,4.22-.88,17.86,17.86,0,0,0,3.79-4.36,11.78,11.78,0,0,0,1.38-2.55,15.71,15.71,0,0,0,3.83-.73,5.82,5.82,0,0,0,2-1.49c.35-.39.46-.49.56-.6a17.28,17.28,0,0,0,4.17,3.63,9.18,9.18,0,0,0,5.91,1.35c1.79-.39,3.05-1.9,4.29-3.4a14.82,14.82,0,0,0,3.93,2.69c1.55.64,3.42.83,4.42,1.38s1.08,1.44,1,2.61a9.4,9.4,0,0,1-1.21,3.93,14.38,14.38,0,0,1-3.51,3.63,29.5,29.5,0,0,1-5.31,3.4,34.8,34.8,0,0,1-6.8,2.48,41.91,41.91,0,0,1-5.94,1,47.35,47.35,0,0,1,7.5.83,10.77,10.77,0,0,1,5,2.55c1.15,1.16,1.71,2.56,2.81,5.41s2.71,7.1,4.77,9.88a15.63,15.63,0,0,0,7,5.16,29.44,29.44,0,0,0,7.6,2.27,20.31,20.31,0,0,0,8.86-.73,22.1,22.1,0,0,0,9.3-5.44,17.1,17.1,0,0,0,4.29-9.74,30.4,30.4,0,0,0-.78-12.24,18.86,18.86,0,0,0-5.87-9.41,21.16,21.16,0,0,0-9-4.06c-2.89-.62-5.28-.67-6.64-1.1a2.32,2.32,0,0,1-1.84-2,16.69,16.69,0,0,1-.29-2.46,26.28,26.28,0,0,1-3.36,3.77,2.15,2.15,0,0,1-2.45.41,3.34,3.34,0,0,1-1.82-1.93,8,8,0,0,1,.05-3.12,16.27,16.27,0,0,0,.16-2.83,11.11,11.11,0,0,0-.23-1.94,17.14,17.14,0,0,0,4-3.93,19.61,19.61,0,0,0,3.09-7.24,24.09,24.09,0,0,0,0-7.39,17.54,17.54,0,0,0-.89-3.62,29.25,29.25,0,0,0,4.77-5.63A16,16,0,0,0,180.5,151a21,21,0,0,0,.21-3.29,42.46,42.46,0,0,0,5-5.46,15.72,15.72,0,0,0,2.14-4.85A46.41,46.41,0,0,0,192,144.8a19.76,19.76,0,0,0,5.1,4.87,11.28,11.28,0,0,0,4.09,1.52,62.28,62.28,0,0,0-6.54,3.12c-1.73,1.05-2.83,2.07-4.09,2.5s-2.64.21-4.13.44a10.88,10.88,0,0,0-4.3,1.77,5.22,5.22,0,0,0-2.27,2.57c-.07.69.71,1,1.82,1a22.29,22.29,0,0,0,4-.5,29.89,29.89,0,0,0-1.27,6.15c-.13,2.07.18,4.22-.05,6a11.89,11.89,0,0,1-1.83,4.68c-.8,1.36-1.63,2.55-2.46,3.76a60.06,60.06,0,0,1,5.54-3,5.79,5.79,0,0,1,4-.62,8.06,8.06,0,0,1,3.76,2.66,52.25,52.25,0,0,0,3.88,4.66,12.73,12.73,0,0,0,6.38,3.06,23.16,23.16,0,0,0,9-.17,22.61,22.61,0,0,0,7.91-3.44,17.13,17.13,0,0,0,5.1-5.19,7.48,7.48,0,0,0,.85-5.6,25.31,25.31,0,0,0-2.73-6.11A43.9,43.9,0,0,0,222.5,159a23.21,23.21,0,0,0-4.14-7.14,36.34,36.34,0,0,0,8.52-4.94,18.25,18.25,0,0,0,5.54-8.84,27.26,27.26,0,0,0,.71-12.53,18.18,18.18,0,0,0-5-9.1,16.22,16.22,0,0,0-7-4.31,22.19,22.19,0,0,0-8.06-.67,47.05,47.05,0,0,0-8.32,1.56c-2.61.71-4.89,1.49-7,1.43a10.27,10.27,0,0,1-5.63-2.16,51.26,51.26,0,0,1-5.09-4.34c1.47,2.8,2.93,5.62,3.92,7.83s1.5,3.83,1.27,4.93-1.22,1.66-2.6,2.11a33.32,33.32,0,0,1-4.06.9,9,9,0,0,1-1,.16,13,13,0,0,0-3.46-3.26,13.2,13.2,0,0,0-5.3-1.52,24.94,24.94,0,0,0-5.15.24,28.5,28.5,0,0,0,.44-11.94,37.4,37.4,0,0,0-1.24-5.21,16.85,16.85,0,0,0-.92-2.37,23.83,23.83,0,0,0,4.66-1.26,4.72,4.72,0,0,0,2.07-1.86c2.66,2.29,5.3,4.57,7.07,6.11s2.66,2.32,3.54,3.1c-1-2.6-2.07-5.2-2.9-7.21a16,16,0,0,1-1.54-4.74,5.2,5.2,0,0,1,1.38-3.73c1-1.15,2.5-2.17,3.49-3.49A20.49,20.49,0,0,0,189,81.92a57.6,57.6,0,0,0,2.64-7,35.6,35.6,0,0,0,1.08-10,36.81,36.81,0,0,0-1.81-11.3c-1.18-3.15-2.95-5.14-5.75-7.41a36.26,36.26,0,0,0-10.26-6,20.54,20.54,0,0,0-9.67-.66A52.67,52.67,0,0,0,158,41.21c-2.38.65-5,1.33-8,2.16a50.44,50.44,0,0,0-9,3.15,20.39,20.39,0,0,0-5.84,4.54,32.26,32.26,0,0,1-3.88,4.07,29.84,29.84,0,0,1-5,2.8c-1.53.75-2.56,1.38-3.6,2,1.4.93,2.82,1.87,3.45,3.15a6.51,6.51,0,0,1,.11,4.59,46,46,0,0,0-1.45,5.15,12.56,12.56,0,0,0,.55,5.07c.46,1.77,1.08,3.7,1.72,5.63l-2.64,2.8-3.16,3.44a36.45,36.45,0,0,0,0-8.1,23.21,23.21,0,0,0-2.78-8.39,24.85,24.85,0,0,0-4.52-5.12,6.85,6.85,0,0,1-2.16-3c-.14-.8.26-1.42,1.61-2.23a60.33,60.33,0,0,1,5.95-2.79c-1.77-.31-3.54-.62-5.65-.86a33.57,33.57,0,0,0-7.07-.13,33.19,33.19,0,0,0-7.39,1.77,45.15,45.15,0,0,0-6.13,2.73,38.91,38.91,0,0,0-3.93,2.59A17.74,17.74,0,0,0,85,61.92a14.49,14.49,0,0,0-6.66-1.75,25.68,25.68,0,0,0-9.78.83,16.62,16.62,0,0,0-7.39,5.15,13.38,13.38,0,0,0-2.49,5.5,30.82,30.82,0,0,0-8.37,3.1,14,14,0,0,0-6.46,7.84,18,18,0,0,0,.71,11.15c1.25,2.76,3.22,3.54,5.2,4.32.16,1.4.32,2.82-.51,3.72s-2.66,1.33-4.66,1.88a40.38,40.38,0,0,0-6.39,2.23,13.07,13.07,0,0,0-5.62,4.36,11.52,11.52,0,0,0-1.33,7.16,17.72,17.72,0,0,0,2.39,7.47,18.9,18.9,0,0,0,5.41,5.87A13.85,13.85,0,0,0,45.18,133a17.32,17.32,0,0,0,6.36-.43,19.35,19.35,0,0,0,7-3.15,19.77,19.77,0,0,0,4.48-5.6,18.91,18.91,0,0,0,4.73-1.72,3.63,3.63,0,0,0,2.11-3.28,8,8,0,0,0-2.27-4.37c-1.13-1.26-2.39-2-3-2.94a5.34,5.34,0,0,1-.76-3A16.55,16.55,0,0,0,68.38,110a6.39,6.39,0,0,0,4.15-1.22,17.32,17.32,0,0,0,3.9-3.74,14.28,14.28,0,0,0,1.93-3.72,41.53,41.53,0,0,0,7.09,4.36c2.18.9,4.11,1,5.2.53s1.35-1.51,2-2.45A5.87,5.87,0,0,1,95,101.71c.76-.32,1.27-.11,1.43.44s-.05,1.44.67,1.67a6.1,6.1,0,0,0,3.69-.92c1.27-.73,2.16-1.77,2.62-1.9s.53.66.12,1.74a11.7,11.7,0,0,1-2.46,3.84,44.34,44.34,0,0,1-4.21,3.62,13.13,13.13,0,0,1-3.16,2.18,2.59,2.59,0,0,1-2.39-.34,4.21,4.21,0,0,1-1.22-1.79,24.56,24.56,0,0,0-6.36,3,7.34,7.34,0,0,0-3.17,5.21c-.16,2.06.78,4.34,1.71,6.65a19.69,19.69,0,0,0-6.62,6.73c-2,3.52-3.79,8.95-4.94,13.13s-1.67,7.15-2.82,8.43-2.91.87-4.34,0a13.47,13.47,0,0,1-3.31-3,9.86,9.86,0,0,0-3.78-2.82Zm30-9.88c-.52-.55-.87-.91-1.56-.94A4.67,4.67,0,0,0,82,138a10.28,10.28,0,0,0-3.1,4.32A17.22,17.22,0,0,0,78,149a10.51,10.51,0,0,0,1.65,5.49,9.3,9.3,0,0,0,4,3,7.89,7.89,0,0,0,3.72.69A3,3,0,0,0,89.49,157a5.62,5.62,0,0,0,1.08-3.23,38.47,38.47,0,0,0-.36-5.77,43.76,43.76,0,0,0-.74-4.77,12,12,0,0,0-1.28-3.35,11,11,0,0,0-1.75-2.14Z"/><path class="cls-1" d="M229,249.09a5,5,0,0,0,.28.85.54.54,0,0,0,.48.36,6.2,6.2,0,0,0,1,.16,2,2,0,0,0,.59,0,.47.47,0,0,0,.37-.22,1.78,1.78,0,0,0,.14-.65,2.37,2.37,0,0,0,0-.6,1.13,1.13,0,0,0-.22-.54,2.17,2.17,0,0,0-.39-.35,1,1,0,0,0-.44-.28,2.5,2.5,0,0,0-.81-.06,2,2,0,0,0-.82.18c-.16.09-.18.23-.19.41a4.06,4.06,0,0,0,0,.72Z"/><path class="cls-2" d="M52.25,111.19a9.6,9.6,0,0,0-1.71-3.83,2.44,2.44,0,0,0-3-.44c-1.27.53-2.79,1.74-4.11,2.18a8.64,8.64,0,0,1-3.33.19,3.9,3.9,0,0,0-2.78,1.37,6.64,6.64,0,0,0-1.91,5.17,18.65,18.65,0,0,0,3,8.35,11.33,11.33,0,0,0,5.09,4.34,6.89,6.89,0,0,0,4.64.3,8.08,8.08,0,0,0,3.81-2.38A5.39,5.39,0,0,0,53,123.09a33.08,33.08,0,0,0-.12-3.49c-.07-1.31-.09-2.88-.16-4.3a20.59,20.59,0,0,0-.49-4.11Zm99.4-38.78a35.87,35.87,0,0,0-7.24-1.31c-2.43-.2-4.31-.15-4.82-.59s.32-1.38,1.49-2.07,2.67-1.08,3.38-1.91.6-2.09,1-3.44a8.47,8.47,0,0,1,2.83-3.92,18.22,18.22,0,0,1,5.08-2.49,12.44,12.44,0,0,1,6.13-1A15.35,15.35,0,0,1,168.06,60a35.24,35.24,0,0,1,7.88,11.19,17.16,17.16,0,0,1,1.28,8.45c-.18,1.56-.45,1.62-1,1.51s-1.31-.37-1.82.46-.78,2.76-1.26,4.46a13.39,13.39,0,0,1-2,4.36,5.2,5.2,0,0,1-3.4,2.43,4.14,4.14,0,0,1-2.15-.23A10.93,10.93,0,0,1,165,95a44.74,44.74,0,0,1-2.66,4.39c-.55,1-.23,1.21.25,2.15a35.09,35.09,0,0,1,1.88,4.66A24.88,24.88,0,0,1,166,113.1a17.71,17.71,0,0,1-1.1,6.47,5.67,5.67,0,0,1-2.66,3.17,51,51,0,0,0-4.5,2.92c-.83.78-.26,1.15,1.47.85a47.26,47.26,0,0,0,6.63-1.91c2-.71,2.94-1.19,3.9-1.49a7.28,7.28,0,0,1,3-.39,9.54,9.54,0,0,1,3.6,1,7.89,7.89,0,0,1,3.44,3.16,11,11,0,0,1,1.36,6.3,17.59,17.59,0,0,1-2.2,6.77c-.94,1.6-1.77,2.06-1.93,2.94s.37,2.18.6,3.83a9.59,9.59,0,0,1-.88,5.76,23.7,23.7,0,0,1-4.64,5.82,30.31,30.31,0,0,0-2.7,2.5c-.33.59-.14,1.21-.19,2.59a28.52,28.52,0,0,1-.94,5.72,28.81,28.81,0,0,1-2.29,6.15c-.88,1.65-1.82,2.64-2.21,3.6s-.23,1.89-.62,3.11a4.92,4.92,0,0,1-2.89,3.26,6.8,6.8,0,0,1-5.05-.72c-1.31-.78-1.72-1.88-2.85-3a15.84,15.84,0,0,0-5.62-3.26c-2.69-1-6.21-1.82-6.69-3s2.14-2.76,5-10.06,6-20.3,6.19-29.55-2.59-14.72-6-17.63-7.64-3.28-12.73-3.65-11-.73-14.4-1.54-4-2.06-3.56-3.23,2-2.26,2.5-2.94-.07-.94-.55-1.64a2.51,2.51,0,0,1,.05-3c.89-1.17,3-2.37,4.15-3.27a2.56,2.56,0,0,0,1.2-2.38,4.06,4.06,0,0,1,.46-2.76,7.46,7.46,0,0,1,3.92-2.11c1.79-.5,3.91-.76,4.91-1.17s.83-1,1.13-1.77a6.7,6.7,0,0,1,2.16-2.69c1.14-.91,2.69-1.74,2.85-2.18s-1.08-.5-2.28-.73-2.34-.65-2.39-1.2,1-1.23,1.91-1.93,1.77-1.42,3-2.36a12.85,12.85,0,0,1,3.76-2.25c.92-.16,1.12.67.66,1.47s-1.62,1.51-1.39,2,1.85.75,3.95,1.33,4.72,1.45,7.52,2.36,5.75,1.86,8.09,1.54a4.94,4.94,0,0,0,.6-.11c-.19-.58-.42-1.15-.65-1.7a28.14,28.14,0,0,0-4.45-6.73,7.65,7.65,0,0,0-3.88-2.94ZM63.12,97.76a5.85,5.85,0,0,1-3.75,1.31A6.28,6.28,0,0,1,55,96a13.73,13.73,0,0,1,0-14.68c1.15-1.83,2.51-2.87,3.42-2.93s1.38.89,2.11,1.33,1.71.39,3.43-1.22,4.17-4.78,7-7a20.49,20.49,0,0,1,8.37-3.93c2.37-.48,3.93-.16,4.89.67s1.32,2.18,2.14,2.57,2-.18,3-.41a2.51,2.51,0,0,1,2.33.36c.62.49,1.16,1.38,2,2.09a8.56,8.56,0,0,0,3.88,1.59A44.48,44.48,0,0,1,104,75.79a9.59,9.59,0,0,1,5.1,3.79,6.11,6.11,0,0,1,.66,5.41c-.68,1.45-2.29,2.18-4.4,2.35s-4.71-.17-8,.32a35.09,35.09,0,0,0-10,3.39,62,62,0,0,0-6.64,4.3c-1.6,1-2.68,1.4-3.67,1.12S75.15,95.24,74.25,95a5,5,0,0,0-2.87.76,7.61,7.61,0,0,1-3,.78,16.35,16.35,0,0,0-2.53-.32,8.58,8.58,0,0,0-2.68,1.51Zm146.24,28.17a4.79,4.79,0,0,1-1.65-3.74,5.71,5.71,0,0,1,3.1-3.67,9,9,0,0,1,4.8-.81,5.4,5.4,0,0,1,3.86,2,24.45,24.45,0,0,1,3.85,6.25,17.16,17.16,0,0,1,1.5,6.63,12.79,12.79,0,0,1-.88,5c-.5,1.07-1.07,1.33-1.67,1a8.38,8.38,0,0,1-2.11-2.5c-.88-1.31-2-3-3.08-4.35a13.41,13.41,0,0,0-2.76-2.87,11.31,11.31,0,0,0-2.25-1.09,8.64,8.64,0,0,1-2.71-1.89Zm-7.82,43.33c-.56.93-1.91,2.71-3,4.11s-1.9,2.38-1.45,2.91,2.09.62,3.45.81,2.43.52,3.81.71a7.22,7.22,0,0,0,4.69-.63,11.26,11.26,0,0,0,4.19-4.89,15.79,15.79,0,0,0,1.54-6.7,12.66,12.66,0,0,0-1.3-5.76,6.45,6.45,0,0,0-2.94-2.9A8.87,8.87,0,0,0,207,156c-1.29-.09-2.69,0-3.79,0s-1.88-.05-2.07.38.19,1.34.58,2.37a10.35,10.35,0,0,1,.73,3.83c0,1.63-.41,3.68-.48,4.73s.16,1.06-.41,2Zm-28.06,45.48c-1,.78-2.52,1.54-3.69,2.31s-2,1.55-1.93,2.25,1,1.27,1.9,1.75a8.42,8.42,0,0,1,2.43,1.42c.56.6.78,1.48,1.61,2.07a7.07,7.07,0,0,0,4,.78,15.59,15.59,0,0,0,5.1-1.06,7.86,7.86,0,0,0,4-3.49,17.07,17.07,0,0,0,2.39-7.36,9.93,9.93,0,0,0-1.65-5.77,7.5,7.5,0,0,0-2.67-2.87,7.66,7.66,0,0,0-3.09-.91,3.69,3.69,0,0,0-2.49.64,7.59,7.59,0,0,0-2.47,2.93,36,36,0,0,0-1.57,4.44,5.54,5.54,0,0,1-1.88,2.87Zm-86.4-9.39a11.71,11.71,0,0,0-3.81-.42,6.32,6.32,0,0,0-4.75,2.18c-1.35,1.66-2.23,4.51-2,8.7A50.78,50.78,0,0,0,79.35,229c1.31,3.51,2.59,5.09,3.93,6.2a10.37,10.37,0,0,0,4.06,2.13,13.57,13.57,0,0,0,3.7.25c1.16,0,2.25-.09,3.74-.06s3.4.13,4.77.18,2.21,0,2.21-.57a11.33,11.33,0,0,0-1.25-2.71c-.41-.87-.41-1.38.42-1.82s2.5-.76,3.88-1.35a6.63,6.63,0,0,0,3.19-2.62c.74-1.22,1.1-2.8-.5-5.56s-5.12-6.7-8-9.46a45.52,45.52,0,0,0-6.77-5.39,28.37,28.37,0,0,0-3.31-1.91,12.06,12.06,0,0,0-2.32-.91ZM44.63,158.4c-1.08-1.59-2.08-3.1-1.77-5.1s1.84-4.5,2.33-6-.07-1.88-1.82-1.84a13.71,13.71,0,0,0-7.21,2.21A16,16,0,0,0,30.24,156a20.81,20.81,0,0,0-.23,11.8,24.93,24.93,0,0,0,5.92,10.29c2.46,2.55,5.07,3.9,7.47,4.07a10.74,10.74,0,0,0,6.06-1.63c1.49-.83,2.27-1.5,2.56-3.17a16.73,16.73,0,0,0-.68-6.84,30.2,30.2,0,0,0-3.28-6.83c-1.22-2-2.37-3.67-3.43-5.27Z"/><path class="cls-4" d="M2.23,228.79a3.6,3.6,0,0,1-1.65-.18c-.47-.21-.69-.62-.53-1a1.64,1.64,0,0,1,1.3-.62,2.13,2.13,0,0,1,1.48.48.87.87,0,0,1,.16.95c-.1.24-.3.31-.76.34Z"/><path class="cls-5" d="M31.5,72.57c-1.51-.89-3.95-2.34-5.81-3.46a33.34,33.34,0,0,1-3.88-2.53,2.93,2.93,0,0,1-1.22-1.76,1.41,1.41,0,0,1,.3-1.25c.25-.27.58-.36,1.18,0a28.75,28.75,0,0,1,2.75,2.14c1.28,1,3,2.38,4.57,3.81A43.7,43.7,0,0,1,33,73.13c.5.62,0,.32-1.54-.56Z"/><path class="cls-5" d="M127.26,33.64c-.29-1.63-.73-4.27-1.08-6.53a25,25,0,0,1-.54-5.46,2.07,2.07,0,0,1,1.26-2,1.61,1.61,0,0,1,1.79.32c.43.47.55,1.36.53,3.06a62.61,62.61,0,0,1-.44,6.59,41.85,41.85,0,0,1-.9,5.49c-.25.84-.36.18-.62-1.47Z"/><path class="cls-5" d="M221.17,71.56c1.4-1.12,3.85-3.1,5.87-4.59s3.59-2.46,4.64-2.62a1.47,1.47,0,0,1,1.7,1.11,1.22,1.22,0,0,1-.48,1.33,12.14,12.14,0,0,1-2.57,1.47c-1.42.69-3.54,1.68-5.54,2.55s-3.85,1.63-4.59,1.88-.43,0,1-1.13Z"/><path class="cls-5" d="M54.53,217.2c-1.52,1.21-4.22,3.48-6.29,5.16s-3.51,2.76-4.55,3.61a7,7,0,0,0-2,2.06,1.55,1.55,0,0,0,.18,1.63,1.41,1.41,0,0,0,1.65.28,6.72,6.72,0,0,0,2.67-2.19c1-1.26,2.13-3.12,3.63-4.88a61.49,61.49,0,0,1,4.59-4.58,9.46,9.46,0,0,0,1.86-2.13c.11-.28-.25-.14-1.77,1Z"/><path class="cls-5" d="M219.22,242.36c-1.5-1.33-4.12-4-5.84-5.74s-2.54-2.73-2.61-3.13.57-.27,2,.72,3.74,2.84,5.44,4.22,2.85,2.28,3.56,3,1,1.24.89,1.58-.64.55-1.1.62-.83.05-2.36-1.28Z"/><path class="cls-5" d="M207.44,230.72a40,40,0,0,1-3.75-3.51c-1-1-1.17-1.32-.18-.63s3.17,2.44,4.36,3.45,1.36,1.26,1.24,1.4-.59.12-1.67-.71Z"/><path class="cls-3" d="M229.3,249.73a1.64,1.64,0,0,1-.37-1,.79.79,0,0,1,.34-.79,1.22,1.22,0,0,1,.92-.08.84.84,0,0,1,.51.55,1,1,0,0,1-.07.75,1.41,1.41,0,0,1-.56.6.64.64,0,0,1-.77,0Z"/><path class="cls-5" d="M200.13,133.74a17.33,17.33,0,0,0,0-5.49c-.2-1.49-.47-2.48-.59-3.31a1.7,1.7,0,0,1,.83-2.09,20.39,20.39,0,0,1,4.27-1.39,7.34,7.34,0,0,1,3.16-.35,5.23,5.23,0,0,1,3.13,2.34,21.29,21.29,0,0,1,3.19,6.93,19.6,19.6,0,0,1,.39,7.92,11.48,11.48,0,0,1-2.64,5.59c-1.27,1.51-2.89,2.77-4.73,2.59s-3.93-1.81-5.37-2.71a25,25,0,0,1-2.73-1.65c-.53-.51-.78-1.34-.47-2.81s1.2-3.55,1.56-5.57Z"/><path class="cls-5" d="M196.33,163.52c.25-1.59.5-3.54.69-4.82s.34-1.87.64-2.17.82-.31,1.33.12a19.77,19.77,0,0,0,1.83,1.79,6.74,6.74,0,0,0,2.64.92c.72.12,1.09.09,1.34.87a11.91,11.91,0,0,1,.27,4.27,17.79,17.79,0,0,1-1.35,5.67,4.28,4.28,0,0,1-2.57,2.6c-.83.18-1.5-.37-2.44-.44s-2.18.35-2.89.23-.89-.82-.83-1.72a22.26,22.26,0,0,1,.6-3.26c.27-1.2.5-2.44.74-4.06Z"/><path class="cls-5" d="M172.08,211.22c-.9,1.11-1.47,2.18-2.44,3.2a25.08,25.08,0,0,1-3.46,2.78,28,28,0,0,0-2.46,1.86c-.45.41-.39.57.72.31s3.26-.94,5.05-1.37a39.91,39.91,0,0,1,4.4-.71,9.25,9.25,0,0,0,3.33-.81,9.88,9.88,0,0,0,3.19-2.71,19.1,19.1,0,0,0,2.23-4.15,25.51,25.51,0,0,0,1.58-4.73,11.68,11.68,0,0,0,.14-4.27c-.25-1-.76-1.26-1.26-1s-1,.95-1.35,1.1-.71-.31-1.17-.62a1.66,1.66,0,0,0-1.63-.29,4.18,4.18,0,0,0-1.73,2.41,41.3,41.3,0,0,1-2.06,5.16,24.79,24.79,0,0,1-3.08,3.88Z"/><path class="cls-5" d="M103.94,210.33a14.74,14.74,0,0,0-3.58-2.92,18.55,18.55,0,0,0-3.81-.92c-1.25-.32-2.49-1-3-.85s-.37,1-.77,1-1.37-.94-2.36-1.72a11.05,11.05,0,0,0-2.91-1.68c-.92-.3-1.71-.33-2.16.62a13.29,13.29,0,0,0-.41,5.21,42.3,42.3,0,0,0,1,7.39,22.25,22.25,0,0,0,2.53,6.29,23.88,23.88,0,0,0,4.41,5.7,7.22,7.22,0,0,0,4.43,1.86,9.88,9.88,0,0,0,3.69-.4,14,14,0,0,1,1.91-.8,12.32,12.32,0,0,1,2.66.18,7.49,7.49,0,0,0,3.63-.47c1.28-.54,2.52-1.64,2.57-2.88s-1.1-2.66-2.07-3.83a8.07,8.07,0,0,1-2-2.92c-.18-.85.3-1.67.32-2.61a5.64,5.64,0,0,0-1.19-3.06,25.56,25.56,0,0,0-2.89-3.21Z"/><path class="cls-5" d="M50.85,163.63a21.76,21.76,0,0,1-.38-3.1,38.42,38.42,0,0,0-.42-4.48,4.24,4.24,0,0,0-1.26-2.54,2.16,2.16,0,0,0-2.23-.21c-1.05.32-2.48,1.08-3.7,1.54s-2.25.66-2.45,2.85.44,6.42.53,8.35-.35,1.56-.87,1-1.08-1.28-1.45-1.19-.57,1.05-.23,2.92a30.32,30.32,0,0,0,2.2,6.95,12.5,12.5,0,0,0,3,4.44c.74.52,1-.15.81-1.34s-.74-2.84-.87-3.54.18-.48.64-.13,1.1.87,1.6.8.86-.69,1.2-.82.64.23,1.19.92a25.71,25.71,0,0,0,2,2.45,7.58,7.58,0,0,0,2.2,1.56c.76.35,1.56.58,1.87.07s.18-1.81.31-2.53a1.22,1.22,0,0,1,1-1.08c.41-.15.83-.2.85-.64a7.34,7.34,0,0,0-1-2.47c-.63-1.16-1.52-2.71-2.19-4a30.44,30.44,0,0,1-1.51-3.19,14.6,14.6,0,0,1-.81-2.66Z"/><path class="cls-5" d="M55.22,116.89a10,10,0,0,1-.48-3.08c0-1.35.32-3.35.39-4.82s-.05-2.35-.71-2.6-1.87.16-3.13,1a11.86,11.86,0,0,0-3.46,3.64,9.92,9.92,0,0,0-1.27,5.3A24.08,24.08,0,0,0,47.62,123a12.06,12.06,0,0,0,2.16,4.41c.76.87,1.53,1.05,2.08.78s.88-1,1.27-1.29a1.39,1.39,0,0,1,1.24,0c.39.09.76.11.92-.23a10.92,10.92,0,0,0,.22-2,34.92,34.92,0,0,0,.33-3.74,17,17,0,0,0-.62-3.92Z"/><path class="cls-5" d="M69.61,95.24a40.88,40.88,0,0,0-3.17,3.07,21.93,21.93,0,0,0-2.52,3.74c-.57,1-.81,1.68-1.26,2.48a6.87,6.87,0,0,1-1.57,2c-.45.25-.66-.23-.82-1.22a15.79,15.79,0,0,1-.09-4.43A20.24,20.24,0,0,1,62,94.62a27.27,27.27,0,0,1,4.18-6,34.13,34.13,0,0,1,5.12-4.82,12.89,12.89,0,0,1,4.34-2.14,10.26,10.26,0,0,1,3.86-.46,6.91,6.91,0,0,1,2.62,1,10.63,10.63,0,0,0,2.5,1,14.19,14.19,0,0,0,3.69.18c1.87,0,4.74-.18,7.17-.27a50.52,50.52,0,0,1,5.94.07,6.1,6.1,0,0,1,3,.91c.36.35,0,.72-.39,1.08s-.65.69-.35.94,1.2.41,2,.81a5,5,0,0,1,1.86,1.83,2.93,2.93,0,0,1,.48,2.18,1.91,1.91,0,0,1-1.61,1.36,12,12,0,0,1-3.53-.32c-1.36-.23-2.85-.46-4.32-.6a29.07,29.07,0,0,0-5.1-.05c-2.13.14-4.87.47-7.25.83a27.1,27.1,0,0,0-5.79,1.29c-1.45.59-2.36,1.4-2.83,1.49s-.5-.53.07-1.77,1.7-3.08,2-4-.34-.85-1.2-.55a16.69,16.69,0,0,0-3.09,1.51,17.51,17.51,0,0,0-3,2.28c-.94.87-1.79,1.87-2.8,2.8Z"/><path class="cls-5" d="M155.18,78.18a25.77,25.77,0,0,0-4.66-2.49A16.81,16.81,0,0,1,147,74.13a1.7,1.7,0,0,1-.62-2.27c.51-.67,1.86-1.06,3.13-1.26a11.49,11.49,0,0,1,4,.09,19.14,19.14,0,0,1,4.84,1.65,16.28,16.28,0,0,1,3.95,2.9,13.2,13.2,0,0,1,2.71,3.9A12.93,12.93,0,0,1,166.18,84c-.09,1.17-.81,1.43-1.77,1.24a9.07,9.07,0,0,1-3.28-1.65,27,27,0,0,1-3.19-2.83,17,17,0,0,0-2.76-2.61Z"/><path class="cls-5" d="M119.16,110.09c-.74.21-3.45-.67-6.24-.32a19.4,19.4,0,0,0-7.81,3.47,30.59,30.59,0,0,0-5,4.33c-1.43,1.49-2.85,3.1-4.32,4.55a28.41,28.41,0,0,1-3.54,3c-.5.28.07-.45.63-1.35s1.16-2,.61-2.3-2.22.25-3.62,1.42a10.6,10.6,0,0,0-3.26,5.75A32.08,32.08,0,0,0,85.94,139a43.57,43.57,0,0,0,2.18,10.24A30.9,30.9,0,0,0,90,153c.11.41-.58.3-.81.64s0,1.11.73,2a23.48,23.48,0,0,0,2.71,2.42c.65.55.65.66.49,1.6a18.49,18.49,0,0,0-.33,4.38,9.12,9.12,0,0,0,2.05,5,24.87,24.87,0,0,0,5.92,5.46,25.56,25.56,0,0,0,7.37,3.38c2.23.57,4,.51,4.22,0s-1.16-1.57-2.22-2.32-1.84-1.13-1.28-1.72A15.33,15.33,0,0,1,113,172c1.57-.55,2.83-.9,4-.49s2.11,1.61,1.59,2.14-2.55.35-3.38.73-.48,1.24-.16,2.28a15.63,15.63,0,0,1,.62,3.21,4,4,0,0,0,.6,2.67,11.64,11.64,0,0,0,3.67,3c1.42.73,2.66.94,2.87,1.28s-.62.81-1.15,1.32a1.36,1.36,0,0,0-.18,1.94,7.31,7.31,0,0,0,3.49,2.49,11.72,11.72,0,0,0,5.16.41c1.54-.19,2.62-.67,2.94-1.24s-.16-1.26-.68-1.81-1.09-1-.83-1.27,1.35-.52,3.15-1,4.29-1.19,5.83-1.62a7.19,7.19,0,0,1,3-.4,16.87,16.87,0,0,0,3.88.26,20.18,20.18,0,0,0,6.14-1.82,17.47,17.47,0,0,0,6-4.31c1.48-1.79,2.16-3.93,1.93-4.73s-1.38-.3-2.85.59-3.23,2.14-5,3.1a23.93,23.93,0,0,1-5.23,2.1,9.55,9.55,0,0,1-4,.54c-.68-.22-.43-.89.51-1.49a46.93,46.93,0,0,1,5.09-2.18,46.6,46.6,0,0,0,8.27-4.38c2.32-1.7,3.52-3.47,3.83-5s-.25-2.76-.64-4.3a12.29,12.29,0,0,1-.43-4.27c.18-.9.76-.9,1.77-1.45a10.3,10.3,0,0,0,3.48-3.16,11.38,11.38,0,0,0,1.63-5.17,14.35,14.35,0,0,0-.36-4.25c-.25-.94-.44-1.26,0-1.83a22.07,22.07,0,0,0,2.39-2.92,13.9,13.9,0,0,0,2-6,13.53,13.53,0,0,0-1.32-6.89,11.6,11.6,0,0,0-4-4.5,5.54,5.54,0,0,0-3.34-.87c-.93,0-1.65.12-2.2.18s-.9.05-.8-.75a21.36,21.36,0,0,0,.64-4.27,21.09,21.09,0,0,0-1.4-6.18,27.4,27.4,0,0,0-2.92-6.48,15.25,15.25,0,0,0-4.91-4.35,42,42,0,0,0-12.49-4.94,14.27,14.27,0,0,0-5.4-.42,22.45,22.45,0,0,0-6,1.93,29.82,29.82,0,0,0-5.16,2.9,13.5,13.5,0,0,0-3.31,3.32,4.43,4.43,0,0,0-.89,3.7c.36,1.27,1.56,2.57.8,2.78Z"/><path class="cls-6" d="M58.82,113.19a5.9,5.9,0,0,1-.36,2.2c-.32,1.11-.81,2.62-1,3.79a7.16,7.16,0,0,0-.06,2.71,8.39,8.39,0,0,1,.3,1.84c0,.37-.31.43-1,0a17.18,17.18,0,0,1-2.39-2.12,4.58,4.58,0,0,1-1.31-2.3,11.51,11.51,0,0,1-.2-3.64,8.39,8.39,0,0,1,.82-2.9c.27-.44.42-.14.65.21a2.39,2.39,0,0,0,1,1,1.9,1.9,0,0,0,1.44-.15c.49-.21,1-.51,1.36-.69s.69-.25.8.09Z"/><path class="cls-6" d="M84.51,93.22a17.06,17.06,0,0,0-3,.62c-1,.29-1.61.47-1.93.34s-.39-.53-.25-1.19a6.66,6.66,0,0,1,1-2.44,11.84,11.84,0,0,1,2.46-2.37,15.26,15.26,0,0,1,2.8-1.76,7.13,7.13,0,0,1,2.87-.71,34.75,34.75,0,0,1,4.06.06,16.19,16.19,0,0,1,3.24.4,8.07,8.07,0,0,1,2.25,1.08,8.39,8.39,0,0,1,2,1.69c.44.6.5,1.2.11,1.47a5.45,5.45,0,0,1-2.22.17,11.48,11.48,0,0,0-2.87.29,4.42,4.42,0,0,0-1.45.94,12.92,12.92,0,0,1-2.46,1.24c-1,.42-2.25.81-3.39,1.29a23.52,23.52,0,0,0-3,1.51c-.75.44-1.14.74-1.35.69s-.28-.52,0-1a8.67,8.67,0,0,1,1.11-1.46c.36-.46.57-.85,0-.87Z"/><path class="cls-6" d="M50.81,161.31a19.53,19.53,0,0,0-1.68-3.76,6.35,6.35,0,0,0-1.79-2.34c-.52-.24-.94.2-1.22,1.17a16.54,16.54,0,0,0-.48,3.87,17.31,17.31,0,0,0,.24,3.7,12.79,12.79,0,0,0,1.33,3.49,20.83,20.83,0,0,0,3,4.16,8.61,8.61,0,0,0,3.42,2.22A3.69,3.69,0,0,0,56,174c.35-.22.1-.66-.25-1.44s-.87-1.89-1.65-3.28a40.83,40.83,0,0,1-2.37-4.35,30.58,30.58,0,0,1-.87-3.6Z"/><path class="cls-6" d="M104,208.15a6.77,6.77,0,0,0-2-1.61c-.61-.3-1.07-.37-1.28,0a4.33,4.33,0,0,0-.11,1.93,19.15,19.15,0,0,0,.22,2.11c.1.5.24.71.16.75a3.71,3.71,0,0,1-1-.45,8,8,0,0,0-1.84-.85,1,1,0,0,0-1.17.59,5.38,5.38,0,0,0-.51,2.41,14.34,14.34,0,0,0,.47,4.07,13.9,13.9,0,0,0,1.81,4,11.35,11.35,0,0,0,2.53,2.7,17.6,17.6,0,0,0,2.93,1.86,8.72,8.72,0,0,0,3.13,1,6.16,6.16,0,0,0,3-.52c.82-.4,1.35-1,1.35-1.5s-.48-.89-1.21-1.56-1.68-1.65-2.6-2.46-1.77-1.49-2.43-2.18a12.46,12.46,0,0,1-1.56-2.22,25,25,0,0,1-1.2-2.3,2,2,0,0,1-.23-1c0-.11.09,0,.73.26a24.24,24.24,0,0,0,2.94,1.12,6.12,6.12,0,0,0,2.35.32c.52-.07.76-.27.61-.69a4.64,4.64,0,0,0-1.26-1.56,18.3,18.3,0,0,1-1.93-1.67c-.64-.72-1.28-1.77-2-2.55Z"/><path class="cls-6" d="M178.79,209.5a7,7,0,0,1-2.51,1.47,19,19,0,0,1-3.35.76,24,24,0,0,1-3.14.35,9.05,9.05,0,0,1-1.94-.21c-.45-.09-.71-.14-.46-.46a9.13,9.13,0,0,1,1.73-1.4c.78-.53,1.61-1,2.53-1.63a18.08,18.08,0,0,0,2.57-2.16,8.7,8.7,0,0,0,1.47-2.14c.41-.82.87-1.81,1.23-2.57a6,6,0,0,1,.86-1.58.47.47,0,0,1,.8.13,11.29,11.29,0,0,1,.48,1.73,12.9,12.9,0,0,0,.66,1.9,6.64,6.64,0,0,1,.56,1.82,5,5,0,0,1-.3,2.06,4.52,4.52,0,0,1-1.19,1.93Z"/><path class="cls-6" d="M194.63,168a32.33,32.33,0,0,0,.82-3.6c.23-1.22.37-2.37.53-3.18s.27-1.28.6-1.3.89.39,1.24,1a7.61,7.61,0,0,1,.69,2.13,7.75,7.75,0,0,1,.34,2.32,5.14,5.14,0,0,1-.9,2.53,6.66,6.66,0,0,1-2,1.78c-.76.46-1.51.79-1.72.55s.12-1.14.44-2.22Z"/><path class="cls-6" d="M202.25,139a4.42,4.42,0,0,1-2.37.44,4.55,4.55,0,0,1-1.69-.28c-.35-.18-.4-.46-.16-1.28s.75-2.13,1.14-3.21a12.68,12.68,0,0,0,.69-2.6,5.49,5.49,0,0,0-.25-2.22c-.23-.85-.62-1.89-.83-2.65s-.23-1.28.14-1.49a2.72,2.72,0,0,1,1.91,0,11.66,11.66,0,0,1,2.32,1,2.57,2.57,0,0,1,1.62,1.56,12,12,0,0,1,.39,4,11.84,11.84,0,0,1-.82,4.16,5.37,5.37,0,0,1-2.09,2.52Z"/><path class="cls-6" d="M154.56,81.16c-.39-.59-.83-1.75-1.58-2.8a15.68,15.68,0,0,0-2.39-2.57c-.6-.57-.8-.78-.62-1a2.73,2.73,0,0,1,1.63-.51,13.19,13.19,0,0,1,3.51.1,8,8,0,0,1,3.08,1.24,10.08,10.08,0,0,1,1.93,2,14.29,14.29,0,0,1,1.6,2.19,8.73,8.73,0,0,1,.86,2.78,12.92,12.92,0,0,1,.15,3.49,2.56,2.56,0,0,1-1.12,2.06,1.94,1.94,0,0,1-2-.53,13.3,13.3,0,0,1-1.66-2.5,17.45,17.45,0,0,0-2.15-2.82c-.58-.58-.9-.56-1.27-1.13Z"/><path class="cls-6" d="M116.72,116.54a5.9,5.9,0,0,1-2.24,1.12,11,11,0,0,1-2.85-.2,12.17,12.17,0,0,0-3.24.05,9.67,9.67,0,0,0-3.15,1.1,7.77,7.77,0,0,0-2.27,2.11,13.2,13.2,0,0,0-1.6,2.85c-.44,1.08-.79,2.31-1.18,3.09a3.72,3.72,0,0,1-1.17,1.4,2.54,2.54,0,0,0-1,1.31,7.25,7.25,0,0,0-.14,2.55,20.32,20.32,0,0,1,.12,2.89,7.88,7.88,0,0,1-.6,2.26c-.23.53-.43.78-.69.62s-.64-.76-1.1-1-1-.21-1.22-.66a8.56,8.56,0,0,1-.22-2.16c-.08-.83-.37-1.59-.65-1.52s-.53,1-.59,4.07A108.79,108.79,0,0,0,93.31,148a18.71,18.71,0,0,0,1.74,6.54c.81,1.89,1.84,4.32,2.82,6.2a43.23,43.23,0,0,0,2.44,4.12c.6.93.9,1.44,1.59,1.65a4.85,4.85,0,0,0,2.25,0c.55-.15.61-.34.45-.69a10.76,10.76,0,0,1-.64-1.46,1.85,1.85,0,0,1,.14-1.22c.11-.18.21,0,.59.57a11.56,11.56,0,0,0,2.19,2.57c1.21,1.06,3,2.26,4,3s1.26,1.06,1,1-.92-.55-1.8-1.05-1.92-1-2.66-1.41-1.22-.64-1.44-.45-.15.89.09,1.77a13.18,13.18,0,0,0,1.16,2.75,3.72,3.72,0,0,0,1.59,1.68,7.23,7.23,0,0,0,2.36.57,5.38,5.38,0,0,0,2,0,1.77,1.77,0,0,0,1-.87c.18-.35.2-.69.34-1a.84.84,0,0,1,.87-.53,6.37,6.37,0,0,1,1.94.41,4.69,4.69,0,0,1,1.39.67c.23.19.14.39.28.8a4,4,0,0,0,.89,1.5c.44.45,1,.69,1,.91s-.25.42-.41.78a2.23,2.23,0,0,0,.2,1.64,8.77,8.77,0,0,0,1.63,2.57,3.81,3.81,0,0,0,2.62,1,15,15,0,0,0,4.52-.27,12.87,12.87,0,0,0,4.41-2,14.74,14.74,0,0,0,3.15-3.21c.91-1.21,1.7-2.54,2.16-3.24s.57-.78.91-.66a6.46,6.46,0,0,0,2.5.59,16.73,16.73,0,0,0,6.2-.73,13.34,13.34,0,0,0,5.42-3.62,14,14,0,0,0,2.74-4.85,21.7,21.7,0,0,0,1.16-4.84c.1-1.25-.13-1.94,0-2.33s.55-.54,1.2-.94a9.6,9.6,0,0,0,2.24-1.86,8,8,0,0,0,1.68-3.05,15.07,15.07,0,0,0,.44-3.69,9.45,9.45,0,0,0-.26-2.92,8.62,8.62,0,0,0-1.12-2.13,2,2,0,0,1-.44-2.26,4.45,4.45,0,0,1,.37-1.24c.18-.29.41-.34.9-.61a3.81,3.81,0,0,0,1.72-1.66,7.71,7.71,0,0,0,.55-3.67,9.13,9.13,0,0,0-1.08-3.63,13.3,13.3,0,0,0-2.32-3,13.83,13.83,0,0,0-3-2.4,6.56,6.56,0,0,0-2.66-.79,3.67,3.67,0,0,0-1.57,0c-.25.12-.2.34-.22.62s-.08.69-.23.69-.35-.44-.53-.78l-.46-.85c-.12-.21-.19-.34.18-.57a4.35,4.35,0,0,0,1.79-1.41,11.2,11.2,0,0,0,1.11-3.6,11.06,11.06,0,0,0,.27-3.29,6.11,6.11,0,0,0-1.13-2.86,8.38,8.38,0,0,0-2.43-2.27,10.11,10.11,0,0,0-2.89-1.16,4.89,4.89,0,0,0-2.09-.2c-.42.09-.53.39-.48,1.12s.27,1.89.37,2.71.11,1.29-1.59.69-5.09-2.27-7.8-3.16a19.51,19.51,0,0,0-6.52-1,39.48,39.48,0,0,0-4.34.25c-1.22.14-2.23.26-3.17.44a7.77,7.77,0,0,0-2.26.64.85.85,0,0,0-.55.76c0,.19.08.26-.45.32s-1.63.09-2.44.24a3.24,3.24,0,0,0-1.72.93,9.68,9.68,0,0,0-1.15,1.47,2.69,2.69,0,0,0-.68,1.29c0,.37.43.66.93.89s1.09.37,1.2.58-.25.51-.81.94Z"/><path class="cls-7" d="M104,139.22c.35-.62.87-1.65,1.4-2.45s1-1.42,1.29-1.42.27.55.11,1.47a32.35,32.35,0,0,0-.55,3.42,14,14,0,0,0,.39,3.87,29.64,29.64,0,0,0,1.31,4.18,39.46,39.46,0,0,0,2,4.44c.78,1.4,1.61,2.66,2,3.35s.5.82-.08.48a25,25,0,0,1-2.87-2,13.85,13.85,0,0,1-2.7-2.71,30.52,30.52,0,0,0-2-2.73,2.91,2.91,0,0,0-1.53-.6c-.37-.16-.58-.52-.58-.29a7.27,7.27,0,0,0,.49,2,22.86,22.86,0,0,0,1.12,2.53c.32.66.5,1,.07,1a4.32,4.32,0,0,1-2.37-1.54A18.15,18.15,0,0,1,99.32,148a32.82,32.82,0,0,1-1.49-3.86,10.46,10.46,0,0,1-.46-3.71,31.43,31.43,0,0,1,.87-4.64c.39-1.7.78-3.49,1.15-4.55s.71-1.37.92-1.29.32.54.48.42a2.86,2.86,0,0,0,.39-1.36,4.83,4.83,0,0,0-.23-1.33,5.85,5.85,0,0,1,.12-2.54,18.86,18.86,0,0,1,1.54-4.3,6.2,6.2,0,0,1,2.54-2.69,13.88,13.88,0,0,1,3.72-1.42,8.4,8.4,0,0,1,3.15-.18,16.51,16.51,0,0,1,2.71.71c.73.25,1.14.37,1,.76a5.77,5.77,0,0,1-1.19,1.61,11.42,11.42,0,0,0-1.24,1.67,6.21,6.21,0,0,0-.87,2.2,8.94,8.94,0,0,0,0,3c.18,1,.54,1.8,1,2s1-.32,1.31-.85.48-1.11.66-1.33.37-.09.58.23.41.85.89.82a5.1,5.1,0,0,0,1.77-.94c.53-.36.85-.5,1.38-.83a13.38,13.38,0,0,0,1.9-1.56,20.61,20.61,0,0,0,1.64-2A11.59,11.59,0,0,1,125.4,120c.55-.43,1-.5,1-.64s-.41-.3-1-.42-1.22-.16-1.08-.34a7.21,7.21,0,0,1,2-.66,5.77,5.77,0,0,1,2.66-.08,8,8,0,0,1,3,1.34c.78.6,1.12,1.31.59,1.49a10.64,10.64,0,0,1-2.75-.3c-.78-.11-1,0-.6.34s1.27.7,1.29.92-.88.25-1.72.3-1.61.12-1.71.32.42.46,1,.69a10.57,10.57,0,0,1,1.84.76c.53.34.87.83.61,1.24s-1.17.71-1.24.85.63.12,1.36.14a11.24,11.24,0,0,1,2.5.29c1.08.24,2.53.65,3.36.88s1,.3.8,0-.94-1.08-1.24-1.53-.14-.64.62-.23a29.22,29.22,0,0,1,3.26,2.32,10.69,10.69,0,0,1,2.36,2.47,8.63,8.63,0,0,1,1,2.48,4.66,4.66,0,0,1,.23,1.56c-.09.1-.34-.36-.78-.89s-1-1.13-1.26-1.08-.1.8,0,1.34.11.91-.19.57a14,14,0,0,0-1.91-2.25,12.1,12.1,0,0,0-3.57-1.88,13.63,13.63,0,0,0-3.08-.76c-.78-.07-1.31,0-1.47.27s0,.64.36,1.11a8,8,0,0,0,1.22,1.6,14.28,14.28,0,0,0,2.07,1.65,6.81,6.81,0,0,1,1.81,1.38,4.26,4.26,0,0,1,.58,2.12,23.26,23.26,0,0,1,.2,3.21,14.27,14.27,0,0,1-.5,3.51,7.24,7.24,0,0,1-1.06,2c-.3.4-.41.6,0,.7a3.35,3.35,0,0,0,2.16-.32,6.32,6.32,0,0,0,2.05-2.12,15.5,15.5,0,0,1,1.19-1.7c.14-.07,0,.6-.23,1.29s-.41,1.35-.18,1.47.92-.33,1.72-1.36a13,13,0,0,0,2.2-4.68,19.93,19.93,0,0,0,.42-6.47,11,11,0,0,0-1.57-4.94,22.78,22.78,0,0,0-3-3.61c-.86-.89-1.31-1.35-1.11-1.53s1-.09,1.4-.17.3-.38-.05-.82a7.32,7.32,0,0,0-1.56-1.36c-.59-.36-1.14-.52-1.08-.64a2.08,2.08,0,0,1,1.39-.07,6,6,0,0,1,2.38.92c.8.5,1.49,1.17,1.72,1.2s0-.6.19-.76.78.16,1.33.64,1.08,1.13,1.6,1.56,1,.64,1.43.94A3.73,3.73,0,0,1,149.7,126a23.48,23.48,0,0,1,1.47,4.65,22.06,22.06,0,0,1,.45,5.16c0,1.75-.18,3.58-.07,4.16s.47-.07.76-.92.49-1.93.81-2.85.76-1.72.94-2.41a4.56,4.56,0,0,0-.12-2.14c-.18-.85-.44-2-.66-2.77s-.4-1.27-.28-1.48.53-.2,1.12.4a15.9,15.9,0,0,1,1.93,2.8,12.12,12.12,0,0,1,1.29,3.21,38.84,38.84,0,0,1,.64,4.2,26.08,26.08,0,0,1,.26,3.17c0,.71-.21,1-.63.48a23.19,23.19,0,0,1-1.55-2.66c-.42-.78-.6-1-.76-.89s-.28.73-.49,1-.5.12-.64.32a4,4,0,0,0-.23,1.19,9.91,9.91,0,0,0-.3,1.86c0,.67.14,1.4.1,2.37a12.65,12.65,0,0,1-.76,3.4c-.44,1.26-1.06,2.55-1.26,3.31s0,1,.5.75a7.45,7.45,0,0,0,1.66-1.6c.5-.58.78-1,.91-.86a6.5,6.5,0,0,1,.05,2c0,1.15,0,2.8-.12,4.1a5.4,5.4,0,0,1-.78,2.58c-.34.39-.68.21-1-.32s-.55-1.38-.9-1.86-.74-.58-.94-.16-.18,1.4-.53,2.75a11.36,11.36,0,0,1-2.18,4.39,9.35,9.35,0,0,1-3.72,2.55c-1.12.43-1.86.46-1.79.2s1-.82,2-1.65a14.35,14.35,0,0,0,3-3.33,11.25,11.25,0,0,0,1.61-4.14,9.25,9.25,0,0,0-.07-3.26,3.41,3.41,0,0,0-.6-1.69,1.32,1.32,0,0,0-1.33-.35c-.55.12-1.17.55-1.26.44s.39-.69.87-1.36a10,10,0,0,0,1.19-2.16,4.67,4.67,0,0,0,.18-2.13,2.19,2.19,0,0,0-.59-1.42c-.28-.18-.65,0-1,.64s-.66,1.63-1.12,2.73a11.59,11.59,0,0,1-1.91,3.28,10.78,10.78,0,0,1-2.73,2.3c-.76.44-1.15.44-1.2.11s.25-1,.1-1.07-.72.37-1.32.8a5.32,5.32,0,0,1-1.55.89c-.32.05-.35-.25-.35-.5s0-.5-.46-.44-1.52.44-2.8.74a28.08,28.08,0,0,1-4,.62,17.6,17.6,0,0,1-2.65,0c-.64,0-1.08-.07-.94-.21a13.55,13.55,0,0,1,1.59-.75,18.08,18.08,0,0,0,2.34-1.38,19.64,19.64,0,0,0,2.52-1.95,4,4,0,0,0,1-1.49c.11-.33.09-.49-.28-.51a13.17,13.17,0,0,0-1.88.16,8.41,8.41,0,0,1-2.35,0,7,7,0,0,1-2-.84,5.59,5.59,0,0,1-1.49-1.15,11.11,11.11,0,0,1-1.84-2.44,7.43,7.43,0,0,1-.78-2.7c-.06-.76,0-1.27.19-1.22s.43.73,1,1.47a14.17,14.17,0,0,0,2.11,2.13,6.88,6.88,0,0,0,1.58,1c.35.17.57.23.46-.25a10.19,10.19,0,0,0-1.28-2.75c-.76-1.22-1.84-2.69-2.6-3.79s-1.17-1.81-1.52-1.86-.64.62-.87,1.45a12.57,12.57,0,0,0-.46,2.73,16.47,16.47,0,0,1,0,1.77c-.09.2-.39-.17-.69-.85a14.67,14.67,0,0,0-1-2c-.34-.4-.68-.24-1,0s-.51.55-.72.4a2.27,2.27,0,0,1-.52-1.47,7.54,7.54,0,0,1,.14-2.39c.18-.8.47-1.52.62-2.12s.24-1.12.08-1.1-.52.53-1,1a18.46,18.46,0,0,0-1.38,1.49c-.34.5-.44,1-.6,1.08s-.41-.21-.53-.55-.11-.71-.23-.62a2.49,2.49,0,0,0-.41,1.42,12.68,12.68,0,0,0,.32,3,18.75,18.75,0,0,0,1,3.64c.5,1.11,1.12,2,1.14,2.16s-.59-.32-1.26-1.07a12.34,12.34,0,0,1-1.93-2.85,17.93,17.93,0,0,1-1.12-3.1,6.9,6.9,0,0,1-.26-1.63c0-.69-.09-1.86-.07-2.76a15.63,15.63,0,0,1,.16-2.13,3.61,3.61,0,0,0,0-1.29.62.62,0,0,0-.66-.34,1.34,1.34,0,0,0-.67.34c-.23.16-.46.37-.68.09a5.39,5.39,0,0,1-.58-1.81,4.28,4.28,0,0,0-.53-1.67c-.27-.24-.68-.1-.85-.42a3.26,3.26,0,0,1,.16-1.91c.24-.78.67-1.55.78-2s-.06-.7-.52-.66a4.77,4.77,0,0,0-1.89.69,8.42,8.42,0,0,0-2,1.61,9.16,9.16,0,0,0-1.29,1.85c-.32.58-.51,1.09-.36,1.36s.68.27,1,.21.59-.16.45.07-.64.77-1.09,1.39a10.2,10.2,0,0,0-1,1.91c-.25.57-.39,1-.22,1.08s.64-.21.89-.27.32.09.16.39-.51.75-.85,1.37a10.54,10.54,0,0,0-.83,2c-.16.6-.2,1,0,1s.73-.43.89-.48,0,.3-.11.94a8.47,8.47,0,0,0,.09,2.37,4.19,4.19,0,0,0,.55,1.71c.14.05.16-.59.26-1a5,5,0,0,1,.64-1.31Z"/><path class="cls-7" d="M107.86,154.58c-.46-.43-.89-.73-1.08-.69s-.16.33.21,1.11,1.1,2,1.79,3.14a21,21,0,0,0,2.27,3.24,29.87,29.87,0,0,0,3.11,2.87,16.31,16.31,0,0,0,2.27,1.72c.34.14.14-.28-.23-.8a7.67,7.67,0,0,1-.9-1.27c0-.16.53.1,1.54.53s2.43,1,3.29,1.27,1.16.29.61-.1-2-1.23-3.21-2a26,26,0,0,1-3.21-2.38c-.94-.81-1.73-1.66-2.56-2.51s-1.65-1.67-2.31-2.38-1.13-1.29-1.59-1.73Z"/><path class="cls-7" d="M131.31,110.34a12.53,12.53,0,0,0-2.1.69c-.32.23.07.41,1.29.73a39.27,39.27,0,0,1,5.38,1.57,37,37,0,0,1,5.75,3c1.52,1,2.44,1.67,2.78,1.58s.1-.92-.13-1.52-.48-.89-.25-.86a4.61,4.61,0,0,1,1.58,1.1c.67.66,1.35,1.6,2.06,2.36a6.53,6.53,0,0,0,1.91,1.52c.48.2.71,0,.74-.58a12.27,12.27,0,0,0-.49-2.91,23.42,23.42,0,0,0-1.6-4.51,17.84,17.84,0,0,0-3.38-5,12.83,12.83,0,0,0-4.78-2.88,14.68,14.68,0,0,0-4.26-.85c-1.09,0-1.75.12-2.07.47a2.31,2.31,0,0,0-.34,1.42c0,.46,0,.83-.69,1s-1.93.21-3.38.41a21,21,0,0,0-4.38,1c-1.27.44-2.19,1-2.16,1.29s1,.25,2.23.18,2.75-.21,3.88-.25a12.81,12.81,0,0,1,2.54.11c.6.09,1,.21,1,.37s-.41.34-1.14.57Z"/><path class="cls-1" d="M8.89,54.57a1.19,1.19,0,0,1-.83,0,1.61,1.61,0,0,1-.69-.53,3.6,3.6,0,0,1-.5-.56,2.11,2.11,0,0,1-.26-.69,3.51,3.51,0,0,1-.13-.86,1.2,1.2,0,0,1,.18-.67,1,1,0,0,1,.55-.41,1.47,1.47,0,0,1,.67.08c.27.05.55.12.82.19a2,2,0,0,1,.67.23,1.13,1.13,0,0,1,.41.46,2.2,2.2,0,0,1,.18.64,2.77,2.77,0,0,1,0,.81,1.69,1.69,0,0,1-.32.82,1.61,1.61,0,0,1-.73.48Z"/><path class="cls-3" d="M10.08,54.57a2.82,2.82,0,0,1-1.63,0,1.27,1.27,0,0,1-.82-.92,1.65,1.65,0,0,1,.09-1.29A1.59,1.59,0,0,1,8.8,51.7a1,1,0,0,1,1.1.4,3.31,3.31,0,0,1,.68,1.53c.05.48-.07.78-.5.94Z"/><path class="cls-6" d="M10.35,54.89a2.37,2.37,0,0,1-1.32,0,1.07,1.07,0,0,1-.65-.74,1.41,1.41,0,0,1,.07-1,1.3,1.3,0,0,1,.87-.57.86.86,0,0,1,.88.34,2.64,2.64,0,0,1,.54,1.22.62.62,0,0,1-.39.77Z"/><path class="cls-7" d="M9.25,54.21c-.11,0-.27-.05-.32-.14s0-.26.12-.44a3,3,0,0,1,.46-.52c.14-.1.23-.14.32-.08a.51.51,0,0,1,.16.37.72.72,0,0,1-.14.51.7.7,0,0,1-.32.32.34.34,0,0,1-.28,0Z"/><path class="cls-7" d="M229.53,249.15c-.14,0-.31-.11-.35-.27a.65.65,0,0,1,.2-.55.43.43,0,0,1,.44-.09.49.49,0,0,1,.26.27.36.36,0,0,1,0,.35.37.37,0,0,1-.21.25.42.42,0,0,1-.34,0Z"/><path class="cls-1" d="M247.41,55.13a3,3,0,0,1,.53-.79,3.62,3.62,0,0,1,.94-.57,4.92,4.92,0,0,1,1.1-.41,1.24,1.24,0,0,1,1,.3,2.93,2.93,0,0,1,.56,1,4.71,4.71,0,0,1,.31.82c0,.21-.08.33-.27.51a4.17,4.17,0,0,1-.92.52,6.6,6.6,0,0,1-1.21.4,1.69,1.69,0,0,1-1,0,2.61,2.61,0,0,1-1-.64,1,1,0,0,1-.3-.62,1.81,1.81,0,0,1,.21-.52Z"/><path class="cls-6" d="M250,55.68a1.89,1.89,0,0,1-.57,1.24,1.28,1.28,0,0,1-.95.48,1.2,1.2,0,0,1-1.19-1.58,1.85,1.85,0,0,1,.82-1.09,1.4,1.4,0,0,1,1.31-.13,1.18,1.18,0,0,1,.58,1.08Z"/><path class="cls-3" d="M250.05,55.44a1.7,1.7,0,0,1-.48,1.06,1.12,1.12,0,0,1-.85.41,1.1,1.1,0,0,1-.83-.38,1.16,1.16,0,0,1-.2-1,1.62,1.62,0,0,1,.71-1,1.2,1.2,0,0,1,1.14-.1,1,1,0,0,1,.51.94Z"/><path class="cls-7" d="M248.23,56.32a.78.78,0,0,1-.22-.53.49.49,0,0,1,.29-.41.74.74,0,0,1,.6,0,.9.9,0,0,1,.34.46.72.72,0,0,1,0,.54.49.49,0,0,1-.46.21.7.7,0,0,1-.53-.25Z"/><path class="cls-5" d="M241.58,125.88l7.66-3c2.14-.85,2.9-1.15,3.57-1.09a1.93,1.93,0,0,1,1.53.88,1,1,0,0,1-.36,1.22,4.42,4.42,0,0,1-2,.82c-1,.23-2.49.46-4.44.83s-4.36.87-5.85,1.12a6.67,6.67,0,0,1-2.2.19c-.14-.07.18-.17,2.11-1Z"/></g></g></svg>