<svg xmlns="http://www.w3.org/2000/svg" viewBox="0 0 230.92 237.01"><defs><style>.cls-1{fill:#2a0b1e;}.cls-1,.cls-2,.cls-3,.cls-4,.cls-5,.cls-6{fill-rule:evenodd;}.cls-2{fill:#962934;}.cls-3{fill:#ff532b;}.cls-4{fill:#ffb72f;}.cls-5{fill:#feda3b;}.cls-6{fill:#fbf5df;}</style></defs><g id="Capa_2" data-name="Capa 2"><g id="Layer_1" data-name="Layer 1"><path class="cls-1" d="M178.69,190.9c.57,1.43.51,3.8.92,5.93a12.43,12.43,0,0,0,2.3,5.37,20.13,20.13,0,0,0,3.83,3.15,16.7,16.7,0,0,1,4,4.27c.92,1.6,1.1,3.23.73,3.37s-1.33-1.21-2.7-2.54a19.55,19.55,0,0,0-4.92-3.5,27.76,27.76,0,0,0-6.31-2c-2.64-.6-6.06-1.31-7.1-2.49s.3-2.87,1.27-4.54,1.54-3.33,2.34-4.91,1.77-3,2.84-3.54,2.21,0,2.76,1.44Z"/><path class="cls-1" d="M28.82,89.34c-9,6.38-14.75,24.86,2.72,20.11,6.32-1.72,3.5,1.07.76,4.54-5,6.25-8.6,6.57-10,17-.54,4-10.78,1.83-9.41,18.3.35,4.27,46.26.07,27.79,15.2-1.91,1.56-6.41,8.68-2.81,11.24,8.86,6.29,21.22-3.25,21.22,3.88,0,29.62,12.39,27.63,38.25,26.62.07,0,3.76,8.63,16.64,4.43,8.57-2.78,7.32-8.61,12-5,2.31,1.79,3-.78,8.12,4.34,5.53,5.54,25.55,3.47,30.47-7.18,3-6.57,24.06-17.06,15.41-30.26a9.53,9.53,0,0,0,5.94-1.47c7.79-5.1,9.55-1.82,16.26-14.92,3.4-6.62,8.28-17.39,12.78-22.73,2.83-3.38,1-20.07-9.3-23.72-12.78-4.52-7.87-3.13-20.8-5.17-.06,0,.09-11.84,4.5-13.36a30.58,30.58,0,0,0,9.74-6.48c3.3-3.39,6.38-7,7.25-8.63,2.19-4.11-7.23,3.2-8.61,5.19-6.66,9.49-18.38,9.34-19.63-3.1-.5-4.94-14-30.79-17.86-32.67-12-5.83-32.58-8.89-43.14,1.13-4.61,4.36-3.14,13.79-8.7,11.5-4.2-1.74-11.16,1.26-11.3-2.34C96.73,47,70.35,48.9,63.14,54.57c-3.9,3.06-3.13.92-10.36,8-5.48,5.36-5.23,15.19-6.56,20-8.2.86-10.36,1.77-17.4,6.76Z"/><path class="cls-2" d="M45,89.81A38,38,0,0,0,38.34,92,13.6,13.6,0,0,0,32,97.46a18.6,18.6,0,0,0,2.88,22.46c2.66,2.59,5.83,3.58,8.83,4.31s5.81,1.19,8.45.65,5.06-2.12,7.51-3.68a28.81,28.81,0,0,0-.2,6A44,44,0,0,0,60.93,134a109.84,109.84,0,0,0-10.85-3.23,51,51,0,0,0-12.8-1.5,15.17,15.17,0,0,0-10.49,4.16,27.12,27.12,0,0,0-7.51,12.92A28.41,28.41,0,0,0,20,160.49,18.24,18.24,0,0,0,24.8,169a22.42,22.42,0,0,0,7.71,4.64,32.73,32.73,0,0,0,9,2,21.19,21.19,0,0,0,8.87-1A27.56,27.56,0,0,0,58,169.83c2.21-1.86,4-3.68,5.85-5.42s3.65-3.42,5.47-5.09c0,2.2-.11,4.38.66,5.64s2.32,1.56,3.5,1.63a9.85,9.85,0,0,0,2.87-.23c1.3,1,2.61,2,3.51,2.76a19.26,19.26,0,0,1,2,1.93,20,20,0,0,0-8.36,4.06,40.57,40.57,0,0,0-8.76,10.63c-1.89,3.54-2,6.15-1.2,10a113.74,113.74,0,0,0,3.93,13.09c1.42,4,2.5,6.75,4.66,9a22.09,22.09,0,0,0,8.91,5.2,31.45,31.45,0,0,0,11,1.62,26.69,26.69,0,0,0,10.1-2.32,22.09,22.09,0,0,0,7.53-5.62,28,28,0,0,0,5-8.19,38.94,38.94,0,0,0,2.06-8.48c2.36.72,4.69,1.45,7.3,2a23.1,23.1,0,0,0,8,.6,23,23,0,0,0,7.16-2.8c1.31,4.07,2.6,8.13,5,10.75s6,3.83,9.27,4.52a23.83,23.83,0,0,0,9.58.2,22,22,0,0,0,9.41-4.29,23.4,23.4,0,0,0,6.7-8.63,16,16,0,0,0,1.11-10.15,23.57,23.57,0,0,0-4.75-9.64,10,10,0,0,0-5.56-3.22,34.21,34.21,0,0,0-1.28-7.55,17.6,17.6,0,0,0-3.26-5.26c1.26-1.1,2.5-2.2,3.76-3.28a59.59,59.59,0,0,0,10.08,2.41,45,45,0,0,0,13.55-.11c4.49-.79,8.4-2.57,11.17-5.7s4.35-7.6,5.77-12.1a53.16,53.16,0,0,0,2.78-13.48,30.64,30.64,0,0,0-2-12.3,19.43,19.43,0,0,0-5.46-7.85,21.67,21.67,0,0,0-6.91-3.74,23.07,23.07,0,0,0-7.78-1.47,33.73,33.73,0,0,0-10.79,1.65,51.86,51.86,0,0,0-10.08,5.17,13.53,13.53,0,0,0-1.4-4.51,13.18,13.18,0,0,0-3.28-3.3c2-.35,4-.73,6-1.19s4.11-1,5.78-3a15.65,15.65,0,0,0,3.13-8.11,8,8,0,0,0-2.3-6.59,13.45,13.45,0,0,0-6.66-3.47,26.49,26.49,0,0,0-7.49-.11,38.69,38.69,0,0,0,5.77-6.82,26.92,26.92,0,0,0,4-10.33,17.37,17.37,0,0,0-1.92-10.79,19.45,19.45,0,0,0-8.41-8.09,26.36,26.36,0,0,0-11.52-2.11,56,56,0,0,0-11.57,1.38,71,71,0,0,0-12.54,3.7A17.38,17.38,0,0,0,119.68,58a15.75,15.75,0,0,0-3.26,9.2c-.29,4.27.39,10.09,1.08,15.92a25.07,25.07,0,0,0-4-4.5A19.34,19.34,0,0,0,108.58,76a19.56,19.56,0,0,0-.72-5.24,4.4,4.4,0,0,0-2.69-2.75,4.82,4.82,0,0,0-4.17.42,12.88,12.88,0,0,0-3.67,4,17.41,17.41,0,0,0-1.71,3.47,17.3,17.3,0,0,0-3.87-1,22.26,22.26,0,0,0-4.27.2,12.68,12.68,0,0,0-.6-6.7,26.36,26.36,0,0,0-5.21-7.53,14.81,14.81,0,0,0-5.6-3.9,18.42,18.42,0,0,0-7-1.24A23.43,23.43,0,0,0,59.39,58a37.89,37.89,0,0,0-10.1,7,19.21,19.21,0,0,0-5.14,8.13,24.14,24.14,0,0,0-1.06,9A30.33,30.33,0,0,0,45,89.81Zm104,5.58a7.67,7.67,0,0,1,2.1,2,21,21,0,0,1,2.2,4.13,36.65,36.65,0,0,1,1.4,4.13,6.05,6.05,0,0,1,1.4-1.21,5.13,5.13,0,0,1,1.72-.44,22.33,22.33,0,0,1-2.62-6.8,18.34,18.34,0,0,1-.34-3.26A19,19,0,0,1,152,95a19.25,19.25,0,0,1-3.06.39ZM62.2,101.73a12.18,12.18,0,0,1,1.07,3.08c.28,1.42.47,3.42.65,5.42.71-1.4,1.4-2.8,2.13-4A19.29,19.29,0,0,1,68.31,103,25.68,25.68,0,0,1,71,100.47c-1.2.23-2.39.48-3.47.71s-2,.46-2.9.55a13.5,13.5,0,0,1-2.38,0Z"/><path class="cls-3" d="M133.85,183.3l76.73,52.47-61.3-64.68H135.73ZM116.75,0l4.38,52.32-3.42,31.8L111.6,48.05ZM18.46,208.2l73-40.62-7.66-9.07ZM71.4,119.41,6.56,53.79l79.6,49.76Zm54.95-8.63L224,53.91,138.7,133Z"/><path class="cls-3" d="M144.11,85.38a13.32,13.32,0,0,0-3.53-4.89A26.11,26.11,0,0,0,132.84,76a35.64,35.64,0,0,0-5.33-1.22,4.23,4.23,0,0,1-2.86-2.16,4.63,4.63,0,0,1,.2-4.68,15.66,15.66,0,0,1,6-5.53,20.53,20.53,0,0,1,7.68-2,15.39,15.39,0,0,1,6.41.41,13.43,13.43,0,0,1,7.76,8.07,8.7,8.7,0,0,1,0,3.71,18.92,18.92,0,0,0-.11,2.88,12.78,12.78,0,0,1-.19,3,4.77,4.77,0,0,1-1.33,2.41c-.66.62-1.49,1-2,1.88a10.43,10.43,0,0,0-.67,3.4,6.52,6.52,0,0,1-.6,2.54c-.36.6-.92.93-1.53.6a4.85,4.85,0,0,1-1.52-1.93c-.28-.61-.23-.84-.67-1.93ZM152,199.05c-1.26,0-2.54-.5-3.49-.38a1.77,1.77,0,0,0-1.54,2,9.42,9.42,0,0,0,1.36,3.75,5.78,5.78,0,0,0,2.89,2.86,17,17,0,0,0,6.46,1.2,13.15,13.15,0,0,0,6.91-1.77,17.66,17.66,0,0,0,5-5,9,9,0,0,0,1.74-4.38,15,15,0,0,0-.46-5.06,17.06,17.06,0,0,0-2.2-5.48c-1-1.27-2.07-1.59-3.19-.72s-2.19,2.88-3,4.6a17,17,0,0,1-2.52,4.29,14.79,14.79,0,0,1-4,2.8,9,9,0,0,1-3.91,1.35ZM86.94,160.56c-1.17.78-1.78,1.17-2.06,2.38a31.65,31.65,0,0,0-.32,5.1,34.38,34.38,0,0,0,0,5.39c.22,1.68.78,3.24.7,4.3s-.86,1.65-1.94,3.28a33.52,33.52,0,0,0-3.47,7.12,19.35,19.35,0,0,0-1.06,8.4,18.45,18.45,0,0,0,2.82,7.76,12.82,12.82,0,0,0,5.65,5,22.28,22.28,0,0,0,7.47,1.49c2.13.11,3.46,0,3.9-.55s0-1.44-1.12-2.41-2.92-2-4-2.87-1.29-1.54-.4-1.58,2.92.61,5,.71a22.69,22.69,0,0,0,6.11-.74,11.4,11.4,0,0,0,4.31-1.61,2,2,0,0,0,.67-2.63c-.5-.83-1.81-1.45-3.88-2.21a25,25,0,0,1-7.28-3.49,23.46,23.46,0,0,1-5.49-6.72c-1.17-2.05-1.58-3.36-.68-3.47s3.1,1,4.63,1.26,2.35-.12,2.74-1.05.29-2.33.54-3,.83-.55,1.68-.19a24.72,24.72,0,0,0,3.42,1.32,15.77,15.77,0,0,0,4.32.5,4.41,4.41,0,0,0,2.76-.85c.84-.57,1.74-1.47,3.18-1.38A10.6,10.6,0,0,1,120,182a15.36,15.36,0,0,1,3,3.08c.93,1.19,2.11,2.6,3.09,3.76a7.72,7.72,0,0,0,3.33,2.58,11.62,11.62,0,0,0,6.45.27,20.23,20.23,0,0,0,7.9-3.78,10.47,10.47,0,0,0,3.6-5.52c.44-1.77.26-3.35.69-4.22s1.41-1,1.84-1.72a3.53,3.53,0,0,0-.21-2.89c-.45-1.08-1.16-2.09-1-2.74s1.24-.94,3.08-1.42a36.16,36.16,0,0,0,6.36-2.11,10.28,10.28,0,0,0,4.06-3.45,20.37,20.37,0,0,0,2-4.15c.6-1.56,1.29-3.33,1.7-4.82s.51-2.72,1.41-3.75a11.58,11.58,0,0,1,4.08-2.48c1.47-.64,2.74-1.05,3.21-.18s.08,3,0,4.41.16,2,.92,2.22a5.3,5.3,0,0,0,3.3-.45,8.72,8.72,0,0,0,3.65-3.12c1.15-1.61,2.19-3.87,2.8-4.76s.79-.39.74.69-.34,2.75,0,3.53,1.34.67,2.41.28a5.07,5.07,0,0,0,3-2.78,23,23,0,0,0,1.52-7.58,20.63,20.63,0,0,0-1.15-9.47,22.47,22.47,0,0,0-5.46-7,15.25,15.25,0,0,0-4-3,12.75,12.75,0,0,0-4.07-1,5.59,5.59,0,0,0-2.82.39c-.62.3-.94.72-1.75.83s-2.15-.06-3.09.07-1.48.57-1.45,1.42a18.24,18.24,0,0,0,1.31,4c.71,1.9,1.53,4.45,2,6.36a18,18,0,0,1,.69,4.2,3.81,3.81,0,0,1-.74,2.64A8.65,8.65,0,0,1,169.6,143a1.83,1.83,0,0,1-2.71-.81c-.73-1.22-1.26-3.63-2.25-6a24.41,24.41,0,0,0-3.63-5.92,6.54,6.54,0,0,0-2.45-1.77c-.48-.25-.63-.5-.92-2.52s-.71-5.86-1.15-8-.9-2.63-.66-2.66a4.24,4.24,0,0,1,2.31,1.38,19.46,19.46,0,0,1,3,4.39c.9,1.71,1.59,3.46,2.27,5.07a25.53,25.53,0,0,0,1.77,3.81c.48.69.81.62,1.17-1.36a34.22,34.22,0,0,0,.26-9.27,14.12,14.12,0,0,0-4-8.52,16.53,16.53,0,0,0-7.54-4c-2.09-.43-3.09.12-3.95,0s-1.63-1-2.87-2.09a36.56,36.56,0,0,0-4.2-3.31,6.63,6.63,0,0,0-2.57-1.05c-.57-.12-1-.19-1.14-1.19a14,14,0,0,0-1.5-5.38,28.81,28.81,0,0,0-6.34-7.64c-2.29-1.91-4.17-2.49-6.24-2.19A12.47,12.47,0,0,0,121,86.19c-.9.71-.41.94.07,1.28s.9.78.62.92a4.15,4.15,0,0,1-2-.23,3.43,3.43,0,0,1-2-1.46,40,40,0,0,0-3-3.84A12,12,0,0,0,110.25,80a23,23,0,0,0-5.53-1.29,8.49,8.49,0,0,0-3.47.18,6.36,6.36,0,0,1-2.3.57,30.55,30.55,0,0,0-3.3-.77,14,14,0,0,0-5.35.78,9.86,9.86,0,0,0-4,2.64,6,6,0,0,0-1.56,3.6c-.16,1.45,0,3.22-.11,3.84s-.51.11-1-.62a4.38,4.38,0,0,0-2-1.86c-.91-.24-2.08.16-3.37,1.1a23.71,23.71,0,0,0-3.86,3.79A17.86,17.86,0,0,0,71.61,96a13.77,13.77,0,0,0-1,4.8,17.62,17.62,0,0,0,.73,6.77A20.74,20.74,0,0,0,74.89,114c1.11,1.24,1.68,1,2.18-.09s.9-3.15,1.52-5.37a16.19,16.19,0,0,1,3.47-6.94A24,24,0,0,1,90.28,96a26,26,0,0,1,6.26-1.47c1-.19.65-.46.48-.85s-.18-.9.26-1.79a5.7,5.7,0,0,1,3.19-2.74,16.31,16.31,0,0,1,6.59-.48,9.35,9.35,0,0,1,4.18,1.36c.83.55,1.14,1.08,1,1.54s-.84.89-1.35,1.7a22.85,22.85,0,0,0-1.38,3.1,4,4,0,0,1-2.06,2.52c-1,.39-2.58.16-4,.92a7.48,7.48,0,0,0-3,4,2.7,2.7,0,0,0,.82,3.12,6.74,6.74,0,0,0,3.4,1.13c1.26.14,2.44.13,2.92.59s.25,1.38-.09,2.3-.83,1.79-1.77,1.93-2.39-.46-4-1a20.83,20.83,0,0,0-6-1.26,35.85,35.85,0,0,0-8.81.5A10,10,0,0,0,81.51,114a14,14,0,0,0-3.45,5.69,28.51,28.51,0,0,0-.85,8.26,27.32,27.32,0,0,0,1.08,8.64,23,23,0,0,0,3.88,6.18,53.81,53.81,0,0,0,3.72,4.63c1.47,1.56,3.47,3.24,4.52,5a4.61,4.61,0,0,1,.28,4.85,11.78,11.78,0,0,1-3.75,3.4ZM48.49,136.68c-.67,0-1.38-1.13-2.36-1.73a6.23,6.23,0,0,0-3.34-.71,11,11,0,0,0-3.34.53,12.39,12.39,0,0,0-3.86,2,29.15,29.15,0,0,0-3.35,3.54,13.31,13.31,0,0,0-3,4.48,16.24,16.24,0,0,0-.28,8.26,29.46,29.46,0,0,0,4,10.49,12.18,12.18,0,0,0,5.65,4.55c1.51.6,2.27.57,2.77.34a8.69,8.69,0,0,1,1.82-1c1.06-.34,2.91-.59,4.2-.89a3.78,3.78,0,0,0,2.32-1.18c.28-.48.16-1.07.34-1.93a7.46,7.46,0,0,1,1.22-2.7c.53-.65,1.1-.78,2.27-.81s3,0,4.44-.07a5.8,5.8,0,0,0,3.51-1,4.1,4.1,0,0,0,1.17-2.73c0-.85-.18-1.4.2-1.79a12.43,12.43,0,0,1,2.12-1,2.61,2.61,0,0,0,1.49-2,6.82,6.82,0,0,0-.78-4,21.18,21.18,0,0,0-3.37-4.57,51.81,51.81,0,0,0-4.23-4.06,27.78,27.78,0,0,0-4.18-3.06c-1.28-.69-2.37-1-3.24-.57s-1.53,1.54-2.2,1.54ZM50,95.83c-.74.42-2.21.62-3.77,1.36A10,10,0,0,0,42,100.9,9.9,9.9,0,0,0,40.73,107,15,15,0,0,0,42.94,113a5.25,5.25,0,0,0,3.21,2.64,16.51,16.51,0,0,0,3.88-.14,6,6,0,0,1,2.59.46c.72.28,1.45.58,2.16-.12a8.16,8.16,0,0,0,1.65-4.36c.23-1.88,0-3.92.1-5.78a9.34,9.34,0,0,1,1.67-4.87,20.28,20.28,0,0,1,3.61-3.26,29.11,29.11,0,0,0,3.17-3,12.65,12.65,0,0,0,2-2.8c.52-1.07.91-2.36,1.22-3.07s.61-.81.8-.23.32,1.86.59,2.43.63.41,1.86-1.22A83.49,83.49,0,0,1,76.64,83a18.41,18.41,0,0,1,4.41-3.37c.84-.53.8-.71.43-.88s-1.1-.38-1.06-.64.85-.64,1.5-.92,1.19-.45,1.37-.89a2.33,2.33,0,0,0-.45-1.81,7.06,7.06,0,0,0-2-1.87,8.22,8.22,0,0,0-3.16-1.4,20.05,20.05,0,0,0-4-.22,22.21,22.21,0,0,1-2.59,0,14.22,14.22,0,0,0-3.75,0,28.93,28.93,0,0,0-7.16,1.9,14.84,14.84,0,0,0-5.33,4,20.6,20.6,0,0,0-3.33,5.2,7.58,7.58,0,0,0-.76,3.82c.14.76.63.91.81,1.6a11.06,11.06,0,0,1-.16,3.13c-.18,1.22-.35,2.39-.48,3.3s-.16,1.52-.92,1.93Zm112.06,1.35a16.66,16.66,0,0,0-2.71-2.64,12.12,12.12,0,0,1-2.66-2,2,2,0,0,1,.11-2.61,4.93,4.93,0,0,1,3.88-1,14.67,14.67,0,0,1,5.35,1.87,9.46,9.46,0,0,1,4.16,4,8.94,8.94,0,0,1,.5,5.6c-.43,1.58-1.33,2.41-1.93,2.23s-.89-1.34-1.37-2.09a3,3,0,0,0-1.88-1.22,10.09,10.09,0,0,1-2-.53c-.53-.28-.82-.8-1.47-1.59Z"/><path class="cls-4" d="M48.37,148a25.28,25.28,0,0,1-.2-3.9c0-1.54.14-3.37.14-4.41s-.05-1.3-.37-1.07-.85,1-1.56,1.65-1.56,1.3-2.69,2.5a19,19,0,0,0-3.35,4.82,11,11,0,0,0-.89,5.37,11.48,11.48,0,0,0,1.6,5.19,15,15,0,0,0,3.7,4,5.34,5.34,0,0,0,2.82,1c.87.11,1.82.18,2.71.3a12.16,12.16,0,0,0,2.48.21c.78-.07,1.54-.35,1.59-.78s-.54-1-1.18-1.87a20.86,20.86,0,0,1-2-4c-.69-1.71-1.41-3.84-1.91-5.42a19.39,19.39,0,0,1-.9-3.66Z"/><path class="cls-4" d="M69.93,141.41c.12-.69.35-2.3-.09-2.78s-1.56.21-2.45,1.26a10.8,10.8,0,0,0-2,4,11.08,11.08,0,0,0-.48,4.75,8,8,0,0,0,1.76,3.67,20,20,0,0,0,2.39,2.55,11.52,11.52,0,0,0,2.16,1.75,10.76,10.76,0,0,0,2.83,1.19,15.42,15.42,0,0,0,3,.53c.67,0,.83-.14.55-.4s-1-.68-2-1.33a8.87,8.87,0,0,1-2.9-3.28,26.62,26.62,0,0,1-2-6.18c-.45-2.06-.69-3.78-.84-4.52a2.17,2.17,0,0,1,0-1.21Z"/><path class="cls-4" d="M62.33,113.16c.09-.85-.34-1.63-.36-2.68a28.79,28.79,0,0,0,.25-3.81A5.15,5.15,0,0,0,60.41,103c-1-.6-2.3-.17-3.58,1.1a27.46,27.46,0,0,0-3.4,4.89c-.88,1.49-1.41,2.32-1.36,4a14.77,14.77,0,0,0,1.5,5.75,3.26,3.26,0,0,0,2.84,2,3.43,3.43,0,0,0,2.76-1.24,14.89,14.89,0,0,0,1.93-3.42,9.2,9.2,0,0,0,1.23-3Z"/><path class="cls-4" d="M94.25,99.66c1.77-1.12,3.19-1.65,3.86-2.2s.57-1.17-.21-1.72a8.39,8.39,0,0,0-3.7-1.26,11.76,11.76,0,0,0-4.84.57,23.09,23.09,0,0,0-5.15,2.43,15.08,15.08,0,0,0-4,3.47,17.21,17.21,0,0,0-3.27,6,27.11,27.11,0,0,0-1.09,7.3c0,1.75.36,2.19.87,2.16s1.23-.52,2.34-2,2.62-3.84,4.22-5.7A36.32,36.32,0,0,1,88.46,104a71.68,71.68,0,0,1,5.79-4.35Z"/><path class="cls-4" d="M105,91.63a24,24,0,0,0-4.79-.62,23.65,23.65,0,0,0-4.5.32c-1.24.19-2.21.41-2.23,0s.89-1.56,1.77-2.48a8.07,8.07,0,0,1,2.68-2,6.89,6.89,0,0,1,2.94-.41,13.26,13.26,0,0,1,3.08.39,7.68,7.68,0,0,1,2.82,1.4,16.62,16.62,0,0,1,2.46,2.41c.6.68.87,1,.74,1.35a1.51,1.51,0,0,1-1.31.76,4.31,4.31,0,0,1-2.09-.28,5.06,5.06,0,0,0-1.57-.8Z"/><path class="cls-4" d="M129.93,83.36a17.13,17.13,0,0,1-2.67-2c-.82-.82-1.17-1.52-.55-2.22a8,8,0,0,1,3.81-1.68,12.15,12.15,0,0,1,4.44-.09,7.61,7.61,0,0,1,3.41,1.28,7.74,7.74,0,0,1,2.46,3.13,17.55,17.55,0,0,1,1.5,5.25,10.16,10.16,0,0,1-.31,4.73c-.45.94-1.23.92-2.24.42a15.2,15.2,0,0,1-3.58-2.72c-1.29-1.26-2.65-2.82-3.64-3.92a16.33,16.33,0,0,0-1.92-1.9c-.26-.17-.14.08-.71-.24Z"/><path class="cls-4" d="M160.65,100.05c-.86-1-1.89-1.94-2.6-2.64S157,96.2,157.5,96a7.86,7.86,0,0,1,6,1.17,3.82,3.82,0,0,1,1.28,2,8.19,8.19,0,0,1,.4,2.64,1.7,1.7,0,0,1-.72,1.56c-.44.19-1,0-1.67-.6s-1.33-1.65-2.18-2.64Z"/><path class="cls-4" d="M167,144.34a20,20,0,0,0,.13-4.93c-.13-1.56-.3-3-.43-4.16s-.21-1.83.25-2.22a3.55,3.55,0,0,1,2.75-.07,6.31,6.31,0,0,1,3.91,2.85A20.05,20.05,0,0,1,176,143.2a17.29,17.29,0,0,1-2.78,11.91,10.93,10.93,0,0,1-3.58,3.13c-1.13.64-2.07.91-2.53.32s-.43-2-.71-3.06-.85-1.74-1.05-2.64a7.52,7.52,0,0,1,.34-3.49c.39-1.47,1-3.3,1.29-5Z"/><path class="cls-4" d="M158.26,189.19a42.54,42.54,0,0,1-4,3.46,47.43,47.43,0,0,1-4.07,2.73c-1.14.65-1.92,1.08-1.9,1.5s.81.87,1.75,1.24a11.27,11.27,0,0,0,3.23.75,19.84,19.84,0,0,0,3.93-.2,14.05,14.05,0,0,0,3.74-.9A5,5,0,0,0,163,196c.47-.71.8-1.47,1.44-2.51s1.52-2.41,2.27-3.78a9.05,9.05,0,0,0,1.31-4.5,19.46,19.46,0,0,0-1.1-5.35c-.48-1.43-.85-2.19-1.24-1.82a16.74,16.74,0,0,0-1.33,3.24,13.45,13.45,0,0,1-1.91,3.53,24.83,24.83,0,0,1-2.29,2.35c-.62.64-.92,1.14-1.86,2.07Z"/><path class="cls-4" d="M117.83,188.56c-1.59-.69-4.36-1.6-6.18-2.32s-2.76-1.23-3.63-1.17-1.7.67-3.1,1a10.76,10.76,0,0,1-5.46-.08,25,25,0,0,1-5.92-2.66c-1.5-.87-2.19-1.38-2.44-1.1s0,1.38.34,2.85a15.35,15.35,0,0,0,2,5,15.54,15.54,0,0,0,4.22,4,8.71,8.71,0,0,0,4,1.6,10.4,10.4,0,0,0,4.14-.43,22.15,22.15,0,0,0,3.79-1.59,21.75,21.75,0,0,1,2.75-1.4,18.1,18.1,0,0,1,2.78-.59c1.1-.21,2.48-.55,3.38-.81s1.31-.48,1.31-.82-.42-.76-2-1.43Z"/><path class="cls-4" d="M86.17,145a15.4,15.4,0,0,0-2,3.81,13.78,13.78,0,0,0,0,6.86,37.23,37.23,0,0,0,3.63,10.24A17,17,0,0,0,94,172.4a14.56,14.56,0,0,0,6.52,2c1.83.07,3.07-.33,4.11,0s1.88,1.44,3.12,2.93a21.54,21.54,0,0,0,5,4.6,11.27,11.27,0,0,0,6.52,1.67,9.85,9.85,0,0,0,4.42-2,4.17,4.17,0,0,1,4.1-.66c2,.57,5.06,2.18,7.46,2.84a7.73,7.73,0,0,0,6.46-1,23.86,23.86,0,0,0,7.05-6,13.39,13.39,0,0,0,2.47-6.4c.17-1.59,0-2.32.56-2.92s1.79-1.06,3.44-2.25a14.56,14.56,0,0,0,4.82-5.56,24.13,24.13,0,0,0,1.56-8,20.69,20.69,0,0,0,0-4.87c-.21-1.08-.68-1.83-.89-3s-.16-2.87-.44-4.87a16,16,0,0,0-2-6.08,10.5,10.5,0,0,0-3.56-3.4c-1-.61-1.45-.71-1.59-.48s.09.81.32,2.59.49,4.73.6,6.32,0,1.81-.5.89a15.21,15.21,0,0,1-1.93-5.34c-.33-2.39,0-5.15-.39-7.74a12.3,12.3,0,0,0-3.38-6.73,12.88,12.88,0,0,0-6.2-3.37,14.94,14.94,0,0,0-5.1,0,6.62,6.62,0,0,1-2.29.09,4.16,4.16,0,0,1-1.88-1.39,38.61,38.61,0,0,0-4.21-4.14,31.43,31.43,0,0,0-7.36-4.38,14.34,14.34,0,0,0-7.37-1,25,25,0,0,0-7,2.16,25.32,25.32,0,0,0-4.18,2.57,19.42,19.42,0,0,1-3.74,2.22c-1.63.76-3.93,1.59-6.16,2.71a19.52,19.52,0,0,0-6.11,4.46A13.82,13.82,0,0,0,83,126a23,23,0,0,0,.73,9c.78,3,2,5.72,2.53,7.28s.46,1.92-.07,2.75Z"/><path class="cls-5" d="M31.59,75.14c-1.28-.77-2.91-1.79-5.48-3.42a94.21,94.21,0,0,1-8-5.39c-1.87-1.54-2.09-2.39-2-3.15a2.08,2.08,0,0,1,1.22-1.72c.66-.28,1.54-.16,3.49,1.43s5,4.65,7.37,7S32.42,74,33.4,75s1.15,1.42.78,1.38a9.25,9.25,0,0,1-2.59-1.25Z"/><path class="cls-5" d="M116.84,51.79c-.28-2.45-.78-6.72-1.2-10.1s-.8-5.85-.82-7.64.28-2.92.85-3.38a1.39,1.39,0,0,1,2,.35,5.18,5.18,0,0,1,1,3.53c0,1.82-.32,4.34-.6,8s-.52,8.29-.68,10.33-.23,1.4-.53-1Z"/><path class="cls-5" d="M200.73,70c1.26-1.18,3.51-3.24,5.22-4.64a20,20,0,0,1,3.88-2.64,3.79,3.79,0,0,1,2.22-.53c.55.12.89.53.78,1s-.66.83-1.81,1.4-2.89,1.31-5,2.55-4.63,3-5.72,3.68-.82.41.44-.78Z"/><path class="cls-5" d="M62,190.56c-3.17,2.3-8.71,6.55-12.43,9.46a59,59,0,0,0-6.49,5.49c-.88,1-.81,1.53-.51,1.93a1.6,1.6,0,0,0,1.43.66c.61-.07,1.31-.52,3-2s4.37-3.93,6.9-6.23,4.93-4.45,7.06-6.49a48.69,48.69,0,0,0,4.5-4.78c.51-.78-.29-.39-3.48,1.93Z"/><path class="cls-5" d="M194.4,224.79c-2.46-2.11-6.5-6.15-9.24-9a61.77,61.77,0,0,1-4.82-5.4c-.64-.85-.43-.85,1.48.6s5.55,4.34,8.63,6.64,5.69,4,7.34,5.51,2.34,2.73,2.32,3.39-.75.7-1.54.63-1.7-.24-4.17-2.35Z"/><path class="cls-5" d="M189.48,129.06,201,124.55c3.22-1.28,4.34-1.72,5.37-1.65a2.87,2.87,0,0,1,2.28,1.31,1.49,1.49,0,0,1-.53,1.84,6.61,6.61,0,0,1-3,1.24c-1.54.34-3.75.69-6.68,1.23s-6.54,1.31-8.77,1.68-3.1.39-3.29.28.26-.26,3.17-1.42Z"/><path class="cls-5" d="M94.39,122.76a13.34,13.34,0,0,0-3.54,1.66A7.93,7.93,0,0,0,87.64,128a18,18,0,0,0-1.38,6.55,15.73,15.73,0,0,0,.82,4.95,22.5,22.5,0,0,1,.76,3.31A29,29,0,0,1,88,146a7.29,7.29,0,0,1-.37,3c-.35.73-1.08,1.05-1.52,2.09a8,8,0,0,0-.11,4.84,14.2,14.2,0,0,0,3,5.78A12.84,12.84,0,0,0,93,164.46a16,16,0,0,0,3,1.46,1,1,0,0,0,1.22-1,15.07,15.07,0,0,0-.71-3,9.22,9.22,0,0,1-.39-2.87,14.06,14.06,0,0,1,1.22,2.66,15.23,15.23,0,0,0,2.56,4,16.65,16.65,0,0,0,4.58,3.34c1.94,1,4.27,2,5.87,2.75a15,15,0,0,1,3.44,2.27,14.36,14.36,0,0,0,3.68,2.55,10,10,0,0,0,4.59.53,16.69,16.69,0,0,0,3.47-1,14.4,14.4,0,0,0,4.71-2.09,18.59,18.59,0,0,0,5.12-5.83,12.14,12.14,0,0,0,1.51-5.75c0-1.4-.3-2.08-1.13-2.41a3.93,3.93,0,0,0-2.89,0c-.71.39-.76,1.17-1.21,1.56a4.94,4.94,0,0,1-2.16.55,12.35,12.35,0,0,0-2.81.88,19.56,19.56,0,0,1-2.5,1c-.46.07-.36-.28-.57-1.17a19.38,19.38,0,0,0-1.1-3.08c-.35-.78-.56-.94-.18-1.27s1.39-.85,2.34-1.56a11.11,11.11,0,0,0,2.59-2.62,28.69,28.69,0,0,0,1.38-2.8c.29-.54.44-.45,1,0a7.7,7.7,0,0,0,2.16,1.38c.76.23,1.38,0,1.44.23s-.48,1.05-1,1.77-1,1.4-1.43,1.88-.66.73-.29.78a13.72,13.72,0,0,0,2.38-.27,10.4,10.4,0,0,1,2.57-.21c.53.11.53.48,1,.6a3.16,3.16,0,0,0,2.39-.6c1-.62,2-1.75,2.5-1.91s.37.67.53,1.08.57.42,1.22-.36a14.4,14.4,0,0,0,2.34-5,53.84,53.84,0,0,0,1.86-9.31c.3-3,.2-5.2-.48-6.62a5.61,5.61,0,0,0-3-2.59,5.83,5.83,0,0,0-2.43-.83c-.38.11-.23.73-.6,1.22a5.24,5.24,0,0,1-2.11,1.21,9.81,9.81,0,0,0-2.37,1.13c-.67.5-1.19,1.17-1.67,1.17s-.88-.67-1.34-1.61a11.25,11.25,0,0,0-1.76-2.89,6.2,6.2,0,0,0-2.65-1.35,3.85,3.85,0,0,1-2.22-1.25,9.34,9.34,0,0,1-.78-2.89,11.32,11.32,0,0,1-.44-3c.09-1,.55-2,.32-2.67s-1.17-.91-1.77-1.67a3.79,3.79,0,0,1-.71-2.78,1.18,1.18,0,0,1,1.36-1c.62.09,1.3.55,1.53.39s0-.92-.8-2a12.8,12.8,0,0,0-4.16-3.17,18.85,18.85,0,0,0-5.66-1.65,3.77,3.77,0,0,0-2.74.48c-.57.36-1,.83-1.56,1.24s-1.1.78-.71,1.08a10,10,0,0,0,3,.64,14,14,0,0,1,3.11.59c.82.3,1.33.83.93.95a16.22,16.22,0,0,1-3-.23,13.18,13.18,0,0,0-3.36.13c-1,.17-2,.49-3,.67s-1.89.25-2.87.39a14.09,14.09,0,0,0-2.9.8A10.19,10.19,0,0,0,99.76,117a4.05,4.05,0,0,0-1.31,1.59c-.12.43.09.62.87.73s2.12.11,3.33.32,2.23.62,3.51.89,2.8.35,3.54.83.76,1.29,1,2.28a14.7,14.7,0,0,0,1.15,3c.45.89.85,1.51.36,1.69s-1.9-.07-3.69.21a20.88,20.88,0,0,0-5.68,2,19.6,19.6,0,0,0-3.6,2.32c-.69.57-.9.84-.57.15a17,17,0,0,1,2.34-3.51,17.46,17.46,0,0,1,3.53-2.73c1-.69,1.77-1.21,1.61-1.52s-1.2-.41-2.21-.39a13.45,13.45,0,0,0-2.73.37c-.73.18-1.21.39-1.08.16a10.46,10.46,0,0,1,1.43-1.42c.59-.5,1-.8,1-1.19a1,1,0,0,0-.91-1,7,7,0,0,0-2.5.28,13.34,13.34,0,0,1-2.32.48,11,11,0,0,0-2.48.2Z"/><path class="cls-5" d="M131.51,126.41A21,21,0,0,1,129.9,124a10.63,10.63,0,0,0-1.6-2c-.53-.46-1.08-.72-1.4-1s-.39-.57-.14-.78a9,9,0,0,1,1.42-.69c.58-.28,1.17-.73,1.91-1a6.15,6.15,0,0,1,2.52-.48,4.52,4.52,0,0,1,2.53.81,7.36,7.36,0,0,1,1.93,2.22,9.61,9.61,0,0,1,1.05,2.32,25,25,0,0,1,.51,2.46,6.89,6.89,0,0,1,.18,3,3.91,3.91,0,0,1-1.74,2,2.59,2.59,0,0,1-1.77.58,1.55,1.55,0,0,1-.83-1.28,10.6,10.6,0,0,0-.28-1.77,1.82,1.82,0,0,0-1.1-.92,4.12,4.12,0,0,1-1.58-1Z"/><path class="cls-5" d="M103.89,186a15.53,15.53,0,0,1-2.94-.57c-1-.3-1.86-.71-2.45-1s-.88-.34-.86.16a5.09,5.09,0,0,0,.92,2.41,5.16,5.16,0,0,0,2.64,1.91,15.86,15.86,0,0,0,3.89.73,3.54,3.54,0,0,0,2.31-.36c.33-.32.17-.83.37-1.15s.74-.41,1.28-.41a7.15,7.15,0,0,0,1.61.06c.56-.11,1.15-.45,1.06-.78s-.87-.64-1.65-1.07-1.56-1-2.39-1.5-1.66-1.07-2.2-1.35-.74-.34-.69,0a7,7,0,0,0,.64,1.68c.28.55.55.87.32,1a3.87,3.87,0,0,1-1.86.12Z"/><path class="cls-5" d="M50.24,150.7c-.37-.66-1.06-1.65-1.61-2.54s-.88-1.66-1.17-1.59-.49,1-.55,2.07a22.57,22.57,0,0,0,.2,3.56,12.19,12.19,0,0,0,.8,3.17,9.3,9.3,0,0,0,1.71,2.89c.69.75,1.46,1.14,1.83,1.05s.37-.68.25-1.46-.39-1.77-.59-2.78-.32-2-.41-2.69a3.66,3.66,0,0,0-.46-1.68Z"/><path class="cls-5" d="M71.54,145.81a3.8,3.8,0,0,0-1.19-1.31c-.42-.27-.76-.27-.81.33A10.88,10.88,0,0,0,70,147.7,9.38,9.38,0,0,0,71,150.5a6,6,0,0,0,1.85,1.88c.6.39,1.09.5,1,.05a18.54,18.54,0,0,0-1.12-2.35,12,12,0,0,1-.76-2.48,6.29,6.29,0,0,0-.51-1.79Z"/><path class="cls-5" d="M89.36,103.59c-.69.35-2,.71-3.06,1.15s-2.11,1-2.62,1.1-.54-.14-.2-.73A20.67,20.67,0,0,1,85,103a4.31,4.31,0,0,1,1.25-1.23,11.4,11.4,0,0,1,2.47-1.25,4.09,4.09,0,0,1,2.12-.13c.52.11.78.32.66.71a6.08,6.08,0,0,1-.94,1.36,2.74,2.74,0,0,1-1.19,1.14Z"/><path class="cls-5" d="M132.06,86c-.55-.78-1-1.67-1.49-2.22a12.37,12.37,0,0,0-1.2-1.06c-.22-.28-.16-.6.47-.62a11.09,11.09,0,0,1,2.95.57,6.67,6.67,0,0,1,2.76,1.47,8.6,8.6,0,0,1,1.7,2.6c.41.9.69,1.74.5,2s-.87-.08-1.62-.3a11.31,11.31,0,0,1-2.25-.65A5.37,5.37,0,0,1,132.06,86Z"/><path class="cls-5" d="M166,147.1a19.44,19.44,0,0,0,1.13-3.86,9.79,9.79,0,0,1,.78-2.91c.39-.48,1-.3,1.44.46a7,7,0,0,1,.62,3.62,11.49,11.49,0,0,1-1.26,4.37,6.78,6.78,0,0,1-2.35,2.61,4.25,4.25,0,0,1-2.31.87c-.41-.09-.26-.64.2-1.58s1.2-2.27,1.75-3.58Z"/><path class="cls-5" d="M157.64,188.77c.85-.76,1.74-1.52,2.41-2.16s1.1-1.21,1.44-1.47.53-.23.62.44a7.2,7.2,0,0,1-.48,3.3,11.53,11.53,0,0,1-2.48,3.54,4.26,4.26,0,0,1-2.43,1.2c-.94.16-2.13.27-3,.34a10.14,10.14,0,0,1-1.74,0c-.32,0-.42-.14-.32-.37a3.39,3.39,0,0,1,1-1c.6-.44,1.52-1,2.39-1.67s1.7-1.43,2.57-2.21Z"/><path class="cls-6" d="M99.39,140.74a6,6,0,0,0-.2-1.75c-.1-.22-.26.28-.51,1A15.44,15.44,0,0,0,98,143a28.23,28.23,0,0,0,.07,3.74,29.9,29.9,0,0,0,.39,4.15,3.72,3.72,0,0,0,1.47,2.34,4.61,4.61,0,0,0,2.5,1,1.49,1.49,0,0,0,1.51-1,3.13,3.13,0,0,0-.25-1.63,1.91,1.91,0,0,1,0-1.22.37.37,0,0,1,.51-.21c.14.07.18.28.32.09s.41-.8.67-1.35a6.45,6.45,0,0,0,.69-1.59,7.77,7.77,0,0,0,.13-1.79,5.2,5.2,0,0,1,.69-2.59c.65-1.24,1.88-3,2.37-4.13s.25-1.59-.25-1.71a3.56,3.56,0,0,0-2.19.49,11.3,11.3,0,0,0-2.73,1.84,7.38,7.38,0,0,0-1.72,2.4c-.34.77-.39,1.48-.57,1.52s-.49-.64-.74-1-.43-.39-.58-.06-.29,1.07-.47,1.05-.37-.76-.44-1.26a11.75,11.75,0,0,1,0-1.31Z"/><path class="cls-6" d="M108.74,135.18a4.81,4.81,0,0,0-2.25.6,16.37,16.37,0,0,0-2.58,2c-.64.59-.89.84-.92.66a2.56,2.56,0,0,1,.37-1.22c.23-.46.55-.82.41-.85a2.89,2.89,0,0,0-1.16.51c-.4.25-.6.48-.67.43s0-.39.34-.82a10.28,10.28,0,0,1,1.4-1.4,8.28,8.28,0,0,0,1-.88c.14-.22,0-.36.11-.66a2.31,2.31,0,0,1,.74-1.19,9.12,9.12,0,0,1,1.93-1.17c.62-.28,1-.39,1.4-.58a7.54,7.54,0,0,0,1.14-.76,2.33,2.33,0,0,1,1.57-.55,12.58,12.58,0,0,1,3.21.53,4.75,4.75,0,0,1,2,1.26,8.83,8.83,0,0,1,1.56,2,5.94,5.94,0,0,1,.59,2.33,17.23,17.23,0,0,1-.13,1.84c0,.48,0,.83.21.88s.61-.19,1.17-.19a8.58,8.58,0,0,1,1.72.34c.43.07.52,0,.68-.38a11,11,0,0,1,.56-1.4c.23-.37.5-.49.39-.71s-.57-.49-.88-.85a1.17,1.17,0,0,1-.38-1.11c.15-.36.57-.64.84-1s.39-.82.63-1,.64-.13,1.35.57a16,16,0,0,1,2.53,3.27,12.21,12.21,0,0,1,1.49,3.9,12.09,12.09,0,0,1,.06,4,13.88,13.88,0,0,1-1.3,4.21,6,6,0,0,1-2.11,2.36.81.81,0,0,1-1.13-.11,6.21,6.21,0,0,1-.6-.81c-.18-.23-.32-.37-.52-.25a5.2,5.2,0,0,0-.63.87,4.15,4.15,0,0,0-.55.81,5,5,0,0,0-.16,1.21,6.54,6.54,0,0,1-.53,2.12,9.92,9.92,0,0,1-1.67,2.34,5.41,5.41,0,0,1-2,1.46,6.2,6.2,0,0,1-2.72.4,9.31,9.31,0,0,1-3.39-.83c-1.11-.5-2.14-1.26-2.85-1.63a6.54,6.54,0,0,0-1.51-.53,1,1,0,0,1-.72-.9,2,2,0,0,1,.74-1.49,2.32,2.32,0,0,1,1.76-.37,6.26,6.26,0,0,1,2,.39c.39.19.32.44.57.46a5.73,5.73,0,0,0,1.35-.39,3.71,3.71,0,0,0,1.32-.77,2.88,2.88,0,0,0,.66-1.43,4.78,4.78,0,0,0,0-1.58c0-.39-.17-.56-.17-.81a1.67,1.67,0,0,1,.47-1,5.75,5.75,0,0,1,1.14-.92c.35-.23.64-.37.88-.3s.45.32.66.81a5.27,5.27,0,0,1,.48,1.81c0,.58-.18,1-.09,1.1s.48-.25.81-.83a10.84,10.84,0,0,0,.78-2.09c.18-.61.25-1,.07-1s-.58.07-.93.11a.67.67,0,0,1-.78-.46,7.35,7.35,0,0,1-.2-1.53c0-.46-.16-.71-.37-.83s-.51-.12-.64-.39a3.3,3.3,0,0,1,0-1.22,3.34,3.34,0,0,0,0-1,.36.36,0,0,0-.36-.32.79.79,0,0,1-.69-.22c-.26-.26-.56-.86-1.09-1.47a14.56,14.56,0,0,0-2-1.77,11.35,11.35,0,0,0-1.63-1,4.45,4.45,0,0,0-1.36-.48,5.17,5.17,0,0,0-1.46-.07Z"/><path class="cls-6" d="M108.37,149.6a2.84,2.84,0,0,0,1,.32,7,7,0,0,0,2-.22,5.45,5.45,0,0,0,1.47-.65c.34-.2.48-.3.55-.23s0,.32-.14.64a2.78,2.78,0,0,1-1,1,4.07,4.07,0,0,1-1.75.48,3.13,3.13,0,0,1-1.74-.43,2.31,2.31,0,0,1-.9-.93c-.06-.18.23-.08.49,0Z"/><path class="cls-6" d="M105,159.38c.69.25,1.75.51,2.64.74s1.61.39,2.25.52a11.16,11.16,0,0,0,1.9.21c.74,0,1.68,0,2.67-.07a11.55,11.55,0,0,1,2.61,0c.53.12.51.46.33.92a5.64,5.64,0,0,1-.9,1.52,2,2,0,0,1-1.58.66,15.77,15.77,0,0,1-3.26-.2,14.35,14.35,0,0,1-3.54-.89,8.71,8.71,0,0,1-2.59-1.64,10.84,10.84,0,0,1-1.56-1.7c-.28-.43-.3-.61-.14-.59s.48.25,1.17.5Z"/><path class="cls-1" d="M206,234.53a8.13,8.13,0,0,0,.47,1.53,1.11,1.11,0,0,0,.85.62c.46.12,1.23.21,1.74.28a4.31,4.31,0,0,0,1,0,.88.88,0,0,0,.63-.4,3.18,3.18,0,0,0,.27-1.14,4.05,4.05,0,0,0-.07-1.06,2.11,2.11,0,0,0-.37-.94,4.72,4.72,0,0,0-.71-.64,1.72,1.72,0,0,0-.75-.49,4.16,4.16,0,0,0-1.47-.09,3.79,3.79,0,0,0-1.4.3c-.3.18-.33.41-.35.73a4.77,4.77,0,0,0,.11,1.27Z"/><path class="cls-5" d="M206.91,235.58a2.51,2.51,0,0,1-1.06-1.3,2.67,2.67,0,0,1-.29-1.47.94.94,0,0,1,.7-.71,3.68,3.68,0,0,1,1.29-.14,3.3,3.3,0,0,1,1.33.23,1.06,1.06,0,0,1,.64.76,2.4,2.4,0,0,1-.23,1.3,2.69,2.69,0,0,1-1,1.11,1.44,1.44,0,0,1-1.4.22Z"/><path class="cls-2" d="M206.36,234.37a2.85,2.85,0,0,1,1.93-1.93.87.87,0,0,1,.8.37,3.66,3.66,0,0,1,.5,1.05,2.92,2.92,0,0,1,.19,1.19.89.89,0,0,1-.46.74,2.06,2.06,0,0,1-1.15.19,2.41,2.41,0,0,1-1.22-.49,1.36,1.36,0,0,1-.59-1.12Z"/><path class="cls-6" d="M205.83,233.81a1.41,1.41,0,0,1,.16-.94.67.67,0,0,1,.57-.38,1.73,1.73,0,0,1,.81.2,1.28,1.28,0,0,1,.55.58,1.1,1.1,0,0,1,0,.87,1,1,0,0,1-.65.57.94.94,0,0,1-.83-.16,1.24,1.24,0,0,1-.59-.74Z"/><path class="cls-1" d="M14.88,208.74a4.82,4.82,0,0,0-1,.14,8.25,8.25,0,0,0-1,.18.79.79,0,0,0-.73,1.08,2.53,2.53,0,0,0,.48.78,2.34,2.34,0,0,0,.62.56,1.6,1.6,0,0,0,.85.21,2.29,2.29,0,0,0,.82-.28,4.09,4.09,0,0,0,.81-.41,1.75,1.75,0,0,0,.48-.56,1.06,1.06,0,0,0,.11-.52,1.32,1.32,0,0,0-.23-.48,4.06,4.06,0,0,0-.46-.47,1.11,1.11,0,0,0-.68-.23Z"/><path class="cls-5" d="M14.56,210.15c-.05-.21-.16-.53-.21-.81s0-.55.23-.69a2.4,2.4,0,0,1,1.13-.11,1,1,0,0,1,.85.39,1.44,1.44,0,0,1,.06,1,1.37,1.37,0,0,1-.68.79,1.54,1.54,0,0,1-.93.15c-.25,0-.38-.16-.41-.29s0-.25,0-.48Z"/><path class="cls-2" d="M13.54,210.05a1.54,1.54,0,0,1,0-.73.58.58,0,0,1,.39-.5,3.16,3.16,0,0,1,1.13,0,1,1,0,0,1,.85.39,1.4,1.4,0,0,1-.62,1.84,1.72,1.72,0,0,1-.94.15.61.61,0,0,1-.47-.38,2.11,2.11,0,0,1-.3-.72Z"/><path class="cls-6" d="M15,210.24a.61.61,0,0,1-.34-.12,1,1,0,0,1-.28-.52.43.43,0,0,1,.12-.46A.53.53,0,0,1,15,209a.73.73,0,0,1,.39.3.77.77,0,0,1,.12.44.55.55,0,0,1-.16.37.39.39,0,0,1-.31.09Z"/><path class="cls-1" d="M3.58,52.94a1.78,1.78,0,0,1-1.24-.16A3.73,3.73,0,0,1,1.22,52a4.21,4.21,0,0,1-.69-.83,3.85,3.85,0,0,1-.37-1A5.4,5.4,0,0,1,0,49a2.27,2.27,0,0,1,.23-1A1.87,1.87,0,0,1,1,47.2a1.39,1.39,0,0,1,.94,0c.38.07.78.18,1.15.27a3.26,3.26,0,0,1,1,.35,1.48,1.48,0,0,1,.59.68,4.07,4.07,0,0,1,.28,1.13,4.29,4.29,0,0,1,0,1.24,3,3,0,0,1-.43,1.2,1.75,1.75,0,0,1-.88.84Z"/><path class="cls-2" d="M4.23,48.56a2,2,0,0,1,.94,1.33,2.94,2.94,0,0,1-.33,1.88,1.75,1.75,0,0,1-1.3.78,2.23,2.23,0,0,1-1.63-.34,2.17,2.17,0,0,1-.74-1.68,3,3,0,0,1,.57-1.69,1.45,1.45,0,0,1,1.09-.6,2.5,2.5,0,0,1,1.4.32Z"/><path class="cls-5" d="M4.8,50a1.75,1.75,0,0,1,.85,1.2,2.6,2.6,0,0,1-.28,1.67,1,1,0,0,1-1.06.53,3,3,0,0,1-1.46-.57,1.67,1.67,0,0,1-.74-1.2,2.13,2.13,0,0,1,.46-1.38,1.26,1.26,0,0,1,1-.54A2.12,2.12,0,0,1,4.8,50Z"/><path class="cls-6" d="M4.55,51.82a1.63,1.63,0,0,1-.9.39,1.2,1.2,0,0,1-.71-.07c-.12-.09-.07-.18.12-.35a9.5,9.5,0,0,0,.78-.71,8.15,8.15,0,0,0,.48-.71.45.45,0,0,1,.36-.2c.1,0,.19,0,.25.22a1.63,1.63,0,0,1,0,.7,1.24,1.24,0,0,1-.38.73Z"/><path class="cls-1" d="M225.8,51.7a3.85,3.85,0,0,1,.58-.92,3.73,3.73,0,0,1,1.12-.66,4.24,4.24,0,0,1,1.24-.46,1.35,1.35,0,0,1,1.19.34,3.11,3.11,0,0,1,.65,1.17,3.36,3.36,0,0,1,.34.93c0,.23-.06.39-.3.59a4.64,4.64,0,0,1-1.05.6,6.94,6.94,0,0,1-1.4.46,1.86,1.86,0,0,1-1.19,0,3,3,0,0,1-1.09-.74,1.07,1.07,0,0,1-.34-.71c0-.19.11-.32.25-.58Z"/><path class="cls-5" d="M228.69,53.15a4.8,4.8,0,0,1-1.1,1.26,2.45,2.45,0,0,1-1.44.55,1.09,1.09,0,0,1-1.08-.69,2.67,2.67,0,0,1,.07-1.9,2.51,2.51,0,0,1,1.37-1.28,2.16,2.16,0,0,1,1.59.11,1.63,1.63,0,0,1,.94.87,1.35,1.35,0,0,1-.35,1.08Z"/><path class="cls-2" d="M227.32,53.86a1.65,1.65,0,0,1-1.1-.6,2.41,2.41,0,0,1-.46-1.28,1.17,1.17,0,0,1,.34-.9,1.29,1.29,0,0,1,.8-.38,2.53,2.53,0,0,1,1,.16,2.56,2.56,0,0,1,1,.62,1.34,1.34,0,0,1,.34,1.05,1.65,1.65,0,0,1-.73,1,1.78,1.78,0,0,1-1.15.37Z"/><path class="cls-6" d="M226.58,53.84a.74.74,0,0,1-.57-.3,1.3,1.3,0,0,1-.25-.71,1.28,1.28,0,0,1,.16-.64.34.34,0,0,1,.37-.21,1.41,1.41,0,0,1,.53.27.88.88,0,0,1,.39.37,1.44,1.44,0,0,1,.13.6.45.45,0,0,1-.2.41.92.92,0,0,1-.56.21Z"/></g></g></svg>