<svg xmlns="http://www.w3.org/2000/svg" viewBox="0 0 213.24 196.83"><defs><style>.cls-1{fill:#2a0b1e;}.cls-1,.cls-2,.cls-3,.cls-4,.cls-5,.cls-6{fill-rule:evenodd;}.cls-2{fill:#ff532b;}.cls-3{fill:#962934;}.cls-4{fill:#feda3b;}.cls-5{fill:#ffb72f;}.cls-6{fill:#fbf5df;}</style></defs><g id="Capa_2" data-name="Capa 2"><g id="Layer_1" data-name="Layer 1"><path class="cls-1" d="M101.52,40.84c-2.63.55-6.75-.23-10.78-.07a29.64,29.64,0,0,0-11,2.69,38.37,38.37,0,0,0-7.35,4.64,38.59,38.59,0,0,1-4.77,3.24,8.1,8.1,0,0,1-5.19,1.22,19.44,19.44,0,0,1-7.78-3.17A63.85,63.85,0,0,1,45.55,42c-3.14-2.92-6.34-6.2-8.84-8.31s-4.29-3-4.48-2,1.2,4,3.54,7.52,5.63,7.56,8,10.73a37.33,37.33,0,0,1,5,8.17,28.4,28.4,0,0,1,2.23,9.6,63.19,63.19,0,0,1-.83,11.68,38.11,38.11,0,0,1-2.57,10.5,27.47,27.47,0,0,1-5.8,7.75,57.54,57.54,0,0,0-6,6.25,20.12,20.12,0,0,0-3.2,7.07,17,17,0,0,0-.43,6.68,10,10,0,0,0,3.17,5.9,57,57,0,0,0,8.12,6.2c2.69,1.81,4.73,3,6.13,4.76a17.12,17.12,0,0,1,2.9,6.54,77.67,77.67,0,0,1,1.67,8.12c.35,2.46.44,4.34,1.26,6.09a12,12,0,0,0,4.76,4.89,32.55,32.55,0,0,0,8.56,3.6,22.39,22.39,0,0,0,10,.33c4.34-.65,10.27-2.21,14.77-2.76a21.86,21.86,0,0,1,10.7,1c3.17,1.14,6.45,3,11.25,4s11.13,1.25,16.67,1.52,10.33.58,13.57.58a15.81,15.81,0,0,0,6.91-1.13c2-.82,4.15-2.14,5.46-2.85s1.81-.78,3.1.28,3.39,3.24,5.74,5.58,4.93,4.84,6.84,6.52,3.15,2.55,3,1.84-1.71-3-3.63-5.77-4.18-6.19-6.09-8.75-3.47-4.38-3.74-5.83.74-2.54,1.95-4.54a26.37,26.37,0,0,0,3.31-8.27,33.48,33.48,0,0,0,0-11.93c-.69-4.6-2.11-9.92-2.46-15.34a37.91,37.91,0,0,1,2.23-15.85c1.88-4.89,4.93-9.11,7-12.42s3.05-5.74,4-7.32,1.91-2.27,1-2.8-3.51-.94-5.65-1.52a13.07,13.07,0,0,1-5.05-2.43,7.73,7.73,0,0,1-2.57-4.34c-.48-2-.55-4.54-.94-6.91a25.41,25.41,0,0,0-2-6.45c-.85-1.88-1.86-3.44-1.92-5A5.77,5.77,0,0,1,165,48.74c1.68-1.33,4.09-2.43,7.49-4s7.78-3.7,7.71-4.22-4.62.59-8.17,1.3a36.15,36.15,0,0,1-7.81.93c-1.68-.07-2.46-.54-3.86-2.19s-3.44-4.45-6.19-7.21a34.65,34.65,0,0,0-10-7.28,27,27,0,0,0-12-2.38,28.08,28.08,0,0,0-10.4,2.69,58.36,58.36,0,0,0-8.78,5,33,33,0,0,0-6.13,5.28c-1.56,1.79-2.66,3.67-5.28,4.22Z"/><path class="cls-2" d="M123.36,150.8l55,34.67L138.79,138.6H125.24ZM110,0l5.32,74.66-10.95,1ZM25.78,164.76,81,135.09,73.28,126ZM60.89,86.92,17.31,41,75.67,71.06Zm55-8.63,89.52-43.12-77.19,65.3Z"/><path class="cls-3" d="M49.15,100.08a32.51,32.51,0,0,0-6.56,4.66,22.43,22.43,0,0,0-4.91,7.67,39,39,0,0,0-2.39,10.38c-.32,3.49-.1,6.72,1.21,9.3A14.47,14.47,0,0,0,42.89,138a22.5,22.5,0,0,0,9.23,2.59,43.83,43.83,0,0,0,10.49-.94c3-.64,5.19-1.37,6.54-1.19s1.93,1.28,2.67,2.32,1.7,2,1.26,3.63-2.27,3.78-4,5.57-3.42,3.2-4.13,6.18a23.68,23.68,0,0,0,.65,11,23.13,23.13,0,0,0,4.81,8.2,18.25,18.25,0,0,0,5.74,5,27.73,27.73,0,0,0,8.84,2.3c3.33.39,6.87.44,9.49-.39a12.27,12.27,0,0,0,6-4.61c1.65-2.05,3.21-4.44,4.77-6.83a47.26,47.26,0,0,0,4.71,2.56,12.47,12.47,0,0,0,5.37,1.17,21.07,21.07,0,0,0,7.15-1.34,28.56,28.56,0,0,0,6.05-3.49,18.32,18.32,0,0,0,5.81,2.76,20.55,20.55,0,0,0,8.86-.1,20.31,20.31,0,0,0,10.13-5,18.75,18.75,0,0,0,4.84-10.29,14.61,14.61,0,0,0-1.51-8.84,43.16,43.16,0,0,0-5.16-7.41c2.4-1.71,4.79-3.43,6.06-5.1a8.58,8.58,0,0,0,1.6-4.89,18.74,18.74,0,0,0,7.83,3.79,23.35,23.35,0,0,0,11.74-.85c3.55-1.33,5.9-3.77,8.08-7a42.84,42.84,0,0,0,5.55-11.46,40.65,40.65,0,0,0,1.82-12.92c-.12-4-1-7.31-2.87-9.83a17.4,17.4,0,0,0-7.37-5.4,28.17,28.17,0,0,0-8-2,14,14,0,0,0-8.7,1.27c-3.19,1.63-6.74,5-10.26,8.3a20.89,20.89,0,0,0-.89-6.29,9,9,0,0,0-3.29-3.87A42.29,42.29,0,0,0,148.52,82c2-1.62,4-3.23,5.4-4.68s2.3-2.76,2.06-4.7-1.67-4.48-3.09-7a11.49,11.49,0,0,0,3.94-4.94A27.07,27.07,0,0,0,158.92,49a24.15,24.15,0,0,0-4.15-12.17,23.27,23.27,0,0,0-8.25-7.23,18.28,18.28,0,0,0-7.82-2.14,23.57,23.57,0,0,0-9.09,1.26,70.09,70.09,0,0,0-12,5.26c-3.33,1.88-5.1,3.43-6.5,5.77a44.51,44.51,0,0,0-3.49,8.6,27.78,27.78,0,0,0-5.06-1.67,27.4,27.4,0,0,0-7-.46,22.7,22.7,0,0,0-7,1.61,30.6,30.6,0,0,0-7.28,3.9,29.67,29.67,0,0,0-5.12,5.37,51.85,51.85,0,0,0-7.65-4.71,18.16,18.16,0,0,0-7.59-1.76,19.57,19.57,0,0,0-7.44,1.63,25.14,25.14,0,0,0-7.84,4.86,29.8,29.8,0,0,0-6.33,8.78,31.32,31.32,0,0,0-2.87,10.24,27.12,27.12,0,0,0,.64,9.34A17.28,17.28,0,0,0,41,93.14a55.48,55.48,0,0,0,8.12,6.94Z"/><path class="cls-2" d="M83.62,76.71c1.15-.56,2.5-1.13,3.74-1.59s2.36-.8,2.39-1.1-1-.55-2.51-.9-3.49-.75-4.88-.93-2.19-.14-2.37-.46.3-1,1.56-1.94a32.63,32.63,0,0,1,4.89-2.73,11.89,11.89,0,0,1,4-1.15c1.34-.15,3-.18,3.82-.2s.91,0,.29-.5a8.67,8.67,0,0,0-4.82-1.8A43.19,43.19,0,0,0,79.41,64a20.4,20.4,0,0,0-5.23,1.56c-.87.39-1.21.46-1,0s.92-1.4,1.31-2.06.44-1-.37-1.43a14.89,14.89,0,0,0-4.22-1.33,15.68,15.68,0,0,0-5.26,0,23.52,23.52,0,0,0-5.94,1.7,11.64,11.64,0,0,0-5.61,4.44,24,24,0,0,0-3.23,8.88A9.39,9.39,0,0,0,50.4,81c.41.94.69,1.21,1.62.23s2.44-3.15,4.21-4.87a20.17,20.17,0,0,1,5.46-3.75c1.63-.75,2.85-1,3.44-.66s.53,1.12.1,2.36S64,77.21,63.11,79.12a35.5,35.5,0,0,0-2.4,6.54,18,18,0,0,0-.31,7.56c.49,2.31,1.71,4.08,2.55,4.36s1.27-.87,1.64-2.19a23.87,23.87,0,0,1,1.19-3.94A5.51,5.51,0,0,1,68.28,89c1.12-.62,2.59-1.08,3.83,1s2.3,6.61,2.57,9.42-.22,3.94-1.1,4-2.11-.82-3.35-1.37a4.41,4.41,0,0,0-3.72-.19,8.93,8.93,0,0,0-3.47,3,16.79,16.79,0,0,0-2,4.4c-.64,1.8-1.42,4.13-1.81,5.58s-.44,2-.67,2.11-.68-.3-1.15-1.07-1-1.87-1.37-2-.71.6-.81,2a12.38,12.38,0,0,0,.81,5.47,14.47,14.47,0,0,0,3.83,5.16,11.73,11.73,0,0,0,3.65,2.1c.81.34,1.08.43,1.08-.07a12.64,12.64,0,0,0-.44-2.21c-.18-.64-.29-.83.24-.67s1.71.65,2.93,1,2.46.64,3.63,1a21.14,21.14,0,0,0,3,.85c.72,0,1.06-.29,1.73-.13a16,16,0,0,1,2.61,1.35,7.24,7.24,0,0,0,2.69.92c1,.09,2.07,0,2.76.58a2.61,2.61,0,0,1,.48,2.91c-.46,1-1.66,1.72-2.71,2.5a4.21,4.21,0,0,0-2,3,8.61,8.61,0,0,0,1.61,4.5,8.41,8.41,0,0,0,3,3.05,1.77,1.77,0,0,0,2.53-.55c.5-.9.5-2.6,1.31-3.86a6.9,6.9,0,0,1,3.7-2.52c1.3-.42,2.25-.42,2.45.13s-.37,1.59-.85,2.74a15.84,15.84,0,0,0-1.1,3.72,8.28,8.28,0,0,0,.34,4.45c.62,1.81,1.89,4,2.48,5.33s.53,1.63-.22,1.51a9.6,9.6,0,0,1-3.86-2.06c-1.72-1.36-3.75-3.52-5.17-4.83a8.25,8.25,0,0,0-2.91-2c-.67-.25-1.22-.27-1.61.16a5.78,5.78,0,0,0-.85,2.69,22.09,22.09,0,0,0-.25,5.28,13,13,0,0,0,1.79,5.76,8.78,8.78,0,0,0,4.31,3.28,16.19,16.19,0,0,0,5.47,1,13.76,13.76,0,0,0,4.68-.81,5.88,5.88,0,0,0,3-2c.39-.76-.05-1.56-.51-2.37a19.57,19.57,0,0,1-1.15-2.11c-.18-.5-.06-.68.32-.64a15.12,15.12,0,0,1,2.28.81c1.31.54,3.33,1.32,4.68,1.72a4.27,4.27,0,0,0,2.92.2c.92-.3,2.13-.92,3.24-1.31a13.18,13.18,0,0,0,3.42-1.33,15.55,15.55,0,0,0,3.49-3.39,6.58,6.58,0,0,0,1.56-3.4,11.22,11.22,0,0,0-.25-3.49c-.17-.85-.33-1.1,0-1.24a9.79,9.79,0,0,1,2.77-.14,22.18,22.18,0,0,0,7-.71,32.49,32.49,0,0,0,9.32-4.43,9.68,9.68,0,0,0,3.81-5.08,22.41,22.41,0,0,0,.94-4.43,32.83,32.83,0,0,0,.26-3.31,36.24,36.24,0,0,0-.19-6.56,22.59,22.59,0,0,0-1.6-5c-.51-1.33-.77-2.45-1.18-2.43s-1,1.2-1.42,2.87a33.53,33.53,0,0,1-1.45,5.6,6,6,0,0,1-3.9,3.67,4.5,4.5,0,0,1-5.4-2.61c-1.23-2.6-1.33-7.35-.41-10.59a9.68,9.68,0,0,1,5.19-6.26c2.36-1.27,5.14-2.09,7.41-3.17a12.68,12.68,0,0,0,4.9-3.79c.89-1.29.91-2.52,1.15-4.85s.71-5.81,0-8.93a22.16,22.16,0,0,0-3.74-7.66c-1.26-1.79-1.93-2.58-2.07-3.66a6.85,6.85,0,0,1,1-3.88c.82-1.51,2-3.17,3-4.84A15.08,15.08,0,0,0,147,62.75a16.84,16.84,0,0,0-.21-5.84,17.89,17.89,0,0,0-2.32-6.33,21.94,21.94,0,0,0-4.84-5.15,13.57,13.57,0,0,0-4.75-2.61,19.4,19.4,0,0,0-5.24-.65,31,31,0,0,0-4.68.24c-1.28.16-2.13.41-2.07.61s1,.39,2.28,1a31.81,31.81,0,0,1,4.22,2.55,24.37,24.37,0,0,1,3.67,3A16.47,16.47,0,0,1,136.17,54a14.31,14.31,0,0,1,1.08,4.6c.12,1.37.18,2.47-.37,2.36s-1.7-1.4-3.51-2.39a21.24,21.24,0,0,0-6.79-2,38,38,0,0,0-7.42-.27,33.65,33.65,0,0,0-6.08.89c-1.57.41-2.53.87-2.37,1.28s1.49.74,3.3,1.25a50.39,50.39,0,0,1,6.07,2.09,15.67,15.67,0,0,1,4.79,3.1,14.68,14.68,0,0,1,2.74,4c.64,1.35,1,2.59.36,3.37s-2.41,1-5,1.43-6,.89-8.91,1.53a37,37,0,0,0-7.49,2.44c-2.27,1-4.47,2.27-7.18,3.28a26,26,0,0,1-8.84,1.77,16.05,16.05,0,0,1-7.09-1.7c-1.59-.85-2.21-1.72-2-2.41s1.08-1.26,2.23-1.81Zm82.21,36.09c0-2,.16-4.41.1-6s-.24-2.42.59-2.74,2.66-.14,4.37.44a9.77,9.77,0,0,1,4.42,2.92,10.39,10.39,0,0,1,2,4.77,12.48,12.48,0,0,1-.16,4.89,7.18,7.18,0,0,1-2.51,4.11,13.76,13.76,0,0,1-5.34,2.43,10.59,10.59,0,0,1-4.37,0c-1.31-.21-2.59-.48-2.39-1.35s1.82-2.35,2.6-4,.69-3.4.73-5.46Z"/><path class="cls-4" d="M55.13,69.7c-1.4-.84-2.55-1.67-4.89-3.39S44.36,62,41.08,59.63s-6.3-4.51-9-6.48A56.74,56.74,0,0,1,26.2,48.4c-.85-.94-.23-1,.87-.71a16.36,16.36,0,0,1,4.48,2.11c1.81,1.21,3.9,3,7.07,5.56s7.46,6,11,8.67,6.35,4.75,8.6,6.55a42.74,42.74,0,0,1,4.07,3.69c.2.23-1.11-.92-2.6-1.92s-3.14-1.82-4.56-2.65Z"/><path class="cls-4" d="M21.76,44.89c-1-.58-2.4-1.34-3.6-2a13.19,13.19,0,0,1-2.87-1.63,2.84,2.84,0,0,1-1-1.86c0-.49.25-.72.87-.67a6.46,6.46,0,0,1,2.39.85,11.71,11.71,0,0,1,2.16,2c.84.88,2,2,2.71,2.89s1.05,1.32.93,1.36a9.26,9.26,0,0,1-1.63-1Z"/><path class="cls-4" d="M110.83,58.2c-.44-5.67-1.38-15.61-1.93-22.73s-.71-11.38-.76-14.58a30.92,30.92,0,0,1,.29-6.49c.3-1.15.81-1.29,1.27,1.21a115.06,115.06,0,0,1,1.13,12.24c.24,4.57.29,8.59.34,13s.11,9.19.11,13.57-.06,8.32-.06,9.6.06-.12-.39-5.81Z"/><path class="cls-4" d="M158.9,63.46c3.28-2.62,8.91-6.84,14.95-11a144.41,144.41,0,0,1,16.53-10.22c4-1.92,5.65-1.67,6-1.07s-.54,1.54-3.72,3.65-8.74,5.39-14,8.49-10.35,6-14.46,8.47-7.29,4.43-8.41,4.89-.18-.57,3.1-3.21Z"/><path class="cls-4" d="M81,137.57c-2.07,1.54-5,3.81-8.36,6.66s-6.94,6.24-10,9.25-5.36,5.61-6.8,7.17-1.88,2.09-.92,1.47a69.59,69.59,0,0,0,6.13-4.64c2.75-2.27,5.88-5.08,9.12-8s6.59-6,9-8.28,3.7-3.74,4.59-4.73,1.29-1.56.9-1.41A31.93,31.93,0,0,0,81,137.57Z"/><path class="cls-4" d="M58.52,139.46a52.22,52.22,0,0,0-6.11,5.34c-1.14,1.15-1.51,1.56-1,1.52a12.55,12.55,0,0,0,3.92-1.86c2.19-1.33,5.29-3.49,7.91-5.37S68,135.64,69.87,134a60,60,0,0,0,4.42-4.11c.92-.92,1.13-1.18.3-.78s-2.71,1.47-5.76,3.37-7.26,4.62-10.31,6.94Z"/><path class="cls-4" d="M41.67,153.39a3,3,0,0,0-1.83.58,14.4,14.4,0,0,0-2.35,2.17c-.55.62-.64.88-.43.92a7.4,7.4,0,0,0,1.77-.59A17,17,0,0,0,42,155c.74-.51.81-1,.65-1.25s-.53-.32-1-.34Z"/><path class="cls-4" d="M170.13,180.64a64.15,64.15,0,0,1-7.4-5.58c-3.42-2.89-7.91-7-11.36-10.31s-5.92-6-8.15-8.44-4.23-4.62-5.07-5.65-.55-.88,2.16,1.37,7.82,6.62,12.14,10.43,7.81,7,10.42,9.34,4.3,3.72,5.79,5.08,2.75,2.66,3.51,3.51,1,1.28.69,1.36-1.13-.14-2.73-1.11Z"/><path class="cls-4" d="M152.91,105.5c6.38-1.42,18-3.74,25.18-5.15s10.06-1.9,11.73-2.17a7.17,7.17,0,0,1,2.4-.19c.27.07.31.25-.9.83a40,40,0,0,1-7.48,2.57c-3.84,1-9.14,2-14.36,2.94s-10.37,1.92-14.71,2.61-7.85,1.17-9.48,1.31-1.36-.09-.65-.44,1.89-.89,8.27-2.31Z"/><path class="cls-5" d="M63.21,81.81c1-1.43,2.47-4.28,3.79-6.53s2.52-3.9,3.48-5.3,1.68-2.59,1.64-3.26-.79-.87-1.79-.74a9.52,9.52,0,0,0-3.17,1,7.08,7.08,0,0,0-2.51,2,16.32,16.32,0,0,0-2,3.56,22,22,0,0,0-1.24,4,15.06,15.06,0,0,0-.26,3.51,7.29,7.29,0,0,0,.42,2.59c.27.51.66.51,1.61-.93Z"/><path class="cls-5" d="M64,116.59a37.8,37.8,0,0,1-.91-4c-.17-1.42-.16-3.14-.32-4s-.49-.81-.93-.39a8.62,8.62,0,0,0-1.44,2.18,10.91,10.91,0,0,0-1,3,10.1,10.1,0,0,0,0,3.38,9.52,9.52,0,0,0,1.22,3.31,12.76,12.76,0,0,0,2.48,3,9.48,9.48,0,0,0,3,1.81c1,.35,2.11.49,2.2.21s-.74-.94-1.49-1.59a5.72,5.72,0,0,1-1.81-2.5,40.06,40.06,0,0,1-1-4.47Z"/><path class="cls-5" d="M72.05,80.24c-.67.88-1.64,2-2.64,3.31a15.62,15.62,0,0,0-2.49,4.57,8.22,8.22,0,0,0,0,4.18,8.79,8.79,0,0,0,1.27,3.26,28.9,28.9,0,0,0,2.32,2.66,9.74,9.74,0,0,1,1.56,2.27,3.21,3.21,0,0,1,.3,2,17.66,17.66,0,0,1-.85,3,8.73,8.73,0,0,0-.76,3.58,20.9,20.9,0,0,0,1.61,5.58c.93,2.41,2.18,5.42,3.18,7.37a11.57,11.57,0,0,0,2.69,3.65,11.83,11.83,0,0,1,2.64,2.84,6.62,6.62,0,0,1,.55,3.65,8.6,8.6,0,0,0,0,3.5,11.27,11.27,0,0,0,2.32,3.94,13.77,13.77,0,0,0,3.13,2.71,16.18,16.18,0,0,0,3.92,1.88,8,8,0,0,0,3.33.21,5.54,5.54,0,0,1,2.29-.16c.6.21,1,.87,2.41,1.84a39.25,39.25,0,0,0,5.2,3,7.13,7.13,0,0,0,3.83.85,17.15,17.15,0,0,0,5.19-.89,6.54,6.54,0,0,0,3.37-2.71,5.06,5.06,0,0,0,.46-3.4c-.2-1.21-.64-2.52-.62-3s.48-.3,1.42,0a9.84,9.84,0,0,0,4.23.62,15.55,15.55,0,0,0,6.2-2.11,12.81,12.81,0,0,0,5.24-5.41,24.12,24.12,0,0,0,2.11-8.38,12.21,12.21,0,0,0-.69-5.91c-.69-1.72-1.86-3.53-2.23-4.41s.07-.85.87-.8a20.31,20.31,0,0,0,3.28.09,8.49,8.49,0,0,0,4.32-1.37,10.16,10.16,0,0,0,3.54-4.8,12.65,12.65,0,0,0,.59-6.62,8.89,8.89,0,0,0-2.29-4.31,8.06,8.06,0,0,0-1.61-1.33c-.27-.21-.23-.37-.3-1.77a26.16,26.16,0,0,0-.89-6.18A9.86,9.86,0,0,0,137,82.63a9.05,9.05,0,0,0-3.36-1.75c-.92-.29-1.49-.36-1.79-.5s-.32-.35-.21-1.45a13.05,13.05,0,0,0-.11-4.87,9,9,0,0,0-3-4.49,11.26,11.26,0,0,0-4.59-2,20.67,20.67,0,0,0-5.28-.71,7.89,7.89,0,0,0-3.57.9c-1,.46-1.88,1-2.41,1.3a2,2,0,0,1-1.58.17,21.11,21.11,0,0,0-4-.35A16.51,16.51,0,0,0,101.53,70a12.44,12.44,0,0,0-4.46,3,23.18,23.18,0,0,0-3,4c-.67,1.08-.92,1.63-1.39,1.72s-1.16-.26-2.47-1A24.17,24.17,0,0,0,85,75.33a10.56,10.56,0,0,0-5.74.11,17.06,17.06,0,0,0-5,2.41,9.65,9.65,0,0,0-2.24,2.39Z"/><path class="cls-5" d="M121.57,54.53c-.62-.12-1.12-.25-1-.58s.77-.89,2.24-1.46A40.07,40.07,0,0,1,128.16,51a11.14,11.14,0,0,1,3.93-.31,5.84,5.84,0,0,1,3.25,1.69,16.61,16.61,0,0,1,3,4.16A12.53,12.53,0,0,1,139.77,61a14.08,14.08,0,0,1-.06,4.34c-.23,1.11-.69,1.63-1,1.52s-.59-.89-1.4-2.32a25.47,25.47,0,0,0-3.78-5.14,15.24,15.24,0,0,0-5.05-3.36,18.77,18.77,0,0,0-4.34-1.12c-1.15-.2-1.91-.3-2.53-.41Z"/><path class="cls-5" d="M152.84,127.28a21.79,21.79,0,0,0,2.75-2.86,9.25,9.25,0,0,0,1.33-3.65c.31-1.47.69-3.33,1.08-5.51s.85-4.71,1.09-6.64a30.15,30.15,0,0,1,.57-4c.28-.75.78-.92,1.58-.67a12.31,12.31,0,0,1,2.94,1.66,12.84,12.84,0,0,1,2.83,2.62,7.24,7.24,0,0,1,1.44,3.76,14.12,14.12,0,0,1-.57,5,22.59,22.59,0,0,1-1.95,4.73,10.77,10.77,0,0,1-2.73,3.47,8.87,8.87,0,0,1-3.52,1.53c-1.15.26-2.13.35-3.15.53a24.23,24.23,0,0,0-2.89.69,6.09,6.09,0,0,1-1.45.33c-.18,0-.06-.26.65-.93Z"/><path class="cls-5" d="M126.58,156.44a18.28,18.28,0,0,0-3.31.94c-.58.37-.19.92.21,1.48a7.89,7.89,0,0,0,1.56,1.76,5.67,5.67,0,0,0,3.28,1.17,14,14,0,0,0,5.1-1,14.36,14.36,0,0,0,4.65-2.6,9.62,9.62,0,0,0,2.65-4.11,21.66,21.66,0,0,0,1.07-5.39,15.21,15.21,0,0,0-.2-4.37c-.25-.89-.67-1-1.28-.62a9.36,9.36,0,0,0-2.16,2.1c-.79,1-1.61,2.11-2.49,3.28a25.47,25.47,0,0,1-2.93,3.37,24.45,24.45,0,0,1-3.26,2.46,10.08,10.08,0,0,1-2.89,1.51Z"/><path class="cls-4" d="M92.53,96c0,1.1-.39,2.66-.55,3.84s-.12,2-.28,2.84a6,6,0,0,1-.83,2.09c-.3.37-.55.21-.89-.09a5.14,5.14,0,0,1-1.17-1.34c-.33-.59-.55-1.35-.76-1.71s-.46-.3-.67.09a5.35,5.35,0,0,0-.55,1.92,13.32,13.32,0,0,0-.07,2.87,10,10,0,0,0,.94,3.75,20.23,20.23,0,0,0,3.43,5,47.73,47.73,0,0,0,4.79,4.52c1.18,1,1.54,1.15,1.63,1a8.91,8.91,0,0,0-.2-1.79,20.88,20.88,0,0,1,0-4.08c.14-1.54.48-3.15.65-4.34a12.94,12.94,0,0,0,.11-2.76c0-.82-.14-1.7-.2-2.34s0-1,.13-.92a13,13,0,0,0,1,1.08,5.94,5.94,0,0,0,1.57.58,2.35,2.35,0,0,1,1.28,1.12,14.77,14.77,0,0,1,.66,2,5.58,5.58,0,0,0,1.11,1.88,19.58,19.58,0,0,1,1.63,2c.23.46-.12.51-.62.37a4.76,4.76,0,0,1-1.63-.92,6.79,6.79,0,0,1-1.33-1.7c-.42-.71-.9-1.56-1-1.21a9.52,9.52,0,0,0,.32,3.16,5.6,5.6,0,0,0,1.29,2.83c.64.69,1.58,1.15,2.14,1.68a2.44,2.44,0,0,1,.77,1.58c0,.43-.11.69-.45.76s-.94,0-1.06.09.18.46.48.87a3.93,3.93,0,0,1,.67,1.22.6.6,0,0,1-.37.76c-.32.13-.8.13-1,.3s0,.52.09.91.16.83-.62,1.15-2.39.53-2.88.8.17.56,1.25.83a35.88,35.88,0,0,0,3.9.62,30.37,30.37,0,0,0,3.51.28,8.26,8.26,0,0,0,3.7-.6,9,9,0,0,0,4.18-3.33,10,10,0,0,0,1.38-4.84c0-1.11-.24-1.25-.7-1s-1.08.79-2,1.25a9.85,9.85,0,0,1-2.87.89c-.85.11-1.4,0-1.28-.28s.94-.66,1.51-1.19a2.78,2.78,0,0,0,.89-1.7c0-.5-.29-.82-.29-1.12s.25-.58.23-.88-.3-.61-.44-.94a1.19,1.19,0,0,1,.21-1.22c.37-.5,1.1-1.16,1.65-2a11.24,11.24,0,0,0,1.2-2.78c.29-.94.5-1.81.64-2.25s.21-.46.43.25a15.2,15.2,0,0,1,.6,3.29,5.61,5.61,0,0,1-.53,2.89,9.25,9.25,0,0,1-1.37,1.93c-.4.48-.63.73-.21.73a10.1,10.1,0,0,0,2.62-.68,10.69,10.69,0,0,0,3.69-2.14,13.3,13.3,0,0,0,3.47-4.8,11.59,11.59,0,0,0,.71-5.35,7,7,0,0,0-1-2.82c-.37-.74-.71-1.52-1.15-2.26a14.73,14.73,0,0,0-1.54-2.1,5.45,5.45,0,0,0-2.14-1.64,27.27,27.27,0,0,0-3.74-1c-1.12-.27-1.79-.51-1.88-.32s.44.78.82,1.4a2.47,2.47,0,0,1,.51,1.59c-.11.34-.55.34-1.24.15s-1.63-.54-2.59-.73a8.56,8.56,0,0,0-3,0c-1.08.16-2.25.5-3.19.69a3,3,0,0,1-1.91,0c-.3-.2-.25-.68.11-1.23a5.27,5.27,0,0,1,2-1.64,14.13,14.13,0,0,1,3.07-1.07c1-.23,1.89-.35,1.66-.42a21.35,21.35,0,0,0-2.69,0,26.14,26.14,0,0,0-2.73.27c-.78.1-1.45.21-2,.28s-.79.09-.9-.18a1.57,1.57,0,0,1,.57-1.34,7.7,7.7,0,0,1,2.41-1.53,14.09,14.09,0,0,1,2.78-.83c.78-.14,1.27-.14.83-.34a20.06,20.06,0,0,0-2.6-.81,13.24,13.24,0,0,0-1.78-.37l-2.74-.46a11.31,11.31,0,0,0-3.56-.24,5.69,5.69,0,0,0-2.29,1.44c-.74.55-1.63,1-2.28,1.56a10,10,0,0,0-1.6,1.81,4,4,0,0,0-1,1.93A4.49,4.49,0,0,0,92,93.56,4.48,4.48,0,0,1,92.53,96Z"/><path class="cls-1" d="M3.72,32.12a2,2,0,0,1-1.29.05,3.33,3.33,0,0,1-1.07-.81,7.23,7.23,0,0,1-.76-.89,3.73,3.73,0,0,1-.42-1.06A5.3,5.3,0,0,1,0,28.1,1.77,1.77,0,0,1,.28,27a1.48,1.48,0,0,1,.85-.61,2.43,2.43,0,0,1,1.05.09l1.24.3a5,5,0,0,1,1,.37,1.74,1.74,0,0,1,.62.7,2.45,2.45,0,0,1,.27,1,4.5,4.5,0,0,1,0,1.27,2.75,2.75,0,0,1-.51,1.24,2.33,2.33,0,0,1-1.12.73Z"/><path class="cls-3" d="M4.46,31.75a3.39,3.39,0,0,1-1.73.18,1.92,1.92,0,0,1-1.44-1,2.64,2.64,0,0,1-.07-1.9,1.78,1.78,0,0,1,1.15-1.22,2.92,2.92,0,0,1,2,0,1.93,1.93,0,0,1,1.07,1.34,2.63,2.63,0,0,1,0,1.58,1.54,1.54,0,0,1-1,.94Z"/><path class="cls-4" d="M5.33,32.62A2.11,2.11,0,0,1,4,32.81a2,2,0,0,1-1.23-.74,2.24,2.24,0,0,1-.4-1.47,1.09,1.09,0,0,1,.65-1,1.83,1.83,0,0,1,1.35.07,3.19,3.19,0,0,1,1.33.89,1.32,1.32,0,0,1,.23,1.11,1.28,1.28,0,0,1-.59.93Z"/><path class="cls-6" d="M3.45,31.45a1.11,1.11,0,1,0-1.09-1.1,1.1,1.1,0,0,0,1.09,1.1Z"/><path class="cls-1" d="M208.12,31.38a3.69,3.69,0,0,1,.6-.94,3.58,3.58,0,0,1,1.1-.64,3.9,3.9,0,0,1,1.25-.48,1.4,1.4,0,0,1,1.19.34,3.45,3.45,0,0,1,.66,1.17,4,4,0,0,1,.32.94.59.59,0,0,1-.29.58,4.81,4.81,0,0,1-1.06.6,7.21,7.21,0,0,1-1.38.46,2,2,0,0,1-1.21,0,3.37,3.37,0,0,1-1.08-.73,1.1,1.1,0,0,1-.35-.73,1.73,1.73,0,0,1,.25-.56Z"/><path class="cls-4" d="M210.76,33.5a6.68,6.68,0,0,1-1.94,1.1,2,2,0,0,1-1.89-.16c-.3-.35-.12-1.06.28-1.82A4.41,4.41,0,0,1,209,30.76a1.79,1.79,0,0,1,1.92.28,1.87,1.87,0,0,1,.56,1.49c0,.42-.26.62-.72,1Z"/><path class="cls-3" d="M209.53,30.3a3.18,3.18,0,0,0-1,.37,3.33,3.33,0,0,0-1,1,3.23,3.23,0,0,0-.41,1.17c-.07.34,0,.55.13.71a2.39,2.39,0,0,0,.86.3,6.51,6.51,0,0,0,1,.14,4,4,0,0,0,1.09-.1,2.33,2.33,0,0,0,.87-.46,1.77,1.77,0,0,0,.48-.78,2.83,2.83,0,0,0,0-.91,1.54,1.54,0,0,0-.29-.69,1.7,1.7,0,0,0-.56-.51,2,2,0,0,0-.59-.25,2.45,2.45,0,0,0-.34,0,.91.91,0,0,0-.3.06Z"/><path class="cls-6" d="M208.7,31.75a1.13,1.13,0,0,0-.32.78,1.22,1.22,0,0,0,.32.74,1,1,0,0,0,.71.29,2.07,2.07,0,0,0,1-.27,1.54,1.54,0,0,0,.61-.82.73.73,0,0,0,0-.65,1.08,1.08,0,0,0-.6-.32,2.77,2.77,0,0,0-.89-.09,1.57,1.57,0,0,0-.85.34Z"/><path class="cls-4" d="M184.82,194.74a2.45,2.45,0,0,1-1-1.33,2.84,2.84,0,0,1,.07-1.81c.19-.37.51-.26,1.17-.14a9.89,9.89,0,0,1,2.25.62,1.36,1.36,0,0,1,.85,1.26,1.86,1.86,0,0,1-.66,1.33,2.22,2.22,0,0,1-1.42.5,2.16,2.16,0,0,1-1.27-.43Z"/><path class="cls-1" d="M184.48,194.35a8.24,8.24,0,0,0,.48,1.52,1.05,1.05,0,0,0,.85.62,13.15,13.15,0,0,0,1.74.29,4.23,4.23,0,0,0,1,0,.88.88,0,0,0,.64-.4,3.18,3.18,0,0,0,.27-1.14,4.54,4.54,0,0,0-.07-1.06,2.13,2.13,0,0,0-.38-.94,3.88,3.88,0,0,0-.71-.64,1.75,1.75,0,0,0-.74-.49,3.94,3.94,0,0,0-1.47-.09,3.79,3.79,0,0,0-1.4.3.73.73,0,0,0-.35.72,5.19,5.19,0,0,0,.1,1.28Z"/><path class="cls-3" d="M187.76,193.34a2.23,2.23,0,0,0-.69-1.15,1.83,1.83,0,0,0-1.24-.34,2.31,2.31,0,0,0-1.33.45,1.52,1.52,0,0,0-.6,1.11,2.25,2.25,0,0,0,.33,1.14,1.73,1.73,0,0,0,.57.6,2.81,2.81,0,0,0,1,.33,2.59,2.59,0,0,0,1.17-.14,1.22,1.22,0,0,0,.82-.67,2.32,2.32,0,0,0,0-1.33Z"/><path class="cls-6" d="M186.4,193.25a1.63,1.63,0,0,1-.39.76.86.86,0,0,1-.75.29,1.16,1.16,0,0,1-.78-.5,1.34,1.34,0,0,1-.17-1,1.17,1.17,0,0,1,.53-.74.66.66,0,0,1,.69,0,3,3,0,0,1,.71.55.73.73,0,0,1,.16.64Z"/><path class="cls-1" d="M20,173.48a4.58,4.58,0,0,0-1,.14c-.38.06-.77.11-1.07.18a1,1,0,0,0-.62.34.93.93,0,0,0-.08.74,2.26,2.26,0,0,0,.47.78,2.77,2.77,0,0,0,.62.57,1.55,1.55,0,0,0,.84.21,2.72,2.72,0,0,0,.83-.28,5.57,5.57,0,0,0,.81-.41,1.4,1.4,0,0,0,.46-.57.77.77,0,0,0,.11-.51,1.06,1.06,0,0,0-.23-.48,2.46,2.46,0,0,0-.44-.48,1.23,1.23,0,0,0-.68-.23Z"/><path class="cls-4" d="M19.86,175.45a1.39,1.39,0,0,1-.53-.87,1.07,1.07,0,0,1,.46-1.1,2.08,2.08,0,0,1,1.47-.25.73.73,0,0,1,.62.71,1.61,1.61,0,0,1-.35,1.06,2.17,2.17,0,0,1-1,.57.74.74,0,0,1-.71-.12Z"/><path class="cls-3" d="M19,176.07a1.52,1.52,0,0,1-.6-.94,1.17,1.17,0,0,1,.49-1.19,2.34,2.34,0,0,1,1.6-.26.76.76,0,0,1,.65.77,1.54,1.54,0,0,1-.37,1.14,2.2,2.2,0,0,1-1,.6.74.74,0,0,1-.74-.12Z"/><path class="cls-6" d="M20.18,175.46a.77.77,0,0,1-.39-.39,1.22,1.22,0,0,1-.07-.76,1.11,1.11,0,0,1,.34-.53.74.74,0,0,1,.53-.16.8.8,0,0,1,.48.21.82.82,0,0,1,.26.45,1.12,1.12,0,0,1,0,.62.89.89,0,0,1-.34.49.81.81,0,0,1-.48.13.48.48,0,0,1-.28-.06Z"/></g></g></svg>