<svg xmlns="http://www.w3.org/2000/svg" xmlns:xlink="http://www.w3.org/1999/xlink" viewBox="0 0 213.11 195.22"><defs><style>.cls-1,.cls-3{fill:#962934;}.cls-1{clip-rule:evenodd;}.cls-2{fill:#2a0b1e;}.cls-2,.cls-3,.cls-5,.cls-6,.cls-7{fill-rule:evenodd;}.cls-4{clip-path:url(#clip-path);}.cls-5{fill:#ff532b;}.cls-6{fill:#ff9e2b;}.cls-7{fill:#feda3b;}</style><clipPath id="clip-path"><path class="cls-1" d="M210.83,75.88c-.75-.82-1.65-1.56-2.57-2.38a25.81,25.81,0,0,0-2.86-2.34,10.59,10.59,0,0,0-3.36-1.4,12.34,12.34,0,0,0-3.33-.28c-.89.07-1.42.27-1.42.78s.53,1.31.41,1.86-.87.83-1.74,1.12a5.46,5.46,0,0,0-2.78,1.52A11,11,0,0,0,191,78.91a8.88,8.88,0,0,0-.25,3.68,6,6,0,0,0,1,2.92c.62.91,1.6,1.74,2.36,2.86a11.19,11.19,0,0,1,1.61,4c.34,1.52.5,3.22.71,4.68s.46,2.69,1.2,2.71,2-1.16,2.89-2.38a27,27,0,0,1,2.36-3.29,29.25,29.25,0,0,1,2.71-1.74,25,25,0,0,0,1.77-2.11c.71-.69,1.77-1.24,2.71-2.14a10.38,10.38,0,0,0,2.27-3.49,10.23,10.23,0,0,0,.76-3.63,5.52,5.52,0,0,0-.58-2.64,9.9,9.9,0,0,0-1.7-2.48ZM176.51,53.34c-.69-.69-1.52-1.7-2.25-2.48s-1.35-1.33-1.35-1.65.62-.44,1.23-.1A7.1,7.1,0,0,1,176,51.25,17.14,17.14,0,0,1,177.57,54c.13.44-.39.07-1.06-.62Zm-34.42-18a7.73,7.73,0,0,0-1.6-1.65A16.41,16.41,0,0,0,138.44,32c-.59-.34-1-.23-1.17.23a2.28,2.28,0,0,0,.49,2,9.86,9.86,0,0,0,2.48,1.92c.94.56,1.83,1.08,2.15.92s.09-1-.3-1.67Zm28.48,9.6a21.06,21.06,0,0,0-2.48-2.85c-.94-.87-1.84-1.36-2.39-1.17s-.69,1.08,0,1.88a11.64,11.64,0,0,0,3.22,2.09A22,22,0,0,0,171,46c.29.05.11-.29-.46-1.07Zm16.27,99.94a7.19,7.19,0,0,1-3.81.64,12.65,12.65,0,0,1-5.07-1.35,4.74,4.74,0,0,1-2.18-3.08,10.32,10.32,0,0,1-.48-4,9.54,9.54,0,0,1,1.44-3.63,21.6,21.6,0,0,1,2-2.8,24.68,24.68,0,0,0,1.74-2.22A23.81,23.81,0,0,1,182,126a8.63,8.63,0,0,1,2.69-2.18,19.1,19.1,0,0,1,3.78-1.49,4.79,4.79,0,0,1,2.76-.1,4.37,4.37,0,0,1,2.32,2.18,21.22,21.22,0,0,1,2.38,5.58,10.52,10.52,0,0,1-.06,5.6,12.7,12.7,0,0,1-2.73,5,15.29,15.29,0,0,1-3.57,2.53,31.56,31.56,0,0,1-2.73,1.79Zm-11.68,9.29c-.19-.25.18-1.08.59-1.92a5.1,5.1,0,0,1,1.22-1.89c.37-.22.69.17.66.85a4.53,4.53,0,0,1-1,2.27c-.56.63-1.29,1-1.47.69Zm-31.83,19.56c-.38.28-1.21.58-1.9,1.09a7.2,7.2,0,0,0-1.68,1.9,11.1,11.1,0,0,1-1.33,1.79,9.73,9.73,0,0,1-1.65,1.08c-.53.32-1,.69-.69,1a5.94,5.94,0,0,0,2.53.88c1.23.29,2.66.54,3.58.86s1.38.67,1.56,1.08.07.85.59,1.17a11.67,11.67,0,0,0,2.6.77c.94.24,1.67.5,2.37.73a6.89,6.89,0,0,0,2.27.44,8.08,8.08,0,0,0,3.42-.88c1.45-.67,3.24-1.83,5.16-2.78s4-1.7,5.15-2.75a5.57,5.57,0,0,0,1.79-3.54,25.06,25.06,0,0,0,.25-3.3,22.13,22.13,0,0,1,.44-3.67,19.67,19.67,0,0,1,1.31-4.05c.61-1.35,1.35-2.62,1.93-3.78s1-2.16.75-2.37-1,.35-2.36,1.22a34.82,34.82,0,0,1-4.71,2.64,6.26,6.26,0,0,1-3.54.48,13,13,0,0,0-3.6-.34,15.92,15.92,0,0,0-3.76,1.37,13.65,13.65,0,0,1-3.26,1,11.93,11.93,0,0,1-2.64.07,3.26,3.26,0,0,0-2.35.54,15.86,15.86,0,0,0-2.48,2.71c-.73.88-1.22,1.43-1.12,2s.82,1.17,1.22,1.59.5.69.15,1Zm-12.23,7.65a9.58,9.58,0,0,1-2,.12c-.83,0-1.79.07-2.51.07s-1.23,0-1.26-.33.42-.76,1.2-1.1a7.63,7.63,0,0,1,2.78-.53,4.28,4.28,0,0,1,2,.4c.43.2.61.45.59.7a.91.91,0,0,1-.73.67ZM62.15,170.55a26.46,26.46,0,0,1-2.62-3.63,37,37,0,0,1-2.52-5c-.83-2-1.77-4.38-2.75-6.65a22.67,22.67,0,0,0-2.88-5.45,2.05,2.05,0,0,0-2.66-.64c-.83.39-1.61,1.15-2.29,1.38a3.35,3.35,0,0,1-1.84-.16c-.58-.12-1.19-.07-1.7-.19s-1-.41-1,.1.45,1.81.59,2.84a3.67,3.67,0,0,1-.5,2.59c-.48.79-1.29,1.62-2,2.56a11.45,11.45,0,0,0-1.56,3.05,18.56,18.56,0,0,0-.6,3.24c-.16,1.26-.39,2.82-.59,3.88a4.06,4.06,0,0,0-.05,2.41,8.44,8.44,0,0,0,1.64,2.39c.55.52.87.5,1.32,1.3a36,36,0,0,1,1.5,3.82,13.62,13.62,0,0,0,1.58,3.44c.65.92,1.58,1.65,2.18,2.5s.87,1.81,1.47,2.62a5.14,5.14,0,0,0,2.55,1.81,6.32,6.32,0,0,0,3.38.19A2.62,2.62,0,0,0,55,187a38.09,38.09,0,0,0,.19-3.81,4.21,4.21,0,0,1,1.33-2.65c.64-.57,1.33-.8,2.25-1.46s2-1.72,3-2.58a7,7,0,0,0,2-2.32,2.69,2.69,0,0,0-.28-2.15,10.41,10.41,0,0,0-1.33-1.49ZM50,102.36a9.72,9.72,0,0,1,.25-2.74c.32-1,1-2,1.42-3.1a7.27,7.27,0,0,0,.26-3.58,7.2,7.2,0,0,0-1.4-3.51,3.12,3.12,0,0,0-2.85-1.12,6,6,0,0,0-3.17,1.78A12.37,12.37,0,0,0,42.36,93c-.53.94-.94,1.72-1.29,2.28s-.59.94-.82.73a11.89,11.89,0,0,1-.74-1.84,5.58,5.58,0,0,0-1.4-2,2.78,2.78,0,0,0-1.58-.43A5.46,5.46,0,0,1,35,91.36a4,4,0,0,0-1.43-.57A1.74,1.74,0,0,0,32,91.87a19.54,19.54,0,0,0-1.47,3.9,33,33,0,0,0-1.19,5,18.81,18.81,0,0,0,0,4.68,29.32,29.32,0,0,0,.85,4.68,11.64,11.64,0,0,0,2.09,4.27,12.28,12.28,0,0,0,3.62,2.94c1,.46,1.47.23,2.07.58a7.59,7.59,0,0,1,2,2.18c.57.89,1,1.72.74,2s-1,.11-1.38.3-.34.8-.32,1.77A11.62,11.62,0,0,0,39.4,128a15.43,15.43,0,0,0,2.34,4.17,11.5,11.5,0,0,0,2.48,2.5A7.41,7.41,0,0,0,46.91,136a1.69,1.69,0,0,0,2-.72A4.68,4.68,0,0,0,49,132.3a7.6,7.6,0,0,0-1.23-2.72,22.63,22.63,0,0,0-1.66-2.11c-.46-.55-.75-.94-.62-1.08s.67-.06,1.29,0a2.32,2.32,0,0,0,1.7-.3,1.47,1.47,0,0,0,.13-1.6c-.25-.55-.8-.94-.77-1.06s.66,0,1.3.21a7.86,7.86,0,0,0,1.86.59,1.67,1.67,0,0,0,1.52-.7,2.65,2.65,0,0,0,.2-1.87,7.12,7.12,0,0,0-.62-1.74c-.22-.43-.34-.66-.09-.9a9.25,9.25,0,0,0,1.31-1,2.86,2.86,0,0,0,.57-2.25,21,21,0,0,0-.89-2.53c-.2-.66,0-1,.21-1.19s.59-.35.69-.9a4.13,4.13,0,0,0-.32-2.16,2.78,2.78,0,0,0-1.34-1.23,6.82,6.82,0,0,1-1.84-1.43,2.93,2.93,0,0,1-.59-1.9c0-.64.12-1.24.16-2ZM17.86,91c.21-.35.48-.83.74-1.32a9.75,9.75,0,0,0,.67-1.46c.16-.42.24-.78.13-.78a5.72,5.72,0,0,0-.8.75,6,6,0,0,0-1.08,1.24,3,3,0,0,0-.23,1.38c0,.42,0,.73.11.76s.24-.21.46-.57Zm8.91,44.12c-.67-1.15-1.68-3.08-2.25-4.22s-.67-1.5-.57-2.11a16.66,16.66,0,0,1,.89-2.6,13.7,13.7,0,0,0,1.2-4.36,11.38,11.38,0,0,0-.95-5,9,9,0,0,0-2.34-3.25A4.47,4.47,0,0,0,20,112.41a31.23,31.23,0,0,0-3.23.23,4,4,0,0,1-2-.44,7.34,7.34,0,0,1-1.79-1,5.93,5.93,0,0,1-1.28-1.84c-.39-.78-.79-1.74-1.17-2.4s-.67-1-1.08-.9a3,3,0,0,0-1.41,1.33,5.22,5.22,0,0,0-.94,2.44,17.85,17.85,0,0,1,0,2.4,2.51,2.51,0,0,1-1.52,1.45,8,8,0,0,0-2.5,1.58,11.73,11.73,0,0,0-2.62,4.11,8.88,8.88,0,0,0-.28,5.26,20.57,20.57,0,0,0,2.78,6.11,17.68,17.68,0,0,0,4.09,4.68,4.17,4.17,0,0,0,3.45.79,24.58,24.58,0,0,0,3.12-1,10.45,10.45,0,0,1,2.82-.55c.83,0,1.58.05,2.16,0a5.49,5.49,0,0,1,1.72-.28,24.59,24.59,0,0,1,2.69.87c1,.28,2.07.42,2.92.69a12.3,12.3,0,0,1,1.62.73c.14,0-.2-.34-.87-1.49Zm107-116.43a23.33,23.33,0,0,0-1.08-4,7.24,7.24,0,0,0-2.59-2.95,18.08,18.08,0,0,0-4-2c-1.26-.44-2.25-.6-1.81-.69s2.32-.12,3.94-.3a14.79,14.79,0,0,0,4-1,7.53,7.53,0,0,0,2.5-1.66c.66-.66,1.21-1.44,1.91-2.24a10.71,10.71,0,0,1,3-2.3,14.25,14.25,0,0,1,4.82-1.5,9.42,9.42,0,0,1,4.91.62,19.23,19.23,0,0,1,4.46,2.74,15.12,15.12,0,0,1,2.95,3.12,20.52,20.52,0,0,1,2.74,5,15.09,15.09,0,0,1,.8,5.83,47.92,47.92,0,0,1-.89,5.46,17.63,17.63,0,0,0-.26,4.62,28.53,28.53,0,0,0,.78,4.57c.32,1.24.63,2,.21,1.91a21.1,21.1,0,0,1-2.82-1.7A7.54,7.54,0,0,0,153.83,31a11.35,11.35,0,0,0-2.76.75,3.85,3.85,0,0,1-2.82-.45,6.46,6.46,0,0,1-2-2.32,15.08,15.08,0,0,0-.95-1.73A6.78,6.78,0,0,0,144,26.11c-.5-.39-1-.83-1.44-.64s-.88,1-1.47,1.46a1.91,1.91,0,0,1-2.21.14,8.64,8.64,0,0,1-2.36-2.47,17.41,17.41,0,0,1-1.66-2.76,14.82,14.82,0,0,1-1.1-3.13ZM38.62,49a2.63,2.63,0,0,1,1.17-.78c.5-.11,1.13,0,1.63-.5a4.52,4.52,0,0,0,.9-2.66A14.82,14.82,0,0,0,42.06,42c-.14-.92-.2-1.71-.3-2.63a15.47,15.47,0,0,0-.59-2.77,5.7,5.7,0,0,0-1.08-2A1.49,1.49,0,0,0,38.28,34a8.85,8.85,0,0,0-2.55,2.08,6.28,6.28,0,0,0-1.45,2.48,11.79,11.79,0,0,0-.6,4,12.42,12.42,0,0,0,1,4A7.1,7.1,0,0,0,36.05,49a2,2,0,0,0,1.46.69A2.18,2.18,0,0,0,38.62,49ZM20.9,83.09a16.27,16.27,0,0,0,1.32-3.9,3,3,0,0,0-.34-2.62,10.34,10.34,0,0,0-2.06-1.3,6.39,6.39,0,0,1-2-2.19,7.44,7.44,0,0,1-1.1-3.44,10.22,10.22,0,0,1,.77-3.86,10.69,10.69,0,0,1,1.75-3.07c.74-.88,1.68-1.66,2.28-2.32A7.73,7.73,0,0,1,23,58.82a4.07,4.07,0,0,1,2.18-.52,1.68,1.68,0,0,1,1.43.8,9.45,9.45,0,0,0,.93,1.56,1.46,1.46,0,0,0,1.43.14c.53-.14,1-.37,1.63-.57a2.77,2.77,0,0,1,1.83-.12,1.71,1.71,0,0,1,.88,1.61,10.19,10.19,0,0,1-.44,2.71,16.93,16.93,0,0,0-.46,2.73c-.07.9,0,1.81,0,2.57a2.38,2.38,0,0,1-.69,1.93c-.58.57-1.72,1.12-2.43,1.77A4.5,4.5,0,0,0,28,75.75a10.23,10.23,0,0,1-1,2.78,15,15,0,0,1-2.29,2.61,17.69,17.69,0,0,1-2.12,2,10.46,10.46,0,0,1-2.31,1.29c-.33.11.11-.28.62-1.29ZM71,35.48a52.24,52.24,0,0,1,5.9-3.68,44.7,44.7,0,0,1,5.86-2.29,16.16,16.16,0,0,0,4.11-2.07,17.7,17.7,0,0,0,3.64-3.31A22.87,22.87,0,0,1,93,20.94,14.72,14.72,0,0,1,96.7,19a35.3,35.3,0,0,0,3.45-1.72c.69-.4.69-.49-.57-.69s-3.79-.49-5.58-.92a11.15,11.15,0,0,1-4.59-2.32,66.06,66.06,0,0,0-7-5,26.64,26.64,0,0,0-7.76-3,11,11,0,0,0-5.33.12,18.72,18.72,0,0,0-5.83,2.66,67.26,67.26,0,0,0-7.12,5.61c-1.91,1.7-2.87,2.75-4.09,3.28s-2.71.57-3.72,1.35a6.13,6.13,0,0,0-1.74,3.93,21.89,21.89,0,0,0-.09,4.22,10,10,0,0,1-.09,2.62,11.17,11.17,0,0,0-.44,3.22,14.44,14.44,0,0,0,1.22,4.24c.59,1.36,1.21,2.6,1.65,3.72s.71,2.18,1.56,2.62A5.34,5.34,0,0,0,54.11,43c1.13-.36,1.94-.91,1.75-1.67s-1.35-1.72-1.93-2.8A3.46,3.46,0,0,1,54,35a13.4,13.4,0,0,1,3.3-3.43c1.17-.92,2.11-1.51,2.44-1.38s.08.92.06,1.59a1.68,1.68,0,0,0,.87,1.59c.63.36,1.68.55,2,.93s.06,1,.07,1.5a1.69,1.69,0,0,0,1,1.38,4.36,4.36,0,0,0,2.32.41A7.23,7.23,0,0,0,68.46,37,12.6,12.6,0,0,0,71,35.48Zm44,114.13c-.23.23-1.06.23-2.23.11a14.29,14.29,0,0,0-4.11-.14,4.14,4.14,0,0,0-3,2,2.62,2.62,0,0,0,.69,2.79c.73.83,1.81,1.45,2.39,2.17s.75,1.53,1.61,2.18a12.77,12.77,0,0,0,4.08,1.62,28.89,28.89,0,0,0,5.08.95,18.46,18.46,0,0,0,6.29-.33,21.64,21.64,0,0,0,5.88-2.87,38.67,38.67,0,0,0,5.64-4.1c1.77-1.63,3.36-3.61,4.62-4.66a6.75,6.75,0,0,1,3.51-1.43,18.54,18.54,0,0,0,5.05-2,32.81,32.81,0,0,0,6.45-4.8,15.17,15.17,0,0,0,3.77-5.35,9.88,9.88,0,0,0,.6-4.5c-.1-1.22-.35-2.05-.39-2.6s.18-.85.77-1.28a6.46,6.46,0,0,0,1.93-1.72c.44-.74.35-1.72,1.24-2.74s2.73-2.17,4-3.88a16,16,0,0,0,2.3-6.45,36.47,36.47,0,0,0,.6-6.72,9.94,9.94,0,0,0-.73-3.75,5.34,5.34,0,0,0-1.11-1.81,3.73,3.73,0,0,0-1.7-1.1c-.69-.21-1.56-.21-1.93-.57s-.29-1.09-.29-1.86-.16-1.52-.12-2.05.21-.78.69-.74a8.48,8.48,0,0,1,2.07.63,3.15,3.15,0,0,0,2.5.2,5.67,5.67,0,0,0,2.38-2.75,10.23,10.23,0,0,0,1-4.21,7.81,7.81,0,0,0-1.14-3.23c-.6-1.2-1.27-2.78-1.68-3.7s-.53-1.14-.28-1.54a9,9,0,0,0,1.31-2.11,30,30,0,0,0,.94-4.32,23.66,23.66,0,0,0,.55-4.31,14.5,14.5,0,0,0-.71-3.79,8.41,8.41,0,0,0-1.14-2.71,5.74,5.74,0,0,0-2.21-1.67,9.88,9.88,0,0,0-2.85-.94c-.8-.08-1.26.11-1.69,0s-.83-.56-1.52-1.52-1.68-2.41-2.37-3.33-1.12-1.36-1.76-1.58a4.65,4.65,0,0,0-2.27-.1,16.6,16.6,0,0,0-2,.65c-.5.16-.83.14-1.33-.48a34.63,34.63,0,0,1-1.91-3.24,16.09,16.09,0,0,0-3.14-4.18,9,9,0,0,0-4-1.81,8.72,8.72,0,0,0-2.46-.17c-.5.05-.75.09-1-.27s-.55-1.15-.94-1.93a8.56,8.56,0,0,0-1.7-2.37A25.38,25.38,0,0,0,136,36.72c-1.2-.83-2.48-1.66-3.7-2.58s-2.35-1.9-3.59-2.82a21.14,21.14,0,0,0-4-2.34,17.64,17.64,0,0,0-4.11-1.13c-1.17-.16-2-.14-3-.25a13,13,0,0,0-3.49-.21,13.19,13.19,0,0,0-3.72,1.27,8.54,8.54,0,0,1-3,1c-1,.06-2.25-.23-3.4-.16a8.4,8.4,0,0,0-3.34,1.05,17.23,17.23,0,0,1-3,1.52A4.7,4.7,0,0,1,95,31.67c-1.18-.32-2.94-.69-4.53-.94a14.11,14.11,0,0,0-4.87-.12A14.4,14.4,0,0,0,80,32.84,13.12,13.12,0,0,0,76.34,37a19.93,19.93,0,0,0-1.77,4.09,21.18,21.18,0,0,0-.91,3.81c-.12,1.08,0,1.86-.35,2.08s-1-.13-1.75-.52A6.33,6.33,0,0,0,68,45.67a31.62,31.62,0,0,0-6.88,1.24A10.88,10.88,0,0,0,56.89,49a9.72,9.72,0,0,0-2.47,3.52c-.76,1.69-1.55,4-2.12,5.69a21.36,21.36,0,0,0-1,3.58c-.13.92-.07,1.79-.27,2.87a23.88,23.88,0,0,0-.69,4.18A25.54,25.54,0,0,0,51,74.73a37.24,37.24,0,0,0,1.26,4c.39,1.15.71,2.3,1.08,3.38A10.64,10.64,0,0,0,55,85.27a11,11,0,0,0,3,2.57,3.48,3.48,0,0,0,2.55.62c.49-.23.49-.91.81-1.81s.94-2.07,1.51-3.51a44,44,0,0,0,1.57-5.07c.48-1.87.93-3.88,1.35-5.08s.8-1.58,1.52-1.54,1.81.51,2.79.58a2.65,2.65,0,0,0,2.23-.72c.35-.5.19-1.17.44-1.76a6,6,0,0,1,1.61-1.72,11,11,0,0,0,2-2.26c.53-.85.82-1.78,1.17-2.29s.73-.66,1.15-.14.91,1.65,1.67,2.76A7.66,7.66,0,0,0,83,68.38c.72.32,1.11-.12,1.52-1.1a40.8,40.8,0,0,0,1.28-4.07,12.15,12.15,0,0,1,1.87-4.52c.94-1.08,2.32-1.45,4.57-2.25a73.74,73.74,0,0,0,7.27-3c1.88-1,2.5-1.67,3.49-1.76A10.84,10.84,0,0,1,107.15,53,34.64,34.64,0,0,0,112.68,55a2.82,2.82,0,0,0,3-.76,4.38,4.38,0,0,0,1.22-2.74,3.94,3.94,0,0,0-1.41-2.7c-.87-.88-2.08-1.77-2.73-2.35s-.75-.87-.29-1.15a4.38,4.38,0,0,1,2.59-.45,23.15,23.15,0,0,1,4.25,1.46,54.94,54.94,0,0,0,7,2.14,7.42,7.42,0,0,0,2.84.05,1.93,1.93,0,0,1,1.63.89,2.39,2.39,0,0,1-.06,2.19,14.52,14.52,0,0,0-1.29,2.52,4.17,4.17,0,0,0,.9,3.3,14.83,14.83,0,0,0,3.46,3,9.42,9.42,0,0,1,2.9,2.31,40.67,40.67,0,0,1,3.09,5,31.8,31.8,0,0,0,2.48,4,16.82,16.82,0,0,1,2.16,3,21.77,21.77,0,0,1,1.43,4.73,16.68,16.68,0,0,0,1,3.68,2.43,2.43,0,0,0,1.7,1.45c.58.07,1.08-.26,1.41-.17s.48.56.75,1.86.62,3.36.87,4.62a24,24,0,0,1,.49,2.94c.14,1.28.27,3.4.36,5.21a24.12,24.12,0,0,0,.32,4.16c.21.85.63,1.1.76,1.63a7.11,7.11,0,0,1-.39,2.89c-.39,1.53-1,3.74-1.33,5.32s-.41,2.57-.62,3.58-.55,2.07-.64,2.65.07.69-.3,1.05-1.24.9-2.13,1.73-1.77,1.94-2.53,2.73a6,6,0,0,0-1.63,2,2.14,2.14,0,0,0,.66,2.36,7.55,7.55,0,0,0,3.59,1,34.75,34.75,0,0,1,3.85.39c1,.23,1.52.68,1.22,1.33a11,11,0,0,1-2.6,2.45,19.67,19.67,0,0,1-3.46,2.37,11.82,11.82,0,0,1-3.81,1c-1.08.09-1.77,0-1.88-.46s.39-1.17.71-1.93a3.67,3.67,0,0,0,.29-2.3,4.77,4.77,0,0,0-1.55-2,5.51,5.51,0,0,0-2.39-1.36c-.69-.07-1.13.46-1.43,1.25s-.5,1.86-.76,2.66a3.76,3.76,0,0,1-1.33,1.95,21.78,21.78,0,0,1-3.51,2.06c-1.67.85-3.88,1.91-5.9,2.78a41.55,41.55,0,0,1-5.21,2c-1.4.4-2.41.55-3.26.85a6.92,6.92,0,0,0-2.16,1.27,5,5,0,0,0-1.51,1.65,1.86,1.86,0,0,0,0,1.65c.22.4.61.56,1,.87s.78.79.56,1ZM156.49,84c.19.77.41,1.51.51,2s.11.7.46.88,1.08.3,1.69.52a4.76,4.76,0,0,1,1.49.86c.35.32.56.64.81.87a3.68,3.68,0,0,0,.89.53,2.16,2.16,0,0,0-.2-1,9.22,9.22,0,0,1-.76-1.39,6.81,6.81,0,0,1-.28-2.09,8.59,8.59,0,0,1,.16-1.64,7.13,7.13,0,0,1-1.51.88,2.76,2.76,0,0,1-1.58.2,6.58,6.58,0,0,1-1.68-.61Zm.28-27.6a9,9,0,0,1,1.49,2.46,17.49,17.49,0,0,1,.73,3.26c.1.8.09,1,.35,1.24a6.12,6.12,0,0,0,1.4.84,13.21,13.21,0,0,1,1.61.69,5.27,5.27,0,0,1,1.44,1.2,14.11,14.11,0,0,1,1.45,2c.41.67.71,1.37.87,1.6s.23,0,.27-.57a6.69,6.69,0,0,0-.23-2.46,5.75,5.75,0,0,0-1.48-2.15,8.59,8.59,0,0,1-1.29-1.24,12.94,12.94,0,0,1-.87-2c-.32-.78-.76-1.65-1.11-2.41a17.07,17.07,0,0,0-.89-1.81,2.46,2.46,0,0,0-.9-.78,2.27,2.27,0,0,0-1.21-.5,4.64,4.64,0,0,0-1.63.64ZM141.39,49a1.86,1.86,0,0,1-.56,1.09,2.38,2.38,0,0,1-1,.48c-.26.07-.39.09-.49.13.92.49,1.84,1,2.51,1.4s1.08.7,1.6,1a12.7,12.7,0,0,1,1.68,1.33A23.57,23.57,0,0,1,147,56.67a11.87,11.87,0,0,0-1.27-2.39A13.29,13.29,0,0,0,144,52.56a2.88,2.88,0,0,1-.88-1.17c-.18-.44-.29-1-.57-1.61a12.09,12.09,0,0,0-1.26-1.84,2.31,2.31,0,0,1,.12,1ZM16.14,94.73c-.39.53-.87,1.38-1.42,2.14A5.89,5.89,0,0,1,13,98.52c-.49.25-.83.09-.9-.32a2.2,2.2,0,0,1,.46-1.56c.34-.48.87-.74,1.06-1.08s.06-.74.29-1a2.58,2.58,0,0,1,1.4-.49,4.63,4.63,0,0,1,1.41-.13c.16.07-.17.27-.58.82Zm19.4,48.77a6.51,6.51,0,0,0-1.19-1.81,7,7,0,0,0-1.88-1.4,9,9,0,0,0-1.71-.56c-.59-.18-1.24-.41-1.21-.2a7.26,7.26,0,0,0,1.61,1.61c.84.73,1.77,1.47,2.55,2.08a6.34,6.34,0,0,0,1.72,1.1c.3.05.3-.29.11-.82Zm30.93-19.08c-.92-.5-1.27-1.47-2.07-2.3A12.81,12.81,0,0,0,61.32,120a6.84,6.84,0,0,0-2.77-1,2.78,2.78,0,0,0-2,1.08,5.8,5.8,0,0,0-1.6,2.89A10.59,10.59,0,0,0,55,127a8.21,8.21,0,0,0,.94,2.61c.33.6.65.95.62,1.34s-.39.82-.84,1.65a6.62,6.62,0,0,0-.83,4A14.59,14.59,0,0,0,57,142.38a11.32,11.32,0,0,0,3.39,3.3A41.93,41.93,0,0,0,63.89,148,8.48,8.48,0,0,0,67,149.19a20.29,20.29,0,0,0,2.69-.06,29.78,29.78,0,0,0,3,.15,4.62,4.62,0,0,0,2.47-1.05c.69-.57,1.29-1.29,1.82-1.68s1-.45,1.35-.11a2.55,2.55,0,0,1,.49,1.9,12.4,12.4,0,0,0-.23,2.78c.13,1.06.7,2.25,2.59,3.86a52,52,0,0,0,7.07,4.71c2,1.1,2.73,1.31,3.37,1.72a6.42,6.42,0,0,0,2.32,1.35,11.38,11.38,0,0,0,4.36,0,5.22,5.22,0,0,0,3-1.4,4.69,4.69,0,0,0,.8-2.25c.16-.84.42-1.72.55-2.4a5.58,5.58,0,0,1,.35-1.7,11.94,11.94,0,0,0,1-1.79c.16-.56-.1-1.06-.83-1.27s-1.88-.14-2.89-.43a16.53,16.53,0,0,1-2.94-1.48,32.14,32.14,0,0,0-3.37-1.42,21.05,21.05,0,0,1-2.12-.85c-.36-.2-.3-.3.51-.37a29.88,29.88,0,0,1,3.79,0c1.39.11,2.56.34,3.74.41a6.71,6.71,0,0,0,3.63-.67,8.88,8.88,0,0,0,3.1-2.69c.61-.93.54-1.63-.35-2.11a13.17,13.17,0,0,0-4.22-.91c-1.63-.17-3.19-.24-4.57-.46a10.28,10.28,0,0,1-3.9-1.33,29.69,29.69,0,0,1-4.11-3.17c-1.31-1.15-2.48-2.25-3.79-3.29s-2.78-2-4-2.82-2.3-1.4-3.29-1.9-1.92-.88-2.94-1.31-2.17-.88-3-1.25a8.85,8.85,0,0,0-2.49-.78,11,11,0,0,1-3.39-.73ZM94.2,184.34c-.41-.46-2-1.07-3.08-1.92a15.08,15.08,0,0,1-2.64-3,11,11,0,0,0-2.71-2.51,2.14,2.14,0,0,0-2.27-.18,3.43,3.43,0,0,0-1.31,2.23c-.25,1-.3,2.31-.91,2.73s-1.73,0-3.24-1a49.51,49.51,0,0,0-4.84-3.07c-1.45-.65-2.46-.49-3,.14a5.08,5.08,0,0,0-.66,2.64c-.07.87-.14,1.49-.65,1.76a4.37,4.37,0,0,1-2.5-.07c-1-.22-2-.55-3-.73s-1.81-.18-2.86-.42-2.26-.73-2.94-.2-.79,2.14-.55,3.6a9.87,9.87,0,0,0,1.74,3.93,22.32,22.32,0,0,0,2.89,3.14,15.42,15.42,0,0,0,3.49,2.72,10.37,10.37,0,0,0,3.88,1c1.17.09,2,0,3.1.07a23.87,23.87,0,0,0,3.81-.07,16.35,16.35,0,0,0,4.83-1.42,20.43,20.43,0,0,0,4-2.73c1.31-1,2.75-2.11,3.69-3a14.63,14.63,0,0,1,2.11-1.84,12.47,12.47,0,0,1,2.44-.81c.83-.25,1.58-.57,1.19-1ZM110,182.12a4.48,4.48,0,0,0-1.79,0c-.8.14-1.63.42-2.3.58s-1.19.18-1.71.32a1.92,1.92,0,0,0-1.13.67c-.12.29.11.57.66.61s1.4-.16,2.14-.2,1.36.09,1.88,0a1.24,1.24,0,0,0,1-.45c.09-.19-.12-.37,0-.54a2.89,2.89,0,0,1,.87-.57c.36-.2.64-.41.41-.5Zm76.83-96.55a2.7,2.7,0,0,0-1.27-.59c-.48-.07-1,0-1.44-.12s-.92-.27-.93.16a2.75,2.75,0,0,0,.77,1.75c.41.32.86,0,1.24.16s.75,1,1.09,1.56.67.9.93.57a3.67,3.67,0,0,0,.38-2,2,2,0,0,0-.77-1.47Z"/></clipPath></defs><g id="Capa_2" data-name="Capa 2"><g id="Layer_1" data-name="Layer 1"><path class="cls-2" d="M119.69,66.1A28.13,28.13,0,0,0,115,65a47.47,47.47,0,0,0-5.94-.39,11.74,11.74,0,0,0-3.74.3,4.73,4.73,0,0,0-2.16,1.42,4.88,4.88,0,0,1-2,1.78c-1.17.52-3.21.89-5.55,1.76a40.11,40.11,0,0,0-6.92,3.4,25.43,25.43,0,0,0-4.34,3.37c-1.23,1.11-2.48,2.32-3.74,3.5-.09-1.56-.2-3.11-.25-4.27s0-1.87,0-2.6a36,36,0,0,0-5.6,4.55,45.24,45.24,0,0,0-4.31,5.87c-1.34,2-2.76,4-4,6.11A50.32,50.32,0,0,0,63.34,96a37.71,37.71,0,0,0-1.46,4.51c-.67-2.65-1.34-5.31-2-8s-1.19-5.23-1.72-7.67a64.46,64.46,0,0,0-2-8C55.06,73.61,53.4,69.39,53.91,65s3.24-8.82,4.32-12a9.17,9.17,0,0,0,.25-6.2c-.35-1.23-.49-1.85-1.26-2.43A31.3,31.3,0,0,0,54,42.75a5.27,5.27,0,0,1-2.69-3,19.74,19.74,0,0,1-.94-8.15c.21-3.74,1.1-8.54,3.2-11.5s5.44-4.13,9.15-5a46.67,46.67,0,0,1,11-1.45c3.3.05,5.8.78,7.52,2.42s2.65,4.18,3.29,6.45,1,4.25,2.09,6a15.12,15.12,0,0,0,5,4.71,19.56,19.56,0,0,0,9.11,3,121.66,121.66,0,0,0,14.79,0c4.43-.16,7.25-.16,9.43.41s3.75,1.72,5.86,3.49,4.77,4.18,7.76,6.57a56.1,56.1,0,0,1,9.85,9.11c3.51,4.32,7.21,10.58,10.44,14.63s6,5.94,7.58,9.09,2,7.58,2.13,11.15,0,6.28-1.88,11.85-5.39,14-7.46,20.21-2.71,10.15-5.07,13.57-6.39,6.27-11.32,9.48-10.7,6.73-15.41,8.42a25.79,25.79,0,0,1-11.31,1.24c-2.94-.22-5.19-.41-6.91-.46a14.65,14.65,0,0,0-4.16.35,29.82,29.82,0,0,0-4,1.44,8.89,8.89,0,0,1-6,.65,26.8,26.8,0,0,1-9.64-4.55c-2.5-2-3.28-4.09-5.74-5.58s-6.55-2.38-10-3.9-6.36-3.74-7.55-6.45-.73-5.93-1.72-8.59S57,123.66,55,122.1a34.52,34.52,0,0,0-5.29-3.65,25.25,25.25,0,0,1-6-3.93A14.31,14.31,0,0,1,40,107.7a13,13,0,0,1,.75-6.72,51.24,51.24,0,0,1,2.78-7.46A14.75,14.75,0,0,1,47,88.76c1.31-1.14,2.76-2,3.93-1.58s2.05,2,2.44,3.9a47.94,47.94,0,0,1,.45,5.76A10.07,10.07,0,0,0,55.17,101c.72,1.35,1.77,2.92,2.43,4.09a15.45,15.45,0,0,0,2,3.28c1.08,1.33,3,3.21,4.27,4.75a24.56,24.56,0,0,1,2.44,3.79,8,8,0,0,0,2.84,3,28.67,28.67,0,0,0,6.48,2.84c2.55.81,5.26,1.38,7.76,2.41a37.42,37.42,0,0,1,7,4c2.21,1.51,4.34,3.07,6,4a9.24,9.24,0,0,0,4.48,1.44,25.82,25.82,0,0,0,6-.46c2.34-.43,5-1.1,7.21-1.26s4,.21,5.87.09a18.3,18.3,0,0,0,5.44-1.42,24.16,24.16,0,0,0,4.25-2.27,20.65,20.65,0,0,0,4.78-4,30.54,30.54,0,0,0,4.15-6.61,18.45,18.45,0,0,0,1.77-7.08c.23-3.09.18-7.41.12-11.73a16.59,16.59,0,0,1,2.54,2.42,43.27,43.27,0,0,1,2.62,4c-.51-3.49-1-7-1.47-10.15s-.82-6-1.28-8.1a16.87,16.87,0,0,0-2.09-5.15,75.9,75.9,0,0,0-4.53-7.07c-2-2.77-4.43-5.83-6.88-8.91l4.06.32c-1.45-1.78-2.91-3.55-4.07-5.11a16.14,16.14,0,0,0-3.44-3.86,11.58,11.58,0,0,0-5.74-1.61,27.89,27.89,0,0,0-7.87.65,18.12,18.12,0,0,0-5.44,2.59A44.59,44.59,0,0,1,114,61.08a9.78,9.78,0,0,1,4.32,2.36,5.52,5.52,0,0,1,1.38,2.66Zm30.85,110a17.8,17.8,0,0,1-4.86,1.91,17.36,17.36,0,0,1-6.25.35c-1.63-.3-2.36-1.13-2.39-2.32s.65-2.67.94-4.28.17-3.34,1.41-4.82,3.78-2.73,6.22-3.81,4.79-2,7.14-2.78a35.6,35.6,0,0,1,7.07-2c2.41-.34,4.85-.23,6.15.72s1.47,2.78.64,5a15.26,15.26,0,0,1-5,6.45c-2.34,1.72-5.21,2.6-7.07,3.38a27.63,27.63,0,0,0-4,2.17Zm-80.72,9.58c-2.3-.67-3.24-1.35-3.61-2.78a6.84,6.84,0,0,1,.78-5c.93-1.38,2.6-1.95,4.32-2.55a30.07,30.07,0,0,1,5.14-1.47,6,6,0,0,1,4.21.66A6,6,0,0,1,82.77,178a8.24,8.24,0,0,1,0,4.87,5.44,5.44,0,0,1-4.44,3.65c-2.54.44-6.24-.25-8.56-.92ZM46.52,158c0-1.6,0-3.83.91-5.39a4.65,4.65,0,0,1,4.85-2.09c2,.37,4.22,2,6,3.76a29.69,29.69,0,0,1,4.59,6,34.88,34.88,0,0,1,3.45,7.31,9.06,9.06,0,0,1,.14,6.13,6.72,6.72,0,0,1-4,3.56,7.28,7.28,0,0,1-6.22-.55,18.81,18.81,0,0,1-6.59-6.55A23.31,23.31,0,0,1,47,162.51a20.94,20.94,0,0,1-.45-4.48ZM11.73,116.84c-.57-2-1-3.81-.57-4.93s1.67-1.59,3.49-1.61,4.22.39,6.27.55a29.88,29.88,0,0,1,5,.41,4.53,4.53,0,0,1,2.84,2.64,17.61,17.61,0,0,1,1.61,5.38,14.31,14.31,0,0,1-.3,5.55A18.12,18.12,0,0,1,28,129.7a4.42,4.42,0,0,1-3.17,2.37,7.64,7.64,0,0,1-5.65-1.66,20.26,20.26,0,0,1-4.89-6.75,38.93,38.93,0,0,1-2.53-6.82ZM37.27,78.37a3.52,3.52,0,0,1-2.67,1.3,6.57,6.57,0,0,1-3.7-2,10.8,10.8,0,0,1-3.12-4.59,7.13,7.13,0,0,1,.51-5.8,12.81,12.81,0,0,1,5.18-4.37c2-1,4-1.63,5.19-1s1.54,2.37,1.59,4.27a26.49,26.49,0,0,1-.55,5.65A31.16,31.16,0,0,1,38.59,76a6.51,6.51,0,0,1-1.32,2.4ZM133.81,11a3.22,3.22,0,0,0-2.21,2.29,10.59,10.59,0,0,0-.07,5.92,47.5,47.5,0,0,0,3.11,7.37c1,2.16,1.46,3.72,2.22,5.29a12.3,12.3,0,0,0,3.37,4.47A14.09,14.09,0,0,0,146,38.94a13,13,0,0,0,6.55-.25c2.41-.71,5.11-2.11,6.13-4.13s.34-4.6-1.1-8a50.9,50.9,0,0,0-5.82-10.58,14.44,14.44,0,0,0-6.7-5.1,15.79,15.79,0,0,0-6.43-.74,16.73,16.73,0,0,0-4.77.93ZM201.6,74c-1.4-1.22-3.49-1.68-5.89-1.91a17.68,17.68,0,0,0-6.82.35,4.21,4.21,0,0,0-2.81,3.49,12.48,12.48,0,0,0,.21,5.83A26.34,26.34,0,0,0,188.91,87a19.15,19.15,0,0,0,2.76,4.36,6.82,6.82,0,0,0,4.27,1.91c1.44,0,2.64-.57,4-2a19,19,0,0,0,3.65-5.92,12,12,0,0,0,.5-6.2A8.79,8.79,0,0,0,201.6,74Zm-22.79,45.32a11.51,11.51,0,0,0-3.36,2.23,16,16,0,0,0-3,4.47,31.18,31.18,0,0,0-1.84,5.12,6.64,6.64,0,0,0-.23,3.68,12.49,12.49,0,0,0,1.94,3.88,7,7,0,0,0,2.89,2.56c1.1.4,2.34.3,4.47-1a34,34,0,0,0,7.12-6.25,13.6,13.6,0,0,0,3.42-6.82,5.24,5.24,0,0,0-1.86-4.71,15.37,15.37,0,0,0-4.63-2.48,18.85,18.85,0,0,0-2.87-.91,2.88,2.88,0,0,0-2,.23Zm-45.9-19.66a66,66,0,0,1-2.46,8.18,48.49,48.49,0,0,1-4.45,8.43c-1.84,2.87-4,5.78-6.22,8.7a38.87,38.87,0,0,0,7.87-3,16,16,0,0,0,5.61-5.26,19.38,19.38,0,0,0,2.59-6.66,15.24,15.24,0,0,0,.23-5.8,17.84,17.84,0,0,0-1.77-4.6Zm-10.33-27a53.28,53.28,0,0,1,3.26,5.26,54.82,54.82,0,0,1,3.22,7.76c1.14,3.3,2.33,7.41,3.53,11.52A19,19,0,0,0,134.93,92a16.33,16.33,0,0,0,.1-6.5,22.6,22.6,0,0,0-2.28-7.26,11.2,11.2,0,0,0-4.64-4.77,12.08,12.08,0,0,0-5.53-.87Z"/><path class="cls-3" d="M210.83,75.88c-.75-.82-1.65-1.56-2.57-2.38a25.81,25.81,0,0,0-2.86-2.34,10.59,10.59,0,0,0-3.36-1.4,12.34,12.34,0,0,0-3.33-.28c-.89.07-1.42.27-1.42.78s.53,1.31.41,1.86-.87.83-1.74,1.12a5.46,5.46,0,0,0-2.78,1.52A11,11,0,0,0,191,78.91a8.88,8.88,0,0,0-.25,3.68,6,6,0,0,0,1,2.92c.62.91,1.6,1.74,2.36,2.86a11.19,11.19,0,0,1,1.61,4c.34,1.52.5,3.22.71,4.68s.46,2.69,1.2,2.71,2-1.16,2.89-2.38a27,27,0,0,1,2.36-3.29,29.25,29.25,0,0,1,2.71-1.74,25,25,0,0,0,1.77-2.11c.71-.69,1.77-1.24,2.71-2.14a10.38,10.38,0,0,0,2.27-3.49,10.23,10.23,0,0,0,.76-3.63,5.52,5.52,0,0,0-.58-2.64,9.9,9.9,0,0,0-1.7-2.48ZM176.51,53.34c-.69-.69-1.52-1.7-2.25-2.48s-1.35-1.33-1.35-1.65.62-.44,1.23-.1A7.1,7.1,0,0,1,176,51.25,17.14,17.14,0,0,1,177.57,54c.13.44-.39.07-1.06-.62Zm-34.42-18a7.73,7.73,0,0,0-1.6-1.65A16.41,16.41,0,0,0,138.44,32c-.59-.34-1-.23-1.17.23a2.28,2.28,0,0,0,.49,2,9.86,9.86,0,0,0,2.48,1.92c.94.56,1.83,1.08,2.15.92s.09-1-.3-1.67Zm28.48,9.6a21.06,21.06,0,0,0-2.48-2.85c-.94-.87-1.84-1.36-2.39-1.17s-.69,1.08,0,1.88a11.64,11.64,0,0,0,3.22,2.09A22,22,0,0,0,171,46c.29.05.11-.29-.46-1.07Zm16.27,99.94a7.19,7.19,0,0,1-3.81.64,12.65,12.65,0,0,1-5.07-1.35,4.74,4.74,0,0,1-2.18-3.08,10.32,10.32,0,0,1-.48-4,9.54,9.54,0,0,1,1.44-3.63,21.6,21.6,0,0,1,2-2.8,24.68,24.68,0,0,0,1.74-2.22A23.81,23.81,0,0,1,182,126a8.63,8.63,0,0,1,2.69-2.18,19.1,19.1,0,0,1,3.78-1.49,4.79,4.79,0,0,1,2.76-.1,4.37,4.37,0,0,1,2.32,2.18,21.22,21.22,0,0,1,2.38,5.58,10.52,10.52,0,0,1-.06,5.6,12.7,12.7,0,0,1-2.73,5,15.29,15.29,0,0,1-3.57,2.53,31.56,31.56,0,0,1-2.73,1.79Zm-11.68,9.29c-.19-.25.18-1.08.59-1.92a5.1,5.1,0,0,1,1.22-1.89c.37-.22.69.17.66.85a4.53,4.53,0,0,1-1,2.27c-.56.63-1.29,1-1.47.69Zm-31.83,19.56c-.38.28-1.21.58-1.9,1.09a7.2,7.2,0,0,0-1.68,1.9,11.1,11.1,0,0,1-1.33,1.79,9.73,9.73,0,0,1-1.65,1.08c-.53.32-1,.69-.69,1a5.94,5.94,0,0,0,2.53.88c1.23.29,2.66.54,3.58.86s1.38.67,1.56,1.08.07.85.59,1.17a11.67,11.67,0,0,0,2.6.77c.94.24,1.67.5,2.37.73a6.89,6.89,0,0,0,2.27.44,8.08,8.08,0,0,0,3.42-.88c1.45-.67,3.24-1.83,5.16-2.78s4-1.7,5.15-2.75a5.57,5.57,0,0,0,1.79-3.54,25.06,25.06,0,0,0,.25-3.3,22.13,22.13,0,0,1,.44-3.67,19.67,19.67,0,0,1,1.31-4.05c.61-1.35,1.35-2.62,1.93-3.78s1-2.16.75-2.37-1,.35-2.36,1.22a34.82,34.82,0,0,1-4.71,2.64,6.26,6.26,0,0,1-3.54.48,13,13,0,0,0-3.6-.34,15.92,15.92,0,0,0-3.76,1.37,13.65,13.65,0,0,1-3.26,1,11.93,11.93,0,0,1-2.64.07,3.26,3.26,0,0,0-2.35.54,15.86,15.86,0,0,0-2.48,2.71c-.73.88-1.22,1.43-1.12,2s.82,1.17,1.22,1.59.5.69.15,1Zm-12.23,7.65a9.58,9.58,0,0,1-2,.12c-.83,0-1.79.07-2.51.07s-1.23,0-1.26-.33.42-.76,1.2-1.1a7.63,7.63,0,0,1,2.78-.53,4.28,4.28,0,0,1,2,.4c.43.2.61.45.59.7a.91.91,0,0,1-.73.67ZM62.15,170.55a26.46,26.46,0,0,1-2.62-3.63,37,37,0,0,1-2.52-5c-.83-2-1.77-4.38-2.75-6.65a22.67,22.67,0,0,0-2.88-5.45,2.05,2.05,0,0,0-2.66-.64c-.83.39-1.61,1.15-2.29,1.38a3.35,3.35,0,0,1-1.84-.16c-.58-.12-1.19-.07-1.7-.19s-1-.41-1,.1.45,1.81.59,2.84a3.67,3.67,0,0,1-.5,2.59c-.48.79-1.29,1.62-2,2.56a11.45,11.45,0,0,0-1.56,3.05,18.56,18.56,0,0,0-.6,3.24c-.16,1.26-.39,2.82-.59,3.88a4.06,4.06,0,0,0-.05,2.41,8.44,8.44,0,0,0,1.64,2.39c.55.52.87.5,1.32,1.3a36,36,0,0,1,1.5,3.82,13.62,13.62,0,0,0,1.58,3.44c.65.92,1.58,1.65,2.18,2.5s.87,1.81,1.47,2.62a5.14,5.14,0,0,0,2.55,1.81,6.32,6.32,0,0,0,3.38.19A2.62,2.62,0,0,0,55,187a38.09,38.09,0,0,0,.19-3.81,4.21,4.21,0,0,1,1.33-2.65c.64-.57,1.33-.8,2.25-1.46s2-1.72,3-2.58a7,7,0,0,0,2-2.32,2.69,2.69,0,0,0-.28-2.15,10.41,10.41,0,0,0-1.33-1.49ZM50,102.36a9.72,9.72,0,0,1,.25-2.74c.32-1,1-2,1.42-3.1a7.27,7.27,0,0,0,.26-3.58,7.2,7.2,0,0,0-1.4-3.51,3.12,3.12,0,0,0-2.85-1.12,6,6,0,0,0-3.17,1.78A12.37,12.37,0,0,0,42.36,93c-.53.94-.94,1.72-1.29,2.28s-.59.94-.82.73a11.89,11.89,0,0,1-.74-1.84,5.58,5.58,0,0,0-1.4-2,2.78,2.78,0,0,0-1.58-.43A5.46,5.46,0,0,1,35,91.36a4,4,0,0,0-1.43-.57A1.74,1.74,0,0,0,32,91.87a19.54,19.54,0,0,0-1.47,3.9,33,33,0,0,0-1.19,5,18.81,18.81,0,0,0,0,4.68,29.32,29.32,0,0,0,.85,4.68,11.64,11.64,0,0,0,2.09,4.27,12.28,12.28,0,0,0,3.62,2.94c1,.46,1.47.23,2.07.58a7.59,7.59,0,0,1,2,2.18c.57.89,1,1.72.74,2s-1,.11-1.38.3-.34.8-.32,1.77A11.62,11.62,0,0,0,39.4,128a15.43,15.43,0,0,0,2.34,4.17,11.5,11.5,0,0,0,2.48,2.5A7.41,7.41,0,0,0,46.91,136a1.69,1.69,0,0,0,2-.72A4.68,4.68,0,0,0,49,132.3a7.6,7.6,0,0,0-1.23-2.72,22.63,22.63,0,0,0-1.66-2.11c-.46-.55-.75-.94-.62-1.08s.67-.06,1.29,0a2.32,2.32,0,0,0,1.7-.3,1.47,1.47,0,0,0,.13-1.6c-.25-.55-.8-.94-.77-1.06s.66,0,1.3.21a7.86,7.86,0,0,0,1.86.59,1.67,1.67,0,0,0,1.52-.7,2.65,2.65,0,0,0,.2-1.87,7.12,7.12,0,0,0-.62-1.74c-.22-.43-.34-.66-.09-.9a9.25,9.25,0,0,0,1.31-1,2.86,2.86,0,0,0,.57-2.25,21,21,0,0,0-.89-2.53c-.2-.66,0-1,.21-1.19s.59-.35.69-.9a4.13,4.13,0,0,0-.32-2.16,2.78,2.78,0,0,0-1.34-1.23,6.82,6.82,0,0,1-1.84-1.43,2.93,2.93,0,0,1-.59-1.9c0-.64.12-1.24.16-2ZM17.86,91c.21-.35.48-.83.74-1.32a9.75,9.75,0,0,0,.67-1.46c.16-.42.24-.78.13-.78a5.72,5.72,0,0,0-.8.75,6,6,0,0,0-1.08,1.24,3,3,0,0,0-.23,1.38c0,.42,0,.73.11.76s.24-.21.46-.57Zm8.91,44.12c-.67-1.15-1.68-3.08-2.25-4.22s-.67-1.5-.57-2.11a16.66,16.66,0,0,1,.89-2.6,13.7,13.7,0,0,0,1.2-4.36,11.38,11.38,0,0,0-.95-5,9,9,0,0,0-2.34-3.25A4.47,4.47,0,0,0,20,112.41a31.23,31.23,0,0,0-3.23.23,4,4,0,0,1-2-.44,7.34,7.34,0,0,1-1.79-1,5.93,5.93,0,0,1-1.28-1.84c-.39-.78-.79-1.74-1.17-2.4s-.67-1-1.08-.9a3,3,0,0,0-1.41,1.33,5.22,5.22,0,0,0-.94,2.44,17.85,17.85,0,0,1,0,2.4,2.51,2.51,0,0,1-1.52,1.45,8,8,0,0,0-2.5,1.58,11.73,11.73,0,0,0-2.62,4.11,8.88,8.88,0,0,0-.28,5.26,20.57,20.57,0,0,0,2.78,6.11,17.68,17.68,0,0,0,4.09,4.68,4.17,4.17,0,0,0,3.45.79,24.58,24.58,0,0,0,3.12-1,10.45,10.45,0,0,1,2.82-.55c.83,0,1.58.05,2.16,0a5.49,5.49,0,0,1,1.72-.28,24.59,24.59,0,0,1,2.69.87c1,.28,2.07.42,2.92.69a12.3,12.3,0,0,1,1.62.73c.14,0-.2-.34-.87-1.49Zm107-116.43a23.33,23.33,0,0,0-1.08-4,7.24,7.24,0,0,0-2.59-2.95,18.08,18.08,0,0,0-4-2c-1.26-.44-2.25-.6-1.81-.69s2.32-.12,3.94-.3a14.79,14.79,0,0,0,4-1,7.53,7.53,0,0,0,2.5-1.66c.66-.66,1.21-1.44,1.91-2.24a10.71,10.71,0,0,1,3-2.3,14.25,14.25,0,0,1,4.82-1.5,9.42,9.42,0,0,1,4.91.62,19.23,19.23,0,0,1,4.46,2.74,15.12,15.12,0,0,1,2.95,3.12,20.52,20.52,0,0,1,2.74,5,15.09,15.09,0,0,1,.8,5.83,47.92,47.92,0,0,1-.89,5.46,17.63,17.63,0,0,0-.26,4.62,28.53,28.53,0,0,0,.78,4.57c.32,1.24.63,2,.21,1.91a21.1,21.1,0,0,1-2.82-1.7A7.54,7.54,0,0,0,153.83,31a11.35,11.35,0,0,0-2.76.75,3.85,3.85,0,0,1-2.82-.45,6.46,6.46,0,0,1-2-2.32,15.08,15.08,0,0,0-.95-1.73A6.78,6.78,0,0,0,144,26.11c-.5-.39-1-.83-1.44-.64s-.88,1-1.47,1.46a1.91,1.91,0,0,1-2.21.14,8.64,8.64,0,0,1-2.36-2.47,17.41,17.41,0,0,1-1.66-2.76,14.82,14.82,0,0,1-1.1-3.13ZM38.62,49a2.63,2.63,0,0,1,1.17-.78c.5-.11,1.13,0,1.63-.5a4.52,4.52,0,0,0,.9-2.66A14.82,14.82,0,0,0,42.06,42c-.14-.92-.2-1.71-.3-2.63a15.47,15.47,0,0,0-.59-2.77,5.7,5.7,0,0,0-1.08-2A1.49,1.49,0,0,0,38.28,34a8.85,8.85,0,0,0-2.55,2.08,6.28,6.28,0,0,0-1.45,2.48,11.79,11.79,0,0,0-.6,4,12.42,12.42,0,0,0,1,4A7.1,7.1,0,0,0,36.05,49a2,2,0,0,0,1.46.69A2.18,2.18,0,0,0,38.62,49ZM20.9,83.09a16.27,16.27,0,0,0,1.32-3.9,3,3,0,0,0-.34-2.62,10.34,10.34,0,0,0-2.06-1.3,6.39,6.39,0,0,1-2-2.19,7.44,7.44,0,0,1-1.1-3.44,10.22,10.22,0,0,1,.77-3.86,10.69,10.69,0,0,1,1.75-3.07c.74-.88,1.68-1.66,2.28-2.32A7.73,7.73,0,0,1,23,58.82a4.07,4.07,0,0,1,2.18-.52,1.68,1.68,0,0,1,1.43.8,9.45,9.45,0,0,0,.93,1.56,1.46,1.46,0,0,0,1.43.14c.53-.14,1-.37,1.63-.57a2.77,2.77,0,0,1,1.83-.12,1.71,1.71,0,0,1,.88,1.61,10.19,10.19,0,0,1-.44,2.71,16.93,16.93,0,0,0-.46,2.73c-.07.9,0,1.81,0,2.57a2.38,2.38,0,0,1-.69,1.93c-.58.57-1.72,1.12-2.43,1.77A4.5,4.5,0,0,0,28,75.75a10.23,10.23,0,0,1-1,2.78,15,15,0,0,1-2.29,2.61,17.69,17.69,0,0,1-2.12,2,10.46,10.46,0,0,1-2.31,1.29c-.33.11.11-.28.62-1.29ZM71,35.48a52.24,52.24,0,0,1,5.9-3.68,44.7,44.7,0,0,1,5.86-2.29,16.16,16.16,0,0,0,4.11-2.07,17.7,17.7,0,0,0,3.64-3.31A22.87,22.87,0,0,1,93,20.94,14.72,14.72,0,0,1,96.7,19a35.3,35.3,0,0,0,3.45-1.72c.69-.4.69-.49-.57-.69s-3.79-.49-5.58-.92a11.15,11.15,0,0,1-4.59-2.32,66.06,66.06,0,0,0-7-5,26.64,26.64,0,0,0-7.76-3,11,11,0,0,0-5.33.12,18.72,18.72,0,0,0-5.83,2.66,67.26,67.26,0,0,0-7.12,5.61c-1.91,1.7-2.87,2.75-4.09,3.28s-2.71.57-3.72,1.35a6.13,6.13,0,0,0-1.74,3.93,21.89,21.89,0,0,0-.09,4.22,10,10,0,0,1-.09,2.62,11.17,11.17,0,0,0-.44,3.22,14.44,14.44,0,0,0,1.22,4.24c.59,1.36,1.21,2.6,1.65,3.72s.71,2.18,1.56,2.62A5.34,5.34,0,0,0,54.11,43c1.13-.36,1.94-.91,1.75-1.67s-1.35-1.72-1.93-2.8A3.46,3.46,0,0,1,54,35a13.4,13.4,0,0,1,3.3-3.43c1.17-.92,2.11-1.51,2.44-1.38s.08.92.06,1.59a1.68,1.68,0,0,0,.87,1.59c.63.36,1.68.55,2,.93s.06,1,.07,1.5a1.69,1.69,0,0,0,1,1.38,4.36,4.36,0,0,0,2.32.41A7.23,7.23,0,0,0,68.46,37,12.6,12.6,0,0,0,71,35.48Zm44,114.13c-.23.23-1.06.23-2.23.11a14.29,14.29,0,0,0-4.11-.14,4.14,4.14,0,0,0-3,2,2.62,2.62,0,0,0,.69,2.79c.73.83,1.81,1.45,2.39,2.17s.75,1.53,1.61,2.18a12.77,12.77,0,0,0,4.08,1.62,28.89,28.89,0,0,0,5.08.95,18.46,18.46,0,0,0,6.29-.33,21.64,21.64,0,0,0,5.88-2.87,38.67,38.67,0,0,0,5.64-4.1c1.77-1.63,3.36-3.61,4.62-4.66a6.75,6.75,0,0,1,3.51-1.43,18.54,18.54,0,0,0,5.05-2,32.81,32.81,0,0,0,6.45-4.8,15.17,15.17,0,0,0,3.77-5.35,9.88,9.88,0,0,0,.6-4.5c-.1-1.22-.35-2.05-.39-2.6s.18-.85.77-1.28a6.46,6.46,0,0,0,1.93-1.72c.44-.74.35-1.72,1.24-2.74s2.73-2.17,4-3.88a16,16,0,0,0,2.3-6.45,36.47,36.47,0,0,0,.6-6.72,9.94,9.94,0,0,0-.73-3.75,5.34,5.34,0,0,0-1.11-1.81,3.73,3.73,0,0,0-1.7-1.1c-.69-.21-1.56-.21-1.93-.57s-.29-1.09-.29-1.86-.16-1.52-.12-2.05.21-.78.69-.74a8.48,8.48,0,0,1,2.07.63,3.15,3.15,0,0,0,2.5.2,5.67,5.67,0,0,0,2.38-2.75,10.23,10.23,0,0,0,1-4.21,7.81,7.81,0,0,0-1.14-3.23c-.6-1.2-1.27-2.78-1.68-3.7s-.53-1.14-.28-1.54a9,9,0,0,0,1.31-2.11,30,30,0,0,0,.94-4.32,23.66,23.66,0,0,0,.55-4.31,14.5,14.5,0,0,0-.71-3.79,8.41,8.41,0,0,0-1.14-2.71,5.74,5.74,0,0,0-2.21-1.67,9.88,9.88,0,0,0-2.85-.94c-.8-.08-1.26.11-1.69,0s-.83-.56-1.52-1.52-1.68-2.41-2.37-3.33-1.12-1.36-1.76-1.58a4.65,4.65,0,0,0-2.27-.1,16.6,16.6,0,0,0-2,.65c-.5.16-.83.14-1.33-.48a34.63,34.63,0,0,1-1.91-3.24,16.09,16.09,0,0,0-3.14-4.18,9,9,0,0,0-4-1.81,8.72,8.72,0,0,0-2.46-.17c-.5.05-.75.09-1-.27s-.55-1.15-.94-1.93a8.56,8.56,0,0,0-1.7-2.37A25.38,25.38,0,0,0,136,36.72c-1.2-.83-2.48-1.66-3.7-2.58s-2.35-1.9-3.59-2.82a21.14,21.14,0,0,0-4-2.34,17.64,17.64,0,0,0-4.11-1.13c-1.17-.16-2-.14-3-.25a13,13,0,0,0-3.49-.21,13.19,13.19,0,0,0-3.72,1.27,8.54,8.54,0,0,1-3,1c-1,.06-2.25-.23-3.4-.16a8.4,8.4,0,0,0-3.34,1.05,17.23,17.23,0,0,1-3,1.52A4.7,4.7,0,0,1,95,31.67c-1.18-.32-2.94-.69-4.53-.94a14.11,14.11,0,0,0-4.87-.12A14.4,14.4,0,0,0,80,32.84,13.12,13.12,0,0,0,76.34,37a19.93,19.93,0,0,0-1.77,4.09,21.18,21.18,0,0,0-.91,3.81c-.12,1.08,0,1.86-.35,2.08s-1-.13-1.75-.52A6.33,6.33,0,0,0,68,45.67a31.62,31.62,0,0,0-6.88,1.24A10.88,10.88,0,0,0,56.89,49a9.72,9.72,0,0,0-2.47,3.52c-.76,1.69-1.55,4-2.12,5.69a21.36,21.36,0,0,0-1,3.58c-.13.92-.07,1.79-.27,2.87a23.88,23.88,0,0,0-.69,4.18A25.54,25.54,0,0,0,51,74.73a37.24,37.24,0,0,0,1.26,4c.39,1.15.71,2.3,1.08,3.38A10.64,10.64,0,0,0,55,85.27a11,11,0,0,0,3,2.57,3.48,3.48,0,0,0,2.55.62c.49-.23.49-.91.81-1.81s.94-2.07,1.51-3.51a44,44,0,0,0,1.57-5.07c.48-1.87.93-3.88,1.35-5.08s.8-1.58,1.52-1.54,1.81.51,2.79.58a2.65,2.65,0,0,0,2.23-.72c.35-.5.19-1.17.44-1.76a6,6,0,0,1,1.61-1.72,11,11,0,0,0,2-2.26c.53-.85.82-1.78,1.17-2.29s.73-.66,1.15-.14.91,1.65,1.67,2.76A7.66,7.66,0,0,0,83,68.38c.72.32,1.11-.12,1.52-1.1a40.8,40.8,0,0,0,1.28-4.07,12.15,12.15,0,0,1,1.87-4.52c.94-1.08,2.32-1.45,4.57-2.25a73.74,73.74,0,0,0,7.27-3c1.88-1,2.5-1.67,3.49-1.76A10.84,10.84,0,0,1,107.15,53,34.64,34.64,0,0,0,112.68,55a2.82,2.82,0,0,0,3-.76,4.38,4.38,0,0,0,1.22-2.74,3.94,3.94,0,0,0-1.41-2.7c-.87-.88-2.08-1.77-2.73-2.35s-.75-.87-.29-1.15a4.38,4.38,0,0,1,2.59-.45,23.15,23.15,0,0,1,4.25,1.46,54.94,54.94,0,0,0,7,2.14,7.42,7.42,0,0,0,2.84.05,1.93,1.93,0,0,1,1.63.89,2.39,2.39,0,0,1-.06,2.19,14.52,14.52,0,0,0-1.29,2.52,4.17,4.17,0,0,0,.9,3.3,14.83,14.83,0,0,0,3.46,3,9.42,9.42,0,0,1,2.9,2.31,40.67,40.67,0,0,1,3.09,5,31.8,31.8,0,0,0,2.48,4,16.82,16.82,0,0,1,2.16,3,21.77,21.77,0,0,1,1.43,4.73,16.68,16.68,0,0,0,1,3.68,2.43,2.43,0,0,0,1.7,1.45c.58.07,1.08-.26,1.41-.17s.48.56.75,1.86.62,3.36.87,4.62a24,24,0,0,1,.49,2.94c.14,1.28.27,3.4.36,5.21a24.12,24.12,0,0,0,.32,4.16c.21.85.63,1.1.76,1.63a7.11,7.11,0,0,1-.39,2.89c-.39,1.53-1,3.74-1.33,5.32s-.41,2.57-.62,3.58-.55,2.07-.64,2.65.07.69-.3,1.05-1.24.9-2.13,1.73-1.77,1.94-2.53,2.73a6,6,0,0,0-1.63,2,2.14,2.14,0,0,0,.66,2.36,7.55,7.55,0,0,0,3.59,1,34.75,34.75,0,0,1,3.85.39c1,.23,1.52.68,1.22,1.33a11,11,0,0,1-2.6,2.45,19.67,19.67,0,0,1-3.46,2.37,11.82,11.82,0,0,1-3.81,1c-1.08.09-1.77,0-1.88-.46s.39-1.17.71-1.93a3.67,3.67,0,0,0,.29-2.3,4.77,4.77,0,0,0-1.55-2,5.51,5.51,0,0,0-2.39-1.36c-.69-.07-1.13.46-1.43,1.25s-.5,1.86-.76,2.66a3.76,3.76,0,0,1-1.33,1.95,21.78,21.78,0,0,1-3.51,2.06c-1.67.85-3.88,1.91-5.9,2.78a41.55,41.55,0,0,1-5.21,2c-1.4.4-2.41.55-3.26.85a6.92,6.92,0,0,0-2.16,1.27,5,5,0,0,0-1.51,1.65,1.86,1.86,0,0,0,0,1.65c.22.4.61.56,1,.87s.78.79.56,1ZM156.49,84c.19.77.41,1.51.51,2s.11.7.46.88,1.08.3,1.69.52a4.76,4.76,0,0,1,1.49.86c.35.32.56.64.81.87a3.68,3.68,0,0,0,.89.53,2.16,2.16,0,0,0-.2-1,9.22,9.22,0,0,1-.76-1.39,6.81,6.81,0,0,1-.28-2.09,8.59,8.59,0,0,1,.16-1.64,7.13,7.13,0,0,1-1.51.88,2.76,2.76,0,0,1-1.58.2,6.58,6.58,0,0,1-1.68-.61Zm.28-27.6a9,9,0,0,1,1.49,2.46,17.49,17.49,0,0,1,.73,3.26c.1.8.09,1,.35,1.24a6.12,6.12,0,0,0,1.4.84,13.21,13.21,0,0,1,1.61.69,5.27,5.27,0,0,1,1.44,1.2,14.11,14.11,0,0,1,1.45,2c.41.67.71,1.37.87,1.6s.23,0,.27-.57a6.69,6.69,0,0,0-.23-2.46,5.75,5.75,0,0,0-1.48-2.15,8.59,8.59,0,0,1-1.29-1.24,12.94,12.94,0,0,1-.87-2c-.32-.78-.76-1.65-1.11-2.41a17.07,17.07,0,0,0-.89-1.81,2.46,2.46,0,0,0-.9-.78,2.27,2.27,0,0,0-1.21-.5,4.64,4.64,0,0,0-1.63.64ZM141.39,49a1.86,1.86,0,0,1-.56,1.09,2.38,2.38,0,0,1-1,.48c-.26.07-.39.09-.49.13.92.49,1.84,1,2.51,1.4s1.08.7,1.6,1a12.7,12.7,0,0,1,1.68,1.33A23.57,23.57,0,0,1,147,56.67a11.87,11.87,0,0,0-1.27-2.39A13.29,13.29,0,0,0,144,52.56a2.88,2.88,0,0,1-.88-1.17c-.18-.44-.29-1-.57-1.61a12.09,12.09,0,0,0-1.26-1.84,2.31,2.31,0,0,1,.12,1ZM16.14,94.73c-.39.53-.87,1.38-1.42,2.14A5.89,5.89,0,0,1,13,98.52c-.49.25-.83.09-.9-.32a2.2,2.2,0,0,1,.46-1.56c.34-.48.87-.74,1.06-1.08s.06-.74.29-1a2.58,2.58,0,0,1,1.4-.49,4.63,4.63,0,0,1,1.41-.13c.16.07-.17.27-.58.82Zm19.4,48.77a6.51,6.51,0,0,0-1.19-1.81,7,7,0,0,0-1.88-1.4,9,9,0,0,0-1.71-.56c-.59-.18-1.24-.41-1.21-.2a7.26,7.26,0,0,0,1.61,1.61c.84.73,1.77,1.47,2.55,2.08a6.34,6.34,0,0,0,1.72,1.1c.3.05.3-.29.11-.82Zm30.93-19.08c-.92-.5-1.27-1.47-2.07-2.3A12.81,12.81,0,0,0,61.32,120a6.84,6.84,0,0,0-2.77-1,2.78,2.78,0,0,0-2,1.08,5.8,5.8,0,0,0-1.6,2.89A10.59,10.59,0,0,0,55,127a8.21,8.21,0,0,0,.94,2.61c.33.6.65.95.62,1.34s-.39.82-.84,1.65a6.62,6.62,0,0,0-.83,4A14.59,14.59,0,0,0,57,142.38a11.32,11.32,0,0,0,3.39,3.3A41.93,41.93,0,0,0,63.89,148,8.48,8.48,0,0,0,67,149.19a20.29,20.29,0,0,0,2.69-.06,29.78,29.78,0,0,0,3,.15,4.62,4.62,0,0,0,2.47-1.05c.69-.57,1.29-1.29,1.82-1.68s1-.45,1.35-.11a2.55,2.55,0,0,1,.49,1.9,12.4,12.4,0,0,0-.23,2.78c.13,1.06.7,2.25,2.59,3.86a52,52,0,0,0,7.07,4.71c2,1.1,2.73,1.31,3.37,1.72a6.42,6.42,0,0,0,2.32,1.35,11.38,11.38,0,0,0,4.36,0,5.22,5.22,0,0,0,3-1.4,4.69,4.69,0,0,0,.8-2.25c.16-.84.42-1.72.55-2.4a5.58,5.58,0,0,1,.35-1.7,11.94,11.94,0,0,0,1-1.79c.16-.56-.1-1.06-.83-1.27s-1.88-.14-2.89-.43a16.53,16.53,0,0,1-2.94-1.48,32.14,32.14,0,0,0-3.37-1.42,21.05,21.05,0,0,1-2.12-.85c-.36-.2-.3-.3.51-.37a29.88,29.88,0,0,1,3.79,0c1.39.11,2.56.34,3.74.41a6.71,6.71,0,0,0,3.63-.67,8.88,8.88,0,0,0,3.1-2.69c.61-.93.54-1.63-.35-2.11a13.17,13.17,0,0,0-4.22-.91c-1.63-.17-3.19-.24-4.57-.46a10.28,10.28,0,0,1-3.9-1.33,29.69,29.69,0,0,1-4.11-3.17c-1.31-1.15-2.48-2.25-3.79-3.29s-2.78-2-4-2.82-2.3-1.4-3.29-1.9-1.92-.88-2.94-1.31-2.17-.88-3-1.25a8.85,8.85,0,0,0-2.49-.78,11,11,0,0,1-3.39-.73ZM94.2,184.34c-.41-.46-2-1.07-3.08-1.92a15.08,15.08,0,0,1-2.64-3,11,11,0,0,0-2.71-2.51,2.14,2.14,0,0,0-2.27-.18,3.43,3.43,0,0,0-1.31,2.23c-.25,1-.3,2.31-.91,2.73s-1.73,0-3.24-1a49.51,49.51,0,0,0-4.84-3.07c-1.45-.65-2.46-.49-3,.14a5.08,5.08,0,0,0-.66,2.64c-.07.87-.14,1.49-.65,1.76a4.37,4.37,0,0,1-2.5-.07c-1-.22-2-.55-3-.73s-1.81-.18-2.86-.42-2.26-.73-2.94-.2-.79,2.14-.55,3.6a9.87,9.87,0,0,0,1.74,3.93,22.32,22.32,0,0,0,2.89,3.14,15.42,15.42,0,0,0,3.49,2.72,10.37,10.37,0,0,0,3.88,1c1.17.09,2,0,3.1.07a23.87,23.87,0,0,0,3.81-.07,16.35,16.35,0,0,0,4.83-1.42,20.43,20.43,0,0,0,4-2.73c1.31-1,2.75-2.11,3.69-3a14.63,14.63,0,0,1,2.11-1.84,12.47,12.47,0,0,1,2.44-.81c.83-.25,1.58-.57,1.19-1ZM110,182.12a4.48,4.48,0,0,0-1.79,0c-.8.14-1.63.42-2.3.58s-1.19.18-1.71.32a1.92,1.92,0,0,0-1.13.67c-.12.29.11.57.66.61s1.4-.16,2.14-.2,1.36.09,1.88,0a1.24,1.24,0,0,0,1-.45c.09-.19-.12-.37,0-.54a2.89,2.89,0,0,1,.87-.57c.36-.2.64-.41.41-.5Zm76.83-96.55a2.7,2.7,0,0,0-1.27-.59c-.48-.07-1,0-1.44-.12s-.92-.27-.93.16a2.75,2.75,0,0,0,.77,1.75c.41.32.86,0,1.24.16s.75,1,1.09,1.56.67.9.93.57a3.67,3.67,0,0,0,.38-2,2,2,0,0,0-.77-1.47Z"/><g class="cls-4"><path class="cls-5" d="M200.76,81.85c-.24-1.44-.35-2.91-.53-4.2s-.44-2.39,0-3.05a2.68,2.68,0,0,1,2.63-.73,4.59,4.59,0,0,1,2.88,1.76,10.72,10.72,0,0,1,1.88,4.11,20.7,20.7,0,0,1,.6,5.07,7.69,7.69,0,0,1-.85,4,2.46,2.46,0,0,1-2.3,1.38c-.69-.2-1.08-1.14-1.58-1.93a26.43,26.43,0,0,1-1.57-2.52,15.14,15.14,0,0,1-1.14-3.84Zm-130-53.26c-2.27,1.17-4.09,2.16-5.47,2.85s-2.36,1.08-3,.89A2.14,2.14,0,0,1,61,30.63c-.18-.73-.13-1.4-.53-1.86s-1.26-.69-1.58-1.24a3,3,0,0,1,.19-2.34c.31-.92.73-1.91,1.28-3.3A13.46,13.46,0,0,1,63,17.27a15.92,15.92,0,0,1,5.7-3.44A11.88,11.88,0,0,1,74.21,13a5.36,5.36,0,0,1,3.46,1.71A2.19,2.19,0,0,1,77.9,17c-.28.77-.78,1.46-.3,1.88s2,.55,2.89.85,1.34.82.92,1.67a11,11,0,0,1-3.71,3.33c-2,1.29-4.69,2.67-7,3.86Zm5.74,27.23a15.6,15.6,0,0,0-2.21-4.91A3.28,3.28,0,0,0,70.58,50c-1.42.37-3,1.19-4.07,1.59a14.65,14.65,0,0,0-2.66,1,7.92,7.92,0,0,0-2.91,3.64,36.32,36.32,0,0,0-1.94,7c-.38,2-.45,3.13-.66,4.37a19.37,19.37,0,0,0-.5,3.69,2.4,2.4,0,0,0,1.26,2.25,3.41,3.41,0,0,0,3-.52,13.8,13.8,0,0,0,3.3-3.2c1.09-1.4,2.23-3,3.7-4.77a59.65,59.65,0,0,1,4.69-4.78C75.1,59,76,58.37,76.41,57.91s.46-.76.07-2.09ZM30.26,67.34a10.8,10.8,0,0,0,.53-3c0-.85-.19-1.38-.73-1.63a4.64,4.64,0,0,0-2.16-.13,11.37,11.37,0,0,0-2.53.48,5.67,5.67,0,0,0-2.85,1.79,7.86,7.86,0,0,0-1.38,3.81,6.94,6.94,0,0,0,.42,3.58,13,13,0,0,0,1.75,2.55c.54.66.8,1.13,1.35,1.08a3.69,3.69,0,0,0,2.2-1.56,19.25,19.25,0,0,0,2.07-3.59,24.44,24.44,0,0,0,1.33-3.35Zm61.1-14.18a9.34,9.34,0,0,0-3.68,2.34c-1.37,1.35-2.85,3.49-4.16,4.66s-2.47,1.38-3.41,1.08a3,3,0,0,1-2-2.48,11.43,11.43,0,0,1,.31-4.85A9,9,0,0,1,80.66,50a15.15,15.15,0,0,1,4.11-3.12A22.44,22.44,0,0,1,90,45.05c1.87-.44,3.84-.78,5.49-1s2.94-.44,4.2-.56,2.5-.21,3.59-.21a5.36,5.36,0,0,1,2.7.4,1.72,1.72,0,0,1,.62,1.86,4.86,4.86,0,0,1-1.3,2.36,7.34,7.34,0,0,1-2.65,1.75c-1.08.45-2.4.8-3.79,1.23s-2.93.93-4.19,1.32-2.23.61-3.33,1ZM146.53,19c-.9-1-2-2.16-3-3.31a37.36,37.36,0,0,1-2.5-3.24c-.63-.94-1-1.65-.72-2.36A4.13,4.13,0,0,1,143,8.22a9.86,9.86,0,0,1,4.32-.2,6.49,6.49,0,0,1,3.37,1.72,12.11,12.11,0,0,1,2.66,3.83,17.24,17.24,0,0,1,1.41,5.26,18.52,18.52,0,0,1-.16,4.45c-.14,1.08-.24,1.63-.69,1.91a2.1,2.1,0,0,1-2.16-.32A13.68,13.68,0,0,1,149,22.05c-.86-1.08-1.55-2-2.47-3.08Zm-5.67,46.21a10.37,10.37,0,0,1-2.35-3.41,6.37,6.37,0,0,1-.32-4.11c.39-1,1.27-1.41,2.69-1.22a14.86,14.86,0,0,1,4.68,1.74c1.31.76,2,1.52,2.85,2a7.78,7.78,0,0,0,2.73.66,5.32,5.32,0,0,1,2.36.6,24.34,24.34,0,0,1,3.5,2.52,17.84,17.84,0,0,1,3.58,3.63,13.07,13.07,0,0,1,1.9,4.75,14.78,14.78,0,0,1,.23,5.33,10.3,10.3,0,0,1-1.81,4.31,4.19,4.19,0,0,1-2.66,1.84,9.27,9.27,0,0,1-3-.23,8.76,8.76,0,0,0-2-.14,4.69,4.69,0,0,1-1.85-.15c-.72-.24-1.64-.83-2.69-2.74s-2.21-5.17-3.19-7.66A31.84,31.84,0,0,0,143,67.57a13.09,13.09,0,0,0-2.13-2.39Zm-92.51,39.5c-.64-1.57-1.08-3-1.51-4.25a5.2,5.2,0,0,0-1.56-2.62,2.63,2.63,0,0,0-2.76-.07,10,10,0,0,0-3.08,3.13,9.18,9.18,0,0,0-2,5.67A23.08,23.08,0,0,0,39.54,115a17.5,17.5,0,0,0,3.37,5.07,4.71,4.71,0,0,0,2.57,1.58,11.79,11.79,0,0,0,3.31.24,1.72,1.72,0,0,0,1.7-1.08,12,12,0,0,0,.53-2.74,9,9,0,0,0,.11-2.59c-.11-.94-.44-2.09-.57-3.12a17.48,17.48,0,0,0-.37-3.22c-.37-1.28-1.2-2.91-1.84-4.47Zm-30.17,13a9.14,9.14,0,0,0-3.51-2.94,8.61,8.61,0,0,0-4.82-1c-1.31.28-1.91,1.44-2.06,3a19,19,0,0,0,.59,5.44,17.79,17.79,0,0,0,1.91,5.36,7.44,7.44,0,0,0,3.24,3,2.42,2.42,0,0,0,2.47-.34,13.41,13.41,0,0,0,2.11-1.84,15.36,15.36,0,0,0,2-2.35,4.32,4.32,0,0,0,.76-3.55,14.2,14.2,0,0,0-2.65-4.73Zm53.93,11.22a25.13,25.13,0,0,0-3.8-2.48,6.83,6.83,0,0,0-3.75-.68c-.87.2-1,.92-1.4,1.62a10.83,10.83,0,0,0-1.42,2.37,4.73,4.73,0,0,0,.55,4,18.68,18.68,0,0,0,4.36,4.46,17.31,17.31,0,0,0,4.43,2.7,3.35,3.35,0,0,0,2.94-.15c.81-.44,1.52-1.25,2.41-1.75s2-.73,2.82-1.19a1.88,1.88,0,0,0,1.11-2.11c-.25-.88-1.27-2-2.9-3.15s-3.8-2.53-5.35-3.61Zm-18,35.2c-1.26-1.4-2.2-2.62-3.58-4s-3.21-2.8-4.22-2.94-1.17,1-1,2.39a33.56,33.56,0,0,1,.49,4.29,14.69,14.69,0,0,1-1.24,4,14.19,14.19,0,0,0-1,5.19,7.84,7.84,0,0,0,1.65,4.52,7.23,7.23,0,0,0,3.63,2.6,4.89,4.89,0,0,0,4.38-.55c1.18-.95,1.84-2.8,2.67-3.88a10.32,10.32,0,0,1,2.57-1.93,2.57,2.57,0,0,0,1-2.2A6,6,0,0,0,58,168.39c-1-1.31-2.59-2.9-3.84-4.32Zm17.54,19.22c-1.23,0-2.79-.18-4-.19s-2,.12-2.16.72a3.41,3.41,0,0,0,1.38,2.64A13.44,13.44,0,0,0,71,188.93a11.27,11.27,0,0,0,4.61.92,10.09,10.09,0,0,0,4.81-1.28,5.07,5.07,0,0,0,2.4-3.08,2.44,2.44,0,0,0-.91-2.39,3.76,3.76,0,0,0-2.64-.53c-1.24.05-2.94.26-4.21.42a22.56,22.56,0,0,1-3.4.3Zm65.14-43.95a10.28,10.28,0,0,0-.57-1.7c-.25-.46-.57-.62-1.24-.2a31.12,31.12,0,0,1-4.32,2.71c-2.61,1.3-6.77,2.91-9.57,4a41,41,0,0,0-5,2,1.66,1.66,0,0,0-.92,1.63,4.59,4.59,0,0,0,.64,2.25c.44.67,1.15,1.13,1.28,1.52s-.36.71-1,1.07-1.4.74-1.34,1.34.94,1.46,2.07,2.18a9.77,9.77,0,0,0,4.09,1.56,11.15,11.15,0,0,0,5.51-.81,21.83,21.83,0,0,0,6.4-3.95,22.45,22.45,0,0,0,4.09-5.2,9.45,9.45,0,0,0,1.45-3.38,4.52,4.52,0,0,0-.35-2.25c-.27-.65-.59-1.22-.78-1.63a5.24,5.24,0,0,1-.46-1.13Zm22.41,35.45a10.92,10.92,0,0,0,2.07-4.41,2.07,2.07,0,0,0-1.15-2.29,10.76,10.76,0,0,0-2.35-.16,5.18,5.18,0,0,0-2.5-.26,11.2,11.2,0,0,0-3.78,2.49c-1.43,1.26-3,2.77-4.16,3.88A10.45,10.45,0,0,0,145,176.6a5.09,5.09,0,0,0-.31,2.21c0,.71-.23,1.33-.19,1.9a1.29,1.29,0,0,0,1.12,1.25,8.62,8.62,0,0,0,3.88-.28,16.68,16.68,0,0,0,5.52-2.37,17.34,17.34,0,0,0,4.22-4.52Zm30.37-42.11a28.94,28.94,0,0,0-.09-4.42,5,5,0,0,0-1.19-2.71,1.64,1.64,0,0,0-1.77-.53,3.84,3.84,0,0,0-2.09,1.86c-.59,1-1,2.52-1.53,3.78a22.68,22.68,0,0,1-2.1,3.38,15.86,15.86,0,0,0-1.88,3.44,2.79,2.79,0,0,0,0,2.62,4.72,4.72,0,0,0,2.23,1,7.75,7.75,0,0,0,2.37.65,4.71,4.71,0,0,0,3-1.15,8.26,8.26,0,0,0,2.55-3.56,13.23,13.23,0,0,0,.5-4.39ZM165,104.74a13.55,13.55,0,0,0-2.87-5.11,23.14,23.14,0,0,0-4.22-3.79c-1.29-.83-2.25-1.1-2.89-.88s-1,.88-1,2.25.23,3.42.17,5.68a40.28,40.28,0,0,1-1.11,7.92,78.26,78.26,0,0,1-2.73,9.64c-1,2.57-1.88,3.85-2.3,4.91s-.34,1.93.63,2.27,2.86.1,5.11-1a28.2,28.2,0,0,0,6.73-5.3,22.71,22.71,0,0,0,3.83-5.59,11.14,11.14,0,0,0,1.29-4.68,20.52,20.52,0,0,0-.67-6.27Z"/><path class="cls-6" d="M18,116.36a20.61,20.61,0,0,0-2.41-.6c-.89-.2-1.72-.32-2.08,0s-.21,1.16-.26,1.74a8.56,8.56,0,0,1-.36,1.49,3.31,3.31,0,0,0,.2,2,15.18,15.18,0,0,0,1.82,3.44,4.28,4.28,0,0,0,2.84,2,6.51,6.51,0,0,0,3.61-.78,2.09,2.09,0,0,0,1.17-2,7.24,7.24,0,0,0-.67-3.51,10.93,10.93,0,0,0-2.38-2.83,3.42,3.42,0,0,0-1.48-1Z"/><path class="cls-6" d="M49,102.7a5.91,5.91,0,0,0-3-2.29,1.34,1.34,0,0,0-1.77.8,12.14,12.14,0,0,0-.81,3.31,18,18,0,0,0-.16,3.69A12.6,12.6,0,0,0,44,112a3.86,3.86,0,0,0,2.05,2,16.41,16.41,0,0,0,3.4,1.38c.94.25,1.42.11,1.79-.49a6,6,0,0,0,.68-2.91,15,15,0,0,0-.75-4.36A17.77,17.77,0,0,0,49,102.7Z"/><path class="cls-6" d="M69.78,123.92c-.9-.08-1.68-.12-1.8.57a10.66,10.66,0,0,0,.67,3c.23.87.16,1.2-.42,1.34s-1.63.06-2,.36-.14,1,.42,1.81a23.12,23.12,0,0,0,2.2,2.49,21.13,21.13,0,0,0,2.27,2.09,8.24,8.24,0,0,0,2.28,1.24,14.86,14.86,0,0,0,2.38.61,5.63,5.63,0,0,0,2.16,0c.62-.18,1.12-.58,1.17-1s-.34-1-.37-1.26.26-.44.79-.57a3.56,3.56,0,0,0,1.85-.72,2.26,2.26,0,0,0,.49-2.49,8.68,8.68,0,0,0-3.15-3.49,28.59,28.59,0,0,0-5.39-3,10.86,10.86,0,0,0-3.51-.93Z"/><path class="cls-6" d="M55.43,163.25a21.64,21.64,0,0,0-2.6-1.77c-.92-.48-1.51-.55-1.7-.07a5.31,5.31,0,0,0,.26,2.54,8,8,0,0,0,1.21,2.81,9.55,9.55,0,0,0,2.71,2.29,10.17,10.17,0,0,0,3.19,1.4c.83.12,1.26-.25,1.22-.89a5.3,5.3,0,0,0-1.29-2.6c-.82-1.05-2-2.25-2.39-2.82s-.15-.48-.61-.89Z"/><path class="cls-6" d="M73.2,182.55c-.78,0-1.93,0-2.8,0a3.6,3.6,0,0,0-1.71.38c-.29.21-.34.53-.11,1a4.84,4.84,0,0,0,1.31,1.45A8.57,8.57,0,0,0,72,186.45a9.94,9.94,0,0,0,2.61.49,11.94,11.94,0,0,0,3.35-.26,3.88,3.88,0,0,0,2.07-1.4,5.85,5.85,0,0,0,1.24-2.22,2.6,2.6,0,0,0-.23-1.95,1.3,1.3,0,0,0-1.4-.65,10.52,10.52,0,0,0-2.27.83c-.85.35-1.73.67-2.39.89a5.87,5.87,0,0,1-1.81.37Z"/><path class="cls-6" d="M151.44,172.4a19.69,19.69,0,0,0-2.27,2.3c-.56.74-.74,1.33-.42,1.52s1.15,0,1.93-.16a10.25,10.25,0,0,0,2.32-.72,5.21,5.21,0,0,0,2.27-1.88,6.15,6.15,0,0,0,.65-2.78c0-.8,0-1.24-.28-1.42s-.69-.07-1.15.27a11.7,11.7,0,0,0-1.38,1.36c-.48.48-.94.87-1.67,1.51Z"/><path class="cls-6" d="M120.26,141.69a33.33,33.33,0,0,0-4.89,2.08,3.75,3.75,0,0,0-2,2.6c-.11.83.23,1.56,1.68,2a20.24,20.24,0,0,0,5.9.52,12.83,12.83,0,0,0,4.48-.94c1.3-.52,2.61-1.19,3.05-1.28s.07.41-.8,1.08-2.17,1.54-3,2.2-1.24,1.08-.71,1.12a9.07,9.07,0,0,0,3.36-1.12,14.81,14.81,0,0,0,3.51-2.68,5,5,0,0,0,1.28-1.87c.12-.43,0-.69.12-1a5.31,5.31,0,0,1,.92-1.4,13.76,13.76,0,0,0,1.78-2.64,9.13,9.13,0,0,0,1-3.46c0-.86-.49-1.18-1.29-1.24a7.19,7.19,0,0,0-3.21.66c-1.34.55-2.92,1.47-4.44,2.23s-3,1.4-3.88,1.86a29.17,29.17,0,0,1-2.75,1.31Z"/><path class="cls-6" d="M184,134.32c.19-.94.56-2.26.83-3.24a5.58,5.58,0,0,1,.69-2c.3-.3.71-.28,1,.16a3.16,3.16,0,0,1,.18,2.54,15.52,15.52,0,0,1-2,4,7.7,7.7,0,0,1-1.72,2c-.16,0,.32-.72.57-1.36a14,14,0,0,0,.46-2.13Z"/><path class="cls-6" d="M155.5,110.69c.35-1.19.95-2.94,1.31-4.5s.44-2.94.58-3.72.29-1,.61-.62a6.78,6.78,0,0,1,1.22,2.6,19.82,19.82,0,0,1,.72,5,14.05,14.05,0,0,1-.63,4c-.34,1.13-.68,2.21-1.1,3.27a15.49,15.49,0,0,1-1.72,3.21,21.07,21.07,0,0,1-2.5,2.8c-.72.69-1.13,1-1.2.55a13,13,0,0,1,.48-2.69c.26-1.16.49-2.36.77-3.6s.59-2.52.8-3.47a27.54,27.54,0,0,1,.66-2.82Z"/><path class="cls-6" d="M142.79,73.41a36,36,0,0,0-1.47-4.8,30.8,30.8,0,0,0-2.21-4.13c-.64-1.06-1.06-1.73-1.26-2.17s-.16-.61.36-.64a9.11,9.11,0,0,1,3.08.64,24.79,24.79,0,0,1,5.24,2.44,12.27,12.27,0,0,1,3.63,3.44,14.25,14.25,0,0,1,2.11,4.43,16.48,16.48,0,0,1,.64,4.76,9.91,9.91,0,0,1-.73,4A5.87,5.87,0,0,1,150,83.8a3.32,3.32,0,0,1-2.79.46,4.6,4.6,0,0,1-2.72-2.45,15.11,15.11,0,0,1-.82-4.34,31.21,31.21,0,0,0-.89-4.06Z"/><path class="cls-6" d="M156.06,78.85a34.32,34.32,0,0,0-.93-3.75,16.76,16.76,0,0,1-.87-3.19c0-.52.62-.27,1.17.41s1.06,1.77,1.52,2.23.83.28,1-.62a19.21,19.21,0,0,0,0-3.65c-.07-1.14-.12-1.79.21-1.79s1.08.6,1.51,1.7a9.18,9.18,0,0,1,.41,4,12.07,12.07,0,0,1-.94,3.51,10.9,10.9,0,0,1-1.12,2,4.9,4.9,0,0,1-1,1.2c-.28.18-.49,0-.6-.27s-.14-.79-.34-1.77Z"/><path class="cls-6" d="M198.85,84.24c-.2-1-.37-2-.64-3.12s-.64-2.32-.94-3.24-.48-1.56,0-1.6a6.88,6.88,0,0,1,2.56,1.1,6.77,6.77,0,0,1,2.25,2,7.67,7.67,0,0,1,1,3.38,14.79,14.79,0,0,1-.09,5.3A9.61,9.61,0,0,1,200.85,92,23,23,0,0,1,199,94c-.43.35-.64.39-.53-.78s.49-3.54.62-5.25a14.28,14.28,0,0,0-.25-3.75Z"/><path class="cls-6" d="M129,48.4c-.74-.92-1.7-2.09-2.53-3.07S125,43.56,124.37,43s-1.12-1-1.1-1.28.55-.4,1.28-.3a7.25,7.25,0,0,0,2.1.32c.54-.1.7-.69,1.42-1a5.19,5.19,0,0,1,3.19,0,6.61,6.61,0,0,1,3,2.25,11,11,0,0,1,1.91,3.69,5.51,5.51,0,0,1,.15,3,2.5,2.5,0,0,1-1,1.19,1.64,1.64,0,0,0-.66,1.1,4.78,4.78,0,0,1-.28,1.72,1,1,0,0,1-1.6.12,12.52,12.52,0,0,1-2-2.84A20.77,20.77,0,0,0,129,48.4Z"/><path class="cls-6" d="M91.54,53.62c-1.19.48-2,1-2.85,1.26a17.21,17.21,0,0,1-2.82.52,5,5,0,0,1-2.55.1c-.55-.3-.62-1.13.16-2.23a18.19,18.19,0,0,1,4-3.53A29.2,29.2,0,0,1,91.7,47.3,19.42,19.42,0,0,1,95.26,46a8.94,8.94,0,0,1,2.82-.26c.72.07,1.22.26,2,.33s1.86,0,2.85,0a7.45,7.45,0,0,1,2.62.24c.68.25,1.1.71,1,1.24s-.57,1.09-1.45,1.67a16.57,16.57,0,0,1-3.74,1.72c-1.58.51-3.51,1-5.28,1.4a43,43,0,0,0-4.59,1.34Z"/><path class="cls-6" d="M72.62,61.92c.9-1.56,1.58-2.64,2-3.49a3.16,3.16,0,0,0,.61-2c-.14-.46-.66-.73-1.49-.62a9.91,9.91,0,0,0-3.42,1.33,32.39,32.39,0,0,0-4.43,3,15.35,15.35,0,0,0-2.67,2.91,25.69,25.69,0,0,0-2.15,3.28,28.38,28.38,0,0,0-1.24,3,19.6,19.6,0,0,0-.74,2.06c-.07.39.14.4.62.21a5.47,5.47,0,0,1,1.56-.58c.39,0,.4.44,1.08.51a6.44,6.44,0,0,0,3.24-1,12.41,12.41,0,0,0,3.77-3.47,50.82,50.82,0,0,0,3.21-5.22Z"/><path class="cls-6" d="M72,30.15c-.83.71-1.66,1.59-2.44,2.21a6.62,6.62,0,0,1-2.13,1.23c-.67.21-1.29.3-1.52.07s0-.75-.23-1-.76-.3-.94-.73,0-1.22-.18-1.65-.79-.47-1.15-.7S63,29,63.28,28.15s1.14-2,1.54-2.92a11.23,11.23,0,0,0,.61-2.06A4,4,0,0,1,67,21.1a12.8,12.8,0,0,1,4-2,10.82,10.82,0,0,1,4-.2c1.33.15,2.76.34,4,.48s2.39.18,3.38.37a3.82,3.82,0,0,1,2.16,1c.32.41.09.9.24,1.35s.65.83.77,1.24-.12.81-1.11,1.29-2.77,1-4.52,1.67-3.58,1.38-4.89,2a13.32,13.32,0,0,0-3,1.84Z"/><path class="cls-6" d="M145,18.81c-.54-.9-1.09-2.07-1.54-3a5.21,5.21,0,0,1-.72-2.12c.07-.45.53-.61,1.33-.46a7.68,7.68,0,0,1,2.67,1.06,7.3,7.3,0,0,1,1.86,1.81,14.83,14.83,0,0,1,1.51,2.16,6.48,6.48,0,0,1,.81,2.46,2.61,2.61,0,0,1-.42,1.82c-.32.36-.77.41-1.42.11A9.15,9.15,0,0,1,146.85,21,9.05,9.05,0,0,1,145,18.81Z"/></g><path class="cls-7" d="M75.35,28.43c.69-.25,1.61-.6,2.74-1s2.48-.8,3.28-1.08,1-.44,1-.92a3.72,3.72,0,0,0-.64-1.9,2.8,2.8,0,0,0-2-1.19,20.06,20.06,0,0,0-3,.18c-.9.06-1.54-.05-2.14,0a4.25,4.25,0,0,0-1.91.71c-.71.45-1.55,1.14-2.22,1.65a8.71,8.71,0,0,0-1.7,1.45,7.61,7.61,0,0,0-1.28,2.2A12.21,12.21,0,0,0,67,30.61c-.11.55-.23.92,0,1.1a3.1,3.1,0,0,0,1.49.21,9.7,9.7,0,0,1,1.56.07c.31.07.35.23.9-.26s1.63-1.58,2.41-2.22a5.73,5.73,0,0,1,1.95-1.08Z"/><path class="cls-7" d="M92.28,53.48c-1,.2-2.1.52-3.06.62A4.38,4.38,0,0,1,87,53.87c-.52-.21-.75-.55.05-1.27A23.9,23.9,0,0,1,91.15,50a13,13,0,0,1,3.95-1.53,21,21,0,0,1,4.06-.23c1.2,0,2.11.15,2.83.11s1.24-.23,1.69-.23.79.14.81.46-.34.81-.9,1.33a9.16,9.16,0,0,1-2.32,1.45,19,19,0,0,1-3.07,1c-1.06.29-2.14.52-3.1.68s-1.82.28-2.82.49Z"/><path class="cls-7" d="M73.45,61.7a6.88,6.88,0,0,0,.69-2.07c0-.55-.19-.8-.55-.87a2.26,2.26,0,0,0-1.45.43c-.62.37-1.4,1-2.2,1.43s-1.59.82-2.44,1.4a11.46,11.46,0,0,0-2.45,2.34,11.11,11.11,0,0,0-1.54,2.85,6.61,6.61,0,0,0-.44,2.2c0,.48.18.64.58.62a4.2,4.2,0,0,0,1.83-.71,27.22,27.22,0,0,0,2.37-1.91c.85-.71,1.79-1.42,2.55-2.07a14.23,14.23,0,0,0,1.87-1.83,8.55,8.55,0,0,0,1.18-1.81Z"/><path class="cls-7" d="M50.15,105.13a9.25,9.25,0,0,0-.72-1.92,3.15,3.15,0,0,0-1.24-1.06,2.82,2.82,0,0,0-1.06-.23c-.29,0-.54,0-.71.55a9,9,0,0,0-.25,2.69,11.08,11.08,0,0,0,.53,3A4.58,4.58,0,0,0,47.78,110a1.52,1.52,0,0,0,1.19.46,15.32,15.32,0,0,1,1.66,0c.52.07.87.32,1.23.28a.71.71,0,0,0,.62-.9,12.51,12.51,0,0,0-1.19-2.22,13.31,13.31,0,0,1-1.14-2.51Z"/><path class="cls-7" d="M20.05,118.13a16.31,16.31,0,0,0-1.77-1.28c-.62-.35-1.15-.51-1.45-.37s-.34.57-.14,1.51A14.19,14.19,0,0,0,18,121.53a7.26,7.26,0,0,0,2,2.25c.57.39.9.46,1.15.16a4,4,0,0,0,.46-1.52,4.11,4.11,0,0,0,0-1.6,8.67,8.67,0,0,0-.68-1.73,2.64,2.64,0,0,0-.87-1Z"/><path class="cls-7" d="M78.45,129.11c-1.12-.76-3-2-4.45-2.78a10.68,10.68,0,0,0-3.28-1.25c-.7-.11-1,0-1.09.67a6.83,6.83,0,0,0,.58,2.51c.35.85.8,1.47,1,2a2.24,2.24,0,0,0,.83,1.33,19.41,19.41,0,0,0,3.12,1.83c1,.46,1.4.56,1.76.39s.65-.61,1.27-.94a10.43,10.43,0,0,0,2-.91,1,1,0,0,0,0-1.34,6.33,6.33,0,0,0-1.77-1.46Z"/><path class="cls-7" d="M57.08,163.29a1.6,1.6,0,0,0-1.27-.28.75.75,0,0,0-.46.78,4.13,4.13,0,0,0,.4,1.57,7.68,7.68,0,0,0,1.08,1.92,1,1,0,0,0,1.1.46,1.24,1.24,0,0,0,.69-1,3.27,3.27,0,0,0-.23-1.93,3.58,3.58,0,0,0-1.31-1.52Z"/><path class="cls-7" d="M76.18,180.58a17.4,17.4,0,0,0-2.5,1c-.71.34-1.22.57-1.33.89s.2.72.87,1.1a8,8,0,0,0,2.52.81,3.8,3.8,0,0,0,2-.25,2.93,2.93,0,0,0,1.56-1.08,2.44,2.44,0,0,0,.36-1.91c-.16-.52-.68-.67-1.3-.75a5.49,5.49,0,0,0-2.14.18Z"/><path class="cls-7" d="M128.53,143.89a17.63,17.63,0,0,1-3.38,1.24,9.1,9.1,0,0,1-3.15.27c-.85-.13-1.44-.41-1.49-.87s.4-1.05,1.36-1.74a27.39,27.39,0,0,1,3.51-2,13.12,13.12,0,0,1,2.69-1,7.75,7.75,0,0,1,1.88-.22c.51,0,.9.07,1.1.36a1.55,1.55,0,0,1-.09,1.33,7.87,7.87,0,0,1-1,1.48,3.88,3.88,0,0,1-1.42,1.12Z"/><path class="cls-7" d="M154,172a5.4,5.4,0,0,1-1.54.76A5.92,5.92,0,0,1,151,173c-.32,0-.39-.06,0-.52a22.08,22.08,0,0,1,1.81-1.91,4.94,4.94,0,0,1,1.19-.92c.26-.13.42-.14.55.12a2.3,2.3,0,0,1,.14,1.19A1.71,1.71,0,0,1,154,172Z"/><path class="cls-7" d="M153.83,116.68a4.12,4.12,0,0,1-.23-1.51,12.09,12.09,0,0,1,.25-2.44,24.86,24.86,0,0,1,.83-3,5.86,5.86,0,0,1,.87-1.79c.27-.28.53-.26.82.09s.54,1,.92,1.69.88,1.25,1.25,1.75a2.58,2.58,0,0,1,.62,1.54,7.25,7.25,0,0,1-.53,2.55,6.57,6.57,0,0,1-1.5,2.57,3.16,3.16,0,0,1-2,.89c-.47,0-.57-.34-.64-.66a4.62,4.62,0,0,0-.18-.94c-.12-.26-.34-.41-.48-.74Z"/><path class="cls-7" d="M197.82,86.49c-.14-.59-.16-1.54-.25-2.43a7.43,7.43,0,0,1-.07-2.27,1.42,1.42,0,0,1,1.21-1,1.72,1.72,0,0,1,1.66.66,5.25,5.25,0,0,1,.8,2.64,13.78,13.78,0,0,1-.21,3.22,8.9,8.9,0,0,1-.85,2.64,4,4,0,0,1-1.28,1.49c-.35.19-.51,0-.55-.71s.07-2,0-2.71a7.62,7.62,0,0,0-.46-1.54Z"/><path class="cls-7" d="M144,74.85c-.31-.73-.62-1.65-.92-2.55s-.62-1.77-.83-2.38-.34-1-.21-1.22.49-.34,1.29-.25a7.47,7.47,0,0,1,2.92,1,6.34,6.34,0,0,1,1.94,2.33,15,15,0,0,1,1.15,2.52,6.1,6.1,0,0,1,.3,2.48,10.27,10.27,0,0,1-.64,2.91,2.85,2.85,0,0,1-1.27,1.55,1.09,1.09,0,0,1-1.39-.17,6,6,0,0,1-.58-2,14.09,14.09,0,0,0-.8-2.3c-.32-.66-.64-1.17-1-1.88Z"/><path class="cls-7" d="M129.76,49.67c-.45-.47-1-1-1.46-1.52a11.9,11.9,0,0,1-1.33-1.4,1.17,1.17,0,0,1-.24-1.13,1.25,1.25,0,0,1,1.11-.64,8,8,0,0,1,2.25.21,5,5,0,0,1,2,.8,4.63,4.63,0,0,1,1.33,1.88,6,6,0,0,1,.53,2.07,2.13,2.13,0,0,1-.39,1.51,1.41,1.41,0,0,1-1.29.28A3.11,3.11,0,0,1,131,51a11.9,11.9,0,0,1-1.2-1.3Z"/><path class="cls-7" d="M146,21.54c-.32-.39-.8-1-1.14-1.45a8.27,8.27,0,0,1-.74-1.35,10.76,10.76,0,0,1-.53-1.43c-.11-.41-.09-.62.16-.8a2.18,2.18,0,0,1,1.22-.3,4.44,4.44,0,0,1,1.74.42,9.64,9.64,0,0,1,1.84,1.1,2.77,2.77,0,0,1,1,1.35,6.07,6.07,0,0,1,.35,2.11,2.74,2.74,0,0,1-.42,1.52,2.63,2.63,0,0,1-.8.89c-.25.17-.46.17-.78-.08a9.41,9.41,0,0,1-1.12-1.08l-.79-.9Z"/></g></g></svg>