<svg xmlns="http://www.w3.org/2000/svg" viewBox="0 0 169.87 169.87"><defs><style>.cls-1{fill:none;}.cls-2{fill:#8aacc3;}.cls-3{fill:#6794ac;}.cls-4{fill:#cb77a3;}.cls-5{fill:#393343;}.cls-6{fill:#68a597;}.cls-7{fill:#db9233;}.cls-8{fill:#453f55;}.cls-9{fill:#443e55;}.cls-10{fill:#b6cbda;}.cls-11{fill:#e3b643;}.cls-12{fill:#5ea091;}.cls-13{fill:#508888;}.cls-14{fill:#e3b644;}.cls-15{fill:#dc9334;}.cls-16{fill:#453e55;}.cls-17{fill:#538a8a;}.cls-18{fill:#528989;}.cls-19{fill:#5e9f91;}.cls-20{fill:#383343;}.cls-21{fill:#443e54;}.cls-22{fill:#6c6678;}.cls-23{fill:#6b6577;}</style></defs><g id="Capa_2" data-name="Capa 2"><g id="OBJECTS"><rect class="cls-1" width="169.87" height="169.87"/><path class="cls-2" d="M138.93,68.73a16.42,16.42,0,0,0,1.14,1.21,85.62,85.62,0,0,1,6.61,6.59c1.69,1.86,3.31,3.78,4.88,5.73a81,81,0,0,1,6.63,9.63A66.77,66.77,0,0,1,164.52,106a46.72,46.72,0,0,1,1.83,8.28,43.69,43.69,0,0,1,.47,6.66A41.75,41.75,0,0,1,163,137.76a44.42,44.42,0,0,1-6.43,10.07,36.09,36.09,0,0,1-5.55,5.29,35.21,35.21,0,0,1-10.15,5.42,42.91,42.91,0,0,1-6.22,1.47,6.28,6.28,0,0,1-1,0,8.36,8.36,0,0,0-2.83-.47,33.79,33.79,0,0,1-4.26-.57,38.67,38.67,0,0,1-9-2.92,45.88,45.88,0,0,1-8-4.94,85.24,85.24,0,0,0-8.39-5.69,34.92,34.92,0,0,0-5.52-2.64,40.91,40.91,0,0,0-12-2.56c-.19,0-.37-.05-.55-.07A10.28,10.28,0,0,0,81.4,140c-2.27.05-4.55-.24-6.8.25a23.49,23.49,0,0,0-5.22.68c-2,.34-4,.92-5.94,1.38-3.15.74-6.23,1.78-9.45,2.23a26,26,0,0,1-4.13.47c-1.81,0-3.62,0-5.44,0a6.87,6.87,0,0,1-1.11,0c-1-.16-1.92-.31-2.86-.53A29.82,29.82,0,0,1,32,141.35a23.33,23.33,0,0,1-6.08-5.27,26,26,0,0,1-4.37-7.39,30.86,30.86,0,0,1-2.32-9.54,1.47,1.47,0,0,0-.05-.42,4.8,4.8,0,0,1-.21-2.06,34.86,34.86,0,0,1,.21-5c.22-1.22.36-2.46.58-3.69a49.43,49.43,0,0,1,3.39-10.71c1-2.35,2.19-4.62,3.29-6.92A57.89,57.89,0,0,1,30.13,84q2.37-3.67,5.07-7.13c1.4-1.8,3-3.42,4.45-5.15A79.67,79.67,0,0,1,45.58,66l.22-.18c1.57-1.22,3.13-2.45,4.72-3.65a79.7,79.7,0,0,1,7.14-4.82c2.23-1.34,4.48-2.63,6.73-3.91a13.56,13.56,0,0,1,1.41-.6c.2,1.9.37,3.79.61,5.68a50.05,50.05,0,0,0,3,11.86,31.66,31.66,0,0,0,4.6,8.4,16.19,16.19,0,0,0,6,4.94,10.18,10.18,0,0,0,8.63,0,14.81,14.81,0,0,0,4.92-3.59A27.43,27.43,0,0,0,98,73.34,53.65,53.65,0,0,0,103,54.16c.13-1.57.2-3.15.3-4.73a3.31,3.31,0,0,1,.55.08l5.67,1.92c.61.21,1.24.38,1.86.56.37.19.72.41,1.1.57a91.39,91.39,0,0,1,13.66,6.87c.55.35,1.13.64,1.69,1a3.52,3.52,0,0,0,.41.36,98.3,98.3,0,0,1,10,7.57A3.77,3.77,0,0,0,138.93,68.73ZM110.79,57c-.46,0-.93,0-1.39,0a4.2,4.2,0,0,0-3,1.48,2.78,2.78,0,0,0,.82,4.27,14.36,14.36,0,0,0,3.54,1.2,20.39,20.39,0,0,1,5.71,2.51,68.21,68.21,0,0,1,8,6,9.71,9.71,0,0,0,2.9,1.88c1.39.5,2.64.5,3.63-.77a3.68,3.68,0,0,0,.63-2.59,9,9,0,0,0-2.38-4.33,31.56,31.56,0,0,0-5.27-4.51,38.38,38.38,0,0,0-6.82-3.75A13.37,13.37,0,0,0,110.79,57Zm24.06,23.18a2,2,0,0,0,1.84-.63,2.75,2.75,0,0,0,.88-1.83,3.19,3.19,0,0,0-3-3.08A3.14,3.14,0,0,0,132,77.46,2.69,2.69,0,0,0,134.85,80.19Z"/><path class="cls-3" d="M65.8,52.83a13.56,13.56,0,0,0-1.41.6c-2.25,1.28-4.5,2.57-6.73,3.91a79.7,79.7,0,0,0-7.14,4.82c-1.59,1.2-3.15,2.43-4.72,3.65l-.22.18a79.67,79.67,0,0,0-5.93,5.69c-1.46,1.73-3,3.35-4.45,5.15Q32.5,80.28,30.13,84a57.89,57.89,0,0,0-3.69,6.39c-1.1,2.3-2.28,4.57-3.29,6.92A49.43,49.43,0,0,0,19.76,108c-.22,1.23-.36,2.47-.58,3.69a34.86,34.86,0,0,0-.21,5,4.8,4.8,0,0,0,.21,2.06,1.47,1.47,0,0,1,.05.42,30.86,30.86,0,0,0,2.32,9.54,26,26,0,0,0,4.37,7.39A23.33,23.33,0,0,0,32,141.35a29.82,29.82,0,0,0,8.45,3.05c.94.22,1.9.37,2.86.53a6.87,6.87,0,0,0,1.11,0c1.82,0,3.63,0,5.44,0a26,26,0,0,0,4.13-.47c3.22-.45,6.3-1.49,9.45-2.23,2-.46,3.94-1,5.94-1.38a23.49,23.49,0,0,1,5.22-.68c2.25-.49,4.53-.2,6.8-.25a10.28,10.28,0,0,1,1.65.18c.18,0,.36.06.55.07a40.91,40.91,0,0,1,12,2.56,34.92,34.92,0,0,1,5.52,2.64,85.24,85.24,0,0,1,8.39,5.69,45.88,45.88,0,0,0,8,4.94,38.67,38.67,0,0,0,9,2.92,33.79,33.79,0,0,0,4.26.57,8.36,8.36,0,0,1,2.83.47,33.12,33.12,0,0,1-16.74-2.7c-3.26-1.37-6.45-2.89-9.64-4.4s-6.31-3-9.56-4.23a39.56,39.56,0,0,0-10.54-2.53,25.93,25.93,0,0,0-6.81.3,47.36,47.36,0,0,0-11.8,3.71c-3,1.39-6.06,2.83-9.09,4.25a79.24,79.24,0,0,1-9.9,4.13,34.54,34.54,0,0,1-8.05,1.56A32.64,32.64,0,0,1,19,153.19,40.06,40.06,0,0,1,7.59,139.26,40.81,40.81,0,0,1,3.4,126a43.61,43.61,0,0,1-.13-10.15A54.88,54.88,0,0,1,8.35,98.13a80.19,80.19,0,0,1,10.2-16.26A112.11,112.11,0,0,1,29.69,70c.36-.34.87-.58.86-1.2.66.13,1-.39,1.42-.72,1.74-1.38,3.45-2.8,5.22-4.15,1.52-1.14,3.09-2.21,4.64-3.31C44,59.32,46.11,58,48.3,56.83a82.65,82.65,0,0,1,8.78-4.13,1.65,1.65,0,0,0,1-.68,7.48,7.48,0,0,0,1.07-.19c.7-.22,1.39-.51,2.09-.75,1.49-.49,3-.95,4.47-1.43Z"/><path class="cls-4" d="M23.63,45.46a12.05,12.05,0,0,1,1.42-9.89,17.26,17.26,0,0,1,9.5-7.77c1.21-.43,2.5-.69,3.75-1l2-.28c.65,0,1.29-.11,1.94-.13a19.71,19.71,0,0,1,5.35.66,1.48,1.48,0,0,0,1.52-.3,15.81,15.81,0,0,1,3.61-2.33,32.27,32.27,0,0,1,6.4-2.27l3.5-.85a7.31,7.31,0,0,0,3.1-.54c.46,0,.92,0,1.38,0a57.82,57.82,0,0,1,9.58.23,24.93,24.93,0,0,1,7.72,2.19c.13.07.26.12.37.19a1.37,1.37,0,0,0,1.57-.06l.37-.19a28.39,28.39,0,0,1,11.85-3.2,32.68,32.68,0,0,1,6.25.21,4.13,4.13,0,0,0,1.93.33l.6.1a6.57,6.57,0,0,0,2.55.81l1.14.51a23.48,23.48,0,0,1,6,3.44c.61.49,1.18,1,1.77,1.56.26-.06.49-.1.71-.16a23.87,23.87,0,0,1,7.7-1c.79,0,1.58,0,2.37,0l1.91.28a22.29,22.29,0,0,1,5.69,1.79c4.84,2.38,8.24,6,9.35,11.41a10.81,10.81,0,0,1-.47,6.57l-.68-.51-.62-.69a11.08,11.08,0,0,0,.15-5.09,13.57,13.57,0,0,0-5.06-8.06,16.38,16.38,0,0,0-7.62-3.49,3.69,3.69,0,0,0-1.82-.39,23.87,23.87,0,0,0-10.37.79,5.32,5.32,0,0,0,.38.79,7.62,7.62,0,0,1,1,2.72A5.66,5.66,0,0,1,120,37.08,6.79,6.79,0,0,1,116.33,39a5,5,0,0,1-3.24-.43,3.86,3.86,0,0,1-1.85-1.63,4.39,4.39,0,0,1-.2-3.76,7.14,7.14,0,0,1,1.51-2.33,14,14,0,0,1,3.64-2.75c.27-.15.65-.19.67-.67A9,9,0,0,0,115.23,26a22.8,22.8,0,0,0-7.81-3.53,7.18,7.18,0,0,0-2.89-.58c-6.07-1.26-14.74.89-17.24,3,.1.14.18.3.29.44.28.3.59.59.88.9a6.47,6.47,0,0,1,1.82,4.7,6.9,6.9,0,0,1-7.89,6.57,4.08,4.08,0,0,1-3.38-3,5.73,5.73,0,0,1,.31-4.09,13,13,0,0,1,3.88-5,7.07,7.07,0,0,0,.57-.65c-.57-.26-1-.49-1.5-.68a25.45,25.45,0,0,0-6.21-1.48,48.55,48.55,0,0,0-9.18-.09,2.88,2.88,0,0,0-2,.37l-1.3.08a5.13,5.13,0,0,0-2.41.45A26.22,26.22,0,0,0,55.41,25a20.09,20.09,0,0,0-4.32,2.23,5.27,5.27,0,0,0-.72.71c.5.36.91.64,1.3.95A6,6,0,0,1,53.81,36a4.71,4.71,0,0,1-1.7,2.16A4,4,0,0,1,47,37.77a5.62,5.62,0,0,1-1.64-5,9.19,9.19,0,0,1,1.32-3.5c.13-.22.22-.46.35-.73A17.54,17.54,0,0,0,41.68,28c-.78,0-1.56.2-2.35.3a3.6,3.6,0,0,0-1.85.39,16.43,16.43,0,0,0-7.9,3.88A13.93,13.93,0,0,0,25,40.48a7.73,7.73,0,0,0,.12,3.85l-1.1,1ZM80.38,32.92c.15,2.23,1.44,3.12,3.16,3a5.26,5.26,0,0,0,4.77-3.49,3.83,3.83,0,0,0,.34-2,6.37,6.37,0,0,0-2.36-4.12c-.59-.47-.91-.49-1.49-.06A12.8,12.8,0,0,0,81.33,30,6.78,6.78,0,0,0,80.38,32.92Zm39.6.58a6.77,6.77,0,0,0-1.19-4c-.32-.51-.61-.6-1.18-.32a12.5,12.5,0,0,0-3.56,2.41,7,7,0,0,0-1.26,1.65c-1,2-.25,3.83,2.15,4.17a4.31,4.31,0,0,0,2.8-.65A4,4,0,0,0,120,33.5ZM49.91,37.24a2.11,2.11,0,0,0,1.55-.65,3.71,3.71,0,0,0,1.13-3c-.18-2.06-1.51-3.29-3.25-4.17a.65.65,0,0,0-.86.22,7,7,0,0,0-1.58,3.79,4.12,4.12,0,0,0,.55,2.4A2.69,2.69,0,0,0,49.91,37.24Z"/><path class="cls-5" d="M41.83,60.57c-1.55,1.1-3.12,2.17-4.64,3.31C35.42,65.23,33.71,66.65,32,68c-.42.33-.76.85-1.42.72-.93-1.2-1.93-2.37-2.77-3.64A17.07,17.07,0,0,1,26.21,62a7.6,7.6,0,0,1,.56-6.93c.2-.35.39-.73.58-1.09l1.42-1.71,2.73-2.5L32.73,49c.71-.49,1.42-1,2.14-1.44a7,7,0,0,1-.06,1.38,9.73,9.73,0,0,0,3.75,9.83A8.77,8.77,0,0,0,41.28,60C41.58,60.13,41.79,60.24,41.83,60.57Z"/><path class="cls-5" d="M138.93,68.73a3.77,3.77,0,0,1-.7-.41,98.3,98.3,0,0,0-10-7.57,3.52,3.52,0,0,1-.41-.36c.69-.35,1.37-.74,2.08-1a8.43,8.43,0,0,0,3.39-3A9.73,9.73,0,0,0,134.67,49c-.08-.5-.11-1-.16-1.51.57.37,1.15.73,1.71,1.11s1.18.84,1.78,1.26l2.64,2.44,1.43,1.77.62,1.09a7.83,7.83,0,0,1,.58,6.83,14.36,14.36,0,0,1-2,3.67C140.55,66.7,139.73,67.71,138.93,68.73Z"/><path class="cls-6" d="M106.73,20.46a4.13,4.13,0,0,1-1.93-.33,11.59,11.59,0,0,0-3-4,17.69,17.69,0,0,0-7-3.85,26,26,0,0,0-10.49-.74,30.67,30.67,0,0,0-15.41,6.3,18.15,18.15,0,0,0-3.19,2.88,7.31,7.31,0,0,1-3.1.54,4,4,0,0,0-.56-.39,17.44,17.44,0,0,0-15-.54,13.33,13.33,0,0,0-6.8,6.15l-2,.28a15.32,15.32,0,0,1,6.58-7.17,17.58,17.58,0,0,1,9.64-2.28,18.84,18.84,0,0,1,8.8,2.37,4.61,4.61,0,0,0,.51.22,1.58,1.58,0,0,0,.23,0l.86-.79a32.89,32.89,0,0,1,16.94-8.85,28.25,28.25,0,0,1,13.52.47,18.21,18.21,0,0,1,9.22,6A11.79,11.79,0,0,1,106.73,20.46Z"/><path class="cls-6" d="M131.52,26l-1.91-.28a6.75,6.75,0,0,0-1.41-2.06,11.89,11.89,0,0,0-6.82-3.49,22.77,22.77,0,0,0-11.5,1.21,6.57,6.57,0,0,1-2.55-.81,28.24,28.24,0,0,1,8.47-2.2,18.39,18.39,0,0,1,9.69,1.37,11.5,11.5,0,0,1,5.68,5.35A8.18,8.18,0,0,1,131.52,26Z"/><path class="cls-7" d="M142.07,54.06l-1.43-1.77a2.74,2.74,0,0,0,.93-1c1.15-1.67,2.32-3.34,3.51-5a1.74,1.74,0,0,0,.33-1l.68.51c1,2,.82,1.68-.26,3.18C144.59,50.66,143.32,52.36,142.07,54.06Z"/><path class="cls-7" d="M28.77,52.31,27.35,54c-.72-1-1.46-1.92-2.17-2.89s-1.47-2-2.2-3.05a1.12,1.12,0,0,1-.12-1.3c.25-.44.51-.88.77-1.32L24,45.3a7,7,0,0,0,.49,1.12c1,1.5,2,3,3.07,4.43C27.91,51.35,28.15,52,28.77,52.31Z"/><path class="cls-8" d="M65.72,49.65a3,3,0,0,1,.61-.32l5.88-1.45c.1,1.06.26,2.12.29,3.18a58.06,58.06,0,0,0,.87,7.44A50.38,50.38,0,0,0,75.88,68a23.71,23.71,0,0,0,3.38,6.36,8.78,8.78,0,0,0,2.64,2.44,4.6,4.6,0,0,0,2.9.78,5.22,5.22,0,0,0,2.32-.87,11.14,11.14,0,0,0,3.29-3.51c.54-.92,1.16-1.81,1.6-2.77a52.52,52.52,0,0,0,4.28-16.8c.21-1.94.36-3.88.54-5.82,2,.44,4,.88,6,1.34a2,2,0,0,1,.48.26c-.1,1.58-.17,3.16-.3,4.73A53.65,53.65,0,0,1,98,73.34a27.43,27.43,0,0,1-4.56,6.81,14.81,14.81,0,0,1-4.92,3.59,10.18,10.18,0,0,1-8.63,0,16.19,16.19,0,0,1-6-4.94,31.66,31.66,0,0,1-4.6-8.4,50.05,50.05,0,0,1-3-11.86c-.24-1.89-.41-3.78-.61-5.68C65.77,51.77,65.75,50.71,65.72,49.65Z"/><path class="cls-9" d="M111.34,52a27.49,27.49,0,0,1,4.71-7.5,11.83,11.83,0,0,1,1.45-1.29,6.43,6.43,0,0,1,4.57-1.34l1.53.12,3.89,1.37,1.73.85,1.31.77,4,2.51c.05.51.08,1,.16,1.51a9.73,9.73,0,0,1-1.41,7.32,8.43,8.43,0,0,1-3.39,3c-.71.31-1.39.7-2.08,1-.56-.32-1.14-.61-1.69-1a91.39,91.39,0,0,0-13.66-6.87C112.06,52.4,111.71,52.18,111.34,52Z"/><path class="cls-10" d="M110.79,57a13.37,13.37,0,0,1,6.32,1.39,38.38,38.38,0,0,1,6.82,3.75,31.56,31.56,0,0,1,5.27,4.51A9,9,0,0,1,131.58,71a3.68,3.68,0,0,1-.63,2.59c-1,1.27-2.24,1.27-3.63.77a9.71,9.71,0,0,1-2.9-1.88,68.21,68.21,0,0,0-8-6A20.39,20.39,0,0,0,110.72,64a14.36,14.36,0,0,1-3.54-1.2,2.78,2.78,0,0,1-.82-4.27,4.2,4.2,0,0,1,3-1.48C109.86,57,110.33,57,110.79,57Z"/><path class="cls-10" d="M134.85,80.19A2.69,2.69,0,0,1,132,77.46a3.14,3.14,0,0,1,2.62-2.81,3.19,3.19,0,0,1,3,3.08,2.75,2.75,0,0,1-.88,1.83A2,2,0,0,1,134.85,80.19Z"/><path class="cls-9" d="M45.82,42l1.53-.12a6.6,6.6,0,0,1,4.58,1.32,12,12,0,0,1,2.37,2.35A29.71,29.71,0,0,1,58.09,52a1.65,1.65,0,0,1-1,.68,82.65,82.65,0,0,0-8.78,4.13C46.11,58,44,59.32,41.83,60.57c0-.33-.25-.44-.55-.53a8.77,8.77,0,0,1-2.72-1.31,9.73,9.73,0,0,1-3.75-9.83,7,7,0,0,0,.06-1.38c1.27-.81,2.54-1.63,3.82-2.43.5-.32,1-.61,1.53-.91l1.91-.89Z"/><path class="cls-6" d="M107.42,22.45c.07.5.17,1,.2,1.51A14.72,14.72,0,0,1,103,36.15a9,9,0,0,1-2.42,1.61,6.73,6.73,0,0,1-2.84.59,3.59,3.59,0,0,1-3.62-3.49,6.74,6.74,0,0,1,.15-1.79,9.78,9.78,0,0,1,1.65-3.66,23.34,23.34,0,0,1,5.87-5.69c.91-.64,1.85-1.23,2.78-1.85A7.18,7.18,0,0,1,107.42,22.45Zm-1.71.83a2.92,2.92,0,0,0-.52.19,26,26,0,0,0-7,5.53,11.65,11.65,0,0,0-2,3.16,5.72,5.72,0,0,0-.53,2.15c0,1.69.8,2.47,2.51,2.39A4.92,4.92,0,0,0,101,35.61c3.91-3,5.32-7.12,4.92-11.94C105.93,23.55,105.8,23.43,105.71,23.28Z"/><path class="cls-6" d="M63.57,22.93c-.73,1.07-1.5,2.12-2.19,3.21a16.7,16.7,0,0,0-2.05,4.7,6.82,6.82,0,0,0-.17,2.62,4.41,4.41,0,0,0,.46,1.44,2.72,2.72,0,0,0,2.73,1.54,4.06,4.06,0,0,0,2.08-.69,7.14,7.14,0,0,0,3.07-4.32,8.29,8.29,0,0,0-2-8c-.19-.21-.39-.39-.59-.59a2.88,2.88,0,0,1,2-.37c.27.38.54.75.8,1.13A9.8,9.8,0,0,1,67,35.73a8.1,8.1,0,0,1-2.31,1.76c-3.18,1.62-6.75,0-7.15-4.09A9.37,9.37,0,0,1,58,29.69a21.82,21.82,0,0,1,2.41-5l.8-1.3A5.13,5.13,0,0,1,63.57,22.93Z"/><path class="cls-11" d="M25.07,44.33c2-.69,1.8-.77,3.05.92l3.38,4.56-2.73,2.5c-.62-.31-.86-1-1.24-1.46-1.08-1.43-2.07-2.93-3.07-4.43A7,7,0,0,1,24,45.3Z"/><path class="cls-11" d="M138,49.85c1.28-1.77,2.55-3.55,3.84-5.3.58-.78.85-.83,1.8-.47.39.14.77.32,1.15.48l.62.69a1.74,1.74,0,0,1-.33,1c-1.19,1.65-2.36,3.32-3.51,5a2.74,2.74,0,0,1-.93,1Z"/><path class="cls-6" d="M132.26,27.92c.09.69.21,1.37.25,2.06a14,14,0,0,1-1.44,7l-1.37-.87a12.54,12.54,0,0,0,1.17-5.68,28.79,28.79,0,0,0-.43-2.89A3.69,3.69,0,0,1,132.26,27.92Z"/><path class="cls-6" d="M38,37.28a11.09,11.09,0,0,1-.81-7.37c.07-.4.16-.8.25-1.21a3.6,3.6,0,0,1,1.85-.39c-.21,1-.5,2.07-.64,3.11a8.89,8.89,0,0,0,.67,4.88Z"/><path class="cls-12" d="M96.83,47.83c-.18,1.94-.33,3.88-.54,5.82A52.52,52.52,0,0,1,92,70.45c-.44,1-1.06,1.85-1.6,2.77A5.65,5.65,0,0,1,87,71.83a17.59,17.59,0,0,1-5-5.17,22.47,22.47,0,0,1-2.39-4.84A27.3,27.3,0,0,1,78.48,57a24.87,24.87,0,0,1-.38-3.86c.08-2,0-4.08,0-6.12a54.4,54.4,0,0,1,9.46-.32A47.29,47.29,0,0,1,96.83,47.83Z"/><path class="cls-13" d="M78.12,47c0,2,.06,4.08,0,6.12A24.87,24.87,0,0,0,78.48,57a27.3,27.3,0,0,0,1.17,4.84A22.47,22.47,0,0,0,82,66.66a17.59,17.59,0,0,0,5,5.17,5.65,5.65,0,0,0,3.41,1.39,11.14,11.14,0,0,1-3.29,3.51,5.22,5.22,0,0,1-2.32.87,4.6,4.6,0,0,1-2.9-.78,8.78,8.78,0,0,1-2.64-2.44A23.71,23.71,0,0,1,75.88,68a50.38,50.38,0,0,1-2.51-9.52,58.06,58.06,0,0,1-.87-7.44c0-1.06-.19-2.12-.29-3.18L77,47A7.74,7.74,0,0,1,78.12,47Z"/><path class="cls-14" d="M38,37.28l1.32-1c2-.72,1.8-.8,3.06.91s2.27,3.18,3.4,4.76l-3.69,1.32c-.88-1.28-1.75-2.57-2.64-3.84-.47-.67-1-1.3-1.49-2A.34.34,0,0,1,38,37.28Z"/><path class="cls-14" d="M129.7,36.1l1.37.87.32.52a3,3,0,0,0-.47.47c-.84,1.19-1.69,2.38-2.49,3.59a4.21,4.21,0,0,0-.94,1.8L123.6,42c1.31-1.83,2.63-3.64,3.93-5.47.43-.59.92-.89,1.64-.53A2.4,2.4,0,0,0,129.7,36.1Z"/><path class="cls-15" d="M127.49,43.35a4.21,4.21,0,0,1,.94-1.8c.8-1.21,1.65-2.4,2.49-3.59a3,3,0,0,1,.47-.47,4.45,4.45,0,0,1,.56.59,1.79,1.79,0,0,1-.07,2.39c-1,1.19-1.78,2.48-2.66,3.73Z"/><path class="cls-7" d="M38,37.5c.5.65,1,1.28,1.49,2,.89,1.27,1.76,2.56,2.64,3.84l-1.91.89L37.68,40.6c-.83-1.17-.84-1.52,0-2.71A2.72,2.72,0,0,1,38,37.5Z"/><path class="cls-5" d="M73.94,135.48a10.83,10.83,0,0,1-4-7.41,7.57,7.57,0,0,1,3.7-7.19,5.18,5.18,0,0,1,5.55-.29c.82.44,1.59,1,2.38,1.45a8.25,8.25,0,0,0,2.51,1.18,6.85,6.85,0,0,0,4.71-.77c.57-.29,1.09-.69,1.66-1a26.55,26.55,0,0,1,2.59-1.35,7.17,7.17,0,0,1,9.82,7.76A11.12,11.12,0,0,1,99,134.91a1.1,1.1,0,0,1-.84-.44,16.46,16.46,0,0,0-4-3.17,10.49,10.49,0,0,0-1.6-.82,19.39,19.39,0,0,0-4.38-1.23,15,15,0,0,0-6.57.45,13,13,0,0,0-2.9,1.29,10.82,10.82,0,0,0-3.91,3.45C74.57,134.81,74.43,135.3,73.94,135.48Z"/><path class="cls-16" d="M73.94,135.48c.49-.18.63-.67.88-1A10.82,10.82,0,0,1,78.73,131a13,13,0,0,1,2.9-1.29,15,15,0,0,1,6.57-.45,19.39,19.39,0,0,1,4.38,1.23,10.49,10.49,0,0,1,1.6.82,16.46,16.46,0,0,1,4,3.17,1.1,1.1,0,0,0,.84.44,15.65,15.65,0,0,1-6.85,4.1,20.25,20.25,0,0,1-13.52-.45A11.64,11.64,0,0,1,73.94,135.48Z"/><path class="cls-12" d="M124.27,94.32a5,5,0,0,1,1.33-5.91,7,7,0,0,1,2.79-1.51c1.25-.34,2.5-.67,3.74-1.06,2.43-.77,4.84-1.6,7.27-2.35a23.24,23.24,0,0,1,3.37-.8,4.9,4.9,0,0,1,4.15,1.16,3.92,3.92,0,0,1,1.22,1.65c-.24.39-.48.79-.73,1.18a9.41,9.41,0,0,1-1,1.63,18.83,18.83,0,0,1-4.24,3.56,25.1,25.1,0,0,1-8.33,3c-1,.16-1.92.28-2.89.37C128.61,95.46,126.36,95.48,124.27,94.32Z"/><path class="cls-17" d="M124.27,94.32c2.09,1.16,4.34,1.14,6.64.93,1-.09,1.93-.21,2.89-.37a25.1,25.1,0,0,0,8.33-3,18.83,18.83,0,0,0,4.24-3.56,9.41,9.41,0,0,0,1-1.63c.25-.39.49-.79.73-1.18a5.68,5.68,0,0,1-.81,6.93A12.31,12.31,0,0,1,144.19,95a37.63,37.63,0,0,1-10.07,4,11.15,11.15,0,0,1-3.45.33,7.22,7.22,0,0,1-6.33-4.55A1.35,1.35,0,0,1,124.27,94.32Z"/><path class="cls-12" d="M21.4,86.34a4.83,4.83,0,0,1,4.91-3.18,12.93,12.93,0,0,1,2.48.3c1.19.23,2.35.56,3.53.83q4.14,1,8.28,1.91A9,9,0,0,1,44,87.51a5,5,0,0,1,1.88,6l-.76.34a9.36,9.36,0,0,1-3.88,1c-.92,0-1.85.06-2.77,0a27.81,27.81,0,0,1-7.77-1.41,17.86,17.86,0,0,1-4.49-2.15,12.05,12.05,0,0,1-3.38-3.07C22.35,87.59,21.86,87,21.4,86.34Z"/><path class="cls-17" d="M21.4,86.34c.46.63,1,1.25,1.38,1.9a12.05,12.05,0,0,0,3.38,3.07,17.86,17.86,0,0,0,4.49,2.15,27.81,27.81,0,0,0,7.77,1.41c.92,0,1.85,0,2.77,0a9.36,9.36,0,0,0,3.88-1l.76-.34a6.93,6.93,0,0,1-4.58,5,7.28,7.28,0,0,1-3.43.39,38.13,38.13,0,0,1-4.1-.69A32.6,32.6,0,0,1,25,94.94a9.06,9.06,0,0,1-3.21-2.82A5.46,5.46,0,0,1,21.4,86.34Z"/><path class="cls-18" d="M142.35,107.3a17.31,17.31,0,0,1,6.29,4,20.31,20.31,0,0,1,6.47,17.12,20.94,20.94,0,0,1-41.4,2.19,5.22,5.22,0,0,1,0-.69c.12.2.27.38.37.58a25.33,25.33,0,0,0,3,4.79,15.86,15.86,0,0,0,3.54,3.26,23.6,23.6,0,0,0,5.22,2.55,27.22,27.22,0,0,0,4.44,1,2.07,2.07,0,0,0,1.74-.2,4,4,0,0,1,.69,0,10.57,10.57,0,0,0,3.72,0,13.61,13.61,0,0,0,4.76-1.47,15.42,15.42,0,0,0,8.15-10.37c.17-.71.31-1.44.46-2.15a.69.69,0,0,0,.36-.7q0-2.08,0-4.17a1.5,1.5,0,0,0,0-.42,35.43,35.43,0,0,0-1.56-5.59,28.69,28.69,0,0,0-5.57-8.73C142.71,108,142.36,107.77,142.35,107.3Z"/><path class="cls-19" d="M142.35,107.3c0,.47.36.73.64,1a28.69,28.69,0,0,1,5.57,8.73,35.43,35.43,0,0,1,1.56,5.59,1.5,1.5,0,0,1,0,.42q0,2.09,0,4.17a.69.69,0,0,1-.36.7c0-1,0-2-.13-2.91a14.83,14.83,0,0,0-4.78-9.75,12.22,12.22,0,0,0-5-3.08,13.66,13.66,0,0,0-8.73-.74,15,15,0,0,0-11.6,10.65,13.1,13.1,0,0,0-.54,6.73,15.18,15.18,0,0,0,8,11.41,17.08,17.08,0,0,0,5,1.69,2.07,2.07,0,0,1-1.74.2,27.22,27.22,0,0,1-4.44-1,23.6,23.6,0,0,1-5.22-2.55,15.86,15.86,0,0,1-3.54-3.26,25.33,25.33,0,0,1-3-4.79c-.1-.2-.25-.38-.37-.58a14.41,14.41,0,0,1-.26-5.39,20.72,20.72,0,0,1,6.16-12.93A21,21,0,0,1,142,107.07,1.92,1.92,0,0,1,142.35,107.3Z"/><path class="cls-20" d="M132,141.94a17.08,17.08,0,0,1-5-1.69,15.18,15.18,0,0,1-8-11.41,13.1,13.1,0,0,1,.54-6.73,5.7,5.7,0,0,1,.38.88,19.59,19.59,0,0,0,1.65,3.82,10.74,10.74,0,0,0,1.44,2,12.09,12.09,0,0,0,4.38,2.89,12.56,12.56,0,0,0,4.18.93,11.27,11.27,0,0,0,5.37-1.18,9,9,0,0,0,2.56-1.65,11.13,11.13,0,0,0,3.42-8.07,11.84,11.84,0,0,0-.25-1.64,16.64,16.64,0,0,0-1.72-5.67c-.37-.75-.72-1.51-1.08-2.26a12.22,12.22,0,0,1,5,3.08,14.83,14.83,0,0,1,4.78,9.75c.09,1,.09,1.94.13,2.91-.15.71-.29,1.44-.46,2.15a15.42,15.42,0,0,1-8.15,10.37,13.61,13.61,0,0,1-4.76,1.47,10.57,10.57,0,0,1-3.72,0A4,4,0,0,0,132,141.94Z"/><path class="cls-21" d="M139.85,112.2c.36.75.71,1.51,1.08,2.26a16.64,16.64,0,0,1,1.72,5.67,11.84,11.84,0,0,1,.25,1.64,11.13,11.13,0,0,1-3.42,8.07,9,9,0,0,1-2.56,1.65,11.27,11.27,0,0,1-5.37,1.18,12.56,12.56,0,0,1-4.18-.93,12.09,12.09,0,0,1-4.38-2.89,10.74,10.74,0,0,1-1.44-2A19.59,19.59,0,0,1,119.9,123a5.7,5.7,0,0,0-.38-.88,15,15,0,0,1,11.6-10.65A13.66,13.66,0,0,1,139.85,112.2ZM127.24,124a2.5,2.5,0,0,0,2.2-1c.51-.53,1-1.09,1.47-1.65a18.93,18.93,0,0,0,1.56-1.94,2.78,2.78,0,0,0-2-4.53,5.19,5.19,0,0,0-2.69,1,8.24,8.24,0,0,0-2.85,4.17,3.45,3.45,0,0,0,.19,2.57A2,2,0,0,0,127.24,124Zm-1.07,2a1.41,1.41,0,1,0-2.81,0,1.63,1.63,0,0,0,1.56,1.61C125.5,127.59,126.17,126.74,126.17,126Z"/><path class="cls-22" d="M127.24,124a2,2,0,0,1-2.13-1.39,3.45,3.45,0,0,1-.19-2.57,8.24,8.24,0,0,1,2.85-4.17,5.19,5.19,0,0,1,2.69-1,2.78,2.78,0,0,1,2,4.53,18.93,18.93,0,0,1-1.56,1.94c-.47.56-1,1.12-1.47,1.65A2.5,2.5,0,0,1,127.24,124Z"/><path class="cls-23" d="M126.17,126c0,.73-.67,1.58-1.25,1.6a1.63,1.63,0,0,1-1.56-1.61,1.41,1.41,0,1,1,2.81,0Z"/><path class="cls-18" d="M56.1,130.45c-.12.64-.19,1.29-.37,1.91a20.94,20.94,0,1,1-29-24.77,7.51,7.51,0,0,1,.91-.31c-.67.82-1.37,1.62-2,2.47A32.41,32.41,0,0,0,21.31,117a21.2,21.2,0,0,0-1.46,5.47,45,45,0,0,0,0,5.57c0,.14.2.28.31.42a4,4,0,0,1,.2.65,15.3,15.3,0,0,0,8,11.13,13.43,13.43,0,0,0,8.74,1.67,5.73,5.73,0,0,1,.83,0,3.71,3.71,0,0,0,.76.24,12.86,12.86,0,0,0,3.15-.43,20,20,0,0,0,3.68-1.2A18,18,0,0,0,53.77,134c.59-.82,1-1.74,1.55-2.62C55.53,131,55.65,130.6,56.1,130.45Z"/><path class="cls-19" d="M20.13,128.49c-.11-.14-.31-.28-.31-.42a45,45,0,0,1,0-5.57A21.2,21.2,0,0,1,21.31,117a32.41,32.41,0,0,1,4.27-7.28c.64-.85,1.34-1.65,2-2.47A12.29,12.29,0,0,1,32,105.93a20.43,20.43,0,0,1,18,5.38,20.29,20.29,0,0,1,6.41,12.52,21.93,21.93,0,0,1-.09,6.11,2.42,2.42,0,0,1-.19.51c-.45.15-.57.58-.78.94-.51.88-1,1.8-1.55,2.62a18,18,0,0,1-8.25,6.53,20,20,0,0,1-3.68,1.2,12.86,12.86,0,0,1-3.15.43,3.71,3.71,0,0,1-.76-.24l1.08-.26a15.09,15.09,0,0,0,8.76-5.55A15.28,15.28,0,0,0,51,124.77a6.6,6.6,0,0,0-.71-2.81,5.18,5.18,0,0,0-.19-.8,15.45,15.45,0,0,0-17.36-9.77,8.38,8.38,0,0,0-2.89.89,1.17,1.17,0,0,0-.27,0,15.26,15.26,0,0,0-8.37,8.52A16.35,16.35,0,0,0,20.13,128.49Z"/><path class="cls-20" d="M20.13,128.49a16.35,16.35,0,0,1,1.05-7.65,15.26,15.26,0,0,1,8.37-8.52,1.17,1.17,0,0,1,.27,0c0,.27,0,.6-.15.8a11,11,0,0,0-1.31,2.75A15.47,15.47,0,0,0,27,122.3a10.8,10.8,0,0,0,1.69,5.5,10.47,10.47,0,0,0,6.86,4.58,8.2,8.2,0,0,0,3.3.27,16.82,16.82,0,0,0,5.39-1.72,10.56,10.56,0,0,0,4.16-4.17,23.63,23.63,0,0,0,1.83-4.8,6.6,6.6,0,0,1,.71,2.81,15.28,15.28,0,0,1-3.2,11.35A15.09,15.09,0,0,1,39,141.67l-1.08.26a5.73,5.73,0,0,0-.83,0,13.43,13.43,0,0,1-8.74-1.67,15.3,15.3,0,0,1-8-11.13A4,4,0,0,0,20.13,128.49Z"/><path class="cls-21" d="M50.26,122a23.63,23.63,0,0,1-1.83,4.8,10.56,10.56,0,0,1-4.16,4.17,16.82,16.82,0,0,1-5.39,1.72,8.2,8.2,0,0,1-3.3-.27,10.47,10.47,0,0,1-6.86-4.58A10.8,10.8,0,0,1,27,122.3a15.47,15.47,0,0,1,1.33-6.47,11,11,0,0,1,1.31-2.75c.15-.2.11-.53.15-.8a8.38,8.38,0,0,1,2.89-.89,15.45,15.45,0,0,1,17.36,9.77A5.18,5.18,0,0,1,50.26,122ZM42.55,124a2,2,0,0,0,1.65-.6,3.08,3.08,0,0,0,.91-2.66,7.21,7.21,0,0,0-3.91-5.41,3.06,3.06,0,0,0-2.66-.27A2.61,2.61,0,0,0,37,118.48a6.36,6.36,0,0,0,1.47,2.33A14.31,14.31,0,0,1,40.41,123,2.31,2.31,0,0,0,42.55,124Zm4,2a1.27,1.27,0,0,0-1.44-1.45,1.62,1.62,0,0,0-1.6,1.41A1.74,1.74,0,0,0,45,127.61,1.65,1.65,0,0,0,46.58,126Z"/><path class="cls-22" d="M42.55,124A2.31,2.31,0,0,1,40.41,123a14.31,14.31,0,0,0-1.95-2.16A6.36,6.36,0,0,1,37,118.48a2.61,2.61,0,0,1,1.55-3.38,3.06,3.06,0,0,1,2.66.27,7.21,7.21,0,0,1,3.91,5.41,3.08,3.08,0,0,1-.91,2.66A2,2,0,0,1,42.55,124Z"/><path class="cls-23" d="M46.58,126a1.65,1.65,0,0,1-1.6,1.57A1.74,1.74,0,0,1,43.54,126a1.62,1.62,0,0,1,1.6-1.41A1.27,1.27,0,0,1,46.58,126Z"/></g></g></svg>