<svg xmlns="http://www.w3.org/2000/svg" viewBox="0 0 169.87 169.87"><defs><style>.cls-1{fill:none;}.cls-2{fill:#8aacc3;}.cls-3{fill:#6794ac;}.cls-4{fill:#393343;}.cls-5{fill:#db9233;}.cls-6{fill:#453f55;}.cls-7{fill:#443e55;}.cls-8{fill:#b6cbda;}.cls-9{fill:#e3b643;}.cls-10{fill:#cb77a3;}.cls-11{fill:#68a597;}.cls-12{fill:#5ea091;}.cls-13{fill:#508888;}.cls-14{fill:#e3b644;}.cls-15{fill:#dc9334;}.cls-16{fill:#453e55;}.cls-17{fill:#538a8a;}.cls-18{fill:#528989;}.cls-19{fill:#5e9f91;}.cls-20{fill:#383343;}.cls-21{fill:#443e54;}.cls-22{fill:#6c6678;}.cls-23{fill:#6b6577;}</style></defs><g id="Capa_2" data-name="Capa 2"><g id="OBJECTS"><rect class="cls-1" width="169.87" height="169.87"/><path class="cls-2" d="M138.93,68.73a16.42,16.42,0,0,0,1.14,1.21,85.62,85.62,0,0,1,6.61,6.59c1.69,1.86,3.31,3.78,4.88,5.73a81,81,0,0,1,6.63,9.63A66.77,66.77,0,0,1,164.52,106a46.72,46.72,0,0,1,1.83,8.28,43.69,43.69,0,0,1,.47,6.66A41.75,41.75,0,0,1,163,137.76a44.42,44.42,0,0,1-6.43,10.07,36.09,36.09,0,0,1-5.55,5.29,35.21,35.21,0,0,1-10.15,5.42,42.91,42.91,0,0,1-6.22,1.47,6.28,6.28,0,0,1-1,0,8.36,8.36,0,0,0-2.83-.47,33.79,33.79,0,0,1-4.26-.57,38.67,38.67,0,0,1-9-2.92,45.88,45.88,0,0,1-8-4.94,85.24,85.24,0,0,0-8.39-5.69,34.92,34.92,0,0,0-5.52-2.64,40.91,40.91,0,0,0-12-2.56c-.19,0-.37-.05-.55-.07A10.28,10.28,0,0,0,81.4,140c-2.27.05-4.55-.24-6.8.25a23.49,23.49,0,0,0-5.22.68c-2,.34-4,.92-5.94,1.38-3.15.74-6.23,1.78-9.45,2.23a26,26,0,0,1-4.13.47c-1.81,0-3.62,0-5.44,0a6.87,6.87,0,0,1-1.11,0c-1-.16-1.92-.31-2.86-.53A29.82,29.82,0,0,1,32,141.35a23.33,23.33,0,0,1-6.08-5.27,26,26,0,0,1-4.37-7.39,30.86,30.86,0,0,1-2.32-9.54,1.47,1.47,0,0,0-.05-.42,4.8,4.8,0,0,1-.21-2.06,34.86,34.86,0,0,1,.21-5c.22-1.22.36-2.46.58-3.69a49.43,49.43,0,0,1,3.39-10.71c1-2.35,2.19-4.62,3.29-6.92A57.89,57.89,0,0,1,30.13,84q2.37-3.67,5.07-7.13c1.4-1.8,3-3.42,4.45-5.15A79.67,79.67,0,0,1,45.58,66l.22-.18c1.57-1.22,3.13-2.45,4.72-3.65a79.7,79.7,0,0,1,7.14-4.82c2.23-1.34,4.48-2.63,6.73-3.91a13.56,13.56,0,0,1,1.41-.6c.2,1.9.37,3.79.61,5.68a50.05,50.05,0,0,0,3,11.86,31.66,31.66,0,0,0,4.6,8.4,16.19,16.19,0,0,0,6,4.94,10.18,10.18,0,0,0,8.63,0,14.81,14.81,0,0,0,4.92-3.59A27.43,27.43,0,0,0,98,73.34,53.65,53.65,0,0,0,103,54.16c.13-1.57.2-3.15.3-4.73a3.31,3.31,0,0,1,.55.08l5.67,1.92c.61.21,1.24.38,1.86.56.37.19.72.41,1.1.57a91.39,91.39,0,0,1,13.66,6.87c.55.35,1.13.64,1.69,1a3.52,3.52,0,0,0,.41.36,98.3,98.3,0,0,1,10,7.57A3.77,3.77,0,0,0,138.93,68.73ZM110.79,57c-.46,0-.93,0-1.39,0a4.2,4.2,0,0,0-3,1.48,2.78,2.78,0,0,0,.82,4.27,14.36,14.36,0,0,0,3.54,1.2,20.39,20.39,0,0,1,5.71,2.51,68.21,68.21,0,0,1,8,6,9.71,9.71,0,0,0,2.9,1.88c1.39.5,2.64.5,3.63-.77a3.68,3.68,0,0,0,.63-2.59,9,9,0,0,0-2.38-4.33,31.56,31.56,0,0,0-5.27-4.51,38.38,38.38,0,0,0-6.82-3.75A13.37,13.37,0,0,0,110.79,57Zm24.06,23.18a2,2,0,0,0,1.84-.63,2.75,2.75,0,0,0,.88-1.83,3.19,3.19,0,0,0-3-3.08A3.14,3.14,0,0,0,132,77.46,2.69,2.69,0,0,0,134.85,80.19Z"/><path class="cls-3" d="M65.8,52.83a13.56,13.56,0,0,0-1.41.6c-2.25,1.28-4.5,2.57-6.73,3.91a79.7,79.7,0,0,0-7.14,4.82c-1.59,1.2-3.15,2.43-4.72,3.65l-.22.18a79.67,79.67,0,0,0-5.93,5.69c-1.46,1.73-3,3.35-4.45,5.15Q32.5,80.28,30.13,84a57.89,57.89,0,0,0-3.69,6.39c-1.1,2.3-2.28,4.57-3.29,6.92A49.43,49.43,0,0,0,19.76,108c-.22,1.23-.36,2.47-.58,3.69a34.86,34.86,0,0,0-.21,5,4.8,4.8,0,0,0,.21,2.06,1.47,1.47,0,0,1,.05.42,30.86,30.86,0,0,0,2.32,9.54,26,26,0,0,0,4.37,7.39A23.33,23.33,0,0,0,32,141.35a29.82,29.82,0,0,0,8.45,3.05c.94.22,1.9.37,2.86.53a6.87,6.87,0,0,0,1.11,0c1.82,0,3.63,0,5.44,0a26,26,0,0,0,4.13-.47c3.22-.45,6.3-1.49,9.45-2.23,2-.46,3.94-1,5.94-1.38a23.49,23.49,0,0,1,5.22-.68c2.25-.49,4.53-.2,6.8-.25a10.28,10.28,0,0,1,1.65.18c.18,0,.36.06.55.07a40.91,40.91,0,0,1,12,2.56,34.92,34.92,0,0,1,5.52,2.64,85.24,85.24,0,0,1,8.39,5.69,45.88,45.88,0,0,0,8,4.94,38.67,38.67,0,0,0,9,2.92,33.79,33.79,0,0,0,4.26.57,8.36,8.36,0,0,1,2.83.47,33.12,33.12,0,0,1-16.74-2.7c-3.26-1.37-6.45-2.89-9.64-4.4s-6.31-3-9.56-4.23a39.56,39.56,0,0,0-10.54-2.53,25.93,25.93,0,0,0-6.81.3,47.36,47.36,0,0,0-11.8,3.71c-3,1.39-6.06,2.83-9.09,4.25a79.24,79.24,0,0,1-9.9,4.13,34.54,34.54,0,0,1-8.05,1.56A32.64,32.64,0,0,1,19,153.19,40.06,40.06,0,0,1,7.59,139.26,40.81,40.81,0,0,1,3.4,126a43.61,43.61,0,0,1-.13-10.15A54.88,54.88,0,0,1,8.35,98.13a80.19,80.19,0,0,1,10.2-16.26A112.11,112.11,0,0,1,29.69,70c.36-.34.87-.58.86-1.2.66.13,1-.39,1.42-.72,1.74-1.38,3.45-2.8,5.22-4.15,1.52-1.14,3.09-2.21,4.64-3.31C44,59.32,46.11,58,48.3,56.83a82.65,82.65,0,0,1,8.78-4.13,1.65,1.65,0,0,0,1-.68,7.48,7.48,0,0,0,1.07-.19c.7-.22,1.39-.51,2.09-.75,1.49-.49,3-.95,4.47-1.43Z"/><path class="cls-4" d="M41.83,60.57c-1.55,1.1-3.12,2.17-4.64,3.31C35.42,65.23,33.71,66.65,32,68c-.42.33-.76.85-1.42.72-.93-1.2-1.93-2.37-2.77-3.64A17.07,17.07,0,0,1,26.21,62a7.6,7.6,0,0,1,.56-6.93c.2-.35.39-.73.58-1.09l1.42-1.71,2.73-2.5L32.73,49c.71-.49,1.42-1,2.14-1.44a7,7,0,0,1-.06,1.38,9.73,9.73,0,0,0,3.75,9.83A8.77,8.77,0,0,0,41.28,60C41.58,60.13,41.79,60.24,41.83,60.57Z"/><path class="cls-4" d="M138.93,68.73a3.77,3.77,0,0,1-.7-.41,98.3,98.3,0,0,0-10-7.57,3.52,3.52,0,0,1-.41-.36c.69-.35,1.37-.74,2.08-1a8.43,8.43,0,0,0,3.39-3A9.73,9.73,0,0,0,134.67,49c-.08-.5-.11-1-.16-1.51.57.37,1.15.73,1.71,1.11s1.18.84,1.78,1.26l2.64,2.44,1.43,1.77.62,1.09a7.83,7.83,0,0,1,.58,6.83,14.36,14.36,0,0,1-2,3.67C140.55,66.7,139.73,67.71,138.93,68.73Z"/><path class="cls-5" d="M142.07,54.06l-1.43-1.77a2.74,2.74,0,0,0,.93-1c1.15-1.67,2.32-3.34,3.51-5a1.74,1.74,0,0,0,.33-1l.68.51c1,2,.82,1.68-.26,3.18C144.59,50.66,143.32,52.36,142.07,54.06Z"/><path class="cls-5" d="M28.77,52.31,27.35,54c-.72-1-1.46-1.92-2.17-2.89s-1.47-2-2.2-3.05a1.12,1.12,0,0,1-.12-1.3c.25-.44.51-.88.77-1.32L24,45.3a7,7,0,0,0,.49,1.12c1,1.5,2,3,3.07,4.43C27.91,51.35,28.15,52,28.77,52.31Z"/><path class="cls-6" d="M65.72,49.65a3,3,0,0,1,.61-.32l5.88-1.45c.1,1.06.26,2.12.29,3.18a58.06,58.06,0,0,0,.87,7.44A50.38,50.38,0,0,0,75.88,68a23.71,23.71,0,0,0,3.38,6.36,8.78,8.78,0,0,0,2.64,2.44,4.6,4.6,0,0,0,2.9.78,5.22,5.22,0,0,0,2.32-.87,11.14,11.14,0,0,0,3.29-3.51c.54-.92,1.16-1.81,1.6-2.77a52.52,52.52,0,0,0,4.28-16.8c.21-1.94.36-3.88.54-5.82,2,.44,4,.88,6,1.34a2,2,0,0,1,.48.26c-.1,1.58-.17,3.16-.3,4.73A53.65,53.65,0,0,1,98,73.34a27.43,27.43,0,0,1-4.56,6.81,14.81,14.81,0,0,1-4.92,3.59,10.18,10.18,0,0,1-8.63,0,16.19,16.19,0,0,1-6-4.94,31.66,31.66,0,0,1-4.6-8.4,50.05,50.05,0,0,1-3-11.86c-.24-1.89-.41-3.78-.61-5.68C65.77,51.77,65.75,50.71,65.72,49.65Z"/><path class="cls-7" d="M111.34,52a27.49,27.49,0,0,1,4.71-7.5,11.83,11.83,0,0,1,1.45-1.29,6.43,6.43,0,0,1,4.57-1.34l1.53.12,3.89,1.37,1.73.85,1.31.77,4,2.51c.05.51.08,1,.16,1.51a9.73,9.73,0,0,1-1.41,7.32,8.43,8.43,0,0,1-3.39,3c-.71.31-1.39.7-2.08,1-.56-.32-1.14-.61-1.69-1a91.39,91.39,0,0,0-13.66-6.87C112.06,52.4,111.71,52.18,111.34,52Z"/><path class="cls-8" d="M110.79,57a13.37,13.37,0,0,1,6.32,1.39,38.38,38.38,0,0,1,6.82,3.75,31.56,31.56,0,0,1,5.27,4.51A9,9,0,0,1,131.58,71a3.68,3.68,0,0,1-.63,2.59c-1,1.27-2.24,1.27-3.63.77a9.71,9.71,0,0,1-2.9-1.88,68.21,68.21,0,0,0-8-6A20.39,20.39,0,0,0,110.72,64a14.36,14.36,0,0,1-3.54-1.2,2.78,2.78,0,0,1-.82-4.27,4.2,4.2,0,0,1,3-1.48C109.86,57,110.33,57,110.79,57Z"/><path class="cls-8" d="M134.85,80.19A2.69,2.69,0,0,1,132,77.46a3.14,3.14,0,0,1,2.62-2.81,3.19,3.19,0,0,1,3,3.08,2.75,2.75,0,0,1-.88,1.83A2,2,0,0,1,134.85,80.19Z"/><path class="cls-7" d="M45.82,42l1.53-.12a6.6,6.6,0,0,1,4.58,1.32,12,12,0,0,1,2.37,2.35A29.71,29.71,0,0,1,58.09,52a1.65,1.65,0,0,1-1,.68,82.65,82.65,0,0,0-8.78,4.13C46.11,58,44,59.32,41.83,60.57c0-.33-.25-.44-.55-.53a8.77,8.77,0,0,1-2.72-1.31,9.73,9.73,0,0,1-3.75-9.83,7,7,0,0,0,.06-1.38c1.27-.81,2.54-1.63,3.82-2.43.5-.32,1-.61,1.53-.91l1.91-.89Z"/><path class="cls-9" d="M25.07,44.33c2-.69,1.8-.77,3.05.92l3.38,4.56-2.73,2.5c-.62-.31-.86-1-1.24-1.46-1.08-1.43-2.07-2.93-3.07-4.43A7,7,0,0,1,24,45.3Z"/><path class="cls-9" d="M138,49.85c1.28-1.77,2.55-3.55,3.84-5.3.58-.78.85-.83,1.8-.47.39.14.77.32,1.15.48l.62.69a1.74,1.74,0,0,1-.33,1c-1.19,1.65-2.36,3.32-3.51,5a2.74,2.74,0,0,1-.93,1Z"/><path class="cls-10" d="M23.63,45.55c-1.07-2.53-.37-4.88,1.42-7.11,2.18-2.71,5.42-4.52,9.5-5.57,1.21-.31,2.5-.5,3.75-.74l2-.2c.65,0,1.29-.08,1.94-.09a26.49,26.49,0,0,1,5.35.47,1.94,1.94,0,0,0,1.52-.22,17.26,17.26,0,0,1,3.61-1.66,40.55,40.55,0,0,1,6.4-1.64l3.5-.61a9.7,9.7,0,0,0,3.1-.38c.46,0,.92,0,1.38,0a82.71,82.71,0,0,1,9.58.17,32.56,32.56,0,0,1,7.72,1.58,3.19,3.19,0,0,1,.37.13,1.84,1.84,0,0,0,1.57,0l.37-.14a37.74,37.74,0,0,1,11.85-2.3,46.6,46.6,0,0,1,6.25.16,5.65,5.65,0,0,0,1.93.23l.6.07a8.56,8.56,0,0,0,2.55.59l1.14.36a27.52,27.52,0,0,1,6,2.47c.61.35,1.18.74,1.77,1.12.26,0,.49-.07.71-.12a32.88,32.88,0,0,1,7.7-.73h2.37l1.91.2a29.42,29.42,0,0,1,5.69,1.28c4.84,1.72,8.24,4.31,9.35,8.19a5.74,5.74,0,0,1-.47,4.72l-.68-.36-.62-.5a5.81,5.81,0,0,0,.15-3.66c-.68-2.38-2.44-4.28-5.06-5.78a19.64,19.64,0,0,0-7.62-2.5,5,5,0,0,0-1.82-.28,32.87,32.87,0,0,0-10.37.56,3.76,3.76,0,0,0,.38.57,4.67,4.67,0,0,1,1,1.95A3.37,3.37,0,0,1,120,39.53a7.91,7.91,0,0,1-3.64,1.37,6.9,6.9,0,0,1-3.24-.31,3.63,3.63,0,0,1-1.85-1.17,2.38,2.38,0,0,1-.2-2.7,5.38,5.38,0,0,1,1.51-1.67,14.42,14.42,0,0,1,3.64-2c.27-.11.65-.14.67-.49a9.27,9.27,0,0,0-1.63-1A28.17,28.17,0,0,0,107.42,29a9.9,9.9,0,0,0-2.89-.42c-6.07-.9-14.74.64-17.24,2.13.1.11.18.22.29.32.28.22.59.42.88.65a4,4,0,0,1,1.82,3.37c-.21,3.25-4.28,5.12-7.89,4.72A3.91,3.91,0,0,1,79,37.67a3,3,0,0,1,.31-2.92,10.37,10.37,0,0,1,3.88-3.61,6.34,6.34,0,0,0,.57-.48c-.57-.18-1-.35-1.5-.48a33.44,33.44,0,0,0-6.21-1.06,67,67,0,0,0-9.18-.07,3.87,3.87,0,0,0-2,.27l-1.3.06a6.7,6.7,0,0,0-2.41.32,34.07,34.07,0,0,0-5.75,1.17,24.65,24.65,0,0,0-4.32,1.6,5.4,5.4,0,0,0-.72.51c.5.26.91.47,1.3.69,2,1.1,3.27,3,2.14,5.06a3.87,3.87,0,0,1-1.7,1.56A5.31,5.31,0,0,1,47,40a3.43,3.43,0,0,1-1.64-3.56A5.61,5.61,0,0,1,46.67,34a4.87,4.87,0,0,0,.35-.53A24.9,24.9,0,0,0,41.68,33c-.78,0-1.56.14-2.35.22a4.58,4.58,0,0,0-1.85.28,19.52,19.52,0,0,0-7.9,2.78A10,10,0,0,0,25,42a4,4,0,0,0,.12,2.76l-1.1.7Zm56.75-9c.15,1.6,1.44,2.24,3.16,2.17a5.43,5.43,0,0,0,4.77-2.51,2.08,2.08,0,0,0,.34-1.46,4.52,4.52,0,0,0-2.36-3,1.26,1.26,0,0,0-1.49,0,11.3,11.3,0,0,0-3.47,2.69A4,4,0,0,0,80.38,36.54ZM120,37a4,4,0,0,0-1.19-2.86c-.32-.37-.61-.42-1.18-.23a13.69,13.69,0,0,0-3.56,1.73,5.53,5.53,0,0,0-1.26,1.19c-1,1.43-.25,2.75,2.15,3a5.82,5.82,0,0,0,2.8-.46C119.21,38.73,119.92,37.81,120,37ZM49.91,39.64a2.55,2.55,0,0,0,1.55-.46A2.3,2.3,0,0,0,52.59,37c-.18-1.48-1.51-2.36-3.25-3a.81.81,0,0,0-.86.16,4.46,4.46,0,0,0-1.58,2.71,2.31,2.31,0,0,0,.55,1.73A2.94,2.94,0,0,0,49.91,39.64Z"/><path class="cls-11" d="M106.73,27.6a5.65,5.65,0,0,1-1.93-.23,9.19,9.19,0,0,0-3-2.87,20.47,20.47,0,0,0-7-2.76,36.13,36.13,0,0,0-10.49-.53A38,38,0,0,0,68.9,25.73a17.85,17.85,0,0,0-3.19,2.07,9.7,9.7,0,0,1-3.1.38,5.85,5.85,0,0,0-.56-.28,23.7,23.7,0,0,0-15-.38,12.67,12.67,0,0,0-6.8,4.41l-2,.2A13.4,13.4,0,0,1,44.88,27a23.3,23.3,0,0,1,9.64-1.64,24.87,24.87,0,0,1,8.8,1.7l.51.16h.23l.86-.57a38.55,38.55,0,0,1,16.94-6.35,38.85,38.85,0,0,1,13.52.34,19.87,19.87,0,0,1,9.22,4.29A8.35,8.35,0,0,1,106.73,27.6Z"/><path class="cls-11" d="M131.52,31.57l-1.91-.2a5.06,5.06,0,0,0-1.41-1.48,13.91,13.91,0,0,0-6.82-2.5,31,31,0,0,0-11.5.87,8.56,8.56,0,0,1-2.55-.59,38.09,38.09,0,0,1,8.47-1.58,25,25,0,0,1,9.69,1,10.87,10.87,0,0,1,5.68,3.83A6,6,0,0,1,131.52,31.57Z"/><path class="cls-11" d="M107.42,29a10,10,0,0,1,.2,1.09c.28,3.41-1.14,6.37-4.66,8.74A9.68,9.68,0,0,1,100.54,40a8.88,8.88,0,0,1-2.84.42c-2,0-3.49-1-3.62-2.5a3.54,3.54,0,0,1,.15-1.29A6.27,6.27,0,0,1,95.88,34a21.64,21.64,0,0,1,5.87-4.09c.91-.46,1.85-.88,2.78-1.33A9.9,9.9,0,0,1,107.42,29Zm-1.71.6a4,4,0,0,0-.52.13,26.58,26.58,0,0,0-7,4,8.6,8.6,0,0,0-2,2.27,3.2,3.2,0,0,0-.53,1.54c0,1.21.8,1.77,2.51,1.72a6.23,6.23,0,0,0,2.82-.79c3.91-2.17,5.32-5.11,4.92-8.57C105.93,29.82,105.8,29.74,105.71,29.63Z"/><path class="cls-11" d="M63.57,29.38c-.73.76-1.5,1.52-2.19,2.3a10.71,10.71,0,0,0-2.05,3.37,3.56,3.56,0,0,0-.17,1.88,2.5,2.5,0,0,0,.46,1,3,3,0,0,0,2.73,1.11,5.1,5.1,0,0,0,2.08-.5,5.53,5.53,0,0,0,3.07-3.1c.78-2.16,0-4.07-2-5.73-.19-.15-.39-.28-.59-.42a3.87,3.87,0,0,1,2-.27c.27.27.54.54.8.82,2.6,2.73,2.26,6.37-.73,8.69a8.7,8.7,0,0,1-2.31,1.27c-3.18,1.16-6.75,0-7.15-2.94A5,5,0,0,1,58,34.23a14.27,14.27,0,0,1,2.41-3.6l.8-.93A6.7,6.7,0,0,1,63.57,29.38Z"/><path class="cls-11" d="M132.26,33a14.74,14.74,0,0,1,.25,1.48,7.69,7.69,0,0,1-1.44,5l-1.37-.62a6.92,6.92,0,0,0,1.17-4.08,15.23,15.23,0,0,0-.43-2.07A5,5,0,0,1,132.26,33Z"/><path class="cls-11" d="M38,39.68a6,6,0,0,1-.81-5.29c.07-.29.16-.58.25-.87a4.58,4.58,0,0,1,1.85-.28c-.21.74-.5,1.48-.64,2.23a4.78,4.78,0,0,0,.67,3.5Z"/><path class="cls-12" d="M96.83,47.83c-.18,1.94-.33,3.88-.54,5.82A52.52,52.52,0,0,1,92,70.45c-.44,1-1.06,1.85-1.6,2.77A5.65,5.65,0,0,1,87,71.83a17.59,17.59,0,0,1-5-5.17,22.47,22.47,0,0,1-2.39-4.84A27.3,27.3,0,0,1,78.48,57a24.87,24.87,0,0,1-.38-3.86c.08-2,0-4.08,0-6.12a54.4,54.4,0,0,1,9.46-.32A47.29,47.29,0,0,1,96.83,47.83Z"/><path class="cls-13" d="M78.12,47c0,2,.06,4.08,0,6.12A24.87,24.87,0,0,0,78.48,57a27.3,27.3,0,0,0,1.17,4.84A22.47,22.47,0,0,0,82,66.66a17.59,17.59,0,0,0,5,5.17,5.65,5.65,0,0,0,3.41,1.39,11.14,11.14,0,0,1-3.29,3.51,5.22,5.22,0,0,1-2.32.87,4.6,4.6,0,0,1-2.9-.78,8.78,8.78,0,0,1-2.64-2.44A23.71,23.71,0,0,1,75.88,68a50.38,50.38,0,0,1-2.51-9.52,58.06,58.06,0,0,1-.87-7.44c0-1.06-.19-2.12-.29-3.18L77,47A7.74,7.74,0,0,1,78.12,47Z"/><path class="cls-14" d="M38,37.28l1.32-1c2-.72,1.8-.8,3.06.91s2.27,3.18,3.4,4.76l-3.69,1.32c-.88-1.28-1.75-2.57-2.64-3.84-.47-.67-1-1.3-1.49-2A.34.34,0,0,1,38,37.28Z"/><path class="cls-14" d="M129.7,36.1l1.37.87.32.52a3,3,0,0,0-.47.47c-.84,1.19-1.69,2.38-2.49,3.59a4.21,4.21,0,0,0-.94,1.8L123.6,42c1.31-1.83,2.63-3.64,3.93-5.47.43-.59.92-.89,1.64-.53A2.4,2.4,0,0,0,129.7,36.1Z"/><path class="cls-15" d="M127.49,43.35a4.21,4.21,0,0,1,.94-1.8c.8-1.21,1.65-2.4,2.49-3.59a3,3,0,0,1,.47-.47,4.45,4.45,0,0,1,.56.59,1.79,1.79,0,0,1-.07,2.39c-1,1.19-1.78,2.48-2.66,3.73Z"/><path class="cls-5" d="M38,37.5c.5.65,1,1.28,1.49,2,.89,1.27,1.76,2.56,2.64,3.84l-1.91.89L37.68,40.6c-.83-1.17-.84-1.52,0-2.71A2.72,2.72,0,0,1,38,37.5Z"/><path class="cls-4" d="M73.94,135.48a10.83,10.83,0,0,1-4-7.41,7.57,7.57,0,0,1,3.7-7.19,5.18,5.18,0,0,1,5.55-.29c.82.44,1.59,1,2.38,1.45a8.25,8.25,0,0,0,2.51,1.18,6.85,6.85,0,0,0,4.71-.77c.57-.29,1.09-.69,1.66-1a26.55,26.55,0,0,1,2.59-1.35,7.17,7.17,0,0,1,9.82,7.76A11.12,11.12,0,0,1,99,134.91a1.1,1.1,0,0,1-.84-.44,16.46,16.46,0,0,0-4-3.17,10.49,10.49,0,0,0-1.6-.82,19.39,19.39,0,0,0-4.38-1.23,15,15,0,0,0-6.57.45,13,13,0,0,0-2.9,1.29,10.82,10.82,0,0,0-3.91,3.45C74.57,134.81,74.43,135.3,73.94,135.48Z"/><path class="cls-16" d="M73.94,135.48c.49-.18.63-.67.88-1A10.82,10.82,0,0,1,78.73,131a13,13,0,0,1,2.9-1.29,15,15,0,0,1,6.57-.45,19.39,19.39,0,0,1,4.38,1.23,10.49,10.49,0,0,1,1.6.82,16.46,16.46,0,0,1,4,3.17,1.1,1.1,0,0,0,.84.44,15.65,15.65,0,0,1-6.85,4.1,20.25,20.25,0,0,1-13.52-.45A11.64,11.64,0,0,1,73.94,135.48Z"/><path class="cls-12" d="M124.27,95.73a5,5,0,0,1,1.33-5.91,7,7,0,0,1,2.79-1.51c1.25-.35,2.5-.67,3.74-1.06,2.43-.77,4.84-1.6,7.27-2.35a24.66,24.66,0,0,1,3.37-.81,4.9,4.9,0,0,1,4.15,1.17,3.92,3.92,0,0,1,1.22,1.65c-.24.39-.48.78-.73,1.17a9.5,9.5,0,0,1-1,1.64,19.1,19.1,0,0,1-4.24,3.56,25.1,25.1,0,0,1-8.33,3c-1,.16-1.92.27-2.89.37C128.61,96.87,126.36,96.89,124.27,95.73Z"/><path class="cls-17" d="M124.27,95.73c2.09,1.16,4.34,1.14,6.64.93,1-.1,1.93-.21,2.89-.37a25.1,25.1,0,0,0,8.33-3,19.1,19.1,0,0,0,4.24-3.56,9.5,9.5,0,0,0,1-1.64c.25-.39.49-.78.73-1.17a5.68,5.68,0,0,1-.81,6.93,12.31,12.31,0,0,1-3.14,2.52,37.94,37.94,0,0,1-10.07,4,10.86,10.86,0,0,1-3.45.33,7.2,7.2,0,0,1-6.33-4.54A1.35,1.35,0,0,1,124.27,95.73Z"/><path class="cls-12" d="M21.4,87.75a4.83,4.83,0,0,1,4.91-3.18,13.76,13.76,0,0,1,2.48.29c1.19.24,2.35.57,3.53.84,2.76.64,5.52,1.29,8.28,1.91A8.66,8.66,0,0,1,44,88.92a5,5,0,0,1,1.88,6l-.76.35a9.51,9.51,0,0,1-3.88,1c-.92,0-1.85,0-2.77,0a27.45,27.45,0,0,1-7.77-1.41,17.83,17.83,0,0,1-4.49-2.14,12.21,12.21,0,0,1-3.38-3.07C22.35,89,21.86,88.38,21.4,87.75Z"/><path class="cls-17" d="M21.4,87.75c.46.63,1,1.25,1.38,1.9a12.21,12.21,0,0,0,3.38,3.07,17.83,17.83,0,0,0,4.49,2.14,27.45,27.45,0,0,0,7.77,1.41c.92,0,1.85,0,2.77,0a9.51,9.51,0,0,0,3.88-1l.76-.35a6.93,6.93,0,0,1-4.58,5,7.28,7.28,0,0,1-3.43.39,38.13,38.13,0,0,1-4.1-.69A32.6,32.6,0,0,1,25,96.35a9.16,9.16,0,0,1-3.21-2.82A5.47,5.47,0,0,1,21.4,87.75Z"/><path class="cls-18" d="M142.35,125.54c2.41,0,4.47.12,6.29.21,4.84.24,7.08.54,6.47.89-.9.53-8.61.91-17.59,1-10.51.09-21.4-.26-23.81-.86,0,0,0,0,0,0l.37,0c.83.09,1.84.17,3,.25,1,.07,2.2.12,3.54.17,1.63,0,3.38.1,5.22.13,1.45,0,2.94,0,4.44,0,.56,0,1.2,0,1.74,0h.69c1.24,0,2.47,0,3.72,0,1.68,0,3.28,0,4.76-.07a63.23,63.23,0,0,0,8.15-.54l.46-.11c.29,0,.36,0,.36,0a.81.81,0,0,0,0-.22s0,0,0,0a12.38,12.38,0,0,0-1.56-.29c-1.38-.17-3.14-.32-5.57-.45A3.54,3.54,0,0,1,142.35,125.54Z"/><path class="cls-19" d="M142.35,125.54a3.54,3.54,0,0,0,.64.06c2.43.13,4.19.28,5.57.45a12.38,12.38,0,0,1,1.56.29s0,0,0,0a.81.81,0,0,1,0,.22s-.07,0-.36,0c0-.05,0-.11-.13-.16a20.94,20.94,0,0,0-4.78-.5c-1.45-.07-3.08-.13-5-.16-2.83-.07-5.78-.08-8.73,0a100.08,100.08,0,0,0-11.6.55c-.82.12-.9.24-.54.35.81.27,3.51.47,8,.6,1.57,0,3.26.07,5,.08-.54,0-1.18,0-1.74,0-1.5,0-3,0-4.44,0-1.84,0-3.59-.08-5.22-.13-1.34,0-2.51-.1-3.54-.17-1.2-.08-2.21-.16-3-.25l-.37,0c-.49-.09-.45-.19-.26-.28.52-.26,2.56-.49,6.16-.67,5.87-.31,14.76-.4,22.43-.24Z"/><path class="cls-20" d="M132,127.34c-1.74,0-3.43,0-5-.08-4.53-.13-7.23-.33-8-.6-.36-.11-.28-.23.54-.35l.38,0c.37.07,1,.13,1.65.2.39,0,.89.07,1.44.1,1.21.07,2.76.12,4.38.15,1.33,0,2.75,0,4.18,0,1.89,0,3.66,0,5.37-.06l2.56-.08c2.34-.12,3.29-.26,3.42-.42s-.19-.06-.25-.09a8,8,0,0,0-1.72-.3l-1.08-.11c2,0,3.59.09,5,.16a20.94,20.94,0,0,1,4.78.5c.09.05.09.11.13.16l-.46.11a63.23,63.23,0,0,1-8.15.54c-1.48,0-3.08.06-4.76.07-1.25,0-2.48,0-3.72,0Z"/><path class="cls-21" d="M139.85,125.8l1.08.11a8,8,0,0,1,1.72.3c.06,0,.27.06.25.09s-1.08.3-3.42.42l-2.56.08c-1.71,0-3.48.07-5.37.06-1.43,0-2.85,0-4.18,0-1.62,0-3.17-.08-4.38-.15-.55,0-1-.06-1.44-.1-.64-.07-1.28-.13-1.65-.2l-.38,0a100.08,100.08,0,0,1,11.6-.55C134.07,125.72,137,125.73,139.85,125.8Zm-12.61.61c1,0,1.62,0,2.2,0l1.47-.09c.54,0,1.12-.06,1.56-.1s.85-.09.38-.15-1.55-.09-2.39-.08-1.91,0-2.69,0a26.69,26.69,0,0,0-2.85.22c-.26,0-.21.09.19.13A20.14,20.14,0,0,0,127.24,126.41Zm-1.07.11a5.25,5.25,0,0,0-1.46-.08,5.46,5.46,0,0,0-1.35.07,7.19,7.19,0,0,0,1.56.09A6.89,6.89,0,0,0,126.17,126.52Z"/><path class="cls-22" d="M127.24,126.41a20.14,20.14,0,0,1-2.13-.07c-.4,0-.45-.09-.19-.13a26.69,26.69,0,0,1,2.85-.22c.78,0,1.73,0,2.69,0s2,0,2.39.08.19.11-.38.15-1,.07-1.56.1l-1.47.09C128.86,126.39,128.21,126.42,127.24,126.41Z"/><path class="cls-23" d="M126.17,126.52a6.89,6.89,0,0,1-1.25.08,7.19,7.19,0,0,1-1.56-.09,5.46,5.46,0,0,1,1.35-.07A5.25,5.25,0,0,1,126.17,126.52Z"/><path class="cls-18" d="M56.1,126.75a3.09,3.09,0,0,1-.37.1c-2.17.4-8.9.71-16.84.77-11.22.1-22.36-.3-24-.93-1.3-.49,3.78-.93,11.82-1.13l.91,0-2,.13c-1.7.12-3.2.24-4.27.38a6.49,6.49,0,0,0-1.46.29c-.21.09-.05.19,0,.29l.31,0,.2,0a50.85,50.85,0,0,0,8,.58c2.7.08,5.63.11,8.74.09h1.59l3.15,0c1.28,0,2.47,0,3.68-.06,3.43-.07,6.13-.19,8.25-.34l1.55-.14A7.62,7.62,0,0,1,56.1,126.75Z"/><path class="cls-19" d="M20.13,126.65l-.31,0c0-.1-.18-.2,0-.29a6.49,6.49,0,0,1,1.46-.29c1.07-.14,2.57-.26,4.27-.38l2-.13c1.35,0,2.86-.06,4.36-.07,6.87-.06,12.92,0,18,.28a33.27,33.27,0,0,1,6.41.65c.28.11.2.22-.09.32l-.19,0a7.62,7.62,0,0,0-.78,0l-1.55.14c-2.12.15-4.82.27-8.25.34-1.21,0-2.4,0-3.68.06l-3.15,0h-.76l1.08,0c3.57,0,6.5-.13,8.76-.28,2.61-.18,3.63-.38,3.2-.6a1.6,1.6,0,0,0-.71-.14.69.69,0,0,0-.19,0c-1.32-.19-3.64-.33-6.9-.42s-6.77-.13-10.46-.09c-1,0-2,0-2.89,0h-.27c-3.95.09-6.75.24-8.37.45C20.18,126.38,19.91,126.51,20.13,126.65Z"/><path class="cls-20" d="M20.13,126.65c-.22-.14.05-.27,1.05-.4,1.62-.21,4.42-.36,8.37-.45h.27s0,0-.15,0c-.64,0-.93.1-1.31.15-.84.11-1.42.22-1.33.33a4.34,4.34,0,0,0,1.69.29c1.62.13,4,.21,6.86.24,1.08,0,2.2,0,3.3,0,1.87,0,3.71,0,5.39-.09s3.18-.12,4.16-.21,1.35-.17,1.83-.25a1.6,1.6,0,0,1,.71.14c.43.22-.59.42-3.2.6-2.26.15-5.19.24-8.76.28l-1.08,0H37.1c-3.11,0-6,0-8.74-.09a50.85,50.85,0,0,1-8-.58Z"/><path class="cls-21" d="M50.26,126.31c-.48.08-1,.17-1.83.25s-2.38.16-4.16.21-3.52.08-5.39.09c-1.1,0-2.22,0-3.3,0-2.87,0-5.24-.11-6.86-.24a4.34,4.34,0,0,1-1.69-.29c-.09-.11.49-.22,1.33-.33.38,0,.67-.1,1.31-.15.15,0,.11,0,.15,0,.89,0,1.89,0,2.89,0,3.69,0,7.2,0,10.46.09s5.58.23,6.9.42A.69.69,0,0,1,50.26,126.31Zm-7.71.11c.64,0,1.21,0,1.65,0,.71,0,1.07-.08.91-.13A22.68,22.68,0,0,0,41.2,126c-.82,0-1.71,0-2.66,0-1.36,0-2.1.11-1.55.18.34,0,.78.08,1.47.12l1.95.11C40.9,126.4,41.63,126.42,42.55,126.42Zm4,.1a5,5,0,0,0-1.44-.08,9,9,0,0,0-1.6.08,7.49,7.49,0,0,0,1.44.08A9.52,9.52,0,0,0,46.58,126.52Z"/><path class="cls-22" d="M42.55,126.42c-.92,0-1.65,0-2.14-.06l-1.95-.11c-.69,0-1.13-.08-1.47-.12-.55-.07.19-.15,1.55-.18,1,0,1.84,0,2.66,0a22.68,22.68,0,0,1,3.91.29c.16,0-.2.1-.91.13C43.76,126.41,43.19,126.42,42.55,126.42Z"/><path class="cls-23" d="M46.58,126.52a9.52,9.52,0,0,1-1.6.08,7.49,7.49,0,0,1-1.44-.08,9,9,0,0,1,1.6-.08A5,5,0,0,1,46.58,126.52Z"/></g></g></svg>