<svg xmlns="http://www.w3.org/2000/svg" viewBox="0 0 361.62 43.12"><defs><style>.cls-1{fill:#58bf08;}.cls-2{fill:#74d81d;}.cls-3{fill:#99ce28;}.cls-4{fill:#b7853d;}.cls-5{fill:#ffa233;}.cls-6{fill:#f48500;}.cls-7{fill:#d6a15b;}.cls-8{fill:#a57438;}.cls-9{fill:#875825;}.cls-10{fill:#aef414;}</style></defs><g id="Capa_2" data-name="Capa 2"><g id="Layer_1" data-name="Layer 1"><path class="cls-1" d="M157.7,2.13l0,0,.07,0C157.83,2,157.82,2,157.7,2.13Z"/><path class="cls-1" d="M152.76,11.61c-.39-4,1.82-6.83,4.89-9.44-6.1,1.75-4.75,8.38-8.84,11.28.55-1.54.77-3.06,1.23-4.63a22.14,22.14,0,0,1-4.48,3.75C146.81,10.28,147,8,148,5.71c-2.08,2.53-6.48,5.63-7.95,7.82.76-3.06,2.14-6.3,5-8.12C142,7,138.71,8.56,136.16,11c-.39-3.7.8-7.16,1.94-10.48-2.31,2.47-5,6.26-4,9.47-1.42-1.68-2.52-3.41-4.65-4.47a36.43,36.43,0,0,1,5.3,11.14h-1c8.1,1.08,16.37,1.45,24.61-.68.13-2.42.3-5.18-.63-7.34C157.26,11.77,153.38,18.09,152.76,11.61Z"/><path class="cls-2" d="M199.34,1.84l.07,0,0,0C199.23,1.71,199.22,1.71,199.34,1.84Z"/><path class="cls-2" d="M223,9.62c1-3.2-1.68-7-4-9.47,1.15,3.32,2.33,6.78,2,10.48-2.56-2.39-5.79-3.92-8.89-5.53,2.82,1.82,4.2,5.05,5,8.11C215.51,11,211.1,7.92,209,5.4c1,2.24,1.23,4.56,2.48,6.86A21.92,21.92,0,0,1,207,8.5c.45,1.58.68,3.1,1.23,4.63-4.09-2.9-2.75-9.52-8.84-11.27,3.06,2.61,5.27,5.42,4.89,9.43-.63,6.49-4.51.17-5-3-.94,2.16-.77,4.92-.64,7.34,8.25,2.13,16.52,1.76,24.62.67h-1a36.63,36.63,0,0,1,5.29-11.14C225.47,6.21,224.36,7.94,223,9.62Z"/><path class="cls-2" d="M77.06,11.86C75.67,10,79.22,5.09,79.22,5.09c-3.55,1.37-4.85,6.19-6.68,7.74.55-1.52.78-3,1.24-4.58A22,22,0,0,1,69.29,12c1.26-2.27,1.44-4.56,2.48-6.78-2.08,2.5-6.49,5.56-7.95,7.73.76-3,2.14-6.23,5-8-3.1,1.59-6.33,3.1-8.89,5.47-.38-3.66.8-7.08,2-10.36-2.32,2.44-6.17,8.69-5.13,11.86C54.07,11.28,54,4,45.78.76c2.34,3.55,7.8,9.06,8.82,13.09L57.49,16c8.1,1.07,16.37,1.44,24.62-.67.13-2.39.26-7.47-.68-9.6C81.07,8.09,78.67,14,77.06,11.86Z"/><path class="cls-3" d="M323.12,13.16c1.29-2.76-2.07-8.74-4.18-11.14.89,3.06,1.8,6.25,1.13,9.51-2.36-2.35-5.47-4-8.43-5.7,2.67,1.86,3.8,4.87,4.32,7.66-1.29-2.08-5.44-5.22-7.32-7.66.87,2.1.87,4.18,1.94,6.34a22.07,22.07,0,0,1-4.18-3.74c.34,1.45.44,2.82.87,4.24-1.7-1.56-2.62-6-6-7.56,0,0,3.16,4.72,1.62,6.29-1.77,1.82-3.69-3.75-3.86-5.95-1.1,1.84-1.37,6.44-1.43,8.61,8.05,2.61,16.32,3,24.47,2.73l3.05-1.65c1.33-3.54,7.2-8,9.81-11C326.46,6.28,325.8,12.87,323.12,13.16Z"/><polygon class="cls-4" points="136.18 16.9 0 18.3 0 43.12 361.62 43.12 361.62 19.3 337.32 23.06 136.18 16.9"/><path class="cls-5" d="M0,31.87s2.51,2,13.56,2.7c13.27.9,24.82-8.91,48-4.56,18.57,3.48,32.74,1.66,55.6-1.18C170,22.27,167.8,33.12,219.55,34c30,.52,66.32-6.75,94.65-3.24,27.71,3.44,47.42,1.11,47.42,1.11V17H0Z"/><path class="cls-6" d="M8.76,27a26.5,26.5,0,0,1-6.61,5.76A35.87,35.87,0,0,0,8.05,34a5.81,5.81,0,0,1,.63-.21,28.82,28.82,0,0,0,14.24-8.41c-4.21,1.11-8.6,1.66-10.66,2.12A4.73,4.73,0,0,1,8.76,27Z"/><path class="cls-6" d="M34.6,24.71A27.37,27.37,0,0,1,29.88,32c2.49-.65,5.1-1.32,7.89-1.87,4.18-2.07,9.08-3.92,11.55-7L47,23.24C43.42,23.43,38.75,24.74,34.6,24.71Z"/><path class="cls-6" d="M82.21,25.48a28.19,28.19,0,0,1-5.15,6.32c1.72.08,3.42.11,5.14.1,3.92-1.29,8.44-2.83,11-6.15A37,37,0,0,1,82.21,25.48Z"/><path class="cls-6" d="M173.2,22.69a17.09,17.09,0,0,1-3.43,6.1L176.9,30c4.58-.9,9.89-2.95,12.3-6.76.12-.19.23-.39.34-.59C184.12,22.16,178.69,22.67,173.2,22.69Z"/><path class="cls-6" d="M228.17,25.44A37.48,37.48,0,0,1,222.51,34c3.06,0,6.18-.07,9.34-.19,3.61-2,7-3.94,9.67-7.71-3.44-.08-6.87-.62-10.37-1C230.16,25.25,229.17,25.35,228.17,25.44Z"/><path class="cls-6" d="M251,29.41c-.81,1.18-1.67,2.31-2.55,3.41,2.81-.21,5.64-.45,8.47-.68,3.75-2.11,7.23-3.7,9.81-7.37-4.29-.09-8.57-.3-12.86-.45A36.32,36.32,0,0,1,251,29.41Z"/><path class="cls-6" d="M278,24.69a32,32,0,0,1-3.19,5.39l-.51.67c2.62-.19,5.23-.35,7.83-.5a55.57,55.57,0,0,0,6.57-6.34l-.31,0C284.89,24.36,281.43,24.58,278,24.69Z"/><path class="cls-6" d="M296.21,29.81q3.82,0,7.55.15a26.45,26.45,0,0,0,8.79-6.4c-3.86-.38-7.73-.61-11.62-.75A40,40,0,0,1,296.21,29.81Z"/><path class="cls-6" d="M320.55,29.05a24.22,24.22,0,0,1-1.87,2.23c2.77.29,5.44.52,8,.71a22.87,22.87,0,0,0,7-5.8c-3.39-.27-6.77-.75-10.14-1.24C322.53,26.37,321.51,27.75,320.55,29.05Z"/><path class="cls-6" d="M340.88,32.61q4.28.06,7.77,0a24,24,0,0,0,9.06-9c-4.11.65-8.08,1.7-12.18,2.33A54.39,54.39,0,0,1,340.88,32.61Z"/><path class="cls-6" d="M203.12,25.2a58.18,58.18,0,0,1-8,7.4c3.05.32,6.36.6,10,.83,4.82-.82,9-4,12-8.13a16.35,16.35,0,0,1-5.55.9A58.59,58.59,0,0,1,203.12,25.2Z"/><path class="cls-6" d="M148.85,26.76c2.72,0,5.25.18,7.65.37a13.05,13.05,0,0,0,4.3-3,18.26,18.26,0,0,0,2.07-2.66c-3.79.19-7.58.45-11.37.48A27,27,0,0,1,148.85,26.76Z"/><path class="cls-6" d="M136.83,22.28a50.66,50.66,0,0,0-7,.06,33.93,33.93,0,0,1-2.63,5.38c2.32-.21,4.51-.39,6.6-.53a21.56,21.56,0,0,0,6.27-4.88C139,22.33,137.91,22.34,136.83,22.28Z"/><path class="cls-6" d="M111.72,25.54c-2.43-.08-4.84.05-7.24,0a32.63,32.63,0,0,1-2,3.78c-.3.47-.61.91-.93,1.35,3.42-.37,7-.8,10.84-1.27a21.86,21.86,0,0,0,4.84-4.22A26.27,26.27,0,0,1,111.72,25.54Z"/><path class="cls-6" d="M69.63,22.87a79.67,79.67,0,0,0-8.34-.29c-.79,1.33-1.63,2.58-2.38,3.68s-1.43,2.06-2.2,3c1.17.13,2.38.31,3.61.52a21.29,21.29,0,0,0,11.29-6.3l-.55-.1A4.42,4.42,0,0,1,69.63,22.87Z"/><path class="cls-7" d="M6,36.69c-2.25,2.09,3.83,2.75,5.13,1.9C13.72,36.92,7.76,35.82,6,36.69Z"/><path class="cls-7" d="M49.75,31.43C46.27,34.26,52.33,37,54.59,34,57.83,29.64,52.13,29.93,49.75,31.43Z"/><path class="cls-7" d="M29.89,37.5c-1.37.31-2.23,1.13-1.13,2.29.79.84,3.17.59,4.13.37C37,39.21,32.46,36.66,29.89,37.5Z"/><path class="cls-8" d="M72.82,35.66C70.05,37,75.66,39.4,77.15,39,80.1,38.15,74.73,35.33,72.82,35.66Z"/><path class="cls-8" d="M17.47,37.31c-3.48,2.84,2.58,5.53,4.84,2.52C25.55,35.52,19.85,35.82,17.47,37.31Z"/><path class="cls-8" d="M44.47,39c-1.37.32-2.23,1.13-1.13,2.3.79.83,3.17.58,4.13.36C51.62,40.73,47,38.18,44.47,39Z"/><path class="cls-9" d="M37.05,34.11c-1.41,2.73,4.53,1.28,5.46,0C44.37,31.72,38.38,32.7,37.05,34.11Z"/><path class="cls-9" d="M86.2,37.31c-3.48,2.84,2.58,5.53,4.84,2.52C94.28,35.52,88.58,35.82,86.2,37.31Z"/><path class="cls-9" d="M61,35c-1.37.32-2.23,1.13-1.13,2.29.79.84,3.17.59,4.13.37C68.18,36.67,63.6,34.12,61,35Z"/><path class="cls-7" d="M100,37.41c-2.25,2.09,3.82,2.75,5.12,1.9C107.72,37.64,101.76,36.54,100,37.41Z"/><path class="cls-7" d="M134.83,30.32c-3.47,2.84,2.59,5.54,4.85,2.52C142.92,28.53,137.21,28.83,134.83,30.32Z"/><path class="cls-7" d="M122.15,31.49c-1.37.32-2.23,1.13-1.13,2.3.79.83,3.17.58,4.13.36C129.3,33.21,124.72,30.65,122.15,31.49Z"/><path class="cls-8" d="M176.77,34.29c-2.77,1.33,2.85,3.75,4.33,3.33C184.05,36.78,178.68,34,176.77,34.29Z"/><path class="cls-8" d="M108.9,32.6c-3.47,2.84,2.58,5.54,4.85,2.52C117,30.81,111.28,31.11,108.9,32.6Z"/><path class="cls-8" d="M148.47,35c-1.37.31-2.23,1.12-1.13,2.29.79.84,3.17.59,4.13.37C155.62,36.72,151,34.17,148.47,35Z"/><path class="cls-9" d="M192.33,38.33c-1.42,2.73,4.52,1.28,5.46.05C199.64,35.94,193.66,36.92,192.33,38.33Z"/><path class="cls-9" d="M159.29,30.18c-3.48,2.84,2.58,5.54,4.84,2.52C167.37,28.39,161.67,28.69,159.29,30.18Z"/><path class="cls-9" d="M144.76,30c-1.38.32-2.24,1.13-1.14,2.3.79.83,3.17.58,4.13.36C151.9,31.69,147.32,29.13,144.76,30Z"/><path class="cls-7" d="M206,37c-3.48,2.83,2.58,5.53,4.85,2.52C214.09,35.18,208.39,35.48,206,37Z"/><path class="cls-7" d="M166,37c-1.37.32-2.24,1.13-1.13,2.3.78.84,3.17.59,4.13.37C173.15,38.75,168.57,36.19,166,37Z"/><path class="cls-8" d="M226.81,37.39c-2.77,1.33,2.85,3.75,4.34,3.32C234.1,39.88,228.73,37.06,226.81,37.39Z"/><path class="cls-8" d="M188.87,33.91c-1.37.32-2.24,1.13-1.13,2.3.78.83,3.17.58,4.13.36C196,35.63,191.44,33.07,188.87,33.91Z"/><path class="cls-9" d="M271.46,39.87c-1.42,2.73,4.52,1.28,5.46.05C278.77,37.48,272.79,38.46,271.46,39.87Z"/><path class="cls-9" d="M128.28,37.43c-3.47,2.83,2.58,5.53,4.85,2.52C136.37,35.64,130.66,35.94,128.28,37.43Z"/><path class="cls-9" d="M220.68,35.21c-1.38.32-2.24,1.13-1.14,2.3.79.83,3.17.58,4.13.37C227.82,36.93,223.24,34.37,220.68,35.21Z"/><path class="cls-7" d="M242.86,35.59c-2.26,2.09,3.82,2.74,5.12,1.9C250.55,35.82,244.59,34.72,242.86,35.59Z"/><path class="cls-7" d="M278.37,33.15c-3.48,2.84,2.58,5.54,4.84,2.52C286.45,31.36,280.75,31.66,278.37,33.15Z"/><path class="cls-7" d="M298,35.33c-1.38,1.13,1,2.2,1.93,1C301.21,34.62,298.94,34.74,298,35.33Z"/><path class="cls-7" d="M332.74,36.29c-1.38,1.13,1,2.2,1.92,1C336,35.58,333.68,35.7,332.74,36.29Z"/><path class="cls-7" d="M316.38,39.56c-1.38,1.13,1,2.2,1.92,1C319.59,38.85,317.32,39,316.38,39.56Z"/><path class="cls-7" d="M346.17,35.33c-1.38,1.13,1,2.2,1.93,1C349.38,34.62,347.12,34.74,346.17,35.33Z"/><path class="cls-7" d="M260.72,39.56c-1.38,1.13,1,2.2,1.93,1C263.94,38.85,261.67,39,260.72,39.56Z"/><path class="cls-7" d="M272.58,32.49c-1.38,1.12,1,2.2,1.92,1C275.79,31.78,273.52,31.9,272.58,32.49Z"/><path class="cls-7" d="M236.46,38.5c-1.38,1.12,1,2.2,1.93,1C239.67,37.79,237.41,37.9,236.46,38.5Z"/><path class="cls-7" d="M221.56,39.46c-1.38,1.12,1,2.2,1.93,1C224.78,38.75,222.51,38.87,221.56,39.46Z"/><path class="cls-7" d="M184.7,39.05c-1.38,1.12,1,2.19,1.92,1C187.91,38.33,185.64,38.45,184.7,39.05Z"/><path class="cls-7" d="M181.38,33.6c-1.38,1.13,1,2.2,1.92,1C184.59,32.89,182.32,33,181.38,33.6Z"/><path class="cls-7" d="M173.53,40c-1.38,1.12,1,2.2,1.93,1C176.75,39.3,174.48,39.41,173.53,40Z"/><path class="cls-7" d="M151.56,29c-1.38,1.13,1,2.2,1.93,1C154.78,28.31,152.51,28.43,151.56,29Z"/><path class="cls-7" d="M167.05,31.44c-1.39,1.12,1,2.2,1.92,1C170.26,30.73,168,30.84,167.05,31.44Z"/><path class="cls-7" d="M137.63,36.33c-1.38,1.12,1,2.19,1.93,1C140.85,35.62,138.58,35.73,137.63,36.33Z"/><path class="cls-7" d="M119.71,38.29c-1.39,1.12,1,2.19,1.92,1C122.92,37.58,120.65,37.69,119.71,38.29Z"/><path class="cls-7" d="M82.62,34.56c-1.38,1.13,1,2.2,1.92,1C85.83,33.85,83.56,34,82.62,34.56Z"/><path class="cls-7" d="M71.11,39.35c-1.38,1.12,1,2.19,1.93,1C74.33,38.63,72.06,38.75,71.11,39.35Z"/><path class="cls-7" d="M92.28,40.31c-1.38,1.12,1,2.19,1.92,1C95.49,39.6,93.22,39.71,92.28,40.31Z"/><path class="cls-7" d="M56.81,39.35c-1.38,1.12,1,2.19,1.92,1C60,38.63,57.75,38.75,56.81,39.35Z"/><path class="cls-7" d="M64.76,32.87c-1.39,1.13,1,2.2,1.92,1C68,32.16,65.7,32.28,64.76,32.87Z"/><path class="cls-7" d="M51.18,37.1c-1.38,1.13,1,2.2,1.93,1C54.39,36.39,52.13,36.51,51.18,37.1Z"/><path class="cls-7" d="M33.61,32.87c-1.38,1.13,1,2.2,1.93,1C36.83,32.16,34.56,32.28,33.61,32.87Z"/><path class="cls-7" d="M1.92,39.35c-1.38,1.12,1,2.19,1.93,1C5.13,38.63,2.87,38.75,1.92,39.35Z"/><path class="cls-7" d="M23.9,40.31c-1.38,1.12,1,2.19,1.92,1C27.11,39.6,24.84,39.71,23.9,40.31Z"/><path class="cls-7" d="M154.91,37.82c-1.38,1.13,1,2.2,1.92,1C158.12,37.11,155.85,37.23,154.91,37.82Z"/><path class="cls-7" d="M352.21,36.28c-3.48,2.84,2.58,5.54,4.85,2.52C360.29,34.49,354.59,34.79,352.21,36.28Z"/><path class="cls-7" d="M265.36,36.74c-1.38.31-2.24,1.12-1.14,2.29.79.84,3.17.59,4.13.37C272.5,38.45,267.92,35.89,265.36,36.74Z"/><path class="cls-8" d="M321.25,34.89c-2.77,1.33,2.85,3.75,4.34,3.33C328.54,37.38,323.17,34.57,321.25,34.89Z"/><path class="cls-8" d="M251.73,37.57c-3.48,2.83,2.58,5.53,4.84,2.52C259.81,35.78,254.11,36.07,251.73,37.57Z"/><path class="cls-8" d="M291.3,36.74c-1.37.31-2.24,1.12-1.13,2.29.78.84,3.17.59,4.12.37C298.45,38.45,293.87,35.89,291.3,36.74Z"/><path class="cls-9" d="M338.15,39.87c-1.41,2.73,4.53,1.28,5.46.05C345.46,37.48,339.48,38.46,338.15,39.87Z"/><path class="cls-9" d="M310.17,33.86c-3.47,2.84,2.58,5.54,4.85,2.52C318.26,32.07,312.55,32.37,310.17,33.86Z"/><path class="cls-9" d="M287.58,31.7c-1.37.32-2.23,1.13-1.13,2.3.79.83,3.17.58,4.13.36C294.73,33.42,290.15,30.86,287.58,31.7Z"/><path class="cls-10" d="M361.62,14.43s-6.13,1-14.71,1.41c1.08-.31,1.54-.95,2.94-1.76a32.1,32.1,0,0,1,6.08-2.21c-3.62-.16-9.41-.57-13,1.61a13.93,13.93,0,0,1,6.77-7.42c-3.79,1.51-8.79,2-9.73,6.5-.64-2.07-1.33-3.83-1.06-6.09-1.36,1.11-2.56,3.48-1.75,5.21a25.56,25.56,0,0,1-3.07-9.16c-2,4.31-.3,7.9-.84,10.71-3.36-2.37-5.38-4.65-9.57-5.63a43.07,43.07,0,0,1,6.92,6c-3-1.22-9.66-2-12.53-.53,2.81.4,6.58.36,8.71,2.57l.08.08L304.54,14.3l.34-.19a31,31,0,0,1,6.19-1.86c-3.61-.37-9.36-1.11-13.1.86a13.88,13.88,0,0,1,7.18-7c-3.86,1.29-8.88,1.49-10.08,5.93-.52-2.11-1.11-3.9-.71-6.14-1.42,1-2.76,3.33-2,5.1a25.5,25.5,0,0,1-2.56-9.32c-2.2,4.19-.74,7.87-1.43,10.65-3.23-2.56-5.12-4.95-9.24-6.16a43.09,43.09,0,0,1,6.56,6.32c-2.91-1.38-9.53-2.52-12.48-1.24,2,.41,4.5.62,6.5,1.57-3.65-.21-7.17-.41-10.46-.58a4.24,4.24,0,0,1,.41-2c.52-1.15,3.84-2.82,5.1-3.42-2.33.16-7.75,1.6-9.09,3.62a5.85,5.85,0,0,1,1-3.23,6.66,6.66,0,0,0-3.48,3.15A18.12,18.12,0,0,1,261.84,7c-.22-1.17-.18-2.39-.33-3.58-.93,2.23-.75,4.51-.79,6.88A9.45,9.45,0,0,0,258,7.85a20,20,0,0,1,2.05,3.69,1.85,1.85,0,0,1-.36.23c-3.74-.16-6.75-.26-8.68-.27l-.09-.05a40.14,40.14,0,0,1,1.58-3.89c-.77.92-3.12,3-4.28,2.39.82-3.37,2.58-5.3,5.6-7.13-2.68.88-7.11,3.48-7.55,6.5-.45-1.34-.67-3.54-1.59-4.75.08,1.71,1,4.36-.18,5.8-.19-.8-3.08-4.3-4-4.09.18.56,1.79,3.23,2.12,5.38-2.44.06-5.23.15-8.28.24A3.77,3.77,0,0,1,235,11a4.84,4.84,0,0,1,2-1.28,14.64,14.64,0,0,0-5.56,2.2,29.43,29.43,0,0,1,5.11-5.42,24.11,24.11,0,0,0-7.32,3.9,24.94,24.94,0,0,0-5.88-4.71,29.48,29.48,0,0,1,3.9,6.34,14.62,14.62,0,0,0-5-3.28,4.94,4.94,0,0,1,1.69,1.65c.36.56.41,1.29.72,1.81-15.56.54-34.35,1.25-47.71,1.72a13.86,13.86,0,0,1,.94-3.18,11.84,11.84,0,0,1,3.62-4.66c-2.54,1.22-8.46,4.38-7.5,7.82-1-1.88-1.61-3.74-3.15-5.57.48,1.54.93,4.13,1.29,5.75l-.69,0c-1.21-1-2.4-1.85-3.88-1.83a9,9,0,0,1,2.4,1.88c-4.63.15-8,.24-9.47.24-4.13,0-11.59.18-20.34.43a4.09,4.09,0,0,1,.37-1.65c.48-1.16,3.76-2.92,5-3.56-2.33.23-7.71,1.81-9,3.86a5.88,5.88,0,0,1,.88-3.25A6.63,6.63,0,0,0,134,13.5a19.62,19.62,0,0,1-1.38-3.36c-.24-1.17-.24-2.39-.42-3.57-.87,2.25-.63,4.52-.61,6.89a9.27,9.27,0,0,0-2.76-2.33A20.39,20.39,0,0,1,131,14.77a2,2,0,0,1-.7.37l-7.53.22a3.42,3.42,0,0,1-.9-.44c.29-1.35,1.05-2.6,1.47-3.93-.73.93-3,3-4.21,2.5.73-3.4,2.44-5.36,5.41-7.28-2.65,1-7,3.67-7.38,6.7-.48-1.33-.76-3.53-1.71-4.71.12,1.71,1.11,4.33,0,5.81-.21-.8-3.19-4.22-4.09-4,.22.59,2,3.42,2.31,5.6l-1.75,0c-2.84.07-6.22,0-10-.08.48-.27,1-.62,1.77-1a29.23,29.23,0,0,1,5.9-1.64c-3.41-.42-8.84-1.23-12.42.56A13.16,13.16,0,0,1,104.05,7c-3.69,1.15-8.44,1.25-9.66,5.43-.45-2-1-3.72-.56-5.83-1.37,1-2.67,3.11-2,4.79A24.2,24.2,0,0,1,89.56,2.5C87.39,6.43,88.71,9.94,88,12.56c-3-2.48-4.76-4.78-8.64-6a40.51,40.51,0,0,1,6.1,6.11c-2.73-1.36-9-2.56-11.8-1.41,2.63.59,6.2.82,8,3.07l.23.23C74.1,14,66,13.44,58.68,12.91a4.16,4.16,0,0,1,.66-.83A4.84,4.84,0,0,1,61.43,11a14.51,14.51,0,0,0-5.73,1.7,29.5,29.5,0,0,1,5.56-4.95c-3,.68-7.25,2.43-9.34,4.68l-1.63-.11a14.08,14.08,0,0,1,1.4-3.83,12,12,0,0,1,4-4.32c-2.63,1-8.81,3.62-8.16,7.14-.87-2-1.27-3.87-2.64-5.84.4,1.82.62,5.05.88,6.54-1.42-1.25-2.68-2.76-4.5-2.88A9.31,9.31,0,0,1,44,11.89c-3-.18-5.6-.32-7.67-.39-3-.09-6.32,0-9.65.14a13.61,13.61,0,0,1,1.2-.93,22.86,22.86,0,0,1,4.4-2c-2.71.08-7,.09-9.62,1.92a10.37,10.37,0,0,1,4.64-5.91c-2.75,1.34-6.45,2-6.9,5.39A10.39,10.39,0,0,1,19.3,5.64c-1,1-1.84,3-.82,4.25a18.88,18.88,0,0,1-3-6.94c-1.23,3.33.22,5.91,0,8C12.81,9.41,11.18,7.82,8,7.32a32.41,32.41,0,0,1,5.49,4c-2.3-.74-7.31-.94-9.38.3,2.07.14,4.8-.07,6.51,1.35C4.42,13.73,0,14.43,0,14.43V26.26A14.62,14.62,0,0,0,3.26,27.6,9.46,9.46,0,0,0,1.14,30,12.14,12.14,0,0,1,5.3,28.12l.21,0c-2,1.83-2.89,5.48-3,6.47.59-.84,3.37-4.9,4.19-5.52,0,.25,0,2.66-.08,2.89a33.3,33.3,0,0,1,1.08-3.29c.52,1.34,1.37,2.44,1.25,3.95a8.17,8.17,0,0,0,.56-3.24c2.57.41,4.7,3.47,6.34,5.21C16,33,14,31,13.41,29.61c1.27-.61,3.06-.07,4.36.07a3.6,3.6,0,0,0-1.4-1c1.54-.13,3.19-.34,5-.66,1.39-.26,2.93-.51,4.56-.75-.72.5-.88,1.73-1.05,2.45a6.5,6.5,0,0,1,3.3-2.1c.79-.14.8-.11,1.23.7a5.42,5.42,0,0,1,.69,2,3.27,3.27,0,0,0,.39-2.78c1.55-.08,2.48,1.18,3.18,2.28a16.4,16.4,0,0,0-.46-3c1.59,0,5.27.24,6.11,1.86-.09-.83-.81-1.55-.79-2.36a13.56,13.56,0,0,1,5.29,1.27c-.25-.53-.64-1.55-.19-2.05a13.88,13.88,0,0,0,1.11.92,4.23,4.23,0,0,1,.91-1.18l1.77-.09a9.18,9.18,0,0,1,2.41,2.21,2.34,2.34,0,0,0,.32-1.56,2.48,2.48,0,0,1,1.2,1.93A8.52,8.52,0,0,1,53,25.92a3.06,3.06,0,0,0,.2,1.63c1.2-2.14,4.28-1.7,5.6-2.05A2.94,2.94,0,0,0,59,27.08a5,5,0,0,1,1.89-1.91c1.37.07,2.7.16,4,.28a6.44,6.44,0,0,0-3.66,1.87c1.25-1,3.36-.93,4.92-1-.75,1-.91,2.53-1.34,3.71a8.46,8.46,0,0,1,2.48-2.82A5.71,5.71,0,0,1,67,29.57,15.15,15.15,0,0,0,68.85,27a6.5,6.5,0,0,1,.49,3.35,10.77,10.77,0,0,0,1.28-3.44c1.61.1,3.52,2.56,3.59,4.07.39-1.4-.12-2-.72-3.19,1.62.11,4.45,1.76,5.73,2.87A6.33,6.33,0,0,0,75.76,27c14.85,1.78,36.64,1,49.24-.72,3.27-.44,7.34-.84,12-1.16A5.34,5.34,0,0,0,135.29,27c.94-1.19,2.85-1.66,4.33-2.05h.2c-.47,1.15-.27,2.65-.41,3.88a8.67,8.67,0,0,1,1.74-3.33,5.79,5.79,0,0,1,.23,2.34,15.48,15.48,0,0,0,1.19-3A6.44,6.44,0,0,1,143.84,28a8.77,8.77,0,0,0,.41-3.28l1.63-.07a5.48,5.48,0,0,1,2.85,2.8c0-1.41-.57-1.87-1.4-2.85l1.56,0a16.19,16.19,0,0,1,4.63,1.4,4.72,4.72,0,0,0-1.36-1.48c6.61-.13,13.71-.08,20.92.22,1.76,1.42,3.68,2.88,4.09,3.79a3.26,3.26,0,0,0,.57-2.2,3.55,3.55,0,0,1,1.58,2.85c.64-1.1,1.68-1.63,2.59-2.5a4.47,4.47,0,0,0,.17,2.36c1.86-3,6.24-2.13,8.15-2.53-.32.72.05,1.6.15,2.27A14.33,14.33,0,0,1,194,26.33c4.51.52,9,.85,13.36,1.05a7.42,7.42,0,0,0-3.27,2.6c1.33-1.39,3.88-1.72,5.75-2-.72,1.35-.63,3.21-1,4.72a10.47,10.47,0,0,1,2.49-3.85,7.07,7.07,0,0,1,0,2.86,18.63,18.63,0,0,0,1.77-3.47c.78.87,1.07,2.7,1.2,3.95.75-1.4.68-2.9.92-4.38,2-.17,4.71,2.45,5.07,4.26.22-1.76-.51-2.36-1.45-3.72,2-.16,5.69,1.32,7.43,2.43A6.84,6.84,0,0,0,223,27.56c4.35-.07,8.51-.23,12.39-.41a2.23,2.23,0,0,0-.61.57l0,0c-.92.34-1.18,1.72-1.42,2.49a6.54,6.54,0,0,1,3.43-1.88c.79-.09.81-.06,1.18.79a5.27,5.27,0,0,1,.56,2,3.27,3.27,0,0,0,.57-2.75c1.55,0,2.4,1.34,3,2.48a16.2,16.2,0,0,0-.27-3c1.58.1,5.25.58,6,2.25,0-.83-.71-1.6-.64-2.4a13.49,13.49,0,0,1,5.19,1.61c-.2-.55-.53-1.59,0-2.06a6.12,6.12,0,0,0,3.49,1.28c0-1-.1-1.67,1.19-2.32,5,0,12.87-.27,21.58-.46,1.78,1.28,3.67,2.59,4.12,3.45a3.31,3.31,0,0,0,.45-2.23,3.55,3.55,0,0,1,1.73,2.76c.58-1.13,1.59-1.72,2.45-2.63a4.47,4.47,0,0,0,.29,2.34c1.71-3.06,6.12-2.45,8-2.95-.28.73.13,1.59.27,2.26a17.37,17.37,0,0,1,4.79-3.25c2.5,0,4.93,0,7.23.09a2.72,2.72,0,0,0-1.32.84.05.05,0,0,0,0,0c-.95.28-1.29,1.64-1.58,2.39a6.54,6.54,0,0,1,3.55-1.65c.79,0,.8,0,1.12.86a5.33,5.33,0,0,1,.43,2.07,3.32,3.32,0,0,0,.75-2.71c1.54.12,2.3,1.49,2.86,2.68a15.93,15.93,0,0,0-.08-3c1.58.21,5.2.92,5.82,2.64,0-.83-.6-1.64-.48-2.44A13.42,13.42,0,0,1,324,29.25c-.17-.56-.43-1.63.08-2.06a6.58,6.58,0,0,0,1.38.92l-.13.24.25-.18a5.21,5.21,0,0,0,1.9.53c.05-.74,0-1.31.58-1.8l.2-.07,1.05,0A12.46,12.46,0,0,0,326.78,33,49.78,49.78,0,0,1,331,27.43c0,.26,0,2.66-.07,2.9A32.42,32.42,0,0,1,332,27c.53,1.34,1.38,2.43,1.26,3.95a8.35,8.35,0,0,0,.56-3.24c2.57.41,4.7,3.47,6.34,5.21.11-1.6-1.92-3.62-2.49-5,1.26-.6,3-.07,4.33.07a5.69,5.69,0,0,0-1,1.54,12.75,12.75,0,0,1,4.36-2.31c-2,1.92-2.63,5.79-2.63,6.81.53-.89,3-5.13,3.79-5.81,0,.26.13,2.66.13,2.9a31.13,31.13,0,0,1,.84-3.36c.61,1.3,1.54,2.33,1.53,3.85a8.3,8.3,0,0,0,.33-3.27c2.59.23,4.93,3.13,6.69,4.75,0-1.6-2.17-3.47-2.83-4.84,1.22-.69,3-.27,4.36-.23A5.88,5.88,0,0,0,354,26.62c4.58-.18,7.59-.36,7.59-.36ZM342,28a3.73,3.73,0,0,0-1.41-1c.79,0,1.59,0,2.37,0C342.67,27.22,342.32,27.57,342,28Z"/><path class="cls-10" d="M123.3,11v0Z"/><path class="cls-10" d="M252.51,7.55h0S252.56,7.5,252.51,7.55Z"/><path class="cls-3" d="M76.27,23a43.2,43.2,0,0,1,1-4.85,8.69,8.69,0,0,0-2.68,4.77c-1.22-1.29-2.52-3.17-4.31-3.15,1,1.19,2.1,2.37,2.3,3.94C77,27.2,79,21.46,82.44,21.06,80.65,20.67,77.54,20.86,76.27,23Z"/><path class="cls-3" d="M195.05,18.22a46,46,0,0,1,1-4.84,8.72,8.72,0,0,0-2.69,4.76C192.11,16.86,190.81,15,189,15c1,1.19,2.1,2.37,2.3,3.93,4.42,3.48,6.4-2.26,9.9-2.66C199.44,15.88,196.32,16.07,195.05,18.22Z"/><path class="cls-1" d="M336.91,18.85a43.2,43.2,0,0,1,1-4.85,8.73,8.73,0,0,0-2.68,4.77c-1.22-1.28-2.52-3.17-4.31-3.14,1,1.18,2.1,2.37,2.3,3.93,4.43,3.47,6.41-2.26,9.9-2.66C341.29,16.5,338.18,16.69,336.91,18.85Z"/><path class="cls-1" d="M17.35,15.82a8.73,8.73,0,0,0-2.68-4.77,43.2,43.2,0,0,1,1,4.85c-1.27-2.16-4.38-2.35-6.17-2,3.49.4,5.47,6.14,9.9,2.67.2-1.57,1.3-2.75,2.3-3.93C19.87,12.65,18.57,14.54,17.35,15.82Z"/><path class="cls-1" d="M124.5,21.59a47.42,47.42,0,0,1-.79-4.88,8.69,8.69,0,0,0-.84,5.41c-1.59-.78-3.47-2.09-5.14-1.44,1.35.76,2.8,1.48,3.53,2.88,5.36,1.7,5.21-4.36,8.35-6A5.24,5.24,0,0,0,124.5,21.59Z"/><path class="cls-3" d="M258.38,22.81a42.54,42.54,0,0,1-.79-4.88,8.74,8.74,0,0,0-.85,5.4c-1.59-.77-3.47-2.08-5.13-1.43,1.35.76,2.8,1.48,3.53,2.88,5.36,1.7,5.21-4.36,8.34-6A5.22,5.22,0,0,0,258.38,22.81Z"/><path class="cls-1" d="M59.21,18.82c-.55-.69-1.06-2.49-2.1-2.61a7.38,7.38,0,0,1,1.16,3.58c.59.78,2.17.1,2.63,0-.15-.36.6-1.43.88-1.77a15.51,15.51,0,0,0-1.47,1.27c-.14-1.9,1-3.51,2.24-4.89C60.78,14.81,59.28,17.13,59.21,18.82Z"/><path class="cls-1" d="M231.81,22.64c-.91-1.17-1.76-4.18-3.5-4.36,1,1.61,2.09,4.5,1.94,6,1,1.3,3.63.16,4.39,0-.24-.61,1-2.4,1.48-3a23.14,23.14,0,0,0-2.46,2.13c-.24-3.18,1.62-5.88,3.75-8.17C234.45,15.92,231.94,19.8,231.81,22.64Z"/><path class="cls-2" d="M27.79,21.71c-.07-1.7-1.58-4-3.34-4.44,1.27,1.37,2.38,3,2.24,4.89a13.3,13.3,0,0,0-1.48-1.27c.29.34,1,1.41.89,1.77.46.11,2,.8,2.62,0a7.42,7.42,0,0,1,1.16-3.58C28.85,19.21,28.34,21,27.79,21.71Z"/><path class="cls-2" d="M350,22.23c-.1-2.13-2-5-4.2-5.56,1.6,1.72,3,3.74,2.81,6.12a16.07,16.07,0,0,0-1.85-1.59c.36.42,1.3,1.76,1.12,2.22.57.14,2.55,1,3.29,0A9.18,9.18,0,0,1,352.57,19C351.27,19.1,350.63,21.35,350,22.23Z"/><path class="cls-1" d="M16.08,24c.72-.32,2.09-.84,2.87-.47a12.21,12.21,0,0,0-1.81-.7,10,10,0,0,0-3.37-.05A6.43,6.43,0,0,0,10.37,24c-.52.42-1,1.14-1.51,1.47a15.85,15.85,0,0,0-3.78-3.71c.51,1.38,1.48,2.56,1.4,4.13-.72-.06-1.65-.81-2.38-1.06a7.6,7.6,0,0,0-2.85-.55,8.38,8.38,0,0,0,1.68.9,16.28,16.28,0,0,1,1.88,1.34v-.05a2.69,2.69,0,0,0-.66-1.1,8.6,8.6,0,0,1,2.53,1.19,3.48,3.48,0,0,0,.22-2.32c.58.59,1.52,1.33,1.64,2.18,1-.93,1.94-2.2,3.28-2.66a11.75,11.75,0,0,1,5.25-.53,4.32,4.32,0,0,1-1.25.57,5.77,5.77,0,0,0-1.41.69,6.63,6.63,0,0,0-1.68,1.87,6,6,0,0,1,3.65-.2A4.37,4.37,0,0,0,14,27.24c1.31-.42,2.79-1.22,4.28-.62a4.19,4.19,0,0,0-2.29-.9,6.58,6.58,0,0,0-2.3,0A5.71,5.71,0,0,1,16.08,24Z"/><path class="cls-1" d="M165.12,18.59c.72-.32,2.09-.84,2.87-.47a12.21,12.21,0,0,0-1.81-.7,10,10,0,0,0-3.37-.05,6.5,6.5,0,0,0-3.41,1.25,17.25,17.25,0,0,1-1.5,1.47,15.85,15.85,0,0,0-3.78-3.71c.51,1.37,1.47,2.56,1.4,4.13-.72-.06-1.65-.81-2.38-1.06a7.6,7.6,0,0,0-2.85-.55,8.12,8.12,0,0,0,1.68.9,17.19,17.19,0,0,1,1.88,1.34v-.05a2.69,2.69,0,0,0-.66-1.1,8.6,8.6,0,0,1,2.53,1.19,3.54,3.54,0,0,0,.22-2.32c.58.59,1.51,1.33,1.64,2.18,1-.93,1.94-2.2,3.28-2.66a11.74,11.74,0,0,1,5.25-.53,4.26,4.26,0,0,1-1.26.57,5.53,5.53,0,0,0-1.4.69A6.49,6.49,0,0,0,161.77,21a6,6,0,0,1,3.65-.2,4.37,4.37,0,0,0-2.34,1.09c1.31-.42,2.79-1.22,4.27-.62a4.09,4.09,0,0,0-2.28-.9,6.64,6.64,0,0,0-2.31,0A5.74,5.74,0,0,1,165.12,18.59Z"/><path class="cls-1" d="M294.51,16.6c-.08-1.57.89-2.75,1.4-4.13a15.67,15.67,0,0,0-3.78,3.71,16,16,0,0,1-1.51-1.47,6.43,6.43,0,0,0-3.4-1.25,10.3,10.3,0,0,0-3.37,0,14.12,14.12,0,0,0-1.82.7c.78-.37,2.15.15,2.88.47a5.89,5.89,0,0,1,2.35,1.76,6.58,6.58,0,0,0-2.3,0,4.16,4.16,0,0,0-2.29.9c1.49-.59,3,.2,4.28.62a4.37,4.37,0,0,0-2.34-1.09,6,6,0,0,1,3.65.2,6.36,6.36,0,0,0-1.69-1.86,5.25,5.25,0,0,0-1.4-.7,4.32,4.32,0,0,1-1.25-.57,11.69,11.69,0,0,1,5.24.53c1.35.46,2.26,1.73,3.29,2.66.12-.85,1.06-1.59,1.63-2.18a3.6,3.6,0,0,0,.22,2.32,8.65,8.65,0,0,1,2.54-1.19,2.82,2.82,0,0,0-.66,1.1v.06a15.16,15.16,0,0,1,1.88-1.34,9.27,9.27,0,0,0,1.68-.91,7.86,7.86,0,0,0-2.86.55C296.15,15.79,295.23,16.54,294.51,16.6Z"/><path class="cls-1" d="M324.42,22.88c-.08-1.56.89-2.75,1.4-4.12A15.67,15.67,0,0,0,322,22.47,15,15,0,0,1,320.53,21a6.34,6.34,0,0,0-3.4-1.24,9.78,9.78,0,0,0-3.37.05,12.8,12.8,0,0,0-1.82.7c.78-.37,2.15.15,2.88.46a5.89,5.89,0,0,1,2.35,1.76,7.1,7.1,0,0,0-2.3,0,4.17,4.17,0,0,0-2.29.91c1.49-.6,3,.2,4.28.62a4.46,4.46,0,0,0-2.34-1.1,6.05,6.05,0,0,1,3.65.21,6.27,6.27,0,0,0-1.69-1.87,5.56,5.56,0,0,0-1.4-.7,4.32,4.32,0,0,1-1.25-.57,11.56,11.56,0,0,1,5.24.54c1.35.46,2.26,1.73,3.29,2.65.12-.84,1.06-1.58,1.63-2.18a3.6,3.6,0,0,0,.22,2.32,8.65,8.65,0,0,1,2.54-1.19,2.79,2.79,0,0,0-.66,1.11v.05A16.28,16.28,0,0,1,328,22.18a9.24,9.24,0,0,0,1.68-.9,7.46,7.46,0,0,0-2.86.55C326.06,22.07,325.14,22.83,324.42,22.88Z"/><path class="cls-1" d="M100,20.51c-.07-1.57.9-2.76,1.4-4.13a15.62,15.62,0,0,0-3.77,3.71,16,16,0,0,1-1.51-1.47,6.5,6.5,0,0,0-3.4-1.25,10.09,10.09,0,0,0-3.38.05,12.65,12.65,0,0,0-1.81.7c.78-.37,2.15.15,2.87.47a5.74,5.74,0,0,1,2.36,1.76,6.64,6.64,0,0,0-2.31,0,4.09,4.09,0,0,0-2.28.9c1.48-.6,3,.2,4.27.62a4.37,4.37,0,0,0-2.34-1.09,6,6,0,0,1,3.65.2,6.49,6.49,0,0,0-1.68-1.87,5.53,5.53,0,0,0-1.4-.69,4.26,4.26,0,0,1-1.26-.57,11.75,11.75,0,0,1,5.25.53C96,18.84,96.94,20.11,98,21c.13-.85,1.06-1.59,1.64-2.18a3.6,3.6,0,0,0,.22,2.32A8.6,8.6,0,0,1,102.36,20a2.69,2.69,0,0,0-.66,1.1v.05a17.19,17.19,0,0,1,1.88-1.34,8.12,8.12,0,0,0,1.68-.9,7.6,7.6,0,0,0-2.85.55C101.68,19.7,100.75,20.45,100,20.51Z"/></g></g></svg>