<svg xmlns="http://www.w3.org/2000/svg" viewBox="0 0 361.62 43.37"><defs><style>.cls-1{fill:#7c2818;}.cls-2{fill:#510d04;}.cls-3{fill:#d34a4a;}.cls-4{fill:#440802;}.cls-5{fill:#ba0c08;}.cls-6{fill:#3f0602;}.cls-7{fill:#66120c;}.cls-8{fill:#891515;}.cls-9{fill:#4f0705;}.cls-10{fill:#8e1a1a;}.cls-11{fill:#dd3737;}.cls-12{fill:#af2222;}.cls-13{fill:#7c140f;}.cls-14{fill:#590d07;}.cls-15{fill:#260301;}.cls-16{fill:#82100d;}</style></defs><g id="Capa_2" data-name="Capa 2"><g id="Layer_1" data-name="Layer 1"><rect class="cls-1" y="17.11" width="361.62" height="26.27"/><polygon class="cls-2" points="361.62 28.38 320.8 23.25 290.88 29.4 249.01 25.01 193.54 28.8 161.67 25.01 131.87 28.8 88.47 25.52 68.16 28.8 39.59 25.01 0 28.38 0 17.11 361.62 17.11 361.62 28.38"/><polygon class="cls-3" points="361.62 22.37 336.98 17.12 277.27 25.01 252.07 17.95 229.03 21.71 194.4 25.01 157.22 19.28 137.22 23.81 79.83 20.81 65.15 25.01 46.79 20.63 18.02 25.01 0 20.37 0 13.55 13.94 16.27 78.21 13.55 134.1 17.11 173.32 13.55 232.01 17.11 245.11 11.94 289.66 17.11 329.65 13.55 351.16 17.11 361.62 13.55 361.62 22.37"/><path class="cls-4" d="M105.32,26.79l-3.39-.26,1.25,1.95s-.39,2.1-.52,2.38l-1.79-.46a13.4,13.4,0,0,1,.76,1.43c.42.7.5.78.18,1.46a32.42,32.42,0,0,1-2.15,3.49,14.58,14.58,0,0,0-2,3.34,11.57,11.57,0,0,0,.13,2.93c.16-.79.43-1.6.62-2.41a5.24,5.24,0,0,1,1.16-2,21.86,21.86,0,0,1,2.58,2.5,9.24,9.24,0,0,0-1.69-2.57c.36-.19.73-.26,1.1-.47a7.7,7.7,0,0,0-1.41-.24c1-1.42,2.07-2.8,3.08-4.2l-.42-1.15Z"/><path class="cls-4" d="M125.4,32.9a15.54,15.54,0,0,0-2.14.23A11.35,11.35,0,0,1,124.1,31c-1.31,1.44-1.62,2.36-3.72,2a11.11,11.11,0,0,0,.55-1.53c.74-.18,1.76-.69,2.24-.78a14.53,14.53,0,0,1-2.06.21c0-.14,0-.25,0-.39l-.23-.43c-.06,2.06-1.88,2.3-3.47,2.66.83,0,1.51.34,2.33.36-1.05.8-1.31,1.4-2.55,1.69-.95.22-2.6-.17-3.32.52,1,1,0,1.48-1.06,1.56-.13.73.4,1.24.33,1.91s-.69,1.3-.93,1.81a1.91,1.91,0,0,0,1.4-1.93c0-1.39-.5-1.25,1.06-1.8,0-.31.17-.73.14-1a9.15,9.15,0,0,0,3.38-.38A15.06,15.06,0,0,0,120,37.3c-.75-1.35-2.45-2.5-.31-3.44C121.1,33.24,123.19,34,125.4,32.9Z"/><path class="cls-4" d="M84.29,40.34a18.91,18.91,0,0,0,.68,3h2c-.41-1.76-2.1-3.49-2.1-4.79,0-1.14.51-1.56.91-2.75a7.51,7.51,0,0,0-1.49,1.76,6.32,6.32,0,0,1-1-3.09c0-1.47,1.91-4.44,2.83-5.55a16.88,16.88,0,0,1-1.41,1c.11-.89.22-1.8.26-2.69-.81.8-1.46,4.12-1.74,5.24-.9-.5-1.78-4.24-1.78-4.24s-.19,3.14-.2,3.35l.94,1.48A22.42,22.42,0,0,0,84,39.69a9.52,9.52,0,0,0-1.57,1.67A11.63,11.63,0,0,1,84.29,40.34Z"/><path class="cls-4" d="M57.71,35c1.34,1.7.18,5.6,1.93,6.82A34.72,34.72,0,0,1,59,36.05a8.67,8.67,0,0,0,1.74,1.21,26,26,0,0,0-2.28-2.6c.4-.2.82-.41,1.22-.64.82.72,1.7,1.51,2.56,2.2-.36-.61-.85-1.39-1.2-2.1.81-.63,5.61.45,6.56.65-.25-.67.91-2.45.64-3.13a20.84,20.84,0,0,1-1.61,1.81l-3.19-1.22C62,33,60,32.9,58.57,33.41a9.85,9.85,0,0,0-1.71-.89,7.65,7.65,0,0,1,.19-1.33,5.06,5.06,0,0,1,1.84-.54,5.73,5.73,0,0,0-2.19,0,5.37,5.37,0,0,0,.35-2.93,32.68,32.68,0,0,1-1,3.89A16.7,16.7,0,0,1,51.52,31l-.16.17c.14-.08-.22.23-.3.31a6.11,6.11,0,0,1,1.88.72L50.71,34l-1.64-1-.82.8-4.38-.77-1.09,2.44s-3.86,0-5.74.18a15.14,15.14,0,0,0,2.22.65,29.33,29.33,0,0,1-1.78,2.93c.71-.76,1.87-2.39,2.81-2.8.28-.12,2.18.18,2.77-.07a9.11,9.11,0,0,0-.33,3,18.84,18.84,0,0,1,1.49-4.81c.77-.05,1.84-.1,2.94-.07a12.75,12.75,0,0,0,.93,2.08A7.08,7.08,0,0,0,49,34.67a6.38,6.38,0,0,1,2,.53c.75-.7,2.15-2.53,3.18-2.48C54.94,32.75,57.26,34.48,57.71,35Z"/><path class="cls-4" d="M212.94,35.44c-.43-.56-2-2.73-1.85-3.06a12.2,12.2,0,0,0-2.14.75,9.93,9.93,0,0,0-1.81-.66,7.6,7.6,0,0,1,0-1.35,5.11,5.11,0,0,1,1.76-.77,5.74,5.74,0,0,0-2.18.31,5.28,5.28,0,0,0,0-2.95,31.5,31.5,0,0,1-.49,4,16.63,16.63,0,0,1-4.57-.08l-.14.19c.13-.1-.19.26-.25.35a6.25,6.25,0,0,1,2,.47c-.54.84-1.49,1.55-1.78,2.46a18.09,18.09,0,0,1-2,.24,7,7,0,0,0-1.55.06,19.73,19.73,0,0,1-3.29-.3,20.38,20.38,0,0,0-.62,2.67c-1.67.81-4.27,0-6.11.45a14.79,14.79,0,0,0,2.28.35,28.21,28.21,0,0,1-1.38,3.14c.6-.85,1.54-2.61,2.42-3.14.26-.16,2.18-.11,2.74-.43a9.15,9.15,0,0,0,.06,3,19,19,0,0,1,.85-5,28.78,28.78,0,0,1,2.91-.45A12.25,12.25,0,0,0,199,37.65a6.59,6.59,0,0,0,.65-2,6.76,6.76,0,0,1,2.1.26c.65-.79,1.81-2.78,2.83-2.87.71-.06,3.23,1.35,3.75,1.86,1.56,1.51.9,5.52,2.81,6.51-.76-1.79-1-4.59-2.14-6.17a11.72,11.72,0,0,0,2.61,1.46A24.89,24.89,0,0,0,209,34.39c.37-.26.76-.52,1.12-.8C211,34.2,212,34.87,212.94,35.44Z"/><path class="cls-4" d="M242.75,33.57a3.37,3.37,0,0,0-.61,1,18.21,18.21,0,0,1-1.95.24,7.77,7.77,0,0,0-1.56.06,19.83,19.83,0,0,1-3.29-.3,23.06,23.06,0,0,0-.62,2.67c-1.67.81-4.27,0-6.11.45a15.17,15.17,0,0,0,2.28.35,29.22,29.22,0,0,1-1.37,3.14c.59-.85,1.54-2.61,2.41-3.14.27-.16,2.19-.11,2.74-.43a9.15,9.15,0,0,0,.06,3,19,19,0,0,1,.85-5c.76-.15,1.82-.34,2.91-.45a12.33,12.33,0,0,0,1.19,1.94,6.57,6.57,0,0,0,.66-2,6.81,6.81,0,0,1,2.1.26c.21-.26.48-.65.78-1Z"/><path class="cls-4" d="M343.71,28.38c.4-.07,3.31-.45,3.31-.45v1.61a20.32,20.32,0,0,1,2.85.47,19,19,0,0,1,2.29,2.38,22,22,0,0,0,2.22-1.62c1.78.49,3.24,2.78,4.9,3.68a14.23,14.23,0,0,0-1.49-1.77,29.21,29.21,0,0,1,3.1-1.46c-1,.25-2.87,1-3.88.78a13.83,13.83,0,0,1-2-1.55,7.71,7.71,0,0,0,1.55-2.22,18.89,18.89,0,0,1-3.9,3.18c-.67-.38-3.09-2.36-3.09-2.36l1-1.44a8.29,8.29,0,0,1-2.48.88l.33-1.77-2.08-.26Z"/><path class="cls-4" d="M319.61,23.79a14.73,14.73,0,0,1-.82,1.47l-3,.59A43.52,43.52,0,0,1,312,28.21a15.57,15.57,0,0,0-1.69.21,2.29,2.29,0,0,1-.24-.71,6.92,6.92,0,0,1,1.39-.94,9.46,9.46,0,0,0-1.84.83,1.86,1.86,0,0,0-.56-1.53,11.84,11.84,0,0,1,.3,2.24,25.63,25.63,0,0,1-4,1.34l-.08.15s0,0,0,.05c2.06-.7,5.31-1.43,6.44-.54l-1.32.55,5,2c-1-.71-1.71-2.09-3-2.57a14.48,14.48,0,0,0,2.54,0,23.13,23.13,0,0,0-2.67-.39c.27-.25.57-.51.83-.76.9,0,1.87.09,2.8.1-.48-.16-1.13-.35-1.63-.56.49-.6,4.83-1.86,5.69-2.11C319.58,25.3,320,24,319.61,23.79Z"/><path class="cls-4" d="M98.49,32a8.42,8.42,0,0,0,1.66,1.43,14,14,0,0,0-1.47-2.25c-.86-1-1.2-1.2-.91-2.36a10.75,10.75,0,0,1,2.38-.39,7.54,7.54,0,0,0-2.1-.13,12,12,0,0,0-.11-2A22.82,22.82,0,0,1,97,29.09a18.79,18.79,0,0,1-2.41-.42c-.5-.17-.54-.91-.71-1.12l-.27.94c.06,0,0,0,0,.06a32.87,32.87,0,0,0-3.27-1.21,11.2,11.2,0,0,0,1.45.85A19.71,19.71,0,0,1,90,30c.63-.42,2.25-1.29,2.25-1.29s2.19.51,2.49.65L93.1,30.83l-4.88-1a9.31,9.31,0,0,0-1.3,4.24,15.16,15.16,0,0,1,1.73-3.37l4.55.71c.57-.47,2.44-1.65,2.44-1.65l1.9,1.73s.37,4.23,1.59,5.21Z"/><path class="cls-4" d="M146.54,34.22a21.57,21.57,0,0,0-2.74,2.35c-1.08,1.06-1.16,1-2.53.69a4.23,4.23,0,0,1-.43-1.58,5,5,0,0,0,0,1.88,4.49,4.49,0,0,0-2.5-.35,27.24,27.24,0,0,1,3.32.93c-.07.57-.12,1.63-.26,2.41.5-.61,1-1.2,1.58-1.77a10.23,10.23,0,0,1,1.62-2c1.49-1.12,4.8-.05,5.88-1.53-1.61.41-4,.25-5.5,1A10.43,10.43,0,0,0,146.54,34.22Z"/><path class="cls-4" d="M164.05,30.63a2,2,0,0,1,.21-1.26l-1-3.25c-.27.31.62,2.91.26,3.26s-1,1.59-1.67,1.38A33.76,33.76,0,0,1,158.08,29c-1-.45-1.29-1-2.32-1.14a19.91,19.91,0,0,0-3.86.21c.77,0,1.57.18,2.36.24a4.49,4.49,0,0,1,1.84.72,21.28,21.28,0,0,1-1.75,1.8,6.71,6.71,0,0,0-1.9,0,9.22,9.22,0,0,1,2.07.86c.2-.25.42-.51.61-.78.66.21,1.36.43,2,.6-.36-.25-.84-.57-1.23-.89a2.18,2.18,0,0,1,1.46-.88l3.16,1.67.07.36a14.64,14.64,0,0,0-.27,2.27,10.88,10.88,0,0,0,1.14-2.13c1-.76,2.93-.23,4.16-.38C165.37,31.21,164.24,31,164.05,30.63Z"/><path class="cls-4" d="M162.61,38.86l1.49,2.63-.46-2.82c1.67-2.42,2.67-3.17,4.38-5.56a7.36,7.36,0,0,0,1.71.32,7.82,7.82,0,0,1-1.43-.81c1.23-1.18,4-4.81,4-4.81s-1.94-.6-2.7.16c0,0-2,4.59-2.69,5s-1.2.31-2.13.54a5.52,5.52,0,0,0,1.73.23A4.75,4.75,0,0,1,165,35.66c-.92.63-3.62.59-4.7.46.45.13.81.32,1.24.48-.62.29-1.24.59-1.82.93.84.2,3.21-.75,4-1C163.8,37.28,162.55,38.08,162.61,38.86Z"/><path class="cls-4" d="M25.69,30.25a18.35,18.35,0,0,1,1.55-3.54c-2.29,2.29-2.87,3.8-6.33,3.1a14.48,14.48,0,0,1,1.79-2.14L27.46,26l-5.78.35-1.35,2.32s-2.72.16-4.28.43c1.36.14,2.47.69,3.83.79-1.82,1.25-2.29,2.21-4.37,2.59-1.6.29-4.29-.47-5.56.61,1.64,1.74-.18,2.46-1.87,2.51-.27,1.2.56,2.09.39,3.2s-1.23,1.22-1.68,2c1.75-.64,2.4-.71,2.48-2.21.09-1.89-.46-2.11.79-2.56a27.8,27.8,0,0,1,.59,4.64c.14-1.27.7-2.73.38-4,.52.11,1,.33,1.5.42a9.18,9.18,0,0,0-1.27-1.42l-.09,0c0-.51.33-1.16.3-1.66a15.16,15.16,0,0,0,5.66-.37,24.39,24.39,0,0,0,2.81,3.23c-1.13-2.3-3.86-4.34-.24-5.74,2.38-.91,5.8.52,9.55-1.14C28.42,29.81,26.84,30.3,25.69,30.25Z"/><polygon class="cls-5" points="24.57 15.82 30.11 5.79 31.41 10.81 35.19 13.55 39.85 5.79 39.59 1.19 44.84 8.5 44.84 15.82 39.59 19.28 35.92 17.11 31.41 19.28 24.57 15.82"/><polygon class="cls-6" points="44.84 8.5 44.84 15.82 39.59 19.28 40.3 12.73 44.84 8.5"/><polygon class="cls-6" points="35.92 17.11 35.19 13.55 31.41 10.81 30.11 5.79 30.11 12.04 31.71 14.21 31.41 19.28 35.92 17.11"/><polygon class="cls-7" points="44.84 8.5 40.92 8.5 37.44 12.54 40.3 12.73 44.84 8.5"/><polygon class="cls-8" points="30.11 5.79 29.25 11.81 31.17 14.44 29.59 18.36 31.41 19.28 31.71 14.21 30.11 12.04 30.11 5.79"/><polygon class="cls-9" points="31.41 10.81 30.11 12.04 31.71 14.21 35.19 13.55 31.41 10.81"/><polygon class="cls-5" points="35.19 13.55 37.44 12.54 40.92 8.5 41.14 6.18 39.85 5.79 35.19 13.55"/><polygon class="cls-8" points="41.14 6.18 39.59 1.19 39.85 5.79 41.14 6.18"/><polygon class="cls-6" points="41.14 6.18 39.59 1.19 44.84 8.5 41.14 6.18"/><polygon class="cls-10" points="35.19 13.55 37.44 12.54 40.3 12.73 39.59 19.28 39.59 13.55 37.44 13.05 35.19 13.55"/><polygon class="cls-11" points="35.19 13.55 37.44 12.54 40.92 8.5 41.14 6.18 39.85 5.79 40.66 6.49 40.3 8.18 37.44 12.12 35.19 13.55"/><polygon class="cls-5" points="3.37 16.05 8.03 8.3 7.76 3.69 13.02 11.01 13.02 18.32 7.76 21.78 4.1 19.61 3.37 16.05"/><polygon class="cls-6" points="13.02 11.01 13.02 18.32 7.76 21.78 8.48 15.24 13.02 11.01"/><polygon class="cls-7" points="13.02 11.01 9.1 11.01 5.61 15.04 8.48 15.24 13.02 11.01"/><polygon class="cls-5" points="3.37 16.05 5.61 15.04 9.1 11.01 9.32 8.68 8.03 8.3 3.37 16.05"/><polygon class="cls-8" points="9.32 8.68 7.76 3.69 8.03 8.3 9.32 8.68"/><polygon class="cls-6" points="9.32 8.68 7.76 3.69 13.02 11.01 9.32 8.68"/><polygon class="cls-10" points="3.37 16.05 5.61 15.04 8.48 15.24 7.76 21.78 7.76 16.05 5.61 15.56 3.37 16.05"/><polygon class="cls-11" points="3.37 16.05 5.61 15.04 9.1 11.01 9.32 8.68 8.03 8.3 8.84 8.99 8.48 10.68 5.61 14.62 3.37 16.05"/><polygon class="cls-5" points="188.59 16.91 194.2 7.56 193.88 2 200.22 10.82 200.22 19.65 193.88 23.82 189.47 21.2 188.59 16.91"/><polygon class="cls-6" points="200.22 10.82 200.22 19.65 193.88 23.82 194.74 15.93 200.22 10.82"/><polygon class="cls-7" points="200.22 10.82 195.49 10.82 191.29 15.69 194.74 15.93 200.22 10.82"/><polygon class="cls-12" points="188.59 16.91 191.29 15.69 195.49 10.82 195.75 8.02 194.2 7.56 188.59 16.91"/><polygon class="cls-13" points="195.75 8.02 193.88 2 194.2 7.56 195.75 8.02"/><polygon class="cls-6" points="195.75 8.02 193.88 2 200.22 10.82 195.75 8.02"/><polygon class="cls-10" points="188.59 16.91 191.29 15.69 194.74 15.93 193.88 23.82 193.88 16.91 191.29 16.31 188.59 16.91"/><polygon class="cls-11" points="188.59 16.91 191.29 15.69 195.49 10.82 195.75 8.02 194.2 7.56 195.17 8.4 194.74 10.44 191.29 15.18 188.59 16.91"/><path class="cls-4" d="M62.83,19c0,.08-.1.17-.16.25A.5.5,0,0,0,62.83,19Z"/><polygon class="cls-5" points="56.65 19.14 64.2 5.48 65.97 12.31 71.13 16.05 72.12 20.89 65.97 23.85 56.65 19.14"/><polygon class="cls-6" points="72.12 20.89 71.13 16.05 65.97 12.31 64.2 5.48 64.2 13.99 66.38 16.94 65.97 23.85 72.12 20.89"/><polygon class="cls-8" points="64.2 5.48 63.03 13.67 65.64 17.25 63.49 22.6 65.97 23.85 66.38 16.94 64.2 13.99 64.2 5.48"/><polygon class="cls-9" points="65.97 12.31 64.2 13.99 66.38 16.94 71.13 16.05 65.97 12.31"/><path class="cls-4" d="M123.25,15.87c0,.08.1.17.16.25A.5.5,0,0,1,123.25,15.87Z"/><polygon class="cls-7" points="129.43 16.05 121.89 2.39 120.11 9.22 114.96 12.96 113.96 17.8 120.11 20.76 129.43 16.05"/><polygon class="cls-5" points="113.96 17.8 114.96 12.96 120.11 9.22 121.89 2.39 121.89 10.9 119.7 13.85 120.11 20.76 113.96 17.8"/><polygon class="cls-6" points="121.89 2.39 123.05 10.58 120.44 14.16 122.59 19.51 120.11 20.76 119.7 13.85 121.89 10.9 121.89 2.39"/><polygon class="cls-11" points="120.11 9.22 121.89 10.9 119.7 13.85 114.96 12.96 120.11 9.22"/><path class="cls-4" d="M28.51,43.37H19.65l4.92-3.9-.93-3.77s1.36-2.34.68-3.2l.7,1-.29,2,1.93,1,4.07-4.93s7.71-.55,8-3.27,1.24-2.15,1.24-2.15a2.81,2.81,0,0,0-.68,2.28A3.05,3.05,0,0,1,37.33,31s4,1.11,4.25,1.11,3.64-2.73,3.64-2.73l-3.39,3.53S36,31.76,35.54,31.76s-4.13.74-4.13.74l-2.9,4.07,4.13,3.14L34.37,38l-1.61,2.39-4-2.09-1.67.37,2.16,1.72Z"/><path class="cls-4" d="M74,36.57l2.9-4.07,2-.39q-1.36-.27-2.67-.6h0l-4.07,4.93-1.93-1,.29-2-.7-1c.68.86-.68,3.2-.68,3.2l.93,3.77-4.92,3.9H74l.74-3-2.16-1.72,1.67-.37,4,2.09L79.87,38l-1.73,1.72Z"/><path class="cls-4" d="M10.9,43.37H.25L1.32,38.6,2.8,35,1.32,30l1.54,1.74,1.36-1.47,5.43-.84-2.22.84S7.92,32.75,8.6,33c0,0-3.09-2-3.12-2.16a2.92,2.92,0,0,0-1.63,1.42c-.31.8.55,2.78.55,2.78L3.11,37.49,6,38a4.75,4.75,0,0,0-2,.37c-.5.37.88,2.54,1,2.65C5.51,41.3,10.9,43.37,10.9,43.37Z"/><polygon class="cls-7" points="101.23 14.87 96.58 7.11 96.84 2.5 91.58 9.82 91.58 17.14 96.84 20.6 100.5 18.42 101.23 14.87"/><polygon class="cls-5" points="91.58 9.82 91.58 17.14 96.84 20.6 96.13 14.05 91.58 9.82"/><polygon class="cls-11" points="91.58 9.82 95.51 9.82 98.99 13.85 96.13 14.05 91.58 9.82"/><polygon class="cls-8" points="101.23 14.87 98.99 13.85 95.51 9.82 95.29 7.5 96.58 7.11 101.23 14.87"/><polygon class="cls-14" points="95.29 7.5 96.84 2.5 96.58 7.11 95.29 7.5"/><polygon class="cls-11" points="95.29 7.5 96.84 2.5 91.58 9.82 95.29 7.5"/><polygon class="cls-6" points="101.23 14.87 98.99 13.85 96.13 14.05 96.84 20.6 96.84 14.87 98.99 14.37 101.23 14.87"/><polygon class="cls-6" points="101.23 14.87 98.99 13.85 95.51 9.82 95.29 7.5 96.58 7.11 95.77 7.81 96.13 9.5 98.99 13.44 101.23 14.87"/><polygon class="cls-5" points="91.58 9.82 95.29 7.5 95.51 9.82 91.58 9.82"/><polygon class="cls-7" points="183.81 15.26 179.16 7.5 179.42 2.89 174.17 10.21 174.17 17.52 179.42 20.98 183.08 18.81 183.81 15.26"/><polygon class="cls-5" points="174.17 10.21 174.17 17.52 179.42 20.98 178.71 14.44 174.17 10.21"/><polygon class="cls-11" points="174.17 10.21 178.09 10.21 181.57 14.24 178.71 14.44 174.17 10.21"/><polygon class="cls-8" points="183.81 15.26 181.57 14.24 178.09 10.21 177.87 7.88 179.16 7.5 183.81 15.26"/><polygon class="cls-14" points="177.87 7.88 179.42 2.89 179.16 7.5 177.87 7.88"/><polygon class="cls-11" points="177.87 7.88 179.42 2.89 174.17 10.21 177.87 7.88"/><polygon class="cls-6" points="183.81 15.26 181.57 14.24 178.71 14.44 179.42 20.98 179.42 15.26 181.57 14.76 183.81 15.26"/><polygon class="cls-6" points="183.81 15.26 181.57 14.24 178.09 10.21 177.87 7.88 179.16 7.5 178.35 8.2 178.71 9.88 181.57 13.82 183.81 15.26"/><polygon class="cls-5" points="174.17 10.21 177.87 7.88 178.09 10.21 174.17 10.21"/><polygon class="cls-8" points="23.71 24.14 17.17 20.91 19.96 18.25 16.86 17.23 21.23 17.54 22.53 18.72 19.13 20.77 21.52 22.03 25.72 20.77 23.35 22.09 26.62 23.7 23.71 24.14"/><polygon class="cls-15" points="21.68 26.39 23.71 24.14 26.62 23.7 27.46 26.04 21.68 26.39"/><path class="cls-4" d="M44.84,41.28l-6.67,2.09H45.8a31.08,31.08,0,0,0,1.6-3l-.35-2.74-.58,1.25-1.25-2.09.11-1.25L44.84,37s-.54,1,.38,1.17.67,1.25.67,1.25Z"/><path class="cls-4" d="M49.5,40.5A27.72,27.72,0,0,1,52,43.37H58.3l-5.88-2.09L56.3,39s-1.41-1.88-.33-2.65c0,0-.17-3-1.42-2.92a1.61,1.61,0,0,1,.67,1.9l-2.08-.65,1.5,1.67.25,2L50.3,40l1.09-2.33,1-.5-1.53.25-1-.58.58,1-1,2.58Z"/><path class="cls-4" d="M133,43.37h-8.86l4.91-3.9-.93-3.77s1.36-2.34.68-3.2l.7,1-.28,2,1.93,1,4.06-4.93s7.71-.55,8-3.27,1.23-2.15,1.23-2.15a2.81,2.81,0,0,0-.68,2.28A3.05,3.05,0,0,1,141.82,31s4,1.11,4.25,1.11,3.64-2.73,3.64-2.73l-3.39,3.53s-5.85-1.17-6.29-1.17-4.13.74-4.13.74L133,36.57l4.13,3.14L138.86,38l-1.6,2.39-4-2.09-1.66.37,2.15,1.72Z"/><path class="cls-4" d="M178.51,36.57l2.89-4.07,2-.39q-1.36-.27-2.67-.6h0l-4.06,4.93-1.93-1,.28-2-.7-1c.68.86-.67,3.2-.67,3.2l.92,3.77-4.91,3.9h8.86l1-2.82-2.89-2.27h2.12l4,2.09,1.6-2.39-1.72,1.72Z"/><path class="cls-4" d="M115.39,43.37H104.74l1.08-4.77L107.3,35,105.82,30l1.54,1.74,1.35-1.47,5.43-.84-2.22.84s.49,2.51,1.17,2.75c0,0-3.08-2-3.11-2.16a2.93,2.93,0,0,0-1.64,1.42c-.3.8.56,2.78.56,2.78l-1.3,2.46,2.9.5a4.75,4.75,0,0,0-2,.37c-.49.37.89,2.54,1,2.65C110,41.3,115.39,43.37,115.39,43.37Z"/><path class="cls-4" d="M231.2,43.37H220.55l1.08-4.77L223.11,35,221.63,30l1.54,1.74,1.36-1.47L230,29.4l-2.22.84s.49,2.51,1.17,2.75c0,0-3.08-2-3.11-2.16a2.89,2.89,0,0,0-1.63,1.42c-.31.8.55,2.78.55,2.78l-1.29,2.46,2.89.5a4.75,4.75,0,0,0-2,.37c-.49.37.89,2.54,1,2.65C225.81,41.3,231.2,43.37,231.2,43.37Z"/><path class="cls-4" d="M151.34,41.28l-6.68,2.09h7.63a33.54,33.54,0,0,0,1.61-3l-.35-2.74L153,38.87l-1.26-2.09.12-1.25L151.34,37s-.55,1,.37,1.17.67,1.25.67,1.25Z"/><path class="cls-4" d="M87.2,40.5a27.72,27.72,0,0,1,2.45,2.87H96l-5.88-2.09L94,39s-1.41-1.88-.33-2.65c0,0-.17-3-1.42-2.92a1.61,1.61,0,0,1,.67,1.9l-2.08-.65,1.5,1.67.25,2L88,40l1.09-2.33,1-.5-1.53.25-1-.58.58,1-1,2.58Z"/><path class="cls-4" d="M283.12,40.21a15,15,0,0,0-2-3.07A35.73,35.73,0,0,1,279,34l-.36-.26c-.29-.19-.6-.37-.9-.55.13.44-.55,1-.66,1.19,0,0,4,3.82,3.74,3.74a7.21,7.21,0,0,0-1.23.11c.34.21.67.3,1,.49-.66.47-.89,1.44-1.3,2.12a14.65,14.65,0,0,1,2.09-2,5.49,5.49,0,0,1,1.16,1.8c.22.72.52,1.45.71,2.15A9.47,9.47,0,0,0,283.12,40.21Z"/><path class="cls-4" d="M252.6,28.52a21.69,21.69,0,0,1,2.43,1.1,14.75,14.75,0,0,0-.61-2.77c1.28,2.14,1.48,3.3,4,3.76a12.58,12.58,0,0,1-.39-1.94c-.82-.49-1.92-1.46-2.46-1.75a19.24,19.24,0,0,0,2.34,1c.05-.15,0-.29.05-.44l.34-.39c-.28,2.33,1.78,3.32,3.55,4.35-.95-.28-1.79-.21-2.74-.51,1.09,1.32,1.29,2.09,2.67,2.9,1.06.62,3,.84,3.75,1.9-1.36.71-.2,1.68,1,2.17,0,.87-.66,1.24-.69,2a9.28,9.28,0,0,0,.78,2.39,2.74,2.74,0,0,1-1.31-2.72c.23-1.56.79-1.21-.92-2.44.09-.33-.08-.88,0-1.22a12.75,12.75,0,0,1-3.85-1.76,13.4,13.4,0,0,1-2.36,1.39c1.09-1.23,3.23-1.85.92-3.75C257.51,30.6,255,30.63,252.6,28.52Z"/><path class="cls-4" d="M298.9,27.75l-4.17.86s2.67,4.64,2.63,5.89a6.33,6.33,0,0,1-1,3.09,7.07,7.07,0,0,0-1.49-1.76c.41,1.19.91,1.61.91,2.75,0,1.3-1.69,3-2.09,4.79h1.94a17.89,17.89,0,0,0,.68-3,11.33,11.33,0,0,1,1.92,1,9.91,9.91,0,0,0-1.57-1.67c.91-1.89,3-6.54,3-6.54Z"/><path class="cls-4" d="M322.93,35c-1.35,1.7-.18,5.6-1.94,6.82.52-1.87.4-4.68,1.32-6.39a11.72,11.72,0,0,1-2.4,1.79,26,26,0,0,1,2.28-2.6c-.41-.2-.83-.41-1.22-.64-.83.72-1.7,1.51-2.57,2.2.36-.61.86-1.39,1.21-2.1-.81-.63-5.61.45-6.57.65.26-.67-.91-2.45-.63-3.13A20.84,20.84,0,0,0,314,33.45l3.19-1.22c1.39.77,3.41.67,4.86,1.18a9.41,9.41,0,0,1,1.7-.89,15.15,15.15,0,0,1,1.33-2.28s-3-1.67-3.64-1.63l3.14-.86-3.81-4.5,6,.75,2,2.72h-2l.76,2.68c-.14-.08,2,2,2.06,2.05a6.31,6.31,0,0,0-1.88.72c.64.76,1.68,1.35,2.08,2.21a18.68,18.68,0,0,0,2,0,7.27,7.27,0,0,1,1.54-.15,18.94,18.94,0,0,0,3.23-.72,21.25,21.25,0,0,1,1,2.57c1.75.58,4.23-.52,6.11-.35a14.67,14.67,0,0,1-2.21.65,31.23,31.23,0,0,0,1.77,2.93c-.7-.76-1.86-2.39-2.8-2.8-.28-.12-2.18.18-2.77-.07a9.68,9.68,0,0,1,.33,3,18.84,18.84,0,0,0-1.49-4.81c-.78-.05-1.85-.1-2.94-.07a12.81,12.81,0,0,1-.94,2.08,6.78,6.78,0,0,1-.91-1.94,6.37,6.37,0,0,0-2.05.53c-.74-.7-2.15-2.53-3.17-2.48C325.7,32.75,323.38,34.48,322.93,35Z"/><path class="cls-4" d="M352.12,43.37H361l-4.91-3.9L357,35.7s-1.36-2.34-.68-3.2l-.7,1,.28,2-1.93,1-4.06-4.93s-7.71-.55-8-3.27-1.23-2.15-1.23-2.15a2.81,2.81,0,0,1,.68,2.28A3.05,3.05,0,0,0,343.31,31s-4,1.11-4.26,1.11-3.63-2.73-3.63-2.73l3.39,3.53s5.86-1.17,6.29-1.17,4.13.74,4.13.74l2.89,4.07L348,39.71,346.27,38l1.6,2.39,4-2.09,1.66.37-2.15,1.72Z"/><path class="cls-4" d="M306.62,36.57l-2.89-4.07-2-.39q1.36-.27,2.67-.6h0l4.06,4.93,1.93-1-.28-2,.7-1c-.68.86.68,3.2.68,3.2l-.93,3.77,4.91,3.9h-8.86l-.73-3L308,38.66l-1.66-.37-4,2.09L300.77,38l1.72,1.72Z"/><path class="cls-4" d="M335.79,41.28l6.68,2.09h-7.63a33.54,33.54,0,0,1-1.61-3l.35-2.74.59,1.25,1.25-2.09-.12-1.25.49,1.42s.55,1-.37,1.17-.67,1.25-.67,1.25Z"/><path class="cls-4" d="M331.14,40.5a27.72,27.72,0,0,0-2.45,2.87h-6.36l5.88-2.09L324.33,39s1.42-1.88.34-2.65c0,0,.16-3,1.41-2.92a1.61,1.61,0,0,0-.66,1.9l2.08-.65L326,36.38l-.25,2L330.33,40l-1.08-2.33-1-.5,1.54.25,1-.58-.58,1,1,2.58Z"/><path class="cls-4" d="M247.63,43.37h8.86l-4.91-3.9.92-3.77s-1.36-2.34-.68-3.2l-.69,1,.28,2-1.93,1-4.07-4.93s-7.7-.55-7.95-3.27-1.24-2.15-1.24-2.15a2.81,2.81,0,0,1,.68,2.28A3.07,3.07,0,0,0,238.81,31s-4,1.11-4.25,1.11-3.64-2.73-3.64-2.73l3.39,3.53s5.86-1.17,6.29-1.17,4.13.74,4.13.74l2.9,4.07-4.13,3.14L241.77,38l1.61,2.39,4-2.09,1.67.37-2.16,1.72Z"/><path class="cls-4" d="M265.24,43.37h10.65l-1.07-4.77L273.34,35,274.82,30l-1.54,1.74-1.36-1.47-5.42-.84,2.21.84s-.49,2.51-1.17,2.75c0,0,3.09-2,3.12-2.16a2.92,2.92,0,0,1,1.63,1.42c.31.8-.55,2.78-.55,2.78L273,37.49l-2.9.5a4.81,4.81,0,0,1,2,.37c.49.37-.89,2.54-1.05,2.65C270.63,41.3,265.24,43.37,265.24,43.37Z"/><path class="cls-4" d="M293.44,40.5A27.72,27.72,0,0,0,291,43.37h-6.36l5.89-2.09L286.63,39s1.42-1.88.34-2.65c0,0,.16-3,1.41-2.92a1.61,1.61,0,0,0-.66,1.9l2.08-.65-1.5,1.67-.25,2L292.63,40l-1.08-2.33-1-.5,1.53.25,1-.58-.58,1,1,2.58Z"/><polygon class="cls-5" points="126.71 17.9 132.43 7.97 133.64 13.01 137.38 15.82 142.17 8.14 141.99 3.53 147.12 10.94 146.99 18.26 141.67 21.62 138.05 19.39 133.49 21.48 126.71 17.9"/><polygon class="cls-6" points="147.12 10.94 146.99 18.26 141.67 21.62 142.5 15.09 147.12 10.94"/><polygon class="cls-6" points="138.05 19.39 137.38 15.82 133.64 13.01 132.43 7.97 132.32 14.21 133.88 16.41 133.49 21.48 138.05 19.39"/><polygon class="cls-16" points="147.12 10.94 143.19 10.87 139.64 14.84 142.5 15.09 147.12 10.94"/><polygon class="cls-8" points="132.43 7.97 131.47 13.97 133.34 16.63 131.69 20.53 133.49 21.48 133.88 16.41 132.32 14.21 132.43 7.97"/><polygon class="cls-9" points="133.64 13.01 132.32 14.21 133.88 16.41 137.38 15.82 133.64 13.01"/><polygon class="cls-5" points="137.38 15.82 139.64 14.84 143.19 10.87 143.45 8.55 142.17 8.14 137.38 15.82"/><polygon class="cls-5" points="143.45 8.55 141.99 3.53 142.17 8.14 143.45 8.55"/><polygon class="cls-6" points="143.45 8.55 141.99 3.53 147.12 10.94 143.45 8.55"/><polygon class="cls-10" points="137.38 15.82 139.64 14.84 142.5 15.09 141.67 21.62 141.77 15.9 139.63 15.36 137.38 15.82"/><polygon class="cls-11" points="137.38 15.82 139.64 14.84 143.19 10.87 143.45 8.55 142.17 8.14 142.97 8.86 142.58 10.54 139.65 14.42 137.38 15.82"/><polygon class="cls-5" points="301.23 16.5 306.09 6.13 307.72 11.05 311.68 13.54 315.81 5.49 315.24 0.91 320.97 7.86 321.46 15.16 316.44 18.96 312.65 17.04 308.28 19.5 301.23 16.5"/><polygon class="cls-6" points="320.97 7.86 321.46 15.16 316.44 18.96 316.72 12.38 320.97 7.86"/><polygon class="cls-6" points="312.65 17.04 311.68 13.54 307.72 11.05 306.09 6.13 306.5 12.37 308.25 14.42 308.28 19.5 312.65 17.04"/><polygon class="cls-7" points="320.97 7.86 317.06 8.12 313.85 12.38 316.72 12.38 320.97 7.86"/><polygon class="cls-8" points="306.09 6.13 305.63 12.19 307.72 14.69 306.41 18.71 308.28 19.5 308.25 14.42 306.5 12.37 306.09 6.13"/><polygon class="cls-9" points="307.72 11.05 306.5 12.37 308.25 14.42 311.68 13.54 307.72 11.05"/><polygon class="cls-5" points="311.68 13.54 313.85 12.38 317.06 8.12 317.13 5.79 315.81 5.49 311.68 13.54"/><polygon class="cls-13" points="317.13 5.79 315.24 0.91 315.81 5.49 317.13 5.79"/><polygon class="cls-6" points="317.13 5.79 315.24 0.91 320.97 7.86 317.13 5.79"/><polygon class="cls-10" points="311.68 13.54 313.85 12.38 316.72 12.38 316.44 18.96 316.06 13.25 313.88 12.89 311.68 13.54"/><polygon class="cls-11" points="311.68 13.54 313.85 12.38 317.06 8.12 317.13 5.79 315.81 5.49 316.67 6.13 316.42 7.84 313.82 11.96 311.68 13.54"/><polygon class="cls-5" points="277.43 16.04 282.08 8.29 281.82 3.68 287.08 10.99 287.08 18.31 281.82 21.77 278.16 19.6 277.43 16.04"/><polygon class="cls-6" points="287.08 10.99 287.08 18.31 281.82 21.77 282.53 15.22 287.08 10.99"/><polygon class="cls-7" points="287.08 10.99 283.15 10.99 279.67 15.03 282.53 15.22 287.08 10.99"/><polygon class="cls-5" points="277.43 16.04 279.67 15.03 283.15 10.99 283.37 8.67 282.08 8.29 277.43 16.04"/><polygon class="cls-13" points="283.37 8.67 281.82 3.68 282.08 8.29 283.37 8.67"/><polygon class="cls-6" points="283.37 8.67 281.82 3.68 287.08 10.99 283.37 8.67"/><polygon class="cls-10" points="277.43 16.04 279.67 15.03 282.53 15.22 281.82 21.77 281.82 16.04 279.67 15.54 277.43 16.04"/><polygon class="cls-11" points="277.43 16.04 279.67 15.03 283.15 10.99 283.37 8.67 282.08 8.29 282.89 8.98 282.53 10.67 279.67 14.61 277.43 16.04"/><polygon class="cls-5" points="260.64 13.93 269.81 1.31 270.73 8.3 275.39 12.64 275.78 17.57 269.31 19.75 260.64 13.93"/><polygon class="cls-6" points="275.78 17.57 275.39 12.64 270.73 8.3 269.81 1.31 268.76 9.75 270.57 12.95 269.31 19.75 275.78 17.57"/><polygon class="cls-8" points="269.81 1.31 267.64 9.29 269.8 13.17 267.01 18.21 269.31 19.75 270.57 12.95 268.76 9.75 269.81 1.31"/><polygon class="cls-9" points="270.73 8.3 268.76 9.75 270.57 12.95 275.39 12.64 270.73 8.3"/><path class="cls-4" d="M207.6,18.53l.17.24A.47.47,0,0,1,207.6,18.53Z"/><polygon class="cls-7" points="213.78 18.38 205.53 5.14 204.12 12.05 199.16 16.06 198.43 20.95 204.72 23.58 213.78 18.38"/><polygon class="cls-5" points="198.43 20.95 199.16 16.06 204.12 12.05 205.53 5.14 205.97 13.64 203.95 16.7 204.72 23.58 198.43 20.95"/><polygon class="cls-6" points="205.53 5.14 207.12 13.26 204.7 16.98 207.13 22.2 204.72 23.58 203.95 16.7 205.97 13.64 205.53 5.14"/><polygon class="cls-11" points="204.12 12.05 205.97 13.64 203.95 16.7 199.16 16.06 204.12 12.05"/><polygon class="cls-7" points="359.42 14.32 354.76 6.57 355.02 1.96 349.77 9.28 349.77 16.59 355.02 20.05 358.69 17.88 359.42 14.32"/><polygon class="cls-5" points="349.77 9.28 349.77 16.59 355.02 20.05 354.31 13.51 349.77 9.28"/><polygon class="cls-11" points="349.77 9.28 353.69 9.28 357.18 13.31 354.31 13.51 349.77 9.28"/><polygon class="cls-8" points="359.42 14.32 357.18 13.31 353.69 9.28 353.47 6.95 354.76 6.57 359.42 14.32"/><polygon class="cls-14" points="353.47 6.95 355.02 1.96 354.76 6.57 353.47 6.95"/><polygon class="cls-11" points="353.47 6.95 355.02 1.96 349.77 9.28 353.47 6.95"/><polygon class="cls-6" points="359.42 14.32 357.18 13.31 354.31 13.51 355.02 20.05 355.02 14.32 357.18 13.83 359.42 14.32"/><polygon class="cls-6" points="359.42 14.32 357.18 13.31 353.69 9.28 353.47 6.95 354.76 6.57 353.95 7.26 354.31 8.95 357.18 12.89 359.42 14.32"/><polygon class="cls-5" points="349.77 9.28 353.47 6.95 353.69 9.28 349.77 9.28"/><polygon class="cls-5" points="241.41 14.37 247.12 4.44 248.33 9.47 252.07 12.29 256.87 4.61 256.68 0 261.81 7.41 261.68 14.72 256.36 18.09 252.74 15.85 248.18 17.95 241.41 14.37"/><polygon class="cls-6" points="261.81 7.41 261.68 14.72 256.36 18.09 257.19 11.56 261.81 7.41"/><polygon class="cls-6" points="252.74 15.85 252.07 12.29 248.33 9.47 247.12 4.44 247.01 10.68 248.58 12.88 248.18 17.95 252.74 15.85"/><polygon class="cls-7" points="261.81 7.41 257.88 7.34 254.33 11.31 257.19 11.56 261.81 7.41"/><polygon class="cls-8" points="247.12 4.44 246.16 10.44 248.03 13.1 246.38 17 248.18 17.95 248.58 12.88 247.01 10.68 247.12 4.44"/><polygon class="cls-9" points="248.33 9.47 247.01 10.68 248.58 12.88 252.07 12.29 248.33 9.47"/><polygon class="cls-12" points="252.07 12.29 254.33 11.31 257.88 7.34 258.15 5.02 256.87 4.61 252.07 12.29"/><polygon class="cls-13" points="258.15 5.02 256.68 0 256.87 4.61 258.15 5.02"/><polygon class="cls-6" points="258.15 5.02 256.68 0 261.81 7.41 258.15 5.02"/><polygon class="cls-10" points="252.07 12.29 254.33 11.31 257.19 11.56 256.36 18.09 256.46 12.36 254.32 11.83 252.07 12.29"/><polygon class="cls-11" points="252.07 12.29 254.33 11.31 257.88 7.34 258.15 5.02 256.87 4.61 257.66 5.33 257.27 7 254.34 10.89 252.07 12.29"/><polygon class="cls-8" points="49.47 21.27 46.35 18.96 48.98 17.02 47.4 15.91 50.25 16.94 48.76 18.59 50.25 20.12 53.23 19.28 53.89 17.83 53.89 19.66 51.85 20.6 53.89 22.32 49.47 21.27"/><polygon class="cls-15" points="49.47 21.27 44.25 25.63 49.07 26.27 53.89 22.32 49.47 21.27"/><polygon class="cls-6" points="44.25 25.63 48.19 28.3 47.06 30.24 44.25 31.51 47.79 30.57 49.07 30.96 48.52 29.97 52.25 28.57 49.07 26.27 44.25 25.63"/><polygon class="cls-8" points="76.64 21.73 73.17 19.28 76.64 17.23 77.54 15.21 75.36 14.62 78.09 14.87 78.09 13.89 78.64 14.87 78.25 15.91 81.24 16.54 83.71 15.21 82.54 16.38 84.08 17.11 82.07 16.94 81.24 17.23 78.62 16.94 77.39 18.96 79.83 20.81 76.64 21.73"/><polygon class="cls-15" points="79.83 20.81 78.27 27.16 73.17 27.99 76.64 21.73 79.83 20.81"/><polygon class="cls-6" points="73.17 27.99 73.57 28.9 69.76 30.48 67.38 29.34 66.67 30.49 66.24 28.95 64 30.24 60.91 30.24 64.3 30.65 66.22 29.98 66.38 31.51 67.64 30.01 69.32 31.51 71.23 31.72 72.12 30.69 76.92 30.24 76.92 29.4 79.83 29.4 79.42 30.67 80.51 28.95 78.09 28.57 78.27 27.16 73.17 27.99"/><polygon class="cls-8" points="98.68 21.8 105.47 19.21 103.55 17.23 103.69 15.82 104.74 16.94 108.22 16.41 104.93 17.81 106.85 19.08 107.4 20.6 111.11 19.21 110.07 17.11 111.11 17.61 112.23 16.94 111.66 18.23 113.96 19.87 110.45 19.98 107.61 21.79 105.68 20.6 104.93 22.12 98.68 21.8"/><polygon class="cls-15" points="98.68 21.8 101.93 26.53 105.32 26.79 104.93 22.12 98.68 21.8"/><polygon class="cls-8" points="89.36 21.31 85.61 17.81 86.92 16.12 87.17 17.81 94.21 21.57 89.36 21.31"/><polygon class="cls-15" points="89.36 21.31 89.8 25.62 91.46 25.74 94.21 21.57 89.36 21.31"/><polygon class="cls-2" points="89.8 25.62 87.14 26.53 84.53 26.3 87.51 27.29 91.46 25.74 89.8 25.62"/><polygon class="cls-8" points="172.85 21.69 166.84 20.76 169.11 18.71 165.65 17.32 162.86 18.23 158.77 16.41 162.86 17.14 165.65 16.28 169.95 16.91 172.43 16.41 171.59 18.97 172.85 21.69"/><polygon class="cls-15" points="168.95 25.87 172.12 26.25 172.85 21.69 166.84 20.76 168.95 25.87"/><polygon class="cls-4" points="168.95 25.87 166.84 27.3 175.63 29.4 176.13 32.38 176.79 29.13 179.72 29.75 183.81 29.4 186.06 32.38 192.62 30.98 186.75 31.51 184.36 28.66 179.73 28.66 176.13 27.71 169.84 27.04 172.12 26.25 168.95 25.87"/><polygon class="cls-8" points="125.4 23.19 128.12 21.8 125.75 20.04 124.15 19.71 126.42 19.47 129.88 21.62 129.43 23.4 125.4 23.19"/><polygon class="cls-15" points="126.71 28.41 125.4 23.19 129.43 23.4 128.24 28.52 126.71 28.41"/><path class="cls-4" d="M126.71,28.41l-1.78,1.29,2.67,2.13a5.17,5.17,0,0,1-2.88,3c-2.08.7-1.47,1.08-1.47,1.08l2.13,1.91-1.23-2a17.64,17.64,0,0,0,2.56-1.55c.18-.29,2.09-2.45,2.09-2.45s-1.29-1.09-1.16-1.09,3.29.77,3.29.77V33.1l2.12-.4-1.58-.08.85-1.59-4-.79-.94-.84.83-.88Z"/><polygon class="cls-8" points="152.49 15.44 154.52 15.26 150.87 17.61 152.7 18.98 151.38 18.65 148.74 20.1 144.66 20.76 148.31 19.75 150.46 18.23 149.28 17.32 152.49 15.44"/><polygon class="cls-8" points="212.87 23.25 218.38 19.75 216.53 18.47 219.78 17.61 223.61 18.77 228.22 17.95 233.5 19.17 238.88 15.93 233.59 20.27 228.72 18.91 225.4 20.62 221.65 20.98 220.55 22.52 212.87 23.25"/><polygon class="cls-15" points="213.48 27.43 212.87 23.25 220.55 22.52 219.32 27.04 213.48 27.43"/><polygon class="cls-4" points="213.48 27.43 214.13 29.13 210.98 29.4 207.96 33.39 208.99 34.39 212.87 32.38 217.05 33.38 217.35 30.71 221.13 28.78 219.32 27.04 213.48 27.43"/><path class="cls-8" d="M264.53,19a55.51,55.51,0,0,0,4.8,2.81c.26-.05,6.56,0,6.56,0l-.11,2.82,1.49.42,5-.66-5.43-4.11-3.05.78-5-.34Z"/><polygon class="cls-15" points="275.78 24.59 282.25 24.35 281.44 28.31 275.89 27.82 275.78 24.59"/><polygon class="cls-4" points="275.89 27.82 275.14 29.19 277.05 34.34 279.95 35.53 279.98 30.24 281.44 28.31 275.89 27.82"/><polygon class="cls-8" points="290.55 23.25 296.03 19.5 292.41 18.4 299.39 18.96 300.14 21.98 290.55 23.25"/><polygon class="cls-15" points="290.55 23.25 294.73 28.61 298.9 27.75 300.14 21.98 290.55 23.25"/><polygon class="cls-8" points="320.28 19.32 325.2 16.68 324.32 15.22 326.75 16.38 330.68 15.03 334.74 15.67 330.02 16.04 325.09 18.69 320.28 19.32"/><polygon class="cls-8" points="346.69 19.32 344.93 17.18 340.99 16.68 345.04 16.38 351.3 20.17 346.69 19.32"/><polygon class="cls-15" points="320.8 23.25 320.28 19.32 325.09 18.69 326.75 24 320.8 23.25"/><polygon class="cls-15" points="346.33 26.46 346.69 19.32 351.3 20.17 348.41 26.72 346.33 26.46"/></g></g></svg>