<svg xmlns="http://www.w3.org/2000/svg" viewBox="0 0 361.62 38.66"><defs><style>.cls-1{fill:#361e5b;}.cls-2{fill:#4d3a66;}.cls-3{fill:#030e44;}.cls-4{fill:#694e93;}.cls-5{fill:#5f0ba0;}.cls-6{fill:#b960de;}.cls-7{fill:#dcb3ff;}.cls-8{fill:#d591f9;}.cls-9{fill:#964bde;}.cls-10{fill:#7f37d3;}.cls-11{fill:#6426c6;}.cls-12{fill:#e695fc;}.cls-13{fill:#e3a5f8;}.cls-14{fill:#4d16b7;}.cls-15{fill:#9c54e8;}.cls-16{fill:#a85eef;}.cls-17{fill:#fdf0ff;}.cls-18{fill:#8436d6;}.cls-19{fill:#6f13bf;}.cls-20{fill:#5414af;}.cls-21,.cls-30,.cls-31{fill:#39017a;}.cls-21{opacity:0.64;}.cls-22{fill:#ecbbfc;}.cls-23{fill:#7124c9;}.cls-24{fill:#d56d4b;}.cls-25{fill:#6321cc;}.cls-26{fill:#e6a4ff;}.cls-27{fill:#7d2cd1;}.cls-28{fill:#ca75fc;}.cls-29{fill:#cc85ff;}.cls-30{opacity:0.26;}.cls-31{opacity:0.43;}</style></defs><g id="Capa_2" data-name="Capa 2"><g id="Layer_1" data-name="Layer 1"><rect class="cls-1" y="15.35" width="361.62" height="23.31"/><path class="cls-2" d="M357.06,23.53c-.79,5-1.59,10.07-2.16,15.13h-3.84a46.63,46.63,0,0,0-5.36-15.14,83.53,83.53,0,0,1,11.36-1.62Z"/><path class="cls-2" d="M280,29.47c3-.74,6.43-2,8.47-4.41,1.51-1.81,2.91-5,5.21-5.9a6.24,6.24,0,0,0,1.06-.56,102.2,102.2,0,0,1,19.66,4c1.5.48,2.95.91,4.38,1.29a31.6,31.6,0,0,0,2,14.72h-9c-2-5.13-7.39-8-12.66-8.83-2.61-.41-5.2.62-6,3.38a5.15,5.15,0,0,0,2.07,5.45H259.1a63.36,63.36,0,0,0,4-8.33C268.71,30.43,274.59,30.81,280,29.47Z"/><path class="cls-2" d="M236.26,20.81c2,5.39,8,7.7,14.26,8.7-1.41,3-2.65,6.06-3.85,9.15H233.39c0-8.84-9.24-13.57-15.74-13.57C222.15,20.61,230.31,20.23,236.26,20.81Z"/><path class="cls-2" d="M171.9,31.83c1.15.14-4.14-7.7-3.4-8.26,2.42,2.55,11.15,12.58,13.6,15.09h-8.52c.25-2.53-.24-5.21-2-6.87Z"/><path class="cls-2" d="M148.36,25.09C154,26.3,159.42,28.68,165,30.32a16.89,16.89,0,0,0-6.73,3,22,22,0,0,0-5.7,5.34h-6.82c.56-2,1.05-4,1.48-6A46.43,46.43,0,0,0,148.36,25.09Z"/><path class="cls-2" d="M30.21,27.37c.12,1.13.29,2.26.52,3.37-3.9.79-6.36,4-7.28,7.92h-8.4c-3.79-5.13-7.59-10.25-11.85-15l7-.53A47.6,47.6,0,0,0,30.21,27.37Z"/><path class="cls-2" d="M96,26.09a28.05,28.05,0,0,0,4,1.43,85.93,85.93,0,0,0-1.52,11.14h-3c.13-1.48.23-3,.31-4.46C95.85,31.64,96,28.86,96,26.09Z"/><path class="cls-2" d="M118.4,29.53c7.91,0,15.42-.64,19.73-.7-.08.4-.15.79-.23,1.18a3.6,3.6,0,0,0-2-.35c-6,.68-10,4.24-12.39,9H118c-.07-.35-.15-.7-.24-1a35.4,35.4,0,0,1,0-6.67A14,14,0,0,1,118.4,29.53Z"/><path class="cls-2" d="M76.27,21.65a4.79,4.79,0,0,1,1.51.78,52.29,52.29,0,0,0-1.47,7.12c-3.58,1-7.29,2.64-9.67,5.58a11.36,11.36,0,0,0-2,3.53h-.62c-1.89-4.14-4-8.14-6.28-12.06a64.25,64.25,0,0,0,16.9-3.94A5,5,0,0,0,76.27,21.65Z"/><path class="cls-2" d="M203.11,22.66a4.91,4.91,0,0,0,3.2-.41,4.66,4.66,0,0,0,.67,1.16,49.19,49.19,0,0,1,3.42,4.88,4.82,4.82,0,0,0-3-1.13c-5.28-.2-9.86,4.29-8,9.74a13.86,13.86,0,0,0,.74,1.76h-5c-3.95-4.59-8.3-8.82-12.47-13.21C189.48,23.63,196.35,21.35,203.11,22.66Z"/><path class="cls-3" d="M333.59,19.68c6.5-.71,14.89,1.9,21.54,3.21a81.65,81.65,0,0,0-1.67,15.77h-2.77c-.62-4.95-3.83-8.34-9-8.5-3.9-.13-7.93,3.26-8.72,7-.09.49-.16,1-.21,1.46h-4.1a5.2,5.2,0,0,0-.57-1.61c-2.16-3.92-5.24-10.47-7.24-14.44C325,23,329.33,20.15,333.59,19.68Z"/><path class="cls-3" d="M189,20.35a78.6,78.6,0,0,1,13.51-1.6c5.64-.28,11.56,0,17.31-.53a59.63,59.63,0,0,1,19.4,5.17,71,71,0,0,0,10.06,3.92,71,71,0,0,0-4.11,11.35H236c.74-5.44-.55-11.28-6.76-12.83-4.4-1.1-10-1-11.71,4.14-.88,2.72-.14,5.76,1.31,8.69h-2.91c-.52-1.38-1.14-2.74-1.75-4-1.41-3-3-5.91-5.79-7.81-3.46-2.41-9-1.47-11,2.34a7.76,7.76,0,0,0-.56,1.42,6.59,6.59,0,0,0-.94,2.85,7.85,7.85,0,0,0,1.79,5.23h-7.07a124.75,124.75,0,0,0-10.34-15.57c.25-.4,1.16-.4,1.32-.84C182.34,20.07,187.1,20.78,189,20.35Z"/><path class="cls-3" d="M102.7,26.57a35,35,0,0,0,9.89-.58c4.17-.77,8.65-1.29,12.45-3.26,22.06-1.8,29.47-1.93,42.62-.12,3.43,3.76,8.89,11.78,11.64,16h-6.41c-.09-.2-.19-.4-.31-.61-4.79-8.07-15.09-9.24-22-3a14.89,14.89,0,0,0-2.95,3.65h-3.42c.53-3.19-1.07-6.27-4.67-7.69a15.88,15.88,0,0,0-12.43.46,17.83,17.83,0,0,0-7.71,7.23h-2.7s0-.11,0-.17a4.82,4.82,0,0,0-3.55-4.66,21.51,21.51,0,0,0-9.58,0,4.71,4.71,0,0,0-3.48,4.83H96.19A101,101,0,0,0,97.6,25.05,13.07,13.07,0,0,0,102.7,26.57Z"/><path class="cls-3" d="M86.54,38.66H84.19a6.37,6.37,0,0,0-.13-.95,1.49,1.49,0,0,0-.09-.3,4.65,4.65,0,0,0-1.15-4.84c-4.8-4.27-11.14-3.11-16.36-.25a4.84,4.84,0,0,0-1.84,6.34h-3.5c-1.49-5-2.87-10-4.09-15,10.35-.62,20.65-1.93,31-3A74.69,74.69,0,0,1,86.54,38.66Z"/><path class="cls-3" d="M18.57,21.79c7.6.27,14-2.38,21.6-1.92,1,4.67,3,13.73,4.13,18.79H39.71c-.55-6.16-6.6-9.1-12.6-7.83-3.73.79-5.78,4.26-7.17,7.83H16.08A35,35,0,0,0,14,34.18l-.16-.29a6.94,6.94,0,0,0-.41-.71C11.24,29.4,8.84,25.79,7,21.85,10.87,21.74,14.72,21.65,18.57,21.79Z"/><path class="cls-3" d="M269.49,29.93c8.75-.46,14.86-3.87,21.85-8.76a4.78,4.78,0,0,0,.5-.39c5.49-.55,11,.39,16.77,1.88l1.49.36c3,5,5.3,10.44,7.91,15.64h-4.69a4.9,4.9,0,0,0-.74-1.61,36,36,0,0,0-9.24-9.23c-2.8-1.95-7.74.59-7.28,4.17a26.48,26.48,0,0,0,1.82,6.67h-6a4.89,4.89,0,0,0-4.47-3c-5.19,0-11.3-.52-15.57,3H255.15a94.78,94.78,0,0,1,3.37-9.26A56.48,56.48,0,0,0,269.49,29.93Z"/><path class="cls-4" d="M353.54,37.7c-.14-3.22-.38-7.65.89-11.09C355.13,30.69,354,34.41,353.54,37.7Z"/><path class="cls-4" d="M317.75,32.63a20.24,20.24,0,0,1,1.5,5c-1.75-2.51-5.31-7-4.91-10.37C315.76,28.22,317.13,31.07,317.75,32.63Z"/><path class="cls-4" d="M337.66,32.28a9.78,9.78,0,0,1,7-.64l.09.09a25.11,25.11,0,0,0-3.51.17,7.88,7.88,0,0,0-3.59,1c-1.63,1-3.39,2.87-3.62,4.79A6.4,6.4,0,0,1,337.66,32.28Z"/><path class="cls-4" d="M298,29.25Z"/><path class="cls-4" d="M304.06,29.07c2,1.45,3.57,2.22,5.44,4.77a20.55,20.55,0,0,0-4.32-3,11.87,11.87,0,0,0-3.77-1.25c-1.09-.22-2.36-.76-3.45-.38C299.24,27,302.41,27.86,304.06,29.07Z"/><path class="cls-4" d="M233.72,30.39c2.27,3.45.85,7.38,1,7.44-.68-1.81-1.2-5.41-2.29-7-1.2-1.74-1.47-1.5-4.22-4A6.05,6.05,0,0,1,233.72,30.39Z"/><path class="cls-4" d="M205.6,26.62c-1.62.52-3.41.78-4.85,2.06-1,.86-3.33,3.09-3,4.56C196.52,27.85,202.2,25.68,205.6,26.62Z"/><path class="cls-4" d="M158.48,31.73c-1.43.72-2.69,2.1-4,3a43.55,43.55,0,0,0-3.9,3C150.6,35,155.66,31.91,158.48,31.73Z"/><path class="cls-4" d="M128.76,31.14a24.78,24.78,0,0,0-6.11,6l.13-.5A9.9,9.9,0,0,1,128.76,31.14Z"/><path class="cls-4" d="M70.74,31.14a31.05,31.05,0,0,0-3.51,2.15A14.5,14.5,0,0,0,65,36.06C65.47,32.84,68.34,31.43,70.74,31.14Z"/><path class="cls-4" d="M26.31,31.85a30.62,30.62,0,0,0-2.68,3.58,15.48,15.48,0,0,1-2,2.71l.18-.72A7,7,0,0,1,26.31,31.85Z"/><path class="cls-4" d="M58.38,32.4c.4,1.42.48,2.91.9,4.31.17.32-.33-.18-.43-.29a4.52,4.52,0,0,1-.56-1,9.44,9.44,0,0,1-.7-1.9c-.36-1.38-.83-2.93-.35-4.36C58,29.55,58.16,31.6,58.38,32.4Z"/><path class="cls-5" d="M361.62,26.33S350,18.78,331.24,22.1,299.4,34.53,268,35.31c-35.7.89-55.37-8.23-81.57-10.46s-56.68,7.32-90,6.43c-17.19-.47-39.34-6.49-50.91-8.72S0,25.33,0,25.33V9.85H78.38l32,9.74L183.21,11l76.42,6.5,41.83-7.61h60.16Z"/><path class="cls-6" d="M325.21,22.2C302.27,27.14,298.6,35,256.82,34.25c-23-.41-61.72-10.34-73.27-10.68-19-.56-38.27,3.72-57.16,5.26-20.25,1.65-44.14,2.36-63.59-3.42C37.58,17.91,10.61,23,7.54,23.55s-5.9,1-7.54,1.31v.47s33.93-5,45.49-2.77,33.72,8.25,50.91,8.72c33.3.89,63.78-8.67,90-6.43S232.25,36.2,268,35.31c31.45-.78,44.59-9.88,63.29-13.21s30.38,4.23,30.38,4.23V24.85S348.84,17.1,325.21,22.2Z"/><path class="cls-7" d="M361.62,19.33S329.15,14,284.45,26.05c-34.57,9.3-71.37-5-98.07-6.46S103.89,33.5,67.9,21.31c-25.34-8.58-67.9-2-67.9-2V8.85s23.69-8.6,81,0c54,8.09,74.62.64,102.06,0,1.7,0,3.42-.05,5.18,0,30.18.33,51.67,6.48,97.75,0s75.67,0,75.67,0Z"/><path class="cls-8" d="M92.1,11.59c1.8-.22,3.62-.42,5.43-.63-1.77-.19-3.56-.38-5.42-.61-9.34-.17-18.71-.64-28.07,0-11.74.79-27.45-.21-37.86,6.71,10.94-.38,23.62,0,34.5,2.31A132.44,132.44,0,0,1,92.1,11.59Z"/><path class="cls-8" d="M150.93,11.44c-3.94.34-8,.65-12.44.86-3.33,1.48-6.74,2.79-10.16,4-6.82,2.35-14,3.89-20.49,7.18-1.64.84-3.27,1.71-4.89,2.58,7.88,0,16-.5,23.91-1.21A162.25,162.25,0,0,0,150.93,11.44Z"/><path class="cls-8" d="M171.59,9.49c-4.1.33-8.18.74-12.38,1.16a142.5,142.5,0,0,1-20.36,13c4.49-.5,8.89-1,13.16-1.54A149,149,0,0,1,171.59,9.49Z"/><path class="cls-8" d="M192.23,8.93c-1.33,0-2.67-.07-4-.08-1.63,0-3.22,0-4.79,0a100.63,100.63,0,0,0-22.81,12.2c4.29-.48,8.36-.88,12.17-1.16A113.39,113.39,0,0,1,192.23,8.93Z"/><path class="cls-8" d="M221.68,10.81c-6.2-.45-12.19-1-18.31-1.36A87.1,87.1,0,0,0,181.09,19.5c1.86,0,3.64,0,5.29.09,3.14.17,6.41.52,9.8,1A113,113,0,0,0,221.68,10.81Z"/><path class="cls-8" d="M246.42,11.8c-6.11,0-11.78-.19-17.19-.5A107,107,0,0,1,206,22.14c4.65.82,9.47,1.75,14.42,2.65A119,119,0,0,0,246.42,11.8Z"/><path class="cls-8" d="M262.54,11.26q-4.68.3-9,.43a107,107,0,0,1-25.24,14.49c6,1,12.07,1.86,18.25,2.41C252.47,23.39,257.55,17.37,262.54,11.26Z"/><path class="cls-8" d="M349.76,7.14a228.81,228.81,0,0,0-24-1.17A178.28,178.28,0,0,0,296.3,23.19,227.19,227.19,0,0,1,324.5,19,169.93,169.93,0,0,1,349.76,7.14Z"/><path class="cls-8" d="M334.45,18.32c16.91-.66,27.17,1,27.17,1V8.85s-.65-.15-1.91-.37A117.87,117.87,0,0,0,334.45,18.32Z"/><path class="cls-8" d="M286.55,25.5A157.87,157.87,0,0,1,315.9,6.17c-5.73.21-11.9.62-18.51,1.29-10.47,4.85-19.71,12.63-27.9,21.22a89.86,89.86,0,0,0,15-2.63Z"/><path class="cls-8" d="M263.38,29.08C270.31,21.46,278,14.3,286.49,8.77l-.54.08c-6.31.88-12.15,1.53-17.62,2-5.1,6.27-10.15,12.58-16,18.16C256,29.18,259.7,29.21,263.38,29.08Z"/><path class="cls-8" d="M107.23,19c5.51-2.5,11.32-3.95,17-5.87l1.74-.59c-3.56,0-7.31-.1-11.3-.29A103.82,103.82,0,0,1,99.61,15a167.38,167.38,0,0,0-31.72,6.34h0a98.38,98.38,0,0,0,26.45,4.53C98.64,23.57,102.8,21.05,107.23,19Z"/><path class="cls-8" d="M39.14,5.08c-7.7-.15-14.2.08-19.52.5a38.3,38.3,0,0,0-6.48,2.8A57.61,57.61,0,0,0,0,18.83v.5s5.52-.86,13.77-1.55C20.48,11,29.85,7.14,39.14,5.08Z"/><path class="cls-9" d="M265.09.41h.29a.38.38,0,0,0,0-.1C265.27.47,265.17.37,265.09.41Z"/><path class="cls-9" d="M265.49.41h-.11c.29,1.07-.5,2.46-1,3.46-.72,1.58-2.36,3.68-2.5,5.4a16,16,0,0,0,.29,2.61,18.1,18.1,0,0,0,.59,3.69,50.11,50.11,0,0,0,2,4.78c.36.77,1,1.72.8,2.53a22.31,22.31,0,0,0,8.6-2.44c-.52-1-.61-3.14-1.11-4.21-.22-.48-.92-.8-1.28-1.18s-2.47-10.83-2-12C268.52,2.3,266.84,1.15,265.49.41Z"/><path class="cls-10" d="M268.43,2.21c-1-.63-2-1.31-2.94-1.8h-.11c.29,1.07-.5,2.46-1,3.46-.72,1.58-2.36,3.68-2.5,5.4a16,16,0,0,0,.29,2.61,18.1,18.1,0,0,0,.59,3.69,50.11,50.11,0,0,0,2,4.78c.36.77,1,1.72.8,2.53a22.31,22.31,0,0,0,8.6-2.44,23.52,23.52,0,0,1-.87-3.52,4.75,4.75,0,0,1-1.47-.53c-.77-.46-1-1.57-1.22-2.35-.39-1.12-.76-2.26-1.16-3.39a3,3,0,0,1-.79-2.47A36,36,0,0,0,268.43,2.21Z"/><path class="cls-11" d="M267.61,1.69c-.62-.36-1.32-1-2-1.43l-.19.15c.29,1.07-.5,2.46-1,3.46-.72,1.58-2.36,3.68-2.5,5.4a16,16,0,0,0,.29,2.61,18.1,18.1,0,0,0,.59,3.69,50.11,50.11,0,0,0,2,4.78c.36.77,1,1.72.8,2.53a23.92,23.92,0,0,0,7.71-2,3.66,3.66,0,0,1-3.54-1.15c-1.55-1.58-1.34-3.88-.81-5.85a3.7,3.7,0,0,0,.28-2.19c-.29-.74-1.41-1.32-1.79-2.08A9.75,9.75,0,0,1,267,1.87C267,1.8,267.58,1.76,267.61,1.69Z"/><path class="cls-6" d="M265.08,3.68a33.12,33.12,0,0,0,.49-3.42c-1.27.16-2.59.49-3.86.77-.85.18-1.72.23-2.54.43-.6.15-.67.26-.82.89-.36,1.44-.56,2.86-.85,4.3-.43,2.09-1,4.15-1.44,6.25a23.13,23.13,0,0,1-2.3,6.32,6.74,6.74,0,0,0,2.47,1,24.7,24.7,0,0,0,2.57.76c2.23.47,4.9.64,6.89,1.85a17.1,17.1,0,0,0,.51-3.4c.24-1.89.33-3.86.76-5.72a2.52,2.52,0,0,0,.16-1.54c-.24-.57-.89-1-1.23-1.54a4.31,4.31,0,0,1-1-2.94C265,6.37,265,5,265.08,3.68Z"/><path class="cls-12" d="M258.53,1.81a2.09,2.09,0,0,0-.18.54c-.36,1.44-.56,2.86-.85,4.3-.43,2.09-1,4.15-1.44,6.25a23.13,23.13,0,0,1-2.3,6.32,6.74,6.74,0,0,0,2.47,1,24.7,24.7,0,0,0,2.57.76c1.22.26,2.56.43,3.86.73-1.67-.92-4-1.95-5.11-3.29-1.89-2.36-.9-4.67-.44-7.52C257.6,7.89,258,4.84,258.53,1.81Z"/><path class="cls-13" d="M265.08,3.68a33.12,33.12,0,0,0,.49-3.42c-1.27.16-2.59.49-3.86.77-.85.18-1.72.23-2.54.43-.57.14-.66.25-.8.82.57-.12,4.91-.85,5.53-.89,2.33-.12.11,5.44.34,7.55.28,2.63,1.55,2.09,1.59,4.81a22.06,22.06,0,0,1-1.28,7.69,3.81,3.81,0,0,1-.36.73,7.29,7.29,0,0,1,1.5.69,17.1,17.1,0,0,0,.51-3.4c.24-1.89.33-3.86.76-5.72a2.52,2.52,0,0,0,.16-1.54c-.24-.57-.89-1-1.23-1.54a4.31,4.31,0,0,1-1-2.94C265,6.37,265,5,265.08,3.68Z"/><path class="cls-11" d="M259.44,7.22h0a1.48,1.48,0,0,1-.14.25l.42,0c.15-.58.82.07,1.34-.11-.32-.09-1.2,0-1.29-.72C259.67,6.81,259.49,6.93,259.44,7.22Z"/><path class="cls-13" d="M259.72,7.5a1.27,1.27,0,0,1-.44,0v0c0,.06.28.1.39.08s.2-.1.32-.16.61,0,.88-.09c-.32,0-.61-.13-.9-.13S259.87,7.41,259.72,7.5Z"/><path class="cls-11" d="M262.26,8.71c.77-.45,3.41-.13,2.94-1.44l.07-.2C264.33,7.71,263.17,8.07,262.26,8.71Z"/><path class="cls-13" d="M264.41,8.33a11.66,11.66,0,0,0-2.09.53c.78,0,1.66.14,2.41.05a.39.39,0,0,0-.19-.38Z"/><path class="cls-11" d="M258.47,15.85a1,1,0,0,0,.59-.52,1,1,0,0,0-.38,0A1.48,1.48,0,0,1,258.47,15.85Z"/><path class="cls-12" d="M258.46,15.9l0,0c.13.08.32,0,.44.09a.7.7,0,0,0,.11-.38c0-.11.19-.22.17-.33l-.18.18a2.12,2.12,0,0,0-.12.2A.61.61,0,0,1,258.46,15.9Z"/><path class="cls-14" d="M270.87,17.66a.9.9,0,0,0,.72.3.91.91,0,0,0-.17-.34A1.39,1.39,0,0,1,270.87,17.66Z"/><path class="cls-15" d="M271.28,18c.1,0,.28.07.37,0l-.24-.07a.93.93,0,0,0-.23,0,.62.62,0,0,1-.37-.28h0c0,.15.12.29.11.44A.77.77,0,0,0,271.28,18Z"/><path class="cls-16" d="M230.27,4.25c-.09-2.76-2.12-2.88-3.59-3.74s-3-.85-4.37,1.51c-1,1.73-1.46,5.7-2.15,7.92-.78,2.5-1.7,4.57-2.67,6.93.83,1,2.57,1.2,3.64,1.8s2.1,1.87,3.3,1.35a13,13,0,0,0,3.64-3.12c.73-.8,2.48-2.25,2.77-3.49,0-1.61-.41-3.06-.51-4.64S230.32,5.73,230.27,4.25Z"/><path class="cls-6" d="M226.68.51c-1.34-.78-2.8-.82-4.09,1.09-.08,3.54-.46,7.14-.84,10.77.75.13,1.5.26,2.25.41,1.88.39,2.46-1.44,3.85-3.63a32.54,32.54,0,0,1,2.43-3.38c0-.51,0-1,0-1.52C230.18,1.49,228.15,1.37,226.68.51Z"/><path class="cls-17" d="M222.59,1.6c-.08,3.54-.46,7.14-.84,10.77.75.13,1.5.26,2.25.41,1.88.39,2.46-1.44,3.85-3.63a32.54,32.54,0,0,1,2.43-3.38c0-.51,0-1,0-1.52a5.09,5.09,0,0,0-.08-.73,47.55,47.55,0,0,0-5.49,7.23c-.38.58-2.34-1.54-2.34-1.54,0-.56.51-8,.51-8A4.17,4.17,0,0,0,222.59,1.6Z"/><path class="cls-18" d="M223.8,10.78A3.61,3.61,0,0,0,222,9.91c-1,1-1.93,2.31-2.95,3.22-.49,1.24-1,2.45-1.53,3.74.83,1,2.57,1.2,3.64,1.8s2.1,1.87,3.3,1.35a4.21,4.21,0,0,0,.64-.37c-.07-2.68.09-5.29.06-7.92A3.51,3.51,0,0,1,223.8,10.78Z"/><path class="cls-19" d="M223.8,10.78A3.61,3.61,0,0,0,222,9.91l-.34.38a3.68,3.68,0,0,1,1.69,2c.15.38.28.77.4,1.15a8,8,0,0,1,.45,2.13,13.42,13.42,0,0,1,.15,2c0,.86,0,1.74-.12,2.61a1.19,1.19,0,0,0,.23-.07,4.21,4.21,0,0,0,.64-.37c-.07-2.68.09-5.29.06-7.92A3.51,3.51,0,0,1,223.8,10.78Z"/><path class="cls-20" d="M228.07,16.9c.73-.8,2.48-2.25,2.77-3.49,0-1.61-.41-3.06-.51-4.64s0-3-.06-4.52a5,5,0,0,0-.08-.72,10.88,10.88,0,0,1-1.6,2c-.54.77-1.07,1.56-1.61,2.33s-1.33,1.74-2,2.59c-.43.64-.52.74-.28.29-.11.18-.2.39-.3.59a81.31,81.31,0,0,1,0,8.68A13.07,13.07,0,0,0,228.07,16.9Z"/><path class="cls-21" d="M225,19.73a24.24,24.24,0,0,1,1-7.36c1-3,3.44-5.4,4.32-8.41,0-.15,0-.3-.06-.43a10.88,10.88,0,0,1-1.6,2c-.54.77-1.07,1.56-1.61,2.33s-1.33,1.74-2,2.59c-.43.64-.52.74-.28.29-.11.18-.2.39-.3.59a81.31,81.31,0,0,1,0,8.68A4.74,4.74,0,0,0,225,19.73Z"/><path class="cls-14" d="M222.6,15.67a.84.84,0,0,0,.72.3.92.92,0,0,0-.16-.33A1.54,1.54,0,0,1,222.6,15.67Z"/><path class="cls-15" d="M222.55,15.68h0c0,.16.13.29.11.44a.67.67,0,0,0,.39-.07c.11,0,.28.07.37,0l-.24-.08a.9.9,0,0,0-.23,0A.57.57,0,0,1,222.55,15.68Z"/><path class="cls-14" d="M219.9,16.88a.94.94,0,0,0,.73-.3.92.92,0,0,0-.36-.13A1.62,1.62,0,0,1,219.9,16.88Z"/><path class="cls-15" d="M219.87,16.92l0,0c.1.12.29.12.39.24a.77.77,0,0,0,.22-.33c0-.1.25-.15.27-.26l-.23.12c-.08,0-.11.1-.18.15A.59.59,0,0,1,219.87,16.92Z"/><path class="cls-11" d="M226.78,5.78c-.3-.17-.82.15-1.12-.28.22.39,1.19.71,1.6.87C226.8,6.06,227,5.93,226.78,5.78Z"/><path class="cls-12" d="M225.56,5.59a2.68,2.68,0,0,1,.07.27,2.35,2.35,0,0,0,1.16.45c-.35-.18-1-.31-1.2-.73Z"/><path class="cls-11" d="M223.86,1.82c.16-.05.46,0,.56-.23a.79.79,0,0,1,.39.13c.15-.13.34-.21.48-.33a7.17,7.17,0,0,1-.81.1c-.22.05-.44.2-.66.26Z"/><path class="cls-12" d="M223.93,1.86h0a1,1,0,0,0,.5,0c.06,0,.07,0,.11,0s0-.1,0-.11.16,0,.23,0a1.29,1.29,0,0,1-.32-.18c0,.07,0,.13,0,.19A1.54,1.54,0,0,1,223.93,1.86Z"/><path class="cls-22" d="M56,3c-.84,2.18-5.8,5.45-4.84,7.63.6,1.39,5.22,4.24,5.22,4.24,1.21.27,11.22-.81,13.19-1.73s4.59-1.93,4.66-3c-1.84-4-3.27-8.92-8.4-8.89C60.53,1.35,56.45,1.8,56,3Z"/><path class="cls-17" d="M55.84,3.3c-1.11,2.17-5.62,5.26-4.7,7.35.6,1.39,5.22,4.24,5.22,4.24,1.21.27,11.22-.81,13.19-1.73s4.59-1.93,4.66-3C73,7.57,71.94,4.51,69.88,2.75c-1.81-.2-5.27,3.13-7,3.75C61.72,6.91,57.37,4.63,55.84,3.3Z"/><path class="cls-23" d="M65.53,10.6c.72,1,1.45,2.05,2.15,3.09a10.32,10.32,0,0,0,1.87-.53c2-.9,4.59-1.93,4.66-3-1.27-2.72-2.34-5.93-4.56-7.65a7.9,7.9,0,0,0-.91.48c-1.35.94-3.21,3.33-5.49,4.12C63.23,7.16,64.52,9.17,65.53,10.6Z"/><path class="cls-20" d="M62.86,7.18Z"/><path class="cls-20" d="M62.86,7.18Z"/><path class="cls-20" d="M69.69,2.59s0,0,0,0c-.3.16-.68.22-.91.48a15.88,15.88,0,0,1-5.88,4.15h0c.78,1.59,1.66,2,2.67,3.42.72,1,1.45,2.05,2.15,3.09a10.32,10.32,0,0,0,1.87-.53l1-.44a10.56,10.56,0,0,1-2.14-3.05A6.3,6.3,0,0,1,69,3.4,5.14,5.14,0,0,1,69.69,2.59Z"/><path class="cls-6" d="M62,7.15C59.84,7,57.19,4.93,55.85,3.29c-1.11,2.18-5.63,5.26-4.71,7.36.6,1.39,5.22,4.24,5.22,4.24,1.21.27,11.22-.81,13.19-1.73l.26-.12a19.45,19.45,0,0,1-1.4-1.47c-1.72-2-3.37-2.51-5.16-4.42A5.8,5.8,0,0,1,62,7.15Z"/><path class="cls-23" d="M54.4,5.52c.09-.16.21-.34.36-.57a9,9,0,0,1,.52-.74l.65-.84a.3.3,0,0,1-.08-.08c-1.11,2.18-5.63,5.26-4.71,7.36.6,1.39,5.22,4.24,5.22,4.24a12.86,12.86,0,0,0,2.46,0,8.1,8.1,0,0,1-3.58-1.55c-2.23-1.94-3.11-5.1-1-7.55Z"/><path class="cls-9" d="M58.76,14.86c3.44-.25,9.33-1,10.79-1.7l.26-.12a19.45,19.45,0,0,1-1.4-1.47c-1.72-2-3.37-2.51-5.16-4.42-.29,0-1,0-1.25,0,0,2.73.61,3.75-1.4,6.09A9.5,9.5,0,0,1,58.76,14.86Z"/><path class="cls-22" d="M58.76,14.86h.15c.6-.55,1.24-1,1.86-1.61,1.95-1.75,1.92-3.62,1.72-6.08H62c0,2.73.61,3.75-1.4,6.09A9.5,9.5,0,0,1,58.76,14.86Z"/><path class="cls-24" d="M68.4,11.56h0C67.05,10,68.12,11.23,68.4,11.56Z"/><path class="cls-25" d="M58.76,14.86c2.1-.15,4.19-.4,6.27-.71A17.79,17.79,0,0,0,69.81,13c-.49-.47-1-1-1.4-1.47h0c-.48-.56-1-1.1-1.48-1.65a14.94,14.94,0,0,1-1.25-.82c1.09,1.48,2,3.08,1.55,4C66.61,14.35,59.41,14.41,58.76,14.86Z"/><path class="cls-25" d="M68.41,11.57Z"/><path class="cls-24" d="M68.41,11.57Z"/><path class="cls-24" d="M68.4,11.56c.08.09.1.12,0,0Z"/><path class="cls-14" d="M70.55,10.66a.88.88,0,0,0,.72-.3.9.9,0,0,0-.36-.12A1.39,1.39,0,0,1,70.55,10.66Z"/><path class="cls-15" d="M71.1,10.64c.05-.1.26-.15.27-.27l-.23.12a1.22,1.22,0,0,0-.17.15.62.62,0,0,1-.46.06l0,0c.1.13.29.12.39.24A.66.66,0,0,0,71.1,10.64Z"/><path class="cls-14" d="M59.16,11.22a.91.91,0,0,0,.72-.29.92.92,0,0,0-.36-.13A1.57,1.57,0,0,1,59.16,11.22Z"/><path class="cls-17" d="M59.12,11.27l0,0c.1.12.29.12.39.24a.74.74,0,0,0,.22-.33c0-.1.26-.15.27-.26l-.23.12a1.19,1.19,0,0,0-.18.15A.59.59,0,0,1,59.12,11.27Z"/><path class="cls-11" d="M56.39,6.48c.16.06.4.23.6.13a.73.73,0,0,1,.24.33c.2,0,.4,0,.59,0-.26-.06-.47-.28-.73-.37s-.47-.08-.69-.16Z"/><path class="cls-17" d="M56.43,6.55l0,0a1,1,0,0,0,.39.32c.05,0,0,.06.1,0s0-.08.08-.08.11.12.17.15A2.4,2.4,0,0,1,57,6.63s-.07.1-.11.15A1.37,1.37,0,0,1,56.43,6.55Z"/><path class="cls-20" d="M331.25,11.5c.34.77,2.23,1.36,3,1.74a11.84,11.84,0,0,0,3.93,1.31c1.28.08,2.26-1,3.4-1.63s2.9-1.13,3.74-2a34.81,34.81,0,0,1-3.07-4.08c-.82-1.34-1.46-3.91-2.56-4.85-1.51-1.3-3.16-.95-4.64-.07s-3.62,1.42-3.6,3.3c0,1,.16,2,.12,3.05A27.41,27.41,0,0,0,331.25,11.5Z"/><path class="cls-26" d="M335.08,1.91c-1.5.9-3.62,1.42-3.6,3.3,0,.34,0,.68,0,1A20.41,20.41,0,0,1,334.21,8c1.53,1.17,2.22,2.27,4.17,1.6.77-.27,1.55-.51,2.33-.76a56.22,56.22,0,0,1-1.3-7.07C338,.75,336.46,1.1,335.08,1.91Z"/><path class="cls-17" d="M337.56,8.37a32.12,32.12,0,0,0-6-3.67,2.05,2.05,0,0,0,0,.51c0,.34,0,.68,0,1A20.41,20.41,0,0,1,334.21,8c1.53,1.17,2.22,2.27,4.17,1.6.77-.27,1.55-.51,2.33-.76a56.22,56.22,0,0,1-1.3-7.07l-.31-.2s.85,4.89.85,5.27C340,6.82,338,8.67,337.56,8.37Z"/><path class="cls-27" d="M338.51,8.19a5,5,0,0,1-1.36.93c.08,1.77.34,3.5.37,5.31a5.54,5.54,0,0,0,.69.12c1.28.08,2.26-1,3.4-1.63s2.9-1.13,3.74-2c-.61-.75-1.2-1.45-1.75-2.18-1.11-.39-2.17-1-3.22-1.52A5.72,5.72,0,0,0,338.51,8.19Z"/><path class="cls-20" d="M338.69,9.94c.11-.29.23-.58.37-.87a4.08,4.08,0,0,1,1.69-1.68c-.12-.06-.24-.13-.37-.18a5.72,5.72,0,0,0-1.87,1,5,5,0,0,1-1.36.93c.08,1.77.34,3.5.37,5.31a5.54,5.54,0,0,0,.69.12h.25a12.67,12.67,0,0,1-.23-1.72,6.64,6.64,0,0,1,.07-1.35A4.32,4.32,0,0,1,338.69,9.94Z"/><path class="cls-28" d="M331.25,11.5c.34.77,2.23,1.36,3,1.74a11.86,11.86,0,0,0,3.92,1.31,34.66,34.66,0,0,1-.3-5.85,3.51,3.51,0,0,0-.34-.33c.27.25.17.2-.3-.13-.73-.44-1.49-.84-2.21-1.32l-1.76-1.21a6.77,6.77,0,0,1-1.75-1,2,2,0,0,0-.06.51c0,1,.16,2,.12,3.05A27.41,27.41,0,0,0,331.25,11.5Z"/><path class="cls-14" d="M340.33,8.85a.88.88,0,0,0,.72-.3.9.9,0,0,0-.36-.12A1.39,1.39,0,0,1,340.33,8.85Z"/><path class="cls-15" d="M340.29,8.89l0,0c.1.12.29.11.39.23a.66.66,0,0,0,.22-.32c.05-.1.26-.15.27-.27l-.23.12a1.22,1.22,0,0,0-.17.15A.62.62,0,0,1,340.29,8.89Z"/><path class="cls-11" d="M339,11.93c.16.06.4.24.59.14a.67.67,0,0,1,.25.32c.2,0,.4,0,.59,0-.26-.06-.47-.29-.73-.38s-.48-.07-.69-.15Z"/><path class="cls-12" d="M339,12l0,0a1.14,1.14,0,0,0,.39.32s0,.06.1,0,.05-.08.07-.09.11.13.18.16a1.46,1.46,0,0,1-.17-.33l-.11.15A1.3,1.3,0,0,1,339,12Z"/><path class="cls-9" d="M38.41.23s0,.06,0,.09h.3C38.6.29,38.51.39,38.41.23Z"/><path class="cls-29" d="M33.57,11.43a6.31,6.31,0,0,1,3.11,2.15l.28.08h.14c1.17.21,2.27-.6,3.34-.95a7.84,7.84,0,0,1,1.06-.27c0-.22,0-.44.07-.66a16,16,0,0,0,.29-2.61c-.14-1.72-1.78-3.82-2.51-5.4-.45-1-1.24-2.38-1-3.46h-.1c-1.35.74-3,1.9-4.34,2.68.3.68-.32,4.65-1,7.84Z"/><path class="cls-26" d="M34,11.57a6.11,6.11,0,0,1,2.72,2l.28.08h.14c1.17.21,2.27-.6,3.34-.95a7.84,7.84,0,0,1,1.06-.27c0-.22,0-.44.07-.66a16,16,0,0,0,.29-2.61c-.14-1.72-1.78-3.82-2.51-5.4-.45-1-1.24-2.38-1-3.46h-.1c-.9.49-1.95,1.17-2.94,1.8a36,36,0,0,0-.25,6,3,3,0,0,1-.8,2.48C34.19,10.9,34.08,11.24,34,11.57Z"/><path class="cls-22" d="M34.55,11.62a1.27,1.27,0,0,0-.06.18,5.8,5.8,0,0,1,2.19,1.78l.29.08h.13c1.17.21,2.27-.6,3.34-.95a7.84,7.84,0,0,1,1.06-.27c0-.22,0-.44.07-.66a16,16,0,0,0,.29-2.61c-.14-1.72-1.78-3.82-2.51-5.4-.45-1-1.24-2.38-1-3.46L38.21.17c-.72.47-1.42,1.08-2,1.43,0,.08.57.11.59.19a9.68,9.68,0,0,1-.42,7.75C36,10.31,34.84,10.88,34.55,11.62Z"/><path class="cls-17" d="M37.15,10.92a2.5,2.5,0,0,0-.67,1.16c.15.52.28,1,.42,1.56l.07,0h.13c1.17.21,2.27-.6,3.34-.95a7.84,7.84,0,0,1,1.06-.27c0-.22,0-.44.07-.66a16,16,0,0,0,.29-2.61c-.14-1.72-1.78-3.82-2.51-5.4-.45-1-1.24-2.38-1-3.46L38.25.2c-.34,2.77.44,5.67,0,8.38A4.37,4.37,0,0,1,37.15,10.92Z"/><path class="cls-6" d="M36.66,12.11a2.42,2.42,0,0,0,.15,1.51l.16,0h.13c1.17.21,2.27-.6,3.34-.95a24.26,24.26,0,0,1,3.4-.64l1.9-.33,1.52-1c-.33-1.38-.69-2.76-1-4.15s-.5-2.87-.85-4.3c-.16-.64-.22-.75-.82-.9-.82-.2-1.69-.25-2.54-.43C40.8.67,39.48.34,38.21.17A33.7,33.7,0,0,0,38.7,3.6c.08,1.33.12,2.69.18,4a4.24,4.24,0,0,1-1,2.93C37.54,11.07,36.89,11.54,36.66,12.11Z"/><path class="cls-12" d="M47.26,10.72c-.33-1.38-.69-2.76-1-4.15s-.5-2.87-.85-4.3a2.06,2.06,0,0,0-.18-.55c.56,3,.93,6.08,1.42,9.12,0,.09,0,.16,0,.24Z"/><path class="cls-30" d="M36.66,12.11a2.42,2.42,0,0,0,.15,1.51l.16,0h.13a2.42,2.42,0,0,0,.85,0h0c0-2.71,1.31-2.18,1.59-4.81.23-2.11-2-7.67.34-7.55.62,0,5,.77,5.53.89-.14-.56-.23-.68-.8-.82-.82-.2-1.69-.25-2.54-.43C40.8.67,39.48.34,38.21.17A33.7,33.7,0,0,0,38.7,3.6c.08,1.33.12,2.69.18,4a4.24,4.24,0,0,1-1,2.93C37.54,11.07,36.89,11.54,36.66,12.11Z"/><path class="cls-31" d="M44.08,7.35a3.88,3.88,0,0,1,.42,0,2.15,2.15,0,0,1-.14-.26h0c-.05-.28-.23-.41-.31-.6-.09.7-1,.62-1.3.71C43.26,7.42,43.93,6.77,44.08,7.35Z"/><path class="cls-13" d="M43.79,7.4c.12.07.17.15.32.17s.36,0,.39-.09h0a1.56,1.56,0,0,1-.44,0c-.15-.1,0-.24-.25-.24s-.58.14-.9.14C43.18,7.38,43.54,7.27,43.79,7.4Z"/><path class="cls-17" d="M41.52,8.62c-.91-.64-2.07-1-3-1.63l.07.19C38.1,8.49,40.75,8.17,41.52,8.62Z"/><path class="cls-30" d="M39.54,8.85a13.9,13.9,0,0,0,1.92-.08,16.12,16.12,0,0,0-2.41-.53C38.92,8.34,39.52,8.67,39.54,8.85Z"/></g></g></svg>