<svg xmlns="http://www.w3.org/2000/svg" viewBox="0 0 90.25 90.42"><defs><style>.cls-1{isolation:isolate;}.cls-2,.cls-4,.cls-5{fill:#3e404a;}.cls-3{fill:#232324;}.cls-10,.cls-4,.cls-7{mix-blend-mode:multiply;}.cls-4,.cls-7{opacity:0.34;}.cls-5{mix-blend-mode:screen;}.cls-6{fill:#282a32;}.cls-8{fill:#8f9194;}.cls-9{fill:#828078;}.cls-10{fill:#939598;}.cls-11{fill:#ffd200;}.cls-12{fill:#f7aa1c;}</style></defs><g class="cls-1"><g id="Capa_2" data-name="Capa 2"><g id="Layer_1" data-name="Layer 1"><circle class="cls-2" cx="38.63" cy="51.78" r="37.99"/><path class="cls-3" d="M34.65,90.21A38.63,38.63,0,1,1,77.06,55.76,38.68,38.68,0,0,1,34.65,90.21Zm7.83-75.58a37.35,37.35,0,1,0,33.31,41A37.4,37.4,0,0,0,42.48,14.63Z"/><path class="cls-4" d="M42.55,14A38,38,0,1,0,76.42,55.7,38,38,0,0,0,42.55,14Zm15.94,43.8a31.92,31.92,0,0,1-17.5,18,30.09,30.09,0,0,1-21,1.29C6.54,72.67.74,57.31,4.6,44.26,8.3,31.78,21.14,20.47,34.68,21.59A25.55,25.55,0,0,1,50.89,29.9c6.36,6.83,10.83,16.76,8.18,26.1C58.9,56.61,58.71,57.2,58.49,57.79Z"/><path class="cls-4" d="M52.32,16.34a12.75,12.75,0,0,0-.94,4.58,10,10,0,0,0,.43,3.32,8.09,8.09,0,0,0,2.5,3.52A13.23,13.23,0,0,0,58,29.89a26.42,26.42,0,0,0,4.17,1.19,10.24,10.24,0,0,1,3.48,1.26,7.51,7.51,0,0,1,2.56,3.1C70.86,40.75,71,47,70.34,52.82c-.59,5.46-1.69,11-4.41,15.8a29.35,29.35,0,0,1-10.4,10.6,40.61,40.61,0,0,1-15,5.21,43.83,43.83,0,0,1-9.37.36,34.62,34.62,0,0,1-9-1.7,26.82,26.82,0,0,1-7.84-4.19A31.5,31.5,0,0,1,8,72,41.21,41.21,0,0,1,1,55.06c-.18-1.1-.31-2.2-.4-3.3A38,38,0,1,0,52.32,16.34Z"/><path class="cls-2" d="M61.26,15.68l-2-1.86L54.76,19c-.94,1.14.81,4.14,3.91,6.71s6.38,3.72,7.32,2.58l4.05-5Z"/><path class="cls-3" d="M64.42,29.34A6.1,6.1,0,0,1,62.93,29a16,16,0,0,1-4.66-2.79c-4-3.32-5.05-6.34-4-7.61l4.48-5.18a.63.63,0,0,1,.44-.22.64.64,0,0,1,.47.16l2,1.86,8.78,7.56a.64.64,0,0,1,.08.89l-4.05,5A2.17,2.17,0,0,1,64.42,29.34ZM59.28,14.73l-4,4.68c-.52.63.71,3.21,3.83,5.79a14.67,14.67,0,0,0,4.28,2.57c1.27.45,1.94.34,2.14.1l3.66-4.54-8.32-7.17h0Z"/><path class="cls-5" d="M57.48,24.62c.89-1,1.74-2.05,2.57-3.1,1.08-1.37,2.13-2.75,3.23-4.1l-1.92-1.66-.64.63c-1.85,1.86-3.53,3.87-5.23,5.87A14.59,14.59,0,0,0,57.48,24.62Z"/><path class="cls-6" d="M70.46,23.11c-.94,1.13-4.22,0-7.32-2.59s-4.85-5.57-3.91-6.7,4.22,0,7.32,2.58S71.4,22,70.46,23.11Z"/><path class="cls-3" d="M68.81,24.14C67.29,24,65.17,23,62.73,21c-4-3.31-5-6.33-4-7.6S63,12.59,67,15.91A16.18,16.18,0,0,1,70.57,20c1.14,1.94.83,3,.38,3.54A2.35,2.35,0,0,1,68.81,24.14ZM60.66,14a1.08,1.08,0,0,0-.94.2c-.52.64.7,3.22,3.83,5.81S69.44,23.34,70,22.7c.19-.24.18-.92-.5-2.09a15.3,15.3,0,0,0-3.33-3.72A11.92,11.92,0,0,0,60.66,14Z"/><path class="cls-7" d="M67.29,20.91c-.46.55-2.07,0-3.59-1.27s-2.38-2.73-1.91-3.29,2.06,0,3.58,1.27S67.75,20.35,67.29,20.91Z"/><path class="cls-8" d="M40.41,27.27c-3.75-4.37-11.52-2.11-15.73.32S16.3,34,14.45,38.46c-1.52,3.7-1.68,9,3.14,10.07,2.23.51,4.57-.11,6.75-.82A39.21,39.21,0,0,0,34.45,43c4.29-3,10-9.29,6.59-14.85A9.7,9.7,0,0,0,40.41,27.27Z"/><path class="cls-8" d="M16,55.67a4.58,4.58,0,0,0-2.59-3.06,5.62,5.62,0,0,0-4.3,0,5.12,5.12,0,0,0-3,5.78A6.87,6.87,0,0,0,7,61a5.34,5.34,0,0,0,2.93,2.75,4.07,4.07,0,0,0,3.4-.41A7.19,7.19,0,0,0,16,55.67Z"/><path class="cls-9" d="M80.14,7a1,1,0,0,0-1.3.64s-1.63,4.6-7.9,5.06a9.5,9.5,0,0,0-7.56,5h0a1.72,1.72,0,0,0,.88,1.11,2.78,2.78,0,0,0,.69.28,7.57,7.57,0,0,1,6.14-4.35c7.61-.55,9.61-6.2,9.69-6.44A1,1,0,0,0,80.14,7Z"/><path class="cls-10" d="M80.37,7.11A9.05,9.05,0,0,1,78,10.92a9.62,9.62,0,0,1-4.39,2.37c-.84.23-1.68.41-2.52.6a13.05,13.05,0,0,0-2.79.86,4.54,4.54,0,0,0-1.16.78c-.33.3-.64.61-1,.89a3.52,3.52,0,0,1-1,.61.68.68,0,0,1-.74-.08,1,1,0,0,1-.25-.53,11.8,11.8,0,0,0-.86,1.27h0a1.72,1.72,0,0,0,.88,1.11,2.78,2.78,0,0,0,.69.28,7.57,7.57,0,0,1,6.14-4.35c7.61-.55,9.61-6.2,9.69-6.44A1,1,0,0,0,80.37,7.11Z"/><path class="cls-11" d="M85,5.68a21.51,21.51,0,0,0,3.26-2C89,3.13,91,1.44,89.94.35s-2.26.29-2.92,1a9,9,0,0,0-1.33,1.79c-.27.46-.51.94-.74,1.42-.12.26-.42,1.37-.64,1.48Z"/><path class="cls-11" d="M77.44,13.24a21.51,21.51,0,0,1-2,3.26c-.59.77-2.28,2.75-3.37,1.68s.29-2.26,1-2.92a9,9,0,0,1,1.79-1.33c.46-.27.94-.51,1.42-.74.26-.12,1.37-.42,1.48-.64C77.67,12.78,77.56,13,77.44,13.24Z"/><path class="cls-11" d="M84.54,13.24a20.78,20.78,0,0,0,2,3.26c.59.77,2.27,2.75,3.37,1.68s-.3-2.26-1-2.92a8.61,8.61,0,0,0-1.78-1.33c-.47-.27-.94-.51-1.43-.74-.25-.12-1.37-.42-1.47-.64Z"/><path class="cls-11" d="M77,5.68a21.61,21.61,0,0,1-3.27-2C73,3.13,71,1.44,72.05.35s2.25.29,2.92,1a9.3,9.3,0,0,1,1.32,1.79c.27.46.51.94.74,1.42.12.26.42,1.37.65,1.48Z"/><path class="cls-12" d="M83.77,10.22a13,13,0,0,0,2.46.61c.64.09,2.36.23,2.37-.79s-1.2-.92-1.84-.91a5.61,5.61,0,0,0-1.46.22c-.34.09-.68.2-1,.32-.17.06-.84.44-1,.39Z"/><path class="cls-12" d="M76.66,10.22a13,13,0,0,1-2.46.61c-.64.09-2.36.23-2.37-.79s1.2-.92,1.83-.91a6.07,6.07,0,0,1,1.47.21l1,.33c.17.06.84.44,1,.39Z"/><path class="cls-12" d="M80,13.56A14.26,14.26,0,0,0,79.39,16c-.09.64-.23,2.37.79,2.38s.93-1.2.92-1.84a6.07,6.07,0,0,0-.22-1.46c-.09-.35-.2-.69-.32-1-.07-.18-.45-.84-.39-1C80.11,13.24,80.05,13.4,80,13.56Z"/><path class="cls-12" d="M80,6.46A13.82,13.82,0,0,1,79.39,4c-.09-.64-.23-2.37.79-2.38s.93,1.21.92,1.84a6.07,6.07,0,0,1-.22,1.46c-.09.35-.2.69-.32,1-.07.18-.45.84-.39,1C80.11,6.78,80.05,6.62,80,6.46Z"/></g></g></g></svg>