<svg xmlns="http://www.w3.org/2000/svg" viewBox="0 0 100 100"><defs><style>.cls-1{isolation:isolate;}.cls-2{fill:none;}.cls-3,.cls-5,.cls-6{fill:#3e404a;}.cls-4{fill:#232324;}.cls-11,.cls-5,.cls-8{mix-blend-mode:multiply;}.cls-5,.cls-8{opacity:0.34;}.cls-6{mix-blend-mode:screen;}.cls-7{fill:#282a32;}.cls-9{fill:#8f9194;}.cls-10{fill:#828078;}.cls-11{fill:#939598;}.cls-12{fill:#ffd200;}.cls-13{fill:#f7aa1c;}</style></defs><g class="cls-1"><g id="Capa_2" data-name="Capa 2"><g id="Layer_1" data-name="Layer 1"><rect class="cls-2" width="100" height="100"/><circle class="cls-3" cx="49.55" cy="61.28" r="37.99"/><path class="cls-4" d="M54.18,99.63a38.63,38.63,0,1,1,33.73-43A38.66,38.66,0,0,1,54.18,99.63ZM45.08,24.2A37.35,37.35,0,1,0,86.63,56.81,37.39,37.39,0,0,0,45.08,24.2Z"/><path class="cls-5" d="M45,23.56A38,38,0,1,0,87.27,56.73,38,38,0,0,0,45,23.56ZM70.25,62.74A31.91,31.91,0,0,1,57.18,84.21,30.15,30.15,0,0,1,37,90.11c-14.12-1.36-23.18-15-22.3-28.63.84-13,10.86-26.87,24.31-28.77a25.57,25.57,0,0,1,17.65,4.52c7.72,5.24,14.27,13.94,13.76,23.64C70.38,61.5,70.33,62.12,70.25,62.74Z"/><path class="cls-5" d="M55.05,23.68a12.47,12.47,0,0,0,.1,4.68,9.74,9.74,0,0,0,1.16,3.14,8.14,8.14,0,0,0,3.21,2.89,13.57,13.57,0,0,0,4,1.26,24.93,24.93,0,0,0,4.32.24,10.4,10.4,0,0,1,3.68.45,7.62,7.62,0,0,1,3.18,2.47c3.79,4.57,5.3,10.68,6,16.46.62,5.45.77,11.08-.81,16.39A29.43,29.43,0,0,1,72.1,84.3a40.45,40.45,0,0,1-13.46,8.4,44.22,44.22,0,0,1-9.06,2.42,34.4,34.4,0,0,1-9.12.33,27,27,0,0,1-8.58-2.35,31.69,31.69,0,0,1-7.78-5.35,41.37,41.37,0,0,1-10.48-15c-.42-1-.79-2.06-1.12-3.12a38,38,0,1,0,42.55-46Z"/><path class="cls-3" d="M63.62,21.06l-2.39-1.37-3.21,6c-.66,1.32,1.71,3.86,5.3,5.67s7,2.22,7.71.9l2.83-5.8Z"/><path class="cls-4" d="M69.73,33.69a6.6,6.6,0,0,1-1.53,0A16.21,16.21,0,0,1,63,32c-4.64-2.35-6.32-5.07-5.58-6.54l3.22-6.05a.65.65,0,0,1,.38-.31.62.62,0,0,1,.5.06l2.38,1.36,10.23,5.44a.63.63,0,0,1,.28.84L71.6,32.59A2.21,2.21,0,0,1,69.73,33.69ZM61.49,20.58,58.59,26c-.37.73,1.4,3,5,4.8a14.65,14.65,0,0,0,4.74,1.56c1.33.16,2-.1,2.11-.37L73,26.78l-9.7-5.15h0Z"/><path class="cls-6" d="M61.92,30.62c.64-1.18,1.24-2.38,1.82-3.6.75-1.57,1.47-3.15,2.24-4.71l-2.24-1.19-.49.75c-1.39,2.23-2.58,4.57-3.8,6.89A15.14,15.14,0,0,0,61.92,30.62Z"/><path class="cls-7" d="M74.24,26.27c-.67,1.31-4.12.91-7.71-.9s-6-4.36-5.3-5.68,4.12-.91,7.71.91S74.9,25,74.24,26.27Z"/><path class="cls-4" d="M72.86,27.64c-1.52.19-3.8-.28-6.62-1.7-4.64-2.35-6.32-5.07-5.58-6.53s3.93-1.73,8.57.61a16.47,16.47,0,0,1,4.42,3.16c1.54,1.64,1.48,2.74,1.16,3.38A2.36,2.36,0,0,1,72.86,27.64ZM62.67,19.58c-.46.05-.76.19-.87.4-.37.74,1.4,3,5,4.81s6.47,1.93,6.85,1.19c.13-.27,0-.94-1-1.92a14.77,14.77,0,0,0-4.07-2.89A11.76,11.76,0,0,0,62.67,19.58Z"/><path class="cls-8" d="M70.66,24.82c-.32.65-2,.45-3.78-.44S64,22.25,64.28,21.6s2-.45,3.78.44S71,24.18,70.66,24.82Z"/><path class="cls-9" d="M45.86,37c-4.63-3.44-11.7.49-15.27,3.78S23.83,48.84,23,53.64c-.67,4,.34,9.11,5.29,9.13,2.29,0,4.43-1.12,6.4-2.3a38.86,38.86,0,0,0,8.81-6.84c3.53-3.84,7.75-11.28,3.14-15.94A7.29,7.29,0,0,0,45.86,37Z"/><path class="cls-9" d="M28.38,70.07a4.58,4.58,0,0,0-3.21-2.41,5.65,5.65,0,0,0-4.19.93,5.1,5.1,0,0,0-1.6,6.29,6.79,6.79,0,0,0,1.35,2.43,5.4,5.4,0,0,0,3.47,2,4,4,0,0,0,3.22-1.16C29.46,76.19,29.71,72.51,28.38,70.07Z"/><path class="cls-10" d="M80.11,8.41A1,1,0,0,0,79,9.32S78.41,14.17,72.4,16a9.56,9.56,0,0,0-6.27,6.55h0a1.69,1.69,0,0,0,1.1.88,2.94,2.94,0,0,0,.73.13A7.57,7.57,0,0,1,73,18c7.29-2.22,8-8.17,8-8.42A1,1,0,0,0,80.11,8.41Z"/><path class="cls-11" d="M80.36,8.48a9.12,9.12,0,0,1-1.43,4.23A9.62,9.62,0,0,1,75.17,16c-.76.41-1.54.77-2.32,1.14a13,13,0,0,0-2.53,1.46,4.9,4.9,0,0,0-1,1c-.25.36-.48.74-.76,1.08a3.28,3.28,0,0,1-.81.81.67.67,0,0,1-.74.08,1,1,0,0,1-.36-.45,12.31,12.31,0,0,0-.56,1.42h0a1.69,1.69,0,0,0,1.1.88,2.94,2.94,0,0,0,.73.13A7.57,7.57,0,0,1,73,18c7.29-2.22,8-8.17,8-8.42A1,1,0,0,0,80.36,8.48Z"/><path class="cls-12" d="M83.83,5.87a20.78,20.78,0,0,0,3.26-2c.77-.58,2.75-2.27,1.68-3.36s-2.26.29-2.92,1A9.18,9.18,0,0,0,84.52,3.3c-.27.47-.51,1-.74,1.43-.12.25-.42,1.37-.64,1.48Z"/><path class="cls-12" d="M76.27,13.43a21.51,21.51,0,0,1-2,3.26c-.59.77-2.28,2.75-3.37,1.68s.3-2.26,1-2.92a9,9,0,0,1,1.79-1.33c.46-.27.94-.51,1.42-.74.26-.12,1.37-.42,1.48-.64C76.5,13,76.39,13.2,76.27,13.43Z"/><path class="cls-12" d="M83.37,13.43a21.57,21.57,0,0,0,2,3.26c.59.77,2.27,2.75,3.37,1.68s-.3-2.26-1-2.92a8.61,8.61,0,0,0-1.78-1.33c-.47-.27-.94-.51-1.43-.74-.25-.12-1.37-.42-1.47-.64Z"/><path class="cls-12" d="M75.82,5.87a20.78,20.78,0,0,1-3.26-2c-.78-.58-2.76-2.27-1.68-3.36s2.26.29,2.92,1A9.55,9.55,0,0,1,75.12,3.3c.27.47.52,1,.74,1.43.12.25.42,1.37.65,1.48Z"/><path class="cls-13" d="M82.6,10.41a13,13,0,0,0,2.46.61c.64.09,2.36.23,2.37-.79s-1.2-.92-1.84-.91a6.06,6.06,0,0,0-1.46.21l-1,.33c-.17.06-.84.44-1,.39Z"/><path class="cls-13" d="M75.49,10.41A13,13,0,0,1,73,11c-.64.09-2.36.23-2.37-.79s1.2-.92,1.83-.91A6.07,6.07,0,0,1,74,9.53l1,.33c.17.06.84.44,1,.39Z"/><path class="cls-13" d="M78.83,13.75a15.24,15.24,0,0,0-.61,2.46c-.09.64-.23,2.37.79,2.38s.93-1.2.92-1.84a6.07,6.07,0,0,0-.22-1.46c-.09-.35-.2-.69-.32-1-.07-.18-.45-.84-.39-1C78.94,13.43,78.88,13.59,78.83,13.75Z"/><path class="cls-13" d="M78.83,6.65a15.24,15.24,0,0,1-.61-2.46c-.09-.64-.23-2.37.79-2.38s.93,1.21.92,1.84a6.07,6.07,0,0,1-.22,1.46c-.09.35-.2.69-.32,1-.07.18-.45.84-.39,1C78.94,7,78.88,6.81,78.83,6.65Z"/></g></g></g></svg>