<svg xmlns="http://www.w3.org/2000/svg" viewBox="0 0 88.53 99.42"><defs><style>.cls-1{isolation:isolate;}.cls-2,.cls-4,.cls-5{fill:#3e404a;}.cls-3{fill:#232324;}.cls-10,.cls-4,.cls-7{mix-blend-mode:multiply;}.cls-4,.cls-7{opacity:0.34;}.cls-5{mix-blend-mode:screen;}.cls-6{fill:#282a32;}.cls-8{fill:#8f9194;}.cls-9{fill:#828078;}.cls-10{fill:#939598;}.cls-11{fill:#ffd200;}.cls-12{fill:#f7aa1c;}</style></defs><g class="cls-1"><g id="Capa_2" data-name="Capa 2"><g id="Layer_1" data-name="Layer 1"><circle class="cls-2" cx="38.63" cy="60.78" r="37.99"/><path class="cls-3" d="M38.63,99.42A38.64,38.64,0,1,1,77.26,60.78,38.68,38.68,0,0,1,38.63,99.42Zm0-76A37.35,37.35,0,1,0,76,60.78,37.4,37.4,0,0,0,38.63,23.43Z"/><path class="cls-4" d="M38.63,22.79a38,38,0,1,0,38,38A38,38,0,0,0,38.63,22.79ZM59,64.72A32,32,0,0,1,43.46,84.46,30.12,30.12,0,0,1,22.72,87.9C8.86,84.86,1.51,70.19,4,56.81,6.39,44,18,31.44,31.59,31.16a25.52,25.52,0,0,1,17,6.6c7,6.13,12.51,15.55,10.83,25.12C59.29,63.5,59.16,64.11,59,64.72Z"/><path class="cls-4" d="M48.6,24.12a12.48,12.48,0,0,0-.47,4.66A9.84,9.84,0,0,0,48.9,32a8.2,8.2,0,0,0,2.85,3.25A13.65,13.65,0,0,0,55.6,37a26.88,26.88,0,0,0,4.27.75,10.41,10.41,0,0,1,3.6.89,7.54,7.54,0,0,1,2.86,2.83c3.21,5,4,11.24,4,17.06,0,5.49-.55,11.1-2.76,16.17a29.44,29.44,0,0,1-9.26,11.62,40.39,40.39,0,0,1-14.37,6.72,44.11,44.11,0,0,1-9.29,1.33,34.73,34.73,0,0,1-9.09-.77,27,27,0,0,1-8.23-3.36A31.47,31.47,0,0,1,10.2,84a41.18,41.18,0,0,1-8.62-16.1c-.3-1.07-.54-2.15-.74-3.24A38,38,0,1,0,48.6,24.12Z"/><path class="cls-2" d="M57.41,22.54l-2.2-1.64L51.3,26.51c-.82,1.22,1.23,4,4.58,6.26s6.72,3,7.54,1.82l3.51-5.42Z"/><path class="cls-3" d="M62,35.8a6.68,6.68,0,0,1-1.52-.2,16.15,16.15,0,0,1-4.93-2.3c-4.33-2.88-5.67-5.78-4.75-7.15l3.91-5.62a.66.66,0,0,1,.43-.27.68.68,0,0,1,.48.12L57.79,22l9.51,6.62a.65.65,0,0,1,.17.88L64,34.94A2.21,2.21,0,0,1,62,35.8Zm-6.61-14-3.54,5.07c-.45.68,1,3.12,4.41,5.37a15,15,0,0,0,4.52,2.12c1.31.31,2,.13,2.14-.13l3.17-4.89-9-6.28h0Z"/><path class="cls-5" d="M54.58,31.83c.78-1.1,1.52-2.22,2.24-3.36.93-1.47,1.84-2.95,2.78-4.41l-2.07-1.45L57,23.3c-1.65,2-3.11,4.22-4.6,6.38A15.37,15.37,0,0,0,54.58,31.83Z"/><path class="cls-6" d="M67.33,29c-.82,1.23-4.19.41-7.54-1.82s-5.4-5-4.58-6.26,4.19-.42,7.54,1.81S68.15,27.75,67.33,29Z"/><path class="cls-3" d="M65.8,30.18c-1.53,0-3.74-.73-6.37-2.49-4.33-2.88-5.67-5.78-4.75-7.15s4.1-1.25,8.43,1.64a16,16,0,0,1,4,3.67c1.33,1.81,1.14,2.9.75,3.49A2.38,2.38,0,0,1,65.8,30.18ZM56.65,21a1.09,1.09,0,0,0-.91.3c-.46.69,1,3.13,4.4,5.38s6.2,2.68,6.66,2c.17-.25.08-.93-.71-2a14.9,14.9,0,0,0-3.69-3.35A11.91,11.91,0,0,0,56.65,21Z"/><path class="cls-7" d="M64,27.12c-.41.6-2.06.2-3.7-.89S57.61,23.76,58,23.15s2.06-.2,3.7.9S64.36,26.52,64,27.12Z"/><path class="cls-8" d="M37.87,36.22c-4.18-4-11.67-.91-15.61,1.94S14.58,45.35,13.2,50c-1.13,3.84-.75,9.09,4.16,9.7,2.28.28,4.54-.58,6.63-1.52a39.14,39.14,0,0,0,9.57-5.73c4-3.39,9-10.28,5-15.45A8,8,0,0,0,37.87,36.22Z"/><path class="cls-8" d="M16.56,67a4.59,4.59,0,0,0-2.9-2.77,5.61,5.61,0,0,0-4.27.42,5.12,5.12,0,0,0-2.35,6A6.92,6.92,0,0,0,8.1,73.25a5.4,5.4,0,0,0,3.19,2.43,4,4,0,0,0,3.34-.77C16.9,73.18,17.59,69.56,16.56,67Z"/><path class="cls-9" d="M75.3,12a1,1,0,0,0-1.22.77s-1.15,4.74-7.34,5.84a9.53,9.53,0,0,0-7,5.75h0a1.74,1.74,0,0,0,1,1,2.87,2.87,0,0,0,.72.22,7.57,7.57,0,0,1,5.66-5c7.51-1.33,8.92-7.15,9-7.4A1,1,0,0,0,75.3,12Z"/><path class="cls-10" d="M75.55,12.05a9.32,9.32,0,0,1-1.93,4,9.65,9.65,0,0,1-4.13,2.81c-.8.32-1.62.58-2.44.85a12.53,12.53,0,0,0-2.69,1.15,4.83,4.83,0,0,0-1.07.9c-.3.32-.57.67-.88,1a3.49,3.49,0,0,1-.91.71.68.68,0,0,1-.74,0,1,1,0,0,1-.3-.5,12.62,12.62,0,0,0-.73,1.35h0a1.74,1.74,0,0,0,1,1,2.87,2.87,0,0,0,.72.22,7.57,7.57,0,0,1,5.66-5c7.51-1.33,8.92-7.15,9-7.4A1,1,0,0,0,75.55,12.05Z"/><path class="cls-11" d="M76.25,7.26a22.13,22.13,0,0,0,.92-3.69C77.3,2.61,77.5,0,76,0c-1.34,0-1.39,1.81-1.37,2.76A8.68,8.68,0,0,0,74.93,5a16,16,0,0,0,.48,1.53c.1.27.67,1.27.59,1.5C76.08,7.75,76.17,7.51,76.25,7.26Z"/><path class="cls-11" d="M76.25,18a22.49,22.49,0,0,1,.92,3.7c.13,1,.33,3.55-1.2,3.57-1.34,0-1.39-1.81-1.37-2.76a8.61,8.61,0,0,1,.33-2.2c.13-.52.3-1,.48-1.54.1-.26.67-1.26.59-1.49Z"/><path class="cls-11" d="M81.27,12.93a21.52,21.52,0,0,0,3.7.92c1,.13,3.55.33,3.56-1.2,0-1.34-1.8-1.39-2.76-1.37a8.6,8.6,0,0,0-2.19.33c-.52.14-1,.3-1.54.48-.26.1-1.26.67-1.5.59Z"/><path class="cls-11" d="M70.58,12.93a21.19,21.19,0,0,1-3.69.92c-1,.13-3.56.33-3.57-1.2,0-1.34,1.81-1.39,2.76-1.37a8.68,8.68,0,0,1,2.2.33q.78.21,1.53.48c.27.1,1.27.67,1.5.59Z"/><path class="cls-12" d="M78.59,11.35A14.06,14.06,0,0,0,80.76,10c.52-.39,1.83-1.51,1.12-2.24s-1.5.2-1.95.65a6.43,6.43,0,0,0-.88,1.19c-.17.31-.34.63-.49.95-.08.17-.28.91-.43,1Z"/><path class="cls-12" d="M73.56,16.37a13.55,13.55,0,0,1-1.3,2.17c-.39.52-1.51,1.83-2.24,1.12s.19-1.5.65-1.94a5.73,5.73,0,0,1,1.19-.88c.31-.18.63-.34,1-.5.17-.08.91-.28,1-.42C73.72,16.07,73.64,16.22,73.56,16.37Z"/><path class="cls-12" d="M78.29,16.37a13.6,13.6,0,0,0,1.31,2.17c.39.52,1.51,1.83,2.24,1.12s-.2-1.5-.66-1.94A5.94,5.94,0,0,0,80,16.84c-.31-.18-.63-.34-1-.5-.17-.08-.91-.28-1-.42C78.14,16.07,78.21,16.22,78.29,16.37Z"/><path class="cls-12" d="M73.26,11.35A14.55,14.55,0,0,1,71.09,10C70.58,9.65,69.26,8.53,70,7.8s1.5.2,1.94.65a6,6,0,0,1,.88,1.19c.18.31.34.63.49.95.08.17.28.91.43,1Z"/></g></g></g></svg>