<svg xmlns="http://www.w3.org/2000/svg" viewBox="0 0 34.59 34.45"><defs><style>.cls-1{isolation:isolate;}.cls-2{fill:#807e77;}.cls-3{fill:#636568;}.cls-4,.cls-8,.cls-9{fill:#6c6c65;}.cls-12,.cls-17,.cls-4,.cls-7,.cls-9{mix-blend-mode:multiply;}.cls-4{opacity:0.52;}.cls-5{fill:#babcbe;}.cls-6{fill:#828078;}.cls-15,.cls-18,.cls-19,.cls-6{mix-blend-mode:screen;}.cls-7{opacity:0.39;}.cls-9{opacity:0.34;}.cls-10,.cls-12{fill:#98a8b8;}.cls-11{fill:#6d7f89;}.cls-13,.cls-15,.cls-17{fill:#e53625;}.cls-14{fill:#721011;}.cls-16{fill:#ab2818;}.cls-18,.cls-20{fill:#fff;}.cls-18,.cls-19{opacity:0.87;}</style></defs><g class="cls-1"><g id="Capa_2" data-name="Capa 2"><g id="Layer_1" data-name="Layer 1"><path class="cls-2" d="M31.47,7.72l-.14,0a4.42,4.42,0,0,1-.79-.22A3.82,3.82,0,0,1,29.71,7a4.89,4.89,0,0,1-1.19-1.21,5.93,5.93,0,0,1-.78-2.09A17.24,17.24,0,0,0,21.3.53,12.28,12.28,0,0,1,20,1.26,3.46,3.46,0,0,1,17.91.87a2,2,0,0,0-.27-.22A3.31,3.31,0,0,0,17.31.5a4.23,4.23,0,0,0-.78-.19,7.7,7.7,0,0,0-1.73,0L13.67.35A17.29,17.29,0,0,0,5.44,4.53a2,2,0,0,1-.27.7A5.06,5.06,0,0,1,4,6.35a3.91,3.91,0,0,0-.58.57,6.11,6.11,0,0,0-.54.88c-.32.61-.65,1.23-.95,1.85a16.2,16.2,0,0,0-.82,2A14.12,14.12,0,0,0,.66,13.3a18.8,18.8,0,0,0-.41,3.43,6.66,6.66,0,0,0,.52,3.15,2.82,2.82,0,0,0,.39.62,2.26,2.26,0,0,1,.42.59,1.08,1.08,0,0,1-.28,1.17,2.39,2.39,0,0,0-.42.58.61.61,0,0,0,0,.3c.07.2.15.4.23.59.25.4.61.73.85,1.14a6.47,6.47,0,0,1,.6,1.68,17.3,17.3,0,0,0,9.86,7.34,22.16,22.16,0,0,1,2.94-.43l.19,0a.68.68,0,0,0,.15,0c.09,0,.18-.15.24-.22a.84.84,0,0,1,.53-.3.81.81,0,0,1,.45.15,5.42,5.42,0,0,1,.56.37,4.57,4.57,0,0,0,.47.29,1.54,1.54,0,0,0,.34.12l.44.13a8.78,8.78,0,0,0,1.77.25,17.29,17.29,0,0,0,11.8-8.68,6.25,6.25,0,0,0-.18-.86,1.14,1.14,0,0,1,0-.45,4.64,4.64,0,0,1,.11-.51,6.44,6.44,0,0,1,.41-1.11c.35-.78.79-1.52,1.22-2.27.14-.23.27-.47.41-.71a18.15,18.15,0,0,0,.15-2.34A17.2,17.2,0,0,0,31.47,7.72Z"/><path class="cls-3" d="M20.46,34.45h0a8.58,8.58,0,0,1-1.82-.26l-.46-.13-.06,0a1.82,1.82,0,0,1-.3-.11,2.48,2.48,0,0,1-.42-.26l-.13-.09-.49-.32h0a.78.78,0,0,0-.3-.12.55.55,0,0,0-.38.23l0,0a.66.66,0,0,1-.3.24l-.17,0h0l-.19,0a23.24,23.24,0,0,0-2.91.43.25.25,0,0,1-.12,0,17.47,17.47,0,0,1-10-7.44.11.11,0,0,1,0-.07v0A6.09,6.09,0,0,0,1.71,25a4.21,4.21,0,0,0-.41-.56,4.05,4.05,0,0,1-.43-.57.05.05,0,0,1,0,0c-.09-.2-.16-.4-.23-.6a.14.14,0,0,1,0-.06.91.91,0,0,1,.06-.41A1.84,1.84,0,0,1,1,22.22l.09-.11c.3-.37.38-.64.25-.93A2,2,0,0,0,1,20.72L1,20.66A3.23,3.23,0,0,1,.55,20,7,7,0,0,1,0,16.72a20.24,20.24,0,0,1,.43-3.47,13.55,13.55,0,0,1,.43-1.69,17.33,17.33,0,0,1,.83-2c.31-.64.63-1.24,1-1.86l0-.07a5.38,5.38,0,0,1,.52-.85,4,4,0,0,1,.62-.61l.28-.22A3.78,3.78,0,0,0,5,5.11a2.12,2.12,0,0,0,.24-.63.19.19,0,0,1,.07-.12A17.4,17.4,0,0,1,13.62.12h0l.3,0L14.79,0a7.58,7.58,0,0,1,1.77,0,3.48,3.48,0,0,1,.83.21,1.43,1.43,0,0,1,.38.17,3.09,3.09,0,0,1,.31.25,3.59,3.59,0,0,0,1.84.35A13.27,13.27,0,0,0,21.17.33a.22.22,0,0,1,.19,0,17.4,17.4,0,0,1,6.53,3.2.31.31,0,0,1,.09.14,5.42,5.42,0,0,0,.75,2,4.32,4.32,0,0,0,1.12,1.14,3.58,3.58,0,0,0,.78.45,4.28,4.28,0,0,0,.75.22l.12,0h0a.26.26,0,0,1,.16.11,17.43,17.43,0,0,1,2.92,9.69,17.05,17.05,0,0,1-.16,2.37.24.24,0,0,1,0,.08l-.41.72-.2.36a19,19,0,0,0-1,1.89,6.28,6.28,0,0,0-.4,1.07,4.74,4.74,0,0,0-.1.49.94.94,0,0,0,0,.36l.06.28a3.87,3.87,0,0,1,.12.61.28.28,0,0,1,0,.13,17.45,17.45,0,0,1-12,8.81Zm-4-1.79a1,1,0,0,1,.52.18h0c.19.11.37.23.54.35l0,0,.09.06a3.37,3.37,0,0,0,.35.22l.23.08.07,0,.43.13a8.82,8.82,0,0,0,1.69.24A17,17,0,0,0,32,25.47a4.47,4.47,0,0,0-.09-.45c0-.1-.05-.2-.08-.3a1.64,1.64,0,0,1,0-.54c0-.17.07-.35.11-.53a8.39,8.39,0,0,1,.43-1.15,20.87,20.87,0,0,1,1-1.93l.2-.36c.13-.21.26-.44.38-.67a17.16,17.16,0,0,0,.15-2.26,16.89,16.89,0,0,0-2.79-9.34h0a4.38,4.38,0,0,1-.83-.24,4.49,4.49,0,0,1-.88-.5,5.05,5.05,0,0,1-1.25-1.28,6,6,0,0,1-.8-2.08,16.7,16.7,0,0,0-6.18-3,11.34,11.34,0,0,1-1.21.69A3.57,3.57,0,0,1,17.74,1a1.12,1.12,0,0,0-.23-.18,1.82,1.82,0,0,0-.28-.13,4,4,0,0,0-.74-.18,7.88,7.88,0,0,0-1.67,0L14,.57l-.29,0a17,17,0,0,0-8,4.07,2.62,2.62,0,0,1-.28.7,4,4,0,0,1-1,1l-.28.21a3.92,3.92,0,0,0-.54.54,5.52,5.52,0,0,0-.48.77l0,.08c-.33.61-.65,1.21-1,1.84a14.88,14.88,0,0,0-.81,2A14.17,14.17,0,0,0,.9,13.35a18.14,18.14,0,0,0-.41,3.38,6.55,6.55,0,0,0,.49,3,2.77,2.77,0,0,0,.36.58l.06.06a2.48,2.48,0,0,1,.4.58,1.3,1.3,0,0,1-.32,1.42.64.64,0,0,1-.1.13,1.66,1.66,0,0,0-.28.39.7.7,0,0,0,0,.16c.06.17.13.35.21.53a4.13,4.13,0,0,0,.38.5,4.85,4.85,0,0,1,.46.63,6.42,6.42,0,0,1,.61,1.7,17.06,17.06,0,0,0,9.64,7.19,23.73,23.73,0,0,1,2.91-.42l.2,0h.09a.26.26,0,0,0,.09-.09s0-.05.06-.06a1.05,1.05,0,0,1,.68-.38Z"/><path class="cls-4" d="M7.21,7.23l1,.31-.09-.06A24.32,24.32,0,0,1,5.55,5.39L5.24,5.1a.54.54,0,0,1-.07.13,3.35,3.35,0,0,1-.84.84c.48.2,1,.41,1.43.6S6.72,7.06,7.21,7.23Z"/><path class="cls-4" d="M17.43,1.41c.1.63.22,1.25.35,1.87.06.29.12.58.19.87s.09.42.14.63a13.45,13.45,0,0,0,.31,1.4,3,3,0,0,0,.51,1.1,3.77,3.77,0,0,0,.8-1.47,13.34,13.34,0,0,0,.39-1.66l.27-1.61c.08-.53.16-1.06.23-1.59a6.63,6.63,0,0,1-.59.31A3.46,3.46,0,0,1,17.91.87a2,2,0,0,0-.27-.22,1.64,1.64,0,0,0-.33-.14Q17.36,1,17.43,1.41Z"/><path class="cls-4" d="M2.9,15.82c.7,0,1.41,0,2.12-.1L3.9,15.25c-.77-.3-1.56-.59-2.34-.87L.53,14c-.09.5-.16,1-.21,1.51a6.92,6.92,0,0,0,1.19.22A12.81,12.81,0,0,0,2.9,15.82Z"/><path class="cls-4" d="M22.92,5.41l.44-.86c.33-.68.67-1.36,1-2,.1-.25.21-.5.3-.75l-.8-.37-.06.37c-.07.36-.16.72-.25,1.08C23.3,3.68,23.06,4.53,22.92,5.41Z"/><path class="cls-4" d="M31.47,7.72l-.14,0a4.42,4.42,0,0,1-.79-.22A3.82,3.82,0,0,1,29.71,7a4.89,4.89,0,0,1-1.19-1.21,5.93,5.93,0,0,1-.78-2.09l-.33-.25A12.72,12.72,0,0,0,26.52,5c-.19.35-.37.71-.59,1a7.19,7.19,0,0,1-.73.92c-.43.5-1,.83-1.49,1.3a3.55,3.55,0,0,0-.84,2.12,9,9,0,0,1-.17,1.16,4,4,0,0,1-.45,1.09,9.94,9.94,0,0,1-2.9,2.95c-1.15.84-2.39,1.55-3.58,2.33-1.52,1-3.1,1.88-4.68,2.76-1.09.6-2.2,1.19-3.26,1.84-.77.46-1.53.94-2.28,1.43a23.23,23.23,0,0,0-2.41,1.76,5.23,5.23,0,0,0-.68.65l.06.24a17.3,17.3,0,0,0,9.86,7.34,22.16,22.16,0,0,1,2.94-.43l.19,0a.68.68,0,0,0,.15,0c.09,0,.18-.15.24-.22a.84.84,0,0,1,.53-.3.81.81,0,0,1,.45.15,5.42,5.42,0,0,1,.56.37,4.57,4.57,0,0,0,.47.29,1.54,1.54,0,0,0,.34.12l.44.13a8.78,8.78,0,0,0,1.77.25,17.29,17.29,0,0,0,11.8-8.68,6.25,6.25,0,0,0-.18-.86,1.14,1.14,0,0,1,0-.45,4.64,4.64,0,0,1,.11-.51,6.44,6.44,0,0,1,.41-1.11c.35-.78.79-1.52,1.22-2.27.14-.23.27-.47.41-.71a18.15,18.15,0,0,0,.15-2.34A17.2,17.2,0,0,0,31.47,7.72Z"/><path class="cls-4" d="M10.85,29c-.09.27-.17.53-.27.79-.29.85-.61,1.69-.87,2.54-.06.18-.11.35-.16.52.33.16.67.31,1,.45.07-.68.1-1.36.13-2S10.76,29.71,10.85,29Z"/><path class="cls-4" d="M27.29,31c-.48-.76-.93-1.53-1.44-2.25A7.15,7.15,0,0,0,24.21,27a9.81,9.81,0,0,0,.14,1.2A16.06,16.06,0,0,0,25,30.66a14.47,14.47,0,0,0,.61,1.46A17.45,17.45,0,0,0,27.29,31Z"/><path class="cls-4" d="M24.18,7.66a9,9,0,0,0,1.33,1.55,2.25,2.25,0,0,0,.3.24,1.65,1.65,0,0,0,.42.21,1.43,1.43,0,0,0,.51.06l.28,0,.36-.08A11.17,11.17,0,0,0,30,8.45c.4-.22.79-.46,1.18-.71v0l-.14,0a4.42,4.42,0,0,1-.79-.22A3.82,3.82,0,0,1,29.42,7a4.68,4.68,0,0,1-1.18-1.21,5.76,5.76,0,0,1-.79-2.09l-.33-.25A16.17,16.17,0,0,0,26.23,5c-.19.35-.37.71-.59,1a7.19,7.19,0,0,1-.73.92,5,5,0,0,1-.76.69Z"/><path class="cls-4" d="M30.57,19.51a21.9,21.9,0,0,1-3,.07c0,.05,0,.1,0,.16a4.72,4.72,0,0,1-.07,1c-.06.38-.14.75-.2,1.12a6.14,6.14,0,0,0-.12,1,1.56,1.56,0,0,0,.19.85,1.3,1.3,0,0,0,.69.5,4.79,4.79,0,0,0,1.06.24c.39.06.78.09,1.17.13a6.25,6.25,0,0,1,1,.13,5.76,5.76,0,0,1,.59.18l-.06-.26a1.37,1.37,0,0,1,0-.45c0-.17.07-.34.11-.51a6.44,6.44,0,0,1,.41-1.11c.35-.78.8-1.52,1.22-2.27.14-.23.28-.47.41-.71a.37.37,0,0,1,0-.11l-.21,0A20.56,20.56,0,0,0,30.57,19.51Z"/><path class="cls-4" d="M17.12,31.85c-.28-1.11-.56-2.24-.93-3.33A8.48,8.48,0,0,0,16,29.63a14.22,14.22,0,0,0,0,2.61q0,.39.09.78a.73.73,0,0,1,.33-.12.81.81,0,0,1,.45.15,5.42,5.42,0,0,1,.56.37l.12.08C17.41,33,17.26,32.4,17.12,31.85Z"/><path class="cls-5" d="M29.43,9l-.11,0a4,4,0,0,1-.68-.19,3.85,3.85,0,0,1-.71-.41,4,4,0,0,1-1-1,5.17,5.17,0,0,1-.67-1.79,14.64,14.64,0,0,0-5.51-2.7,11.75,11.75,0,0,1-1.09.62,3,3,0,0,1-1.82-.33,1.06,1.06,0,0,0-.23-.19l-.28-.13a4.11,4.11,0,0,0-.67-.17,7.32,7.32,0,0,0-1.48,0l-1,.07a14.79,14.79,0,0,0-7,3.59,1.77,1.77,0,0,1-.23.6,4.61,4.61,0,0,1-1,1,3.86,3.86,0,0,0-.5.49A5.19,5.19,0,0,0,4.93,9c-.28.53-.56,1.05-.81,1.59a13.27,13.27,0,0,0-.71,1.7,9.84,9.84,0,0,0-.36,1.42,16.18,16.18,0,0,0-.36,2.94,5.79,5.79,0,0,0,.44,2.7,2.4,2.4,0,0,0,.34.53,2.11,2.11,0,0,1,.36.5.92.92,0,0,1-.24,1,2.19,2.19,0,0,0-.36.5.54.54,0,0,0,0,.25c.06.17.13.34.2.51.21.35.52.62.73,1a6.17,6.17,0,0,1,.51,1.44,14.75,14.75,0,0,0,8.44,6.29A23.91,23.91,0,0,1,15.6,31h.17a.59.59,0,0,0,.13,0c.07,0,.15-.13.2-.19a.74.74,0,0,1,.46-.26.68.68,0,0,1,.38.14,3.94,3.94,0,0,1,.48.31,3.34,3.34,0,0,0,.4.25,1.66,1.66,0,0,0,.29.1,2.72,2.72,0,0,0,.38.11,7.15,7.15,0,0,0,1.52.22,14.79,14.79,0,0,0,10.1-7.44,4.85,4.85,0,0,0-.15-.74,1.2,1.2,0,0,1,0-.38c0-.15.06-.3.1-.44a5.73,5.73,0,0,1,.35-.95,21.4,21.4,0,0,1,1.05-1.94l.34-.62A14.69,14.69,0,0,0,29.43,9Z"/><path class="cls-6" d="M14.83,2.67l.84.13c.28,0,.56,0,.84.07a1.84,1.84,0,0,1,.75.24c.17.11.28.3.47.4a2.28,2.28,0,0,0,.63.18,4.4,4.4,0,0,0,.73.05,3.09,3.09,0,0,0,.68-.09,2.66,2.66,0,0,0,.6-.26,3.28,3.28,0,0,1,.54-.24A2.19,2.19,0,0,1,21.54,3h0q-.42-.13-.84-.24a11.75,11.75,0,0,1-1.09.62,3,3,0,0,1-1.82-.33,1.06,1.06,0,0,0-.23-.19l-.28-.13a4.11,4.11,0,0,0-.67-.17,7.32,7.32,0,0,0-1.48,0l-.81.06Z"/><path class="cls-6" d="M4.58,24.3c-.12-.28-.26-.54-.4-.81s-.31-.5-.44-.77A1.22,1.22,0,0,1,3.6,22a1.2,1.2,0,0,1,.21-.54c.46-.61,1.37-.57,1.92-1.07a1.2,1.2,0,0,0-.46,0,2.24,2.24,0,0,1-1,0,1.12,1.12,0,0,1-.48-.63,8.16,8.16,0,0,1-.33-.9,2.76,2.76,0,0,1-.18-1.13A6,6,0,0,1,3.32,17a4.62,4.62,0,0,0,.06-.74c0-.46-.06-.91,0-1.37a4.82,4.82,0,0,1,.28-1.25c.12-.38.23-.75.34-1.12A9.88,9.88,0,0,1,5.92,8.45a7.67,7.67,0,0,1,.92-.79,1.08,1.08,0,0,0,.3-.34A1.16,1.16,0,0,0,7.21,7a2.77,2.77,0,0,1,.71-1.44q-.4.31-.78.66a1.77,1.77,0,0,1-.23.6,4.61,4.61,0,0,1-1,1,3.86,3.86,0,0,0-.5.49A5.19,5.19,0,0,0,4.93,9c-.28.53-.56,1.05-.81,1.59a13.27,13.27,0,0,0-.71,1.7,9.84,9.84,0,0,0-.36,1.42,16.18,16.18,0,0,0-.36,2.94,5.79,5.79,0,0,0,.44,2.7,2.4,2.4,0,0,0,.34.53,2.11,2.11,0,0,1,.36.5.92.92,0,0,1-.24,1,2.19,2.19,0,0,0-.36.5.54.54,0,0,0,0,.25c.06.17.13.34.2.51.21.35.52.62.73,1a6.17,6.17,0,0,1,.51,1.44c.11.18.22.35.34.52A4.9,4.9,0,0,0,4.58,24.3Z"/><path class="cls-6" d="M29.43,9l-.11,0a4,4,0,0,1-.68-.19,3.85,3.85,0,0,1-.71-.41,4,4,0,0,1-1-1,3.47,3.47,0,0,1-.21-.37,3.67,3.67,0,0,0,.31.76,3.16,3.16,0,0,0,.54.72,3.64,3.64,0,0,0,.82.51,2.73,2.73,0,0,1,1.31,1.37c.12.32.19.66.33,1s.37.74.56,1.1a7.52,7.52,0,0,1,.46,1.1,10,10,0,0,1,.27,1.32,21.68,21.68,0,0,1,.28,2.54c0,.31.05.62.06.93a1.89,1.89,0,0,1-.1.82.85.85,0,0,1-.63.42,1.59,1.59,0,0,0-.43.16.74.74,0,0,0-.31.44,3.31,3.31,0,0,0-.08.55,3,3,0,0,1-.13.52c-.13.36-.31.71-.41,1.08a1.72,1.72,0,0,0-.06.64,2.22,2.22,0,0,0,.18.49,1.3,1.3,0,0,1,.15.92s0,0-.05,0c-1.05-.23-1.57-1.32-2.48-1.78a1.13,1.13,0,0,0,.1.13c.55.64,1.81,1.06,1.66,2.1a1.56,1.56,0,0,1-.45.8,10.32,10.32,0,0,0-.81.81,10.27,10.27,0,0,1-1.46,1.94,9.58,9.58,0,0,1-2,1.12c-.75.36-1.44.83-2.2,1.17A6,6,0,0,1,21,31c-.4.08-.77.23-1.17.31a1.9,1.9,0,0,1-1.12-.17,10.45,10.45,0,0,0-1.1-.43,2,2,0,0,1-.68-.26,1.41,1.41,0,0,1-.46-.81A17.61,17.61,0,0,0,16,27.45a6.7,6.7,0,0,0,0,1.79,1.27,1.27,0,0,1-.5,1.18,2.82,2.82,0,0,1-1,.33,13.12,13.12,0,0,1-1.39.15,8.42,8.42,0,0,1-1.33,0h-.07a13.18,13.18,0,0,0,1.34.45A23.91,23.91,0,0,1,15.6,31h.17a.59.59,0,0,0,.13,0c.07,0,.15-.13.2-.19a.74.74,0,0,1,.46-.26.68.68,0,0,1,.38.14,3.94,3.94,0,0,1,.48.31,3.34,3.34,0,0,0,.4.25,1.66,1.66,0,0,0,.29.1,2.72,2.72,0,0,0,.38.11,7.15,7.15,0,0,0,1.52.22,14.79,14.79,0,0,0,10.1-7.44,4.85,4.85,0,0,0-.15-.74,1.2,1.2,0,0,1,0-.38c0-.15.06-.3.1-.44a5.73,5.73,0,0,1,.35-.95,21.4,21.4,0,0,1,1.05-1.94l.34-.62A14.69,14.69,0,0,0,29.43,9Z"/><g class="cls-7"><path class="cls-8" d="M12.92,29.29a.39.39,0,0,0-.23-.14.57.57,0,0,0-.61.24.5.5,0,0,0-.06.24.3.3,0,0,0,0,.13.33.33,0,0,0,.15.28c.36.25.81-.14.83-.51A.35.35,0,0,0,12.92,29.29Z"/><path class="cls-8" d="M26.93,25.93a.74.74,0,0,0-.19-.27l-.1-.06a.52.52,0,0,0-.15-.06.38.38,0,0,0-.21,0,.47.47,0,0,0-.31.21v0a.59.59,0,0,0,0,.08.36.36,0,0,0,0,.11.28.28,0,0,0,0,.09.2.2,0,0,0,0,.07.36.36,0,0,0,0,.18.35.35,0,0,0,.12.17.49.49,0,0,0,.23.08.94.94,0,0,0,.3-.06.75.75,0,0,0,.24-.15A.42.42,0,0,0,26.93,25.93Z"/><path class="cls-8" d="M26.9,23.09a.56.56,0,0,0-.43-.42.81.81,0,0,0-.71.2.54.54,0,0,0-.16.34.29.29,0,0,0,0,.16.51.51,0,0,0,.25.48.74.74,0,0,0,.72-.05A.68.68,0,0,0,26.9,23.09Z"/><path class="cls-8" d="M21.36,24.52a.05.05,0,0,0,0,0l-.05,0h-.15l-.06,0a.35.35,0,0,0-.15.12.14.14,0,0,0,0,.07.17.17,0,0,0,0,.07l0,0s0,0,.06,0l0,0h.18l.06,0,0,0,0,0a0,0,0,0,0,0,0h0a0,0,0,0,0,0,0h0v-.06A.14.14,0,0,0,21.36,24.52Z"/><path class="cls-8" d="M20.49,26.81v0l0,0-.05,0h-.06a.15.15,0,0,0-.09,0h0l-.07,0s0,0-.05,0l0,0h0s0,0,0,0l0,0,0,0h0s0,0,0,0a.19.19,0,0,0,0,.07.11.11,0,0,0,0,0,.08.08,0,0,0,0,.06.13.13,0,0,0,.08,0l.11,0h.06s.06,0,.06,0a.19.19,0,0,0,.09-.05l0,0a.21.21,0,0,0,0-.06h0v0l0,0h0v-.11Z"/><path class="cls-8" d="M20.49,26.81Z"/></g><path class="cls-9" d="M14,5.6a2.24,2.24,0,0,0-1.33-.15,3.33,3.33,0,0,1-1.44,0,2.05,2.05,0,0,1-.71-.42A1.33,1.33,0,0,0,10,4.81a1.06,1.06,0,0,0-.56,0L8.91,5a2.34,2.34,0,0,0-.62.24l-.07,0A4.88,4.88,0,0,1,7,4.8l-.63-.33a5.54,5.54,0,0,0-.64-.33s-.17.07-.12.12a2.64,2.64,0,0,0,.58.41L6.81,5c.4.21.82.37,1.24.54a2.49,2.49,0,0,1,0,.47,3.17,3.17,0,0,1-.12.44,3.58,3.58,0,0,0-.26,1,11.72,11.72,0,0,0,.48,2.25c0,.06.12,0,.11,0a17.92,17.92,0,0,1-.32-2.3,3,3,0,0,1,.33-1,1.65,1.65,0,0,0,.18-1l.07,0c.16,0,.34-.08.51-.12l.52-.13A1.09,1.09,0,0,1,10,5.07a1.54,1.54,0,0,1,.51.26,2.34,2.34,0,0,0,.66.31,3.25,3.25,0,0,0,1.28,0,6.09,6.09,0,0,1,.73-.1,1.6,1.6,0,0,1,.78.14S14,5.61,14,5.6Z"/><path class="cls-9" d="M25.61,2.06c-.29,0-.41.45-.49.66s-.13.35-.19.53a3.07,3.07,0,0,1-.27.46L24.47,4a.15.15,0,0,0-.1,0,.41.41,0,0,0-.13.22l0,0a2,2,0,0,1-.54.34,2.29,2.29,0,0,0-.51.28,2.41,2.41,0,0,0-.41.54c-.3.43-.79.67-1.14,1.06-.08.08,0,.17.11.1a5.9,5.9,0,0,0,1-.85c.07-.08.13-.17.19-.25s.13-.23.2-.33a1,1,0,0,1,.48-.33,6.07,6.07,0,0,0,.59-.24l0,0a1.16,1.16,0,0,0,.16.4,2.9,2.9,0,0,1,.27,1.23c0,.07.1,0,.11,0A2.66,2.66,0,0,0,24.64,5a3.66,3.66,0,0,1-.18-.46.62.62,0,0,1,0-.13,3.45,3.45,0,0,0,.26-.28,2.75,2.75,0,0,0,.55-1c.06-.19.1-.39.17-.58a2,2,0,0,1,.08-.22.62.62,0,0,1,.1-.16S25.66,2.05,25.61,2.06Z"/><path class="cls-9" d="M6.8,15.22c-.3,0-.62,0-.93,0a5.9,5.9,0,0,0-.93.11,3.63,3.63,0,0,0-.86.29c-.13.06-.25.12-.39.17a1.68,1.68,0,0,1-.45.05H3.19l-.4-.05a7.35,7.35,0,0,0-.82-.1,12,12,0,0,0-1.7.09c-.07,0-.12.12,0,.13.55.06,1.1,0,1.66.05.26,0,.53,0,.79.07a3.33,3.33,0,0,0,.56.05A1.19,1.19,0,0,0,4,16H4a2.86,2.86,0,0,1,1,.23s0,0,0,0a3,3,0,0,0-.77-.29,3.74,3.74,0,0,1,.59-.21c.32-.07.64-.12,1-.17s.65-.12,1-.17C6.89,15.36,6.93,15.2,6.8,15.22Z"/><path class="cls-9" d="M21.18,30.45c-.08-.13-.17-.25-.26-.38a2.82,2.82,0,0,1,0-.41c0-.15.16-.25.21-.39a1.6,1.6,0,0,0,.11-.48,2,2,0,0,1,.06-.55c0-.06-.07,0-.09,0s-.13.35-.19.54a1.28,1.28,0,0,1-.19.49,2.31,2.31,0,0,0-.19.28c-.19-.43-.31-.88-.54-1.3,0,0-.11,0-.09.06.21.51.27,1.08.5,1.59a1.62,1.62,0,0,0,.1.18l0,.19a.1.1,0,0,0,.12.07l.11.16c.06.11.12.22.17.33a1.55,1.55,0,0,1,.14.29s.06,0,.07,0a.72.72,0,0,0,.07-.33A.78.78,0,0,0,21.18,30.45Z"/><polygon class="cls-10" points="24.06 14.31 16.76 14.52 9.46 14.31 7.05 14.79 8.5 26.48 9.46 26.48 24.06 26.48 25.02 26.48 26.48 14.79 24.06 14.31"/><path class="cls-11" d="M25,26.61H8.5a.12.12,0,0,1-.12-.11L6.93,14.81A.11.11,0,0,1,7,14.68l2.42-.49h0l7.29.21,7.29-.21h0l2.42.49a.13.13,0,0,1,.1.13L25.15,26.5A.13.13,0,0,1,25,26.61ZM8.6,26.36H24.92l1.42-11.47-2.29-.46-7.29.21h0l-7.29-.21-2.29.46Z"/><polygon class="cls-12" points="26.26 16.54 26.48 14.79 24.06 14.31 16.76 14.52 9.46 14.31 7.05 14.79 7.26 16.54 26.26 16.54"/><path class="cls-12" d="M17.89,26.49c0-.48.43-10.43.54-12l-1.67,0-1.71,0c0,.57,0,1.15,0,1.72,0,1.06.19,9,.19,10.3Z"/><path class="cls-12" d="M24.06,14.31l-7.3.21-7.3-.21-2.41.49L8.5,26.49H25L26.48,14.8Zm-1.92,11H9.08L7.93,15.1l1.92-.43,5.76.19,5.77-.19,1.91.43Z"/><polygon class="cls-10" points="21.46 12.66 19.4 12.66 14.12 12.66 8.52 12.66 6.46 12.66 6.46 15.8 12.06 15.8 21.46 15.8 27.06 15.8 27.06 12.66 21.46 12.66"/><path class="cls-11" d="M27.06,15.92H6.46a.12.12,0,0,1-.12-.12V12.66a.12.12,0,0,1,.12-.12h20.6a.12.12,0,0,1,.12.12V15.8A.12.12,0,0,1,27.06,15.92ZM6.58,15.68H26.94v-2.9H6.58Z"/><path class="cls-12" d="M18.43,14.69a17.14,17.14,0,0,1,.09-2H15.08c0,.37,0,.74,0,1.11v2h3.33C18.44,15.43,18.43,15.06,18.43,14.69Z"/><path class="cls-12" d="M21.46,12.66h-15V15.8h20.6V12.66Zm2.68,2.46h-17V13.18h17Z"/><rect class="cls-13" x="15.87" y="12.42" width="1.41" height="14.43"/><path class="cls-14" d="M17.28,27H15.87a.12.12,0,0,1-.12-.12V12.42a.12.12,0,0,1,.12-.12h1.41a.12.12,0,0,1,.13.12V26.85A.12.12,0,0,1,17.28,27ZM16,26.73h1.16V12.54H16Z"/><path class="cls-15" d="M17.28,15.08v-.54l-.18.17c-.41.37-.83.73-1.22,1.12h0v.51C16.33,15.91,16.8,15.49,17.28,15.08Z"/><path class="cls-15" d="M16,23.19,17.13,22l.15-.15V20.62l-.19.2L16,21.93l-.15.16v1.27Z"/><path class="cls-16" d="M9.42,9.66a9.75,9.75,0,0,0,6.81,2.87C11.59,9.24,9.42,9.66,9.42,9.66Z"/><path class="cls-14" d="M16.23,12.65h0A11.12,11.12,0,0,1,11,11.11a7.07,7.07,0,0,1-1.7-1.37.13.13,0,0,1,0-.12.12.12,0,0,1,.09-.08c.09,0,2.27-.39,6.9,2.89a.12.12,0,0,1,0,.14A.11.11,0,0,1,16.23,12.65ZM9.69,9.77a9.92,9.92,0,0,0,6.11,2.61C12.35,10,10.35,9.77,9.69,9.77Z"/><path class="cls-13" d="M12.19,6.36s-2.6,1.29-2.77,3.3c0,0,2.17-.42,6.81,2.87h.24S14.45,6.44,12.19,6.36Z"/><path class="cls-14" d="M16.47,12.66h-.25l-.06,0C11.63,9.42,9.47,9.78,9.45,9.78a.11.11,0,0,1-.11,0,.12.12,0,0,1,0-.1,3.84,3.84,0,0,1,1.49-2.49,6.85,6.85,0,0,1,1.35-.91.07.07,0,0,1,.06,0c2.31.08,4.3,6,4.38,6.26a.11.11,0,0,1,0,.11A.12.12,0,0,1,16.47,12.66Zm-.2-.25h0c-.34-1-2.14-5.81-4.07-5.93-.27.14-2.41,1.31-2.66,3C10.15,9.49,12.3,9.61,16.27,12.41Z"/><path class="cls-17" d="M13.24,6.8a5.63,5.63,0,0,1,.51.67l.33.52c.13.21.26.42.37.64a4.88,4.88,0,0,1,.32.7,1.45,1.45,0,0,1,.11.62.45.45,0,0,1-.1.27.22.22,0,0,1-.24,0,1.08,1.08,0,0,1-.29-.18L14,9.84l-.37-.28-.41-.3a3.1,3.1,0,0,0-.77-.39l.34.29a10.57,10.57,0,0,1,1.39,1.45,0,0,0,0,1,0,.05l-1-.46a9.25,9.25,0,0,0-2-.66,3.45,3.45,0,0,0-1.63.08v0s2.17-.42,6.81,2.87h.24S15,8.22,13.24,6.8Z"/><path class="cls-16" d="M23.61,9.66a9.71,9.71,0,0,1-6.8,2.87C21.45,9.24,23.61,9.66,23.61,9.66Z"/><path class="cls-14" d="M16.81,12.65a.13.13,0,0,1-.12-.08.13.13,0,0,1,0-.14c4.63-3.28,6.81-2.9,6.9-2.89a.14.14,0,0,1,.09.08.16.16,0,0,1,0,.12A7.34,7.34,0,0,1,22,11.11a11.12,11.12,0,0,1-5.2,1.54Zm6.54-2.88c-.66,0-2.66.24-6.11,2.61A9.92,9.92,0,0,0,23.35,9.77Z"/><path class="cls-13" d="M20.85,6.36s2.6,1.29,2.76,3.3c0,0-2.16-.42-6.8,2.87h-.24S18.59,6.44,20.85,6.36Z"/><path class="cls-14" d="M16.57,12.66a.11.11,0,0,1-.09-.05.09.09,0,0,1,0-.11c.08-.25,2.07-6.18,4.38-6.26a.07.07,0,0,1,.06,0,6.85,6.85,0,0,1,1.35.91,3.78,3.78,0,0,1,1.48,2.49.1.1,0,0,1,0,.1.09.09,0,0,1-.1,0s-2.18-.36-6.71,2.85l-.07,0h-.24Zm4.25-6.18C20,6.53,19,7.59,18,9.53a24.21,24.21,0,0,0-1.22,2.88h0c4-2.8,6.12-2.92,6.71-2.88C23.23,7.79,21.09,6.62,20.82,6.48Z"/><path class="cls-17" d="M23.4,9.29a5.57,5.57,0,0,0-1.08,0,8.12,8.12,0,0,0-1.1.17A5.46,5.46,0,0,0,20,9.91l-.28.16a2.2,2.2,0,0,1-.25.17.94.94,0,0,1-.53.2s0,0,0,0a1,1,0,0,1,.12-.6,2.68,2.68,0,0,1,.39-.56,6.88,6.88,0,0,1,.54-.54,9,9,0,0,1,.83-.67,4.65,4.65,0,0,0-.63.32,6,6,0,0,0-1.18,1c-.36.39-.68.8-1,1.22a0,0,0,0,1-.05,0,3.69,3.69,0,0,1,.3-1.27,11.53,11.53,0,0,1,.52-1.06c.09-.16.18-.33.28-.48s.22-.3.34-.45.33-.37.5-.55c-1.81,1.39-3.26,5.77-3.26,5.77h.24c4.64-3.29,6.8-2.87,6.8-2.87a2,2,0,0,0-.05-.35Z"/><path class="cls-13" d="M16.2,11.71a4.71,4.71,0,0,0-3.39,1.9c-1.29,1.81-2.1,6.08-2.1,6.08L12.12,19,13,20.14s1.11-7.48,3.41-7.92Z"/><path class="cls-14" d="M13,20.26a.12.12,0,0,1-.09-.05l-.83-1.05-1.32.64a.12.12,0,0,1-.13,0,.13.13,0,0,1-.05-.12c0-.18.83-4.32,2.12-6.13a4.75,4.75,0,0,1,3.48-1.95.14.14,0,0,1,.12.07l.22.51a.17.17,0,0,1,0,.1.11.11,0,0,1-.09.06c-.89.18-1.74,1.57-2.47,4a31.3,31.3,0,0,0-.84,3.78.12.12,0,0,1-.09.1Zm-.89-1.37a.12.12,0,0,1,.1,0l.72.91c.22-1.35,1.28-7.06,3.31-7.71l-.13-.29a4.61,4.61,0,0,0-3.21,1.84c-1.09,1.52-1.84,4.87-2,5.8l1.19-.58Z"/><path class="cls-13" d="M16.2,11.71a4.71,4.71,0,0,0-3.39,1.9c-1.29,1.81-2.1,6.08-2.1,6.08L12.12,19,13,20.14s1.11-7.48,3.41-7.92Z"/><path class="cls-14" d="M13,20.26a.12.12,0,0,1-.09-.05l-.83-1.05-1.32.64a.12.12,0,0,1-.13,0,.13.13,0,0,1-.05-.12c0-.18.83-4.32,2.12-6.13a4.75,4.75,0,0,1,3.48-1.95.14.14,0,0,1,.12.07l.22.51a.17.17,0,0,1,0,.1.11.11,0,0,1-.09.06c-.89.18-1.74,1.57-2.47,4a31.3,31.3,0,0,0-.84,3.78.12.12,0,0,1-.09.1Zm-.89-1.37a.12.12,0,0,1,.1,0l.72.91c.22-1.35,1.28-7.06,3.31-7.71l-.13-.29a4.61,4.61,0,0,0-3.21,1.84c-1.09,1.52-1.84,4.87-2,5.8l1.19-.58Z"/><path class="cls-17" d="M12,18.5a2.77,2.77,0,0,0-.37.22,4.84,4.84,0,0,0-.7.57l-.22.24a1.47,1.47,0,0,1,0,.16L12.12,19l.19.23A5.05,5.05,0,0,1,12,18.5Z"/><path class="cls-17" d="M16.2,11.71a4.71,4.71,0,0,0-3.39,1.9,5.59,5.59,0,0,0-.48.81,8.4,8.4,0,0,1,.78-.8,4.32,4.32,0,0,1,2-1.08s0,0,0,0l-.13.19a10.86,10.86,0,0,0-.87,1.52,9.24,9.24,0,0,0-.57,1.6,11.89,11.89,0,0,0-.33,1.66,16.37,16.37,0,0,0-.11,1.72v0c.36-2,1.44-6.73,3.26-7.08Z"/><path class="cls-13" d="M16.86,11.71a4.71,4.71,0,0,1,3.39,1.9c1.29,1.81,2.09,6.08,2.09,6.08L20.93,19l-.88,1.13s-1.11-7.48-3.41-7.92Z"/><path class="cls-14" d="M20.05,20.26h0a.11.11,0,0,1-.08-.1,36.53,36.53,0,0,0-.84-3.78c-.73-2.47-1.58-3.86-2.47-4a.11.11,0,0,1-.09-.06.12.12,0,0,1,0-.1l.22-.51a.14.14,0,0,1,.12-.07,4.76,4.76,0,0,1,3.48,1.95c1.29,1.81,2.08,5.95,2.11,6.13a.13.13,0,0,1,0,.12.12.12,0,0,1-.13,0L21,19.16l-.83,1.05A.12.12,0,0,1,20.05,20.26Zm-3.24-8.13c2,.65,3.09,6.36,3.31,7.71l.72-.91a.12.12,0,0,1,.15,0l1.19.58c-.2-.93-.95-4.28-2-5.8a4.61,4.61,0,0,0-3.21-1.84Z"/><path class="cls-17" d="M17.86,12.73a.66.66,0,0,1,.64.14,3.34,3.34,0,0,1,.66.64c.18.21.34.43.5.65l.29.38c.13.19.27.39.39.58a14.24,14.24,0,0,1,.71,1.25,12.88,12.88,0,0,1,.58,1.32c.18.45.33.91.47,1.37l.15.59.09,0s-.8-4.27-2.09-6.08a4.71,4.71,0,0,0-3.39-1.9l-.22.51A1.86,1.86,0,0,1,17.7,13,.36.36,0,0,1,17.86,12.73Z"/><path class="cls-17" d="M20.66,18.47c-.08.11-.16.24-.23.36a6.28,6.28,0,0,0-.43,1c0,.2.05.31.05.31L20.93,19l.64.31A8.11,8.11,0,0,0,20.66,18.47Z"/><path class="cls-13" d="M16.73,12.94a.71.71,0,0,0,.48-.25.84.84,0,0,0,.23-.6,1,1,0,0,0-.17-.64.35.35,0,0,0-.11-.1l-.12,0a1,1,0,0,0-.3,0,1.59,1.59,0,0,0-.63.16.83.83,0,0,0-.36.31,1.15,1.15,0,0,0,.14.67A1,1,0,0,0,16.73,12.94Z"/><path class="cls-14" d="M16.68,13.07a1.08,1.08,0,0,1-.89-.61,1.22,1.22,0,0,1-.16-.74.05.05,0,0,1,0,0,.87.87,0,0,1,.41-.36,1.75,1.75,0,0,1,.68-.17.87.87,0,0,1,.33,0l.15.06a.44.44,0,0,1,.14.13,1.12,1.12,0,0,1,.2.72,1,1,0,0,1-.26.69.86.86,0,0,1-.57.28Zm-.81-1.3a1,1,0,0,0,.13.58.83.83,0,0,0,.72.47h0a.6.6,0,0,0,.4-.21.76.76,0,0,0,.2-.52.88.88,0,0,0-.15-.57l-.07-.07-.09,0a.72.72,0,0,0-.26,0,1.56,1.56,0,0,0-.59.15A.79.79,0,0,0,15.87,11.77Z"/><path class="cls-18" d="M12.07,7.58a.35.35,0,0,0-.23-.26,1,1,0,0,0-.81.17,1.66,1.66,0,0,0-.55.47,1.4,1.4,0,0,0-.28.51.5.5,0,0,0,0,.12.41.41,0,0,0,.16.34.5.5,0,0,0,.43.05,1.77,1.77,0,0,0,.69-.4A2.07,2.07,0,0,0,12,7.94.5.5,0,0,0,12.07,7.58Z"/><path class="cls-18" d="M12,9s0,0-.06,0h-.09l0,0-.06,0,0,0,0,.07v0a0,0,0,0,0,0,0v0h.13l.06,0h0s0,0,0,0l0-.05h0L12,9A.06.06,0,0,0,12,9Z"/><path class="cls-18" d="M21.09,7.05a.32.32,0,0,0-.27-.21A1.42,1.42,0,0,0,20,7a1,1,0,0,0-.59.67.36.36,0,0,0,.06.32.27.27,0,0,0,.14.08l.12,0a1.36,1.36,0,0,0,.75-.24A1.64,1.64,0,0,0,21,7.41.46.46,0,0,0,21.09,7.05Z"/><path class="cls-18" d="M19.14,8.53l0,0h0l0,0a.11.11,0,0,0-.08,0,.38.38,0,0,0-.11.11.15.15,0,0,0,0,.07h0v0h0v0s0,0,0,0a.08.08,0,0,0,.07,0H19l0,0a.52.52,0,0,0,.1-.11l0-.07A0,0,0,0,0,19.14,8.53Z"/><g class="cls-19"><path class="cls-20" d="M12.77,14.74Z"/><path class="cls-20" d="M13,14.68a.21.21,0,0,0-.24-.14.51.51,0,0,0-.29.19,2.34,2.34,0,0,0-.43.79,1.42,1.42,0,0,0-.08.4.37.37,0,0,0,0,.21l0,.05a.23.23,0,0,0,.22.18.43.43,0,0,0,.29-.15,2.2,2.2,0,0,0,.41-.77A3.48,3.48,0,0,0,13,15,.7.7,0,0,0,13,14.68Zm-.21.4v-.16a.34.34,0,0,0-.05-.14l0,0h0a.3.3,0,0,1,0,.19A.71.71,0,0,1,12.81,15.08Z"/></g><path class="cls-18" d="M11.91,17h0s0,0,0,0,0,0,0,0,0,0,0,0h-.05a.05.05,0,0,0,0,0h0v0a.05.05,0,0,0,0,0s0,0,0,0h.15v0Z"/><path class="cls-18" d="M19.9,15.91a.08.08,0,0,0,0,0s0,0,0,0l-.06,0h0l-.07,0a.12.12,0,0,0-.11.08.14.14,0,0,0,0,.07s0,0,0,.06a.18.18,0,0,0,0,.1.24.24,0,0,0,.09.08.06.06,0,0,0,.06,0l.06,0a.23.23,0,0,0,.1-.12.14.14,0,0,0,0-.06A.13.13,0,0,0,19.9,15.91Z"/></g></g></g></svg>