<svg xmlns="http://www.w3.org/2000/svg" viewBox="0 0 100 100"><defs><style>.cls-1{isolation:isolate;}.cls-2,.cls-4{fill:#98a8b8;}.cls-3{fill:#6d7f89;}.cls-4,.cls-9{mix-blend-mode:multiply;}.cls-5,.cls-7,.cls-9{fill:#e53625;}.cls-6{fill:#721011;}.cls-10,.cls-11,.cls-7{mix-blend-mode:screen;}.cls-8{fill:#ab2818;}.cls-10,.cls-12{fill:#fff;}.cls-10,.cls-11{opacity:0.87;}.cls-13{fill:none;}</style></defs><g class="cls-1"><g id="Capa_2" data-name="Capa 2"><g id="Layer_1" data-name="Layer 1"><polygon class="cls-2" points="84.19 39.26 50 40.24 15.81 39.26 4.47 41.53 11.27 96.32 15.81 96.32 84.19 96.32 88.73 96.32 95.53 41.53 84.19 39.26"/><path class="cls-3" d="M88.73,96.89H11.27a.56.56,0,0,1-.56-.5L3.91,41.6A.57.57,0,0,1,4.36,41L15.69,38.7h.13l34.18,1,34.18-1h.13L95.64,41a.57.57,0,0,1,.45.63l-6.8,54.79A.56.56,0,0,1,88.73,96.89Zm-77-1.14H88.23L94.9,42,84.15,39.83,50,40.8h0l-34.13-1L5.1,42Z"/><polygon class="cls-4" points="94.52 49.7 95.53 41.53 84.19 39.26 50 40.24 15.81 39.26 4.47 41.53 5.49 49.7 94.52 49.7"/><path class="cls-4" d="M55.28,96.32c.19-2.21,2-48.85,2.53-56.31L50,40.24,42,40c-.1,2.68-.11,5.37-.08,8.05.06,5,.91,42.09.88,48.26Z"/><path class="cls-4" d="M84.19,39.26,50,40.24l-34.19-1L4.47,41.53l6.8,54.79H88.73l6.8-54.79ZM75.23,91H14L8.63,43l9-2,27,.86,27-.86,8.95,2Z"/><polygon class="cls-2" points="72.01 31.52 62.37 31.52 37.63 31.52 11.37 31.52 1.73 31.52 1.73 46.25 27.99 46.25 72.01 46.25 98.27 46.25 98.27 31.52 72.01 31.52"/><path class="cls-3" d="M98.27,46.82H1.73a.57.57,0,0,1-.57-.57V31.52A.57.57,0,0,1,1.73,31H98.27a.57.57,0,0,1,.57.57V46.25A.57.57,0,0,1,98.27,46.82Zm-96-1.14H97.7V32.09H2.3Z"/><path class="cls-4" d="M57.81,41.06a82,82,0,0,1,.44-9.54H42.14c.09,1.73.13,3.47.15,5.2,0,2,0,4.06,0,6.09,0,1.15,0,2.3,0,3.44H57.93C57.87,44.52,57.82,42.79,57.81,41.06Z"/><path class="cls-4" d="M72,31.52H1.73V46.25H98.27V31.52ZM84.57,43H4.86V34H84.57Z"/><rect class="cls-5" x="45.84" y="30.38" width="6.61" height="67.63"/><path class="cls-6" d="M52.46,98.59H45.84a.58.58,0,0,1-.57-.57V30.38a.58.58,0,0,1,.57-.57h6.62a.58.58,0,0,1,.57.57V98A.58.58,0,0,1,52.46,98.59Zm-6.05-1.14h5.48V31H46.41Z"/><path class="cls-7" d="M52.46,42.85V40.34l-.87.78c-1.94,1.73-3.89,3.45-5.73,5.28l0,0v2.4C48,46.75,50.19,44.76,52.46,42.85Z"/><path class="cls-7" d="M46.55,80.87c1.7-1.85,3.44-3.67,5.2-5.46l.71-.72V68.84l-.92.93c-1.69,1.71-3.35,3.45-5,5.2l-.71.75v5.94Z"/><path class="cls-8" d="M15.62,17.47S25.85,29.78,47.51,30.9C25.76,15.5,15.62,17.47,15.62,17.47Z"/><path class="cls-6" d="M47.51,31.47h0a51.63,51.63,0,0,1-24.34-7.22,34.2,34.2,0,0,1-8-6.41.57.57,0,0,1-.1-.56.55.55,0,0,1,.43-.36c.42-.09,10.63-1.85,32.33,13.52a.57.57,0,0,1-.33,1ZM16.87,18C19.56,20.65,29,28.74,45.49,30.19,29.33,19.11,20,18,16.87,18Z"/><path class="cls-5" d="M28.59,2s-12.22,6-13,15.49c0,0,10.14-2,31.89,13.43l1.1.05S39.17,2.36,28.59,2Z"/><path class="cls-6" d="M48.61,31.52h0l-1.12-.05a.54.54,0,0,1-.3-.1C26,16.34,15.82,18,15.72,18a.53.53,0,0,1-.48-.13.59.59,0,0,1-.19-.47c.32-4,2.73-8,7-11.68a34.48,34.48,0,0,1,6.32-4.28.6.6,0,0,1,.27-.06c10.85.39,20.15,28.18,20.54,29.36a.57.57,0,0,1-.54.75Zm-.91-1.18h.1c-1.59-4.54-10-27.23-19.09-27.79-1.25.66-11.28,6.15-12.45,14.27C19,16.67,29.12,17.21,47.7,30.34Z"/><path class="cls-9" d="M33.52,4.08A30.21,30.21,0,0,1,35.9,7.2c.52.79,1,1.61,1.52,2.42.62,1,1.22,2,1.77,3a23.94,23.94,0,0,1,1.48,3.26,7.15,7.15,0,0,1,.51,2.89,2.12,2.12,0,0,1-.47,1.28,1,1,0,0,1-1.12.19,4.66,4.66,0,0,1-1.35-.85c-.44-.36-.86-.74-1.3-1.11s-1.18-.9-1.76-1.34-1.25-.94-1.9-1.38a14,14,0,0,0-3.62-1.84c.53.46,1.05.91,1.57,1.38a49.53,49.53,0,0,1,6.55,6.8c.1.12-.08.24-.19.19C36,21.41,34.46,20.68,32.88,20a42.08,42.08,0,0,0-9.59-3.08,16.22,16.22,0,0,0-7.65.35,1.5,1.5,0,0,0,0,.2s10.14-2,31.89,13.43l1.1.05S41.93,10.73,33.52,4.08Z"/><path class="cls-8" d="M82.12,17.47S71.88,29.78,50.22,30.9C72,15.5,82.12,17.47,82.12,17.47Z"/><path class="cls-6" d="M50.22,31.47a.57.57,0,0,1-.54-.38.58.58,0,0,1,.21-.65C71.59,15.07,81.8,16.83,82.22,16.92a.55.55,0,0,1,.43.36.57.57,0,0,1-.1.56,33.92,33.92,0,0,1-8,6.41,51.63,51.63,0,0,1-24.34,7.22ZM80.87,18c-3.09,0-12.46,1.14-28.63,12.22C68.78,28.74,78.18,20.65,80.87,18Z"/><path class="cls-5" d="M69.14,2s12.22,6,13,15.49c0,0-10.15-2-31.9,13.43l-1.1.05S58.56,2.36,69.14,2Z"/><path class="cls-6" d="M49.12,31.52a.57.57,0,0,1-.54-.75c.39-1.18,9.69-29,20.54-29.36a.67.67,0,0,1,.28.06,35.25,35.25,0,0,1,6.32,4.28c4.23,3.63,6.64,7.66,7,11.68A.55.55,0,0,1,82,18c-.1,0-10.24-1.69-31.46,13.34a.54.54,0,0,1-.3.1l-1.11.05ZM69,2.56c-4.07.26-8.68,5.19-13.34,14.3a113.67,113.67,0,0,0-5.75,13.49H50C68.62,17.21,78.74,16.67,81.47,16.83,80.3,8.71,70.27,3.22,69,2.56Z"/><path class="cls-9" d="M81.12,15.72a24.35,24.35,0,0,0-5.05.06,39.19,39.19,0,0,0-5.16.78A25.2,25.2,0,0,0,65,18.65a14.1,14.1,0,0,0-1.3.75c-.39.26-.76.54-1.15.8a4.68,4.68,0,0,1-2.49.94.14.14,0,0,1-.14-.1,4.45,4.45,0,0,1,.55-2.83,12.88,12.88,0,0,1,1.84-2.62,28.65,28.65,0,0,1,2.52-2.53c1.24-1.11,2.54-2.14,3.87-3.14a20,20,0,0,0-2.91,1.5,27,27,0,0,0-5.54,4.73c-1.68,1.82-3.21,3.77-4.75,5.71-.08.1-.25,0-.25-.1a17.64,17.64,0,0,1,1.43-5.93,42.21,42.21,0,0,1,2.44-5c.43-.77.84-1.54,1.33-2.28A24.11,24.11,0,0,1,62,6.51c.75-.89,1.55-1.74,2.36-2.58-8.5,6.5-15.28,27-15.28,27l1.1-.05C72,15.5,82.12,17.47,82.12,17.47a13.32,13.32,0,0,0-.26-1.66C81.61,15.78,81.37,15.74,81.12,15.72Z"/><path class="cls-5" d="M47.36,27.08A22.07,22.07,0,0,0,31.49,36c-6,8.5-9.83,28.52-9.83,28.52l6.61-3.21,4.16,5.29s5.2-35,16-37.12Z"/><path class="cls-6" d="M32.43,67.13a.58.58,0,0,1-.45-.22L28.11,62l-6.2,3a.57.57,0,0,1-.59-.06.58.58,0,0,1-.22-.56C21.26,63.56,25,44.13,31,35.63a22.41,22.41,0,0,1,16.31-9.12.57.57,0,0,1,.55.34l1,2.36a.6.6,0,0,1,0,.49.56.56,0,0,1-.4.3c-4.18.8-8.18,7.35-11.58,18.93A153.1,153.1,0,0,0,33,66.65a.56.56,0,0,1-.41.46ZM28.27,60.7a.58.58,0,0,1,.45.22l3.35,4.26c1-6.34,6-33.1,15.53-36.13L47,27.68c-1.84.18-9.91,1.38-15,8.61s-8.61,22.86-9.5,27.18L28,60.76A.5.5,0,0,1,28.27,60.7Z"/><path class="cls-5" d="M47.36,27.08A22.07,22.07,0,0,0,31.49,36c-6,8.5-9.83,28.52-9.83,28.52l6.61-3.21,4.16,5.29s5.2-35,16-37.12Z"/><path class="cls-6" d="M32.43,67.13a.58.58,0,0,1-.45-.22L28.11,62l-6.2,3a.57.57,0,0,1-.59-.06.58.58,0,0,1-.22-.56C21.26,63.56,25,44.13,31,35.63a22.41,22.41,0,0,1,16.31-9.12.57.57,0,0,1,.55.34l1,2.36a.6.6,0,0,1,0,.49.56.56,0,0,1-.4.3c-4.18.8-8.18,7.35-11.58,18.93A153.1,153.1,0,0,0,33,66.65a.56.56,0,0,1-.41.46ZM28.27,60.7a.58.58,0,0,1,.45.22l3.35,4.26c1-6.34,6-33.1,15.53-36.13L47,27.68c-1.84.18-9.91,1.38-15,8.61s-8.61,22.86-9.5,27.18L28,60.76A.5.5,0,0,1,28.27,60.7Z"/><path class="cls-9" d="M27.87,58.87c-.6.32-1.18.68-1.75,1.06a24.11,24.11,0,0,0-3.27,2.69c-.36.35-.7.71-1,1.08-.11.5-.16.78-.16.78l6.61-3.21.86,1.09A28.45,28.45,0,0,1,27.87,58.87Z"/><path class="cls-9" d="M47.36,27.08A22.07,22.07,0,0,0,31.49,36a28.31,28.31,0,0,0-2.24,3.82A36.84,36.84,0,0,1,32.9,36a20.27,20.27,0,0,1,9.51-5.1c.1,0,.24.1.16.21L42,32a46.85,46.85,0,0,0-4.09,7.15,47.53,47.53,0,0,0-2.69,7.5,57,57,0,0,0-1.51,7.77,77.36,77.36,0,0,0-.55,8.05.81.81,0,0,0,0,.16c1.72-9.21,6.76-31.56,15.29-33.21Z"/><path class="cls-5" d="M50.47,27.08A22.07,22.07,0,0,1,66.34,36c6,8.5,9.83,28.52,9.83,28.52l-6.62-3.21L65.4,66.56s-5.2-35-16-37.12Z"/><path class="cls-6" d="M65.4,67.13l-.15,0a.58.58,0,0,1-.42-.46A148.38,148.38,0,0,0,60.9,48.93C57.51,37.35,53.5,30.8,49.33,30a.58.58,0,0,1-.42-.79l1-2.36a.55.55,0,0,1,.54-.34,22.41,22.41,0,0,1,16.32,9.12c6,8.5,9.76,27.93,9.91,28.75a.56.56,0,0,1-.8.62l-6.2-3-3.88,4.93A.54.54,0,0,1,65.4,67.13ZM50.22,29.05c9.52,3,14.49,29.79,15.53,36.13l3.36-4.26a.56.56,0,0,1,.69-.16l5.58,2.71c-.9-4.32-4.41-20-9.5-27.18a21.66,21.66,0,0,0-15-8.61Z"/><path class="cls-9" d="M55.16,31.87c1-.55,2.18.05,3,.62a16.23,16.23,0,0,1,3.11,3c.83,1,1.59,2,2.35,3,.44.6.89,1.18,1.32,1.77q1,1.35,1.86,2.73a64.89,64.89,0,0,1,3.32,5.86q1.52,3,2.73,6.17c.82,2.11,1.54,4.26,2.17,6.43.26.91.5,1.83.73,2.75l.43.2s-3.78-20-9.83-28.52a22.07,22.07,0,0,0-15.87-8.88l-1,2.36a8.81,8.81,0,0,1,5,3.54A1.53,1.53,0,0,1,55.16,31.87Z"/><path class="cls-9" d="M68.29,58.74a15.89,15.89,0,0,0-1.08,1.71,29.17,29.17,0,0,0-2,4.69c.15.9.23,1.42.23,1.42l4.15-5.29,3,1.44A39.73,39.73,0,0,0,68.29,58.74Z"/><path class="cls-5" d="M49.84,32.85a3.53,3.53,0,0,0,2.28-1.18,4.22,4.22,0,0,0,1.08-2.82,4.67,4.67,0,0,0-.83-3,1.83,1.83,0,0,0-.49-.47,2.83,2.83,0,0,0-.57-.23A5,5,0,0,0,49.92,25a7.34,7.34,0,0,0-3,.76,3.83,3.83,0,0,0-1.68,1.43,5.19,5.19,0,0,0,.66,3.14A4.44,4.44,0,0,0,49.84,32.85Z"/><path class="cls-6" d="M49.62,33.43a5.16,5.16,0,0,1-4.19-2.82,5.72,5.72,0,0,1-.72-3.49.58.58,0,0,1,.07-.21,4.28,4.28,0,0,1,1.92-1.66,7.77,7.77,0,0,1,3.2-.81,5.08,5.08,0,0,1,1.56.15,3.67,3.67,0,0,1,.69.28,2.38,2.38,0,0,1,.67.62,5.19,5.19,0,0,1,1,3.38,4.75,4.75,0,0,1-1.24,3.2,4.09,4.09,0,0,1-2.66,1.35Zm-3.79-6.05a4.59,4.59,0,0,0,.59,2.67,3.9,3.9,0,0,0,3.38,2.23h0a3,3,0,0,0,1.9-1,3.58,3.58,0,0,0,.93-2.45,4.24,4.24,0,0,0-.7-2.64,1.71,1.71,0,0,0-.33-.33,3.12,3.12,0,0,0-.44-.17,4.5,4.5,0,0,0-1.22-.12,6.81,6.81,0,0,0-2.73.7A3.36,3.36,0,0,0,45.83,27.38Z"/><path class="cls-10" d="M28,7.74A1.68,1.68,0,0,0,27,6.52c-1.23-.49-2.75.19-3.81.78a8.2,8.2,0,0,0-2.58,2.18,6,6,0,0,0-1.3,2.39,2.2,2.2,0,0,0-.1.57,1.86,1.86,0,0,0,.75,1.6,2.46,2.46,0,0,0,2,.23,8.07,8.07,0,0,0,3.21-1.87,10.08,10.08,0,0,0,2.56-3A2.62,2.62,0,0,0,28,7.74Z"/><path class="cls-10" d="M27.72,14.23a.34.34,0,0,0-.26-.12,2,2,0,0,0-.35,0l-.09,0-.2.07a1.15,1.15,0,0,0-.29.2c-.05.05-.09.11-.14.17a2,2,0,0,0-.17.32.52.52,0,0,1,0,.11.2.2,0,0,0,0,.15.15.15,0,0,0,.06.09.25.25,0,0,0,.14.08.86.86,0,0,0,.23.05.55.55,0,0,0,.22,0c.1,0,.19-.06.29-.09l.12-.06a.42.42,0,0,0,.15-.11.5.5,0,0,0,.13-.25.06.06,0,0,0,0,0,1.43,1.43,0,0,0,.16-.3A.34.34,0,0,0,27.72,14.23Z"/><path class="cls-10" d="M70.3,5.26a1.47,1.47,0,0,0-1.29-1,6.5,6.5,0,0,0-4,.8A4.87,4.87,0,0,0,62.24,8.2a1.75,1.75,0,0,0,.26,1.48,1.25,1.25,0,0,0,.64.36,1.88,1.88,0,0,0,.58.13A6.44,6.44,0,0,0,67.25,9,7.59,7.59,0,0,0,69.86,6.9,2.16,2.16,0,0,0,70.3,5.26Z"/><path class="cls-10" d="M61.16,12.15a.52.52,0,0,0-.1-.11L61,12a.34.34,0,0,0-.2-.06.6.6,0,0,0-.36.12,1.65,1.65,0,0,0-.51.54.59.59,0,0,0-.14.31l0,.05,0,0h0l0,.05,0,.09a.25.25,0,0,0,0,.12.18.18,0,0,0,.09.16.48.48,0,0,0,.33.08.94.94,0,0,0,.29-.06l.19-.11a1.35,1.35,0,0,0,.46-.49,2.2,2.2,0,0,0,.15-.31A.33.33,0,0,0,61.16,12.15Z"/><g class="cls-11"><path class="cls-12" d="M31.28,41.29h0C31.23,41.26,31.27,41.28,31.28,41.29Z"/><path class="cls-12" d="M32.46,41a1,1,0,0,0-1.11-.65,2.37,2.37,0,0,0-1.35.88A10.76,10.76,0,0,0,28,45a7.13,7.13,0,0,0-.42,1.87,2.21,2.21,0,0,0,.14,1,1.6,1.6,0,0,0,.05.21,1.16,1.16,0,0,0,1,.87,2,2,0,0,0,1.37-.74,9.7,9.7,0,0,0,1.91-3.6,10.49,10.49,0,0,0,.47-2A3.21,3.21,0,0,0,32.46,41Zm-1,1.87a3.66,3.66,0,0,0,0-.74,1.41,1.41,0,0,0-.23-.65.35.35,0,0,0-.15-.12l.06,0h0l.05,0s0,0,0,0h0s0,0,0,0l0,0a1.3,1.3,0,0,1,.2.87A4.89,4.89,0,0,1,31.48,42.85Z"/></g><path class="cls-10" d="M27.25,51.64v-.07a.15.15,0,0,0,0-.09.29.29,0,0,0-.09-.09l-.06,0h-.19a.37.37,0,0,0-.18.08l-.09.07h0l-.06.08a.35.35,0,0,0-.06.17.23.23,0,0,0,0,.14.12.12,0,0,0,0,.05.24.24,0,0,0,.14,0,.28.28,0,0,0,.13,0A.27.27,0,0,0,27,52l0,0h0l.09,0,.05,0a.17.17,0,0,0,.06-.06s0,0,0-.05a.1.1,0,0,0,0-.07Z"/><path class="cls-10" d="M64.72,46.77a.91.91,0,0,0-.11-.22.68.68,0,0,0-.2-.18.93.93,0,0,0-.27-.12H64l0,0a.65.65,0,0,0-.3-.09.55.55,0,0,0-.52.34,1.12,1.12,0,0,0-.12.35,1.22,1.22,0,0,0,.18.74,1.38,1.38,0,0,0,.42.38.46.46,0,0,0,.28.06.6.6,0,0,0,.32-.12,1.37,1.37,0,0,0,.47-.57.63.63,0,0,0,.06-.27A.78.78,0,0,0,64.72,46.77Z"/><rect class="cls-13" width="100" height="100"/></g></g></g></svg>